<svg width="518" height="518" viewBox="0 0 518 518" fill="none" xmlns="http://www.w3.org/2000/svg">
<path d="M126.203 173C126.155 173 126.107 172.99 126.063 172.968C125.136 172.506 124.208 172.042 123.279 171.577C123.151 171.513 123.11 171.375 123.188 171.269C123.265 171.163 123.432 171.13 123.56 171.194C124.489 171.659 125.417 172.122 126.343 172.584C126.472 172.648 126.513 172.786 126.436 172.892C126.384 172.961 126.295 173 126.203 173ZM120.64 170.213C120.592 170.213 120.543 170.202 120.499 170.18C119.574 169.713 118.649 169.243 117.726 168.77C117.599 168.705 117.56 168.567 117.639 168.462C117.717 168.357 117.884 168.324 118.012 168.39C118.934 168.862 119.857 169.331 120.782 169.797C120.909 169.862 120.95 170 120.872 170.105C120.82 170.175 120.731 170.213 120.64 170.213ZM115.109 167.38C115.06 167.38 115.01 167.368 114.965 167.345C114.047 166.867 113.131 166.385 112.219 165.898C112.093 165.831 112.057 165.693 112.138 165.589C112.219 165.485 112.387 165.455 112.513 165.522C113.423 166.007 114.337 166.489 115.254 166.966C115.381 167.032 115.419 167.17 115.339 167.275C115.287 167.343 115.199 167.38 115.109 167.38ZM109.641 164.464C109.59 164.464 109.538 164.452 109.492 164.427C108.586 163.931 107.684 163.43 106.788 162.924C106.664 162.854 106.633 162.715 106.717 162.613C106.802 162.511 106.97 162.485 107.094 162.554C107.988 163.059 108.887 163.558 109.791 164.053C109.916 164.121 109.95 164.26 109.867 164.363C109.815 164.429 109.729 164.464 109.641 164.464ZM104.268 161.428C104.214 161.428 104.159 161.415 104.112 161.387C103.224 160.868 102.343 160.343 101.469 159.811C101.348 159.737 101.322 159.597 101.411 159.498C101.5 159.398 101.669 159.377 101.79 159.45C102.662 159.981 103.54 160.504 104.425 161.022C104.547 161.093 104.576 161.233 104.49 161.334C104.437 161.396 104.353 161.428 104.268 161.428ZM99.0294 158.237C98.9717 158.237 98.9137 158.222 98.8642 158.191C97.9915 157.636 97.1299 157.075 96.3035 156.523C96.187 156.445 96.1688 156.304 96.2628 156.208C96.357 156.112 96.5275 156.097 96.644 156.174C97.4672 156.724 98.3257 157.283 99.1952 157.836C99.3138 157.911 99.3358 158.052 99.2444 158.15C99.1912 158.207 99.1107 158.237 99.0294 158.237ZM399.21 157.018C399.062 157.018 398.94 156.919 398.939 156.795C398.938 156.671 399.059 156.57 399.209 156.57C400.284 156.563 401.374 156.536 402.448 156.49C402.602 156.482 402.725 156.578 402.733 156.702C402.741 156.825 402.626 156.931 402.477 156.937C401.394 156.984 400.296 157.011 399.212 157.018C399.212 157.018 399.211 157.018 399.21 157.018ZM395.958 156.977C395.954 156.977 395.951 156.977 395.947 156.977C394.864 156.943 393.767 156.889 392.688 156.814C392.538 156.804 392.428 156.696 392.44 156.573C392.453 156.449 392.58 156.353 392.733 156.368C393.804 156.442 394.892 156.496 395.967 156.529C396.117 156.534 396.234 156.638 396.228 156.761C396.223 156.882 396.103 156.977 395.958 156.977ZM405.707 156.737C405.569 156.737 405.451 156.65 405.437 156.534C405.422 156.411 405.531 156.302 405.68 156.29C406.751 156.203 407.834 156.096 408.899 155.969C409.047 155.95 409.184 156.037 409.206 156.16C409.227 156.282 409.124 156.395 408.975 156.413C407.903 156.54 406.812 156.649 405.733 156.736C405.724 156.736 405.715 156.737 405.707 156.737ZM389.476 156.533C389.464 156.533 389.453 156.533 389.441 156.531C388.37 156.42 387.284 156.289 386.213 156.143C386.065 156.123 385.965 156.007 385.99 155.885C386.014 155.763 386.153 155.678 386.301 155.701C387.366 155.846 388.445 155.976 389.509 156.087C389.658 156.102 389.763 156.214 389.744 156.337C389.727 156.451 389.61 156.533 389.476 156.533ZM412.146 155.972C412.019 155.972 411.905 155.897 411.88 155.79C411.852 155.668 411.948 155.551 412.096 155.528C413.156 155.36 414.222 155.171 415.264 154.964C415.411 154.937 415.556 155.01 415.591 155.13C415.626 155.25 415.536 155.371 415.391 155.4C414.34 155.608 413.266 155.799 412.197 155.968C412.18 155.97 412.163 155.972 412.146 155.972ZM383.059 155.658C383.041 155.658 383.023 155.657 383.005 155.653C381.948 155.475 380.877 155.278 379.82 155.067C379.675 155.038 379.585 154.917 379.621 154.797C379.656 154.677 379.804 154.603 379.948 154.632C380.998 154.842 382.063 155.037 383.113 155.215C383.26 155.239 383.354 155.358 383.325 155.479C383.298 155.585 383.186 155.658 383.059 155.658ZM93.9685 154.857C93.9062 154.857 93.8438 154.839 93.7927 154.803C92.953 154.212 92.1277 153.615 91.3392 153.027C91.228 152.944 91.2193 152.803 91.3196 152.711C91.42 152.619 91.5915 152.612 91.7025 152.695C92.487 153.279 93.3086 153.874 94.1443 154.462C94.2584 154.542 94.2719 154.684 94.175 154.778C94.1212 154.83 94.045 154.857 93.9685 154.857ZM418.472 154.716C418.355 154.716 418.246 154.652 418.212 154.554C418.17 154.436 418.253 154.311 418.397 154.277C419.435 154.027 420.473 153.753 421.484 153.465C421.626 153.424 421.78 153.486 421.829 153.603C421.878 153.72 421.803 153.848 421.662 153.888C420.642 154.179 419.595 154.455 418.548 154.707C418.523 154.713 418.497 154.716 418.472 154.716ZM376.736 154.397C376.712 154.397 376.688 154.394 376.663 154.389C375.628 154.151 374.576 153.893 373.535 153.623C373.392 153.586 373.313 153.46 373.357 153.342C373.402 153.224 373.554 153.158 373.697 153.196C374.733 153.464 375.779 153.721 376.808 153.957C376.953 153.99 377.037 154.114 376.997 154.233C376.964 154.332 376.855 154.397 376.736 154.397ZM424.62 152.957C424.513 152.957 424.411 152.904 424.368 152.817C424.312 152.702 424.379 152.572 424.518 152.526C425.521 152.191 426.521 151.832 427.489 151.458C427.625 151.406 427.786 151.454 427.849 151.566C427.913 151.678 427.854 151.812 427.718 151.864C426.742 152.241 425.733 152.603 424.722 152.941C424.688 152.952 424.654 152.957 424.62 152.957ZM370.528 152.787C370.498 152.787 370.468 152.784 370.438 152.775C369.427 152.484 368.397 152.172 367.375 151.849C367.235 151.804 367.165 151.675 367.219 151.559C367.272 151.444 367.43 151.386 367.569 151.43C368.586 151.752 369.611 152.062 370.617 152.352C370.758 152.393 370.833 152.52 370.784 152.637C370.745 152.73 370.64 152.787 370.528 152.787ZM89.1384 151.254C89.0709 151.254 89.0033 151.233 88.9507 151.191C88.1584 150.563 87.3789 149.925 86.6341 149.293C86.5295 149.205 86.5316 149.063 86.6389 148.976C86.7461 148.89 86.9182 148.892 87.0223 148.98C87.7631 149.608 88.5381 150.243 89.3261 150.868C89.4341 150.954 89.4376 151.096 89.334 151.185C89.2808 151.231 89.2096 151.254 89.1384 151.254ZM364.45 150.866C364.415 150.866 364.38 150.861 364.346 150.849C363.357 150.509 362.35 150.15 361.352 149.781C361.215 149.731 361.154 149.598 361.215 149.485C361.276 149.372 361.436 149.321 361.573 149.372C362.567 149.739 363.57 150.097 364.554 150.436C364.693 150.483 364.758 150.614 364.701 150.728C364.657 150.815 364.557 150.866 364.45 150.866ZM430.514 150.682C430.417 150.682 430.323 150.639 430.274 150.564C430.204 150.455 430.253 150.319 430.385 150.261C431.338 149.839 432.283 149.392 433.196 148.932C433.324 148.867 433.491 148.901 433.569 149.006C433.647 149.112 433.606 149.25 433.479 149.314C432.557 149.779 431.603 150.231 430.641 150.656C430.6 150.674 430.557 150.682 430.514 150.682ZM358.51 148.671C358.47 148.671 358.431 148.664 358.393 148.649C357.429 148.268 356.445 147.867 355.469 147.457C355.335 147.4 355.282 147.266 355.35 147.155C355.417 147.045 355.58 147.001 355.714 147.057C356.687 147.466 357.667 147.865 358.627 148.244C358.762 148.298 358.819 148.432 358.754 148.543C358.708 148.624 358.611 148.671 358.51 148.671ZM436.063 147.88C435.977 147.88 435.893 147.846 435.84 147.783C435.754 147.682 435.785 147.542 435.908 147.471C436.795 146.962 437.669 146.427 438.508 145.879C438.626 145.803 438.796 145.819 438.889 145.916C438.981 146.013 438.961 146.154 438.844 146.231C437.997 146.784 437.113 147.325 436.217 147.839C436.17 147.867 436.116 147.88 436.063 147.88ZM84.5988 147.404C84.5251 147.404 84.4515 147.379 84.3981 147.33C83.6617 146.66 82.9394 145.977 82.251 145.3C82.1546 145.205 82.1694 145.064 82.2841 144.984C82.3987 144.905 82.5695 144.917 82.6661 145.012C83.3501 145.684 84.0679 146.363 84.7995 147.029C84.9001 147.121 84.8919 147.262 84.7809 147.345C84.729 147.384 84.6639 147.404 84.5988 147.404ZM352.707 146.235C352.664 146.235 352.62 146.227 352.579 146.209C351.622 145.784 350.67 145.351 349.724 144.909C349.593 144.848 349.547 144.711 349.621 144.604C349.695 144.496 349.86 144.458 349.99 144.519C350.934 144.959 351.882 145.391 352.835 145.814C352.967 145.872 353.017 146.008 352.946 146.117C352.897 146.193 352.804 146.235 352.707 146.235ZM441.163 144.548C441.089 144.548 441.015 144.523 440.961 144.473C440.861 144.381 440.871 144.24 440.982 144.157C441.785 143.561 442.57 142.939 443.317 142.307C443.422 142.219 443.593 142.217 443.7 142.303C443.807 142.39 443.809 142.532 443.705 142.62C442.95 143.259 442.156 143.888 441.344 144.49C441.293 144.529 441.228 144.548 441.163 144.548ZM347.04 143.592C346.993 143.592 346.945 143.582 346.902 143.561C345.967 143.104 345.037 142.64 344.112 142.168C343.985 142.103 343.945 141.965 344.024 141.86C344.103 141.755 344.269 141.721 344.397 141.787C345.319 142.257 346.246 142.72 347.178 143.175C347.307 143.238 347.349 143.375 347.273 143.482C347.223 143.553 347.132 143.592 347.04 143.592ZM80.4153 143.289C80.3342 143.289 80.254 143.259 80.2008 143.202C79.5343 142.492 78.8806 141.763 78.2573 141.037C78.1707 140.936 78.1993 140.796 78.3217 140.725C78.4432 140.652 78.6132 140.677 78.6995 140.778C79.3183 141.499 79.9678 142.222 80.6295 142.928C80.7211 143.026 80.6994 143.167 80.581 143.242C80.5318 143.274 80.4732 143.289 80.4153 143.289ZM341.501 140.77C341.451 140.77 341.4 140.758 341.355 140.734C340.44 140.25 339.531 139.759 338.627 139.262C338.502 139.194 338.468 139.055 338.551 138.952C338.634 138.848 338.802 138.82 338.927 138.889C339.828 139.384 340.735 139.874 341.647 140.357C341.773 140.424 341.81 140.563 341.729 140.667C341.678 140.734 341.59 140.77 341.501 140.77ZM445.704 140.704C445.641 140.704 445.579 140.686 445.528 140.651C445.414 140.57 445.4 140.429 445.497 140.335C446.196 139.659 446.873 138.956 447.511 138.245C447.6 138.146 447.771 138.126 447.89 138.199C448.011 138.272 448.036 138.413 447.947 138.512C447.301 139.231 446.616 139.942 445.91 140.626C445.856 140.678 445.78 140.704 445.704 140.704ZM76.6631 138.901C76.5733 138.901 76.4854 138.864 76.4338 138.797C75.8558 138.044 75.2923 137.264 74.7593 136.479C74.686 136.371 74.7326 136.234 74.8631 136.174C74.9931 136.114 75.1589 136.152 75.2322 136.26C75.7605 137.038 76.3189 137.811 76.8919 138.557C76.9721 138.662 76.9345 138.8 76.8082 138.866C76.7629 138.89 76.7129 138.901 76.6631 138.901ZM336.081 137.794C336.029 137.794 335.975 137.782 335.928 137.755C335.032 137.246 334.142 136.733 333.257 136.215C333.135 136.144 333.106 136.004 333.192 135.903C333.279 135.802 333.448 135.778 333.57 135.849C334.453 136.366 335.341 136.878 336.235 137.386C336.359 137.456 336.39 137.595 336.305 137.697C336.253 137.76 336.168 137.794 336.081 137.794ZM330.77 134.69C330.715 134.69 330.659 134.676 330.611 134.647C329.733 134.12 328.858 133.589 327.987 133.054C327.866 132.98 327.842 132.84 327.931 132.74C328.02 132.641 328.19 132.62 328.31 132.694C329.18 133.228 330.053 133.758 330.93 134.284C331.051 134.357 331.078 134.497 330.99 134.597C330.937 134.658 330.854 134.69 330.77 134.69ZM73.4804 134.215C73.3804 134.215 73.2842 134.17 73.2371 134.09C72.7579 133.288 72.2974 132.463 71.8682 131.639C71.8092 131.525 71.8727 131.393 72.0101 131.344C72.1473 131.296 72.3072 131.348 72.3665 131.462C72.7918 132.279 73.2482 133.097 73.7233 133.892C73.7897 134.003 73.7344 134.137 73.6001 134.192C73.5615 134.208 73.5207 134.215 73.4804 134.215ZM325.545 131.485C325.488 131.485 325.431 131.47 325.382 131.439C324.517 130.898 323.654 130.354 322.794 129.807C322.675 129.732 322.653 129.591 322.744 129.493C322.836 129.394 323.006 129.376 323.125 129.452C323.984 129.998 324.845 130.542 325.709 131.082C325.828 131.157 325.852 131.297 325.761 131.396C325.708 131.454 325.627 131.485 325.545 131.485ZM70.9113 129.278C70.8012 129.278 70.6974 129.222 70.6569 129.131C70.2811 128.29 69.9279 127.429 69.607 126.574C69.5625 126.456 69.6428 126.33 69.7857 126.293C69.929 126.257 70.0807 126.323 70.1249 126.441C70.4432 127.289 70.7932 128.142 71.1658 128.976C71.2174 129.092 71.1456 129.221 71.005 129.264C70.9743 129.273 70.9425 129.278 70.9113 129.278ZM320.387 128.207C320.329 128.207 320.27 128.191 320.221 128.159C319.365 127.608 318.512 127.054 317.659 126.5C317.542 126.423 317.522 126.282 317.614 126.185C317.707 126.088 317.877 126.071 317.995 126.148C318.846 126.702 319.699 127.255 320.554 127.806C320.672 127.882 320.693 128.023 320.601 128.12C320.548 128.177 320.468 128.207 320.387 128.207ZM315.275 124.879C315.216 124.879 315.157 124.864 315.107 124.831C314.258 124.273 313.409 123.715 312.561 123.156C312.444 123.079 312.425 122.938 312.518 122.841C312.611 122.745 312.782 122.729 312.899 122.806C313.747 123.364 314.595 123.923 315.444 124.48C315.562 124.557 315.581 124.698 315.488 124.795C315.435 124.85 315.355 124.879 315.275 124.879ZM68.9861 124.143C68.8648 124.143 68.7544 124.075 68.7234 123.973C68.4568 123.099 68.218 122.211 68.013 121.336C67.9844 121.215 68.0806 121.097 68.2275 121.074C68.3753 121.049 68.5172 121.13 68.5452 121.251C68.7483 122.118 68.9853 122.997 69.2493 123.864C69.2858 123.984 69.1979 124.106 69.0526 124.136C69.0303 124.141 69.0081 124.143 68.9861 124.143ZM310.188 121.527C310.128 121.527 310.069 121.511 310.019 121.478L307.477 119.8C307.36 119.723 307.341 119.582 307.434 119.485C307.528 119.389 307.698 119.373 307.815 119.45L310.357 121.128C310.474 121.206 310.493 121.347 310.4 121.443C310.346 121.499 310.267 121.527 310.188 121.527ZM67.752 118.864C67.6183 118.864 67.5018 118.783 67.4835 118.67C67.3379 117.776 67.2235 116.872 67.1435 115.982C67.1324 115.859 67.2444 115.751 67.3937 115.742C67.5415 115.735 67.6733 115.826 67.6842 115.949C67.7636 116.83 67.8767 117.725 68.021 118.61C68.0408 118.733 67.9368 118.846 67.7885 118.862C67.7761 118.864 67.7639 118.864 67.752 118.864ZM305.102 118.173C305.043 118.173 304.983 118.157 304.934 118.124C304.085 117.566 303.235 117.009 302.385 116.454C302.267 116.377 302.247 116.236 302.34 116.139C302.433 116.042 302.603 116.026 302.721 116.103C303.572 116.658 304.422 117.215 305.271 117.773C305.388 117.85 305.407 117.991 305.314 118.088C305.261 118.144 305.182 118.173 305.102 118.173ZM299.996 114.84C299.937 114.84 299.879 114.824 299.829 114.792C298.975 114.24 298.12 113.69 297.263 113.142C297.144 113.066 297.122 112.925 297.214 112.828C297.306 112.73 297.476 112.712 297.594 112.787C298.453 113.336 299.309 113.886 300.163 114.439C300.281 114.516 300.302 114.656 300.21 114.754C300.156 114.81 300.076 114.84 299.996 114.84ZM67.2743 113.503C67.126 113.503 67.0048 113.405 67.0032 113.282C67.0011 113.124 67 112.966 67 112.808C67 112.063 67.0246 111.314 67.0731 110.579C67.0813 110.456 67.2118 110.359 67.3588 110.368C67.5084 110.375 67.6228 110.48 67.6146 110.604C67.5666 111.33 67.5423 112.072 67.5423 112.808C67.5423 112.964 67.5433 113.121 67.5454 113.277C67.547 113.401 67.4271 113.502 67.2772 113.503C67.2764 113.503 67.2754 113.503 67.2743 113.503ZM294.847 111.552C294.79 111.552 294.732 111.537 294.683 111.506C293.821 110.963 292.956 110.424 292.088 109.887C291.968 109.813 291.944 109.673 292.034 109.574C292.123 109.475 292.293 109.454 292.413 109.529C293.282 110.066 294.148 110.606 295.012 111.149C295.131 111.225 295.154 111.365 295.063 111.463C295.01 111.521 294.929 111.552 294.847 111.552ZM289.635 108.333C289.58 108.333 289.523 108.319 289.475 108.289C288.601 107.761 287.723 107.235 286.842 106.715C286.72 106.643 286.692 106.503 286.779 106.403C286.866 106.302 287.035 106.279 287.157 106.35C288.04 106.872 288.92 107.398 289.796 107.928C289.916 108.001 289.943 108.141 289.854 108.241C289.801 108.301 289.719 108.333 289.635 108.333ZM67.6347 108.138C67.6233 108.138 67.6119 108.138 67.6005 108.136C67.452 108.121 67.3466 108.009 67.3651 107.886C67.5012 106.988 67.6776 106.09 67.8897 105.217C67.9193 105.095 68.0615 105.015 68.209 105.041C68.3557 105.065 68.4507 105.184 68.4213 105.305C68.2119 106.167 68.0377 107.054 67.9032 107.942C67.8859 108.055 67.7692 108.138 67.6347 108.138ZM284.34 105.208C284.287 105.208 284.233 105.195 284.186 105.168C283.504 104.776 282.82 104.387 282.133 104.002L281.504 103.65C281.38 103.581 281.347 103.442 281.431 103.339C281.514 103.236 281.683 103.21 281.807 103.279L282.437 103.631C283.126 104.017 283.812 104.407 284.495 104.8C284.618 104.87 284.649 105.01 284.563 105.111C284.51 105.174 284.426 105.208 284.34 105.208ZM68.9181 102.872C68.8937 102.872 68.8688 102.869 68.8442 102.863C68.7001 102.83 68.6165 102.706 68.6572 102.587C68.9554 101.716 69.2983 100.851 69.6764 100.015C69.7291 99.8994 69.8853 99.8405 70.0251 99.8838C70.1654 99.9271 70.2366 100.056 70.1842 100.172C69.8114 100.997 69.4733 101.85 69.1789 102.709C69.1452 102.808 69.0364 102.872 68.9181 102.872ZM278.944 102.203C278.893 102.203 278.841 102.191 278.796 102.167C277.889 101.678 276.977 101.195 276.061 100.718C275.934 100.652 275.896 100.513 275.976 100.409C276.056 100.304 276.224 100.273 276.35 100.339C277.268 100.817 278.182 101.301 279.092 101.791C279.217 101.859 279.253 101.998 279.171 102.102C279.119 102.167 279.032 102.203 278.944 102.203ZM273.44 99.3358C273.392 99.3358 273.344 99.3253 273.299 99.3029C272.375 98.8373 271.445 98.3774 270.512 97.9232C270.383 97.8604 270.34 97.7232 270.416 97.6165C270.492 97.5099 270.657 97.4745 270.787 97.5373C271.723 97.9924 272.654 98.4536 273.582 98.9203C273.71 98.9848 273.75 99.1226 273.672 99.2283C273.621 99.2975 273.532 99.3358 273.44 99.3358ZM71.1959 97.8425C71.157 97.8425 71.1176 97.8355 71.08 97.8208C70.9447 97.7679 70.8869 97.6342 70.9513 97.5224C71.4194 96.7063 71.9347 95.9011 72.4828 95.1295C72.5582 95.0225 72.7245 94.987 72.8537 95.0496C72.9829 95.1122 73.0261 95.2494 72.9504 95.3561C72.4105 96.1167 71.9026 96.91 71.4411 97.7145C71.3948 97.7952 71.2976 97.8425 71.1959 97.8425ZM267.834 96.6076C267.789 96.6076 267.742 96.5982 267.7 96.5783C266.758 96.1357 265.813 95.699 264.864 95.2684C264.732 95.2089 264.684 95.0726 264.756 94.9641C264.829 94.8558 264.993 94.8164 265.125 94.8754C266.076 95.3073 267.024 95.7449 267.968 96.1889C268.098 96.2501 268.144 96.3869 268.07 96.4943C268.02 96.5669 267.928 96.6076 267.834 96.6076ZM262.131 94.0197C262.088 94.0197 262.045 94.0114 262.004 93.9937C261.046 93.5747 260.086 93.1616 259.121 92.7542C258.988 92.6978 258.935 92.563 259.003 92.4527C259.072 92.3429 259.235 92.2992 259.368 92.3552C260.335 92.7634 261.298 93.1778 262.258 93.5977C262.39 93.6557 262.441 93.7911 262.371 93.9005C262.322 93.9764 262.228 94.0197 262.131 94.0197ZM74.4848 93.2124C74.4302 93.2124 74.3751 93.1988 74.3275 93.1706C74.2057 93.0988 74.1773 92.9588 74.2645 92.8582C74.5671 92.5077 74.8801 92.1611 75.2036 91.8189C75.55 91.4524 75.9135 91.0851 76.2839 90.7274C76.3808 90.6333 76.5527 90.6221 76.666 90.7026C76.7799 90.7829 76.7934 90.9245 76.6959 91.0186C76.3308 91.3713 75.9725 91.7336 75.631 92.0948C75.3122 92.432 75.004 92.7733 74.7056 93.1185C74.6529 93.1798 74.5695 93.2124 74.4848 93.2124ZM256.337 91.5734C256.296 91.5734 256.256 91.566 256.217 91.5504C255.245 91.1549 254.27 90.7654 253.291 90.3819C253.156 90.3289 253.098 90.1952 253.162 90.0834C253.227 89.9719 253.388 89.9246 253.524 89.9771C254.505 90.3615 255.482 90.7519 256.457 91.1483C256.591 91.203 256.646 91.3373 256.58 91.4485C256.533 91.5275 256.437 91.5734 256.337 91.5734ZM250.457 89.2693C250.42 89.2693 250.381 89.263 250.345 89.2492C249.359 88.8777 248.371 88.5121 247.379 88.1524C247.241 88.1025 247.179 87.9703 247.239 87.8572C247.3 87.7439 247.461 87.6934 247.596 87.7419C248.591 88.1025 249.582 88.469 250.57 88.8414C250.706 88.8928 250.766 89.0256 250.704 89.1383C250.659 89.2207 250.56 89.2693 250.457 89.2693ZM78.7053 89.1299C78.6354 89.1299 78.5655 89.1078 78.5126 89.0634C78.4072 88.9755 78.4082 88.8337 78.5147 88.7466C79.2804 88.1209 80.0938 87.5074 80.9324 86.9232C81.047 86.8433 81.2178 86.8558 81.3144 86.9501C81.4108 87.0446 81.3963 87.186 81.2819 87.2658C80.4542 87.8423 79.6516 88.4477 78.896 89.0652C78.843 89.1083 78.7742 89.1299 78.7053 89.1299ZM244.499 87.1094C244.463 87.1094 244.428 87.1037 244.393 87.0919C243.395 86.744 242.394 86.4025 241.389 86.0668C241.251 86.0205 241.184 85.8898 241.24 85.7752C241.296 85.6608 241.454 85.6054 241.593 85.6516C242.599 85.9881 243.603 86.3303 244.604 86.6788C244.742 86.7269 244.807 86.8584 244.749 86.9724C244.705 87.058 244.604 87.1094 244.499 87.1094ZM83.6694 85.6636C83.5854 85.6636 83.5026 85.6314 83.4496 85.5711C83.3617 85.4709 83.3887 85.3308 83.51 85.2582C84.3742 84.7407 85.2864 84.2327 86.2216 83.7481C86.3484 83.682 86.5157 83.7139 86.5952 83.819C86.6749 83.9238 86.6365 84.062 86.5097 84.1279C85.5848 84.6071 84.6824 85.1094 83.8282 85.6209C83.7801 85.6498 83.7245 85.6636 83.6694 85.6636ZM238.466 85.0934C238.433 85.0934 238.4 85.0886 238.368 85.0783C237.358 84.755 236.345 84.4375 235.329 84.1262C235.189 84.0831 235.117 83.9542 235.169 83.8382C235.221 83.722 235.379 83.663 235.518 83.7061C236.536 84.0183 237.551 84.3362 238.564 84.6604C238.703 84.7053 238.773 84.835 238.719 84.9503C238.677 85.0392 238.574 85.0934 238.466 85.0934ZM232.364 83.2232C232.334 83.2232 232.304 83.219 232.274 83.2103C231.253 82.9112 230.229 82.618 229.203 82.3312C229.061 82.2916 228.985 82.1642 229.033 82.0472C229.081 81.9299 229.236 81.8667 229.377 81.9067C230.406 82.1944 231.432 82.4881 232.455 82.788C232.596 82.8294 232.67 82.9574 232.62 83.074C232.58 83.1659 232.476 83.2232 232.364 83.2232ZM89.1733 82.8064C89.0772 82.8064 88.984 82.7642 88.935 82.6896C88.8633 82.5808 88.912 82.4447 89.0433 82.3857C89.9772 81.9654 90.9569 81.5534 91.9548 81.1609C92.0907 81.1081 92.2516 81.1554 92.3162 81.267C92.3806 81.3788 92.3231 81.5125 92.1878 81.5656C91.1986 81.9544 90.2279 82.3627 89.3028 82.779C89.2615 82.7976 89.217 82.8064 89.1733 82.8064ZM226.201 81.4995C226.174 81.4995 226.146 81.496 226.118 81.4888C225.087 81.214 224.053 80.9456 223.018 80.683C222.874 80.6467 222.794 80.5213 222.838 80.4032C222.882 80.285 223.033 80.2187 223.177 80.2546C224.215 80.5176 225.251 80.7869 226.284 81.0622C226.427 81.1002 226.505 81.2265 226.459 81.3442C226.422 81.4392 226.316 81.4995 226.201 81.4995ZM95.0432 80.494C94.9368 80.494 94.8361 80.4421 94.7927 80.3561C94.735 80.2419 94.8004 80.1106 94.9386 80.0632C95.9196 79.7254 96.9425 79.395 97.9793 79.081C98.1202 79.0383 98.2756 79.0981 98.327 79.2143C98.3786 79.3304 98.3063 79.4591 98.1657 79.5015C97.1365 79.8133 96.1208 80.1415 95.1473 80.4767C95.1131 80.4885 95.0779 80.494 95.0432 80.494ZM219.98 79.9229C219.955 79.9229 219.929 79.9201 219.904 79.914C218.864 79.6637 217.822 79.4199 216.777 79.1821C216.633 79.1493 216.548 79.0259 216.588 78.9066C216.628 78.7872 216.778 78.7169 216.921 78.7502C217.968 78.9885 219.013 79.2329 220.056 79.4838C220.199 79.5184 220.282 79.6427 220.24 79.7615C220.206 79.8595 220.097 79.9229 219.98 79.9229ZM101.148 78.6395C101.034 78.6395 100.928 78.5793 100.891 78.4844C100.844 78.3667 100.923 78.2404 101.065 78.2023C102.073 77.9326 103.123 77.6685 104.187 77.4171C104.33 77.3836 104.481 77.4517 104.522 77.5707C104.563 77.6897 104.48 77.8138 104.336 77.8477C103.279 78.0978 102.234 78.3605 101.232 78.6285C101.204 78.636 101.176 78.6395 101.148 78.6395ZM213.707 78.4944C213.684 78.4944 213.661 78.492 213.638 78.4872C212.589 78.2618 211.539 78.0426 210.487 77.8297C210.342 77.8002 210.253 77.679 210.288 77.5586C210.324 77.4388 210.473 77.3655 210.616 77.3943C211.671 77.6081 212.723 77.8278 213.775 78.0536C213.919 78.0846 214.006 78.2069 213.969 78.3268C213.937 78.4277 213.827 78.4944 213.707 78.4944ZM207.387 77.2154C207.366 77.2154 207.346 77.2136 207.326 77.2097C206.269 77.009 205.212 76.8148 204.153 76.6266C204.007 76.6006 203.913 76.4815 203.945 76.3605C203.976 76.2395 204.122 76.1621 204.267 76.1886C205.329 76.3772 206.389 76.5719 207.447 76.773C207.593 76.8008 207.684 76.9209 207.651 77.0414C207.622 77.1451 207.51 77.2154 207.387 77.2154ZM107.403 77.1554C107.282 77.1554 107.172 77.088 107.141 76.9867C107.104 76.8666 107.191 76.7447 107.336 76.7143C108.361 76.4988 109.428 76.2868 110.508 76.084C110.652 76.0571 110.799 76.1321 110.832 76.2529C110.866 76.3737 110.774 76.4936 110.628 76.5211C109.553 76.7229 108.49 76.934 107.47 77.1484C107.448 77.1532 107.425 77.1554 107.403 77.1554ZM201.025 76.0853C201.007 76.0853 200.989 76.084 200.971 76.0809C199.909 75.9057 198.846 75.7363 197.78 75.5733C197.633 75.5508 197.536 75.434 197.563 75.3123C197.59 75.1904 197.731 75.1088 197.879 75.1327C198.947 75.2961 200.013 75.4659 201.078 75.6416C201.225 75.6657 201.32 75.7838 201.291 75.905C201.265 76.0116 201.152 76.0853 201.025 76.0853ZM113.75 75.961C113.623 75.961 113.511 75.8879 113.484 75.7818C113.455 75.6604 113.549 75.5423 113.696 75.5175C114.187 75.4348 114.677 75.3543 115.166 75.2758C115.742 75.1832 116.318 75.0929 116.895 75.004C117.041 74.9821 117.183 75.0618 117.211 75.1834C117.238 75.3049 117.141 75.4219 116.994 75.4447C116.419 75.5331 115.844 75.6234 115.269 75.7155C114.782 75.7941 114.293 75.8742 113.804 75.9564C113.786 75.9595 113.768 75.961 113.75 75.961ZM194.626 75.1064C194.611 75.1064 194.596 75.1053 194.581 75.1031C193.513 74.9526 192.444 74.8086 191.373 74.671C191.225 74.652 191.124 74.5373 191.147 74.4153C191.17 74.2932 191.306 74.2094 191.457 74.2282C192.529 74.3662 193.601 74.5106 194.672 74.6616C194.819 74.6824 194.919 74.7981 194.893 74.92C194.871 75.0292 194.756 75.1064 194.626 75.1064ZM120.147 74.9778C120.017 74.9778 119.902 74.9005 119.88 74.7914C119.855 74.6693 119.954 74.5535 120.102 74.533C121.173 74.3824 122.244 74.2387 123.318 74.1019C123.467 74.0842 123.604 74.1669 123.627 74.2892C123.65 74.4115 123.548 74.526 123.4 74.5448C122.33 74.6811 121.26 74.8244 120.193 74.9747C120.178 74.9767 120.162 74.9778 120.147 74.9778ZM188.197 74.2787C188.184 74.2787 188.171 74.2781 188.159 74.2765C187.086 74.1516 186.012 74.0328 184.938 73.9206C184.789 73.905 184.684 73.793 184.703 73.67C184.722 73.5473 184.859 73.4631 185.006 73.476C186.083 73.5887 187.159 73.7075 188.234 73.8328C188.383 73.8501 188.486 73.9634 188.465 74.086C188.446 74.198 188.33 74.2787 188.197 74.2787ZM126.578 74.1573C126.445 74.1573 126.329 74.0761 126.31 73.9641C126.289 73.8416 126.393 73.7285 126.541 73.7114C127.616 73.5878 128.693 73.4709 129.771 73.3611C129.921 73.3427 130.055 73.4331 130.073 73.5561C130.092 73.6788 129.986 73.7906 129.837 73.8057C128.762 73.9155 127.689 74.0319 126.616 74.1551C126.603 74.1566 126.59 74.1573 126.578 74.1573ZM181.742 73.6042C181.732 73.6042 181.722 73.6038 181.711 73.6029C180.635 73.5031 179.557 73.4099 178.479 73.323C178.33 73.311 178.221 73.2016 178.236 73.0784C178.25 72.9552 178.381 72.8662 178.532 72.8771C179.612 72.964 180.692 73.0576 181.772 73.1574C181.92 73.1712 182.028 73.2821 182.011 73.4051C181.995 73.5195 181.878 73.6042 181.742 73.6042ZM133.036 73.4979C132.899 73.4979 132.782 73.4127 132.767 73.2979C132.751 73.1749 132.858 73.0644 133.007 73.0511C134.087 72.9544 135.167 72.8647 136.249 72.7815C136.396 72.7673 136.53 72.8605 136.544 72.9837C136.558 73.1069 136.448 73.2161 136.299 73.2276C135.22 73.3106 134.142 73.4003 133.065 73.4965C133.056 73.4974 133.046 73.4979 133.036 73.4979ZM175.266 73.0826C175.258 73.0826 175.251 73.0824 175.243 73.0819C174.163 73.008 173.083 72.9404 172.003 72.8793C171.853 72.8708 171.74 72.7638 171.751 72.6404C171.761 72.5172 171.889 72.4271 172.04 72.4321C173.123 72.4936 174.206 72.5612 175.288 72.6352C175.437 72.6454 175.548 72.7537 175.536 72.8769C175.524 72.994 175.405 73.0826 175.266 73.0826ZM139.515 72.9992C139.375 72.9992 139.256 72.91 139.245 72.7927C139.233 72.6693 139.345 72.5614 139.494 72.5518C140.577 72.482 141.66 72.4186 142.744 72.3621C142.886 72.354 143.022 72.4481 143.032 72.5715C143.041 72.6951 142.928 72.8014 142.778 72.8093C141.697 72.8658 140.617 72.9288 139.537 72.9986C139.529 72.999 139.522 72.9992 139.515 72.9992ZM168.774 72.7152C168.769 72.7152 168.765 72.715 168.76 72.7148C167.678 72.6667 166.596 72.6249 165.513 72.5896C165.364 72.5848 165.247 72.4807 165.253 72.3571C165.259 72.2332 165.385 72.137 165.535 72.142C166.62 72.1772 167.704 72.219 168.789 72.2674C168.938 72.2741 169.053 72.3798 169.045 72.5032C169.037 72.6227 168.917 72.7152 168.774 72.7152ZM146.009 72.6599C145.865 72.6599 145.745 72.5665 145.738 72.4466C145.731 72.3232 145.846 72.2181 145.996 72.212C147.081 72.1687 148.166 72.1319 149.251 72.102C149.386 72.0958 149.526 72.1945 149.531 72.3183C149.536 72.442 149.418 72.5457 149.269 72.5498C148.186 72.5796 147.104 72.6163 146.022 72.6597C146.018 72.6599 146.013 72.6599 146.009 72.6599ZM162.272 72.5037C162.27 72.5037 162.268 72.5037 162.265 72.5037C161.182 72.4811 160.099 72.4654 159.016 72.4562C158.867 72.4549 158.746 72.3536 158.748 72.2297C158.75 72.107 158.871 72.0081 159.019 72.0081C159.02 72.0081 159.021 72.0081 159.022 72.0081C160.108 72.0173 161.194 72.033 162.279 72.0556C162.429 72.0586 162.547 72.1615 162.543 72.2853C162.54 72.407 162.419 72.5037 162.272 72.5037ZM152.513 72.4792C152.365 72.4792 152.244 72.3816 152.241 72.2593C152.239 72.1357 152.358 72.0335 152.508 72.0311C153.593 72.0142 154.679 72.0039 155.765 72C155.765 72 155.766 72 155.766 72C155.915 72 156.037 72.0996 156.037 72.2232C156.038 72.3468 155.917 72.4477 155.767 72.4481C154.684 72.452 153.601 72.4623 152.518 72.4792C152.516 72.4792 152.514 72.4792 152.513 72.4792Z" fill="#63E296"/>
<path d="M116 374.02V376.984C116 384.172 121.746 390 128.834 390H403.166C410.254 390 416 384.172 416 376.984V374.02C416 371.8 414.225 370 412.036 370H119.964C117.775 370 116 371.8 116 374.02Z" fill="#6A7889"/>
<path d="M404 182.047V370H128V182.054C128 176.498 132.513 172 138.071 172H393.936C399.494 172 404 176.498 404 182.047Z" fill="#6A7889"/>
<path d="M400 370V181.728C400 178.565 397.429 176 394.257 176H137.743C134.571 176 132 178.565 132 181.728V370H400Z" fill="white"/>
<path d="M297 370L293.034 377.316C292.468 378.36 291.438 379 290.325 379H241.675C240.562 379 239.532 378.36 238.966 377.316L235 370H297Z" fill="#424242"/>
<path d="M371.761 357H160.238C156.793 357 154 354.209 154 350.765V131.235C154 127.791 156.793 125 160.238 125H371.761C375.207 125 378 127.791 378 131.235V350.765C378 354.209 375.207 357 371.761 357Z" fill="#A3B3E6"/>
<path d="M156 350.575V131.425C156 128.981 157.982 127 160.428 127H371.572C374.018 127 376 128.981 376 131.425V350.575C376 353.019 374.018 355 371.572 355H160.428C157.982 355 156 353.019 156 350.575Z" fill="white"/>
<path d="M164 134.002C164 135.106 163.106 136 162.002 136C160.894 136 160 135.106 160 134.002C160 132.898 160.894 132 162.002 132C163.106 132 164 132.898 164 134.002Z" fill="#FFC837"/>
<path d="M170 134.002C170 135.106 169.106 136 168.002 136C166.894 136 166 135.106 166 134.002C166 132.898 166.894 132 168.002 132C169.106 132 170 132.898 170 134.002Z" fill="#3CD278"/>
<path d="M176 134.002C176 135.106 175.106 136 174.002 136C172.894 136 172 135.106 172 134.002C172 132.898 172.894 132 174.002 132C175.106 132 176 132.898 176 134.002Z" fill="#FF5252"/>
<path d="M246.649 234H115.351C113.5 234 112 232.5 112 230.649V153.351C112 151.5 113.5 150 115.351 150H246.649C248.5 150 250 151.5 250 153.351V230.649C250 232.5 248.5 234 246.649 234Z" fill="#C2D1F2"/>
<path d="M247 231V153H115V231H247Z" fill="white"/>
<path d="M241 178.285V225H120V198.605C123.152 195.734 127.839 195.137 132.063 195.786C136.287 196.436 140.261 198.153 144.348 199.386C148.44 200.614 152.891 201.353 156.95 200.021C161.595 198.497 164.94 194.558 168.29 191.005C171.645 187.452 175.69 183.932 180.576 183.711C188.603 183.344 195.304 192.003 203.228 190.666C208.68 189.744 212.106 184.506 216.396 181.024C223.158 175.537 233.194 174.422 241 178.285Z" fill="#F2D483"/>
<path d="M241 197.353V225H120V209.378C123.152 207.68 127.839 207.326 132.063 207.71C136.287 208.095 140.261 209.111 144.348 209.841C148.44 210.568 152.891 211.005 156.95 210.217C161.595 209.314 164.94 206.983 168.29 204.881C171.645 202.778 175.69 200.695 180.576 200.564C188.603 200.346 195.304 205.471 203.228 204.68C208.68 204.134 212.106 201.034 216.396 198.973C223.158 195.726 233.194 195.066 241 197.353Z" fill="#FFE5AA"/>
<path d="M209 189.57C209 190.919 207.927 192.01 206.601 192.01C205.274 192.01 204.196 190.919 204.196 189.57C204.196 188.221 205.274 187.125 206.601 187.125C207.927 187.125 209 188.221 209 189.57ZM184.182 183.445C184.182 184.794 183.108 185.885 181.782 185.885C180.456 185.885 179.378 184.794 179.378 183.445C179.378 182.096 180.456 181 181.782 181C183.108 181 184.182 182.096 184.182 183.445ZM153.804 200.56C153.804 201.908 152.73 203 151.404 203C150.078 203 149 201.908 149 200.56C149 199.211 150.078 198.115 151.404 198.115C152.73 198.115 153.804 199.211 153.804 200.56Z" fill="#FF8989"/>
<path d="M158 160H123V162H158V160Z" fill="#C2D1F2"/>
<path d="M169 165H123V167H169V165Z" fill="#C2D1F2"/>
<path d="M133 170H123V172H133V170Z" fill="#C2D1F2"/>
<path d="M148.692 213.088C148.637 213.385 148.577 213.675 148.51 213.966C148.444 214.305 148.365 214.638 148.274 214.97C148.195 215.303 148.105 215.642 148.002 215.975C147.911 216.308 147.808 216.641 147.699 216.968C147.608 217.252 147.511 217.537 147.408 217.815C147.378 217.9 147.347 217.985 147.317 218.069C147.214 218.348 147.111 218.626 146.996 218.898C146.99 218.911 146.984 218.929 146.978 218.941C146.869 219.213 146.76 219.486 146.632 219.758C146.524 220.006 146.415 220.254 146.299 220.496V220.502C146.197 220.732 146.087 220.95 145.972 221.174C145.906 221.307 145.839 221.441 145.766 221.568C145.676 221.749 145.579 221.931 145.482 222.106C145.233 222.566 144.967 223.02 144.688 223.468C144.579 223.656 144.464 223.837 144.343 224.019C144.276 224.14 144.198 224.255 144.119 224.37C143.931 224.654 143.737 224.939 143.537 225.217C143.356 225.472 143.174 225.72 142.98 225.968C142.792 226.216 142.598 226.47 142.392 226.712C142.344 226.785 142.283 226.851 142.229 226.918C141.714 227.548 141.169 228.165 140.594 228.758C140.26 229.103 139.915 229.442 139.57 229.763C138.237 231.028 136.814 232.147 135.33 233.116C135.021 233.322 134.706 233.521 134.385 233.709C134.118 233.872 133.846 234.03 133.573 234.187C133.397 234.284 133.222 234.381 133.046 234.472C132.907 234.55 132.767 234.623 132.622 234.696C132.374 234.829 132.119 234.956 131.865 235.077C131.604 235.204 131.344 235.331 131.077 235.44C131.071 235.446 131.059 235.446 131.053 235.452C130.981 235.488 130.908 235.519 130.835 235.549C130.593 235.664 130.345 235.767 130.096 235.864C130.072 235.876 130.048 235.888 130.023 235.894C129.745 236.009 129.46 236.118 129.175 236.221C128.861 236.342 128.539 236.451 128.224 236.56C127.94 236.657 127.655 236.747 127.37 236.832C124.481 237.698 121.495 238.127 118.502 238.127C118.224 238.127 117.939 238.121 117.661 238.115C117.467 238.109 117.273 238.103 117.079 238.091C116.922 238.085 116.77 238.079 116.613 238.067C116.37 238.055 116.128 238.037 115.892 238.012C115.656 237.994 115.419 237.97 115.183 237.946C115.129 237.94 115.074 237.934 115.02 237.928C114.989 237.922 114.959 237.922 114.929 237.915C114.692 237.891 114.462 237.861 114.232 237.831C113.966 237.788 113.705 237.752 113.445 237.704C113.257 237.673 113.075 237.643 112.887 237.607C112.688 237.57 112.488 237.534 112.288 237.486C111.712 236.723 111.373 235.779 111.373 234.756V177.626C112.651 177.318 113.947 177.1 115.256 176.961C115.886 176.894 116.516 176.846 117.152 176.815C117.606 176.797 118.066 176.785 118.521 176.785C118.884 176.785 119.248 176.791 119.605 176.803C119.623 176.803 119.641 176.803 119.666 176.809C119.781 176.815 119.89 176.815 120.005 176.828C120.229 176.834 120.453 176.846 120.671 176.864C120.695 176.864 120.72 176.864 120.744 176.87C121.083 176.888 121.428 176.918 121.774 176.961C121.792 176.961 121.81 176.961 121.834 176.967C122.119 176.997 122.403 177.027 122.688 177.07C122.749 177.076 122.815 177.088 122.876 177.094C123.064 177.118 123.251 177.148 123.433 177.179C123.718 177.227 124.003 177.275 124.287 177.33C124.566 177.384 124.838 177.439 125.117 177.499C125.196 177.518 125.275 177.53 125.353 177.554C125.632 177.614 125.905 177.681 126.183 177.754C126.22 177.76 126.25 177.766 126.286 177.778C126.565 177.85 126.837 177.929 127.116 178.008C127.122 178.008 127.128 178.008 127.134 178.014C127.831 178.22 128.521 178.444 129.206 178.692C129.436 178.782 129.66 178.867 129.89 178.958C130.199 179.079 130.502 179.206 130.799 179.339C131.102 179.466 131.398 179.606 131.695 179.745C131.992 179.89 132.289 180.035 132.586 180.187C132.876 180.338 133.167 180.489 133.458 180.653C133.821 180.852 134.179 181.064 134.53 181.282C134.809 181.446 135.087 181.621 135.36 181.809C135.675 182.008 135.984 182.22 136.287 182.444C136.577 182.644 136.862 182.856 137.147 183.08C137.165 183.092 137.177 183.104 137.195 183.116C137.214 183.128 137.232 183.146 137.25 183.158C137.438 183.292 137.619 183.437 137.801 183.594C138.504 184.157 139.182 184.756 139.842 185.392C140.272 185.803 140.684 186.227 141.072 186.657C141.236 186.832 141.399 187.008 141.557 187.189C141.666 187.31 141.775 187.431 141.878 187.553C142.695 188.509 143.446 189.501 144.125 190.53C144.446 191.015 144.749 191.505 145.039 192.001C145.318 192.473 145.579 192.957 145.827 193.442C145.882 193.545 145.936 193.653 145.991 193.756C146.13 194.047 146.269 194.331 146.402 194.622C146.536 194.912 146.663 195.203 146.784 195.493C147.008 196.008 147.214 196.534 147.402 197.061C147.517 197.376 147.626 197.697 147.729 198.017C147.826 198.314 147.917 198.61 147.995 198.907C148.02 198.986 148.044 199.058 148.062 199.137C148.129 199.367 148.189 199.597 148.25 199.821C148.286 199.966 148.329 200.118 148.359 200.269C148.413 200.487 148.462 200.705 148.51 200.923C148.583 201.249 148.65 201.576 148.71 201.903C148.892 202.877 149.019 203.87 149.104 204.857C149.116 204.996 149.128 205.129 149.14 205.268C149.322 207.877 149.177 210.51 148.692 213.088Z" fill="#C2D1F2"/>
<path d="M148.694 213.088C148.639 213.385 148.579 213.675 148.512 213.966C148.446 214.305 148.367 214.638 148.276 214.97C148.197 215.303 148.106 215.642 148.004 215.975C147.913 216.308 147.81 216.641 147.701 216.968C147.61 217.252 147.513 217.537 147.41 217.815C147.38 217.9 147.349 217.985 147.319 218.069C147.216 218.348 147.113 218.626 146.998 218.898C146.992 218.911 146.986 218.929 146.98 218.941C146.871 219.213 146.762 219.486 146.634 219.758C146.525 220.006 146.416 220.254 146.301 220.496V220.502C146.199 220.732 146.089 220.95 145.974 221.174C145.908 221.307 145.841 221.441 145.768 221.568C145.678 221.749 145.581 221.931 145.484 222.106C145.235 222.566 144.969 223.02 144.69 223.468C144.581 223.656 144.466 223.837 144.345 224.019C144.278 224.14 144.2 224.255 144.121 224.37C143.933 224.654 143.739 224.939 143.539 225.217C143.358 225.472 143.176 225.72 142.982 225.968C142.794 226.216 142.6 226.47 142.394 226.712C142.346 226.785 142.285 226.851 142.231 226.918C141.716 227.548 141.171 228.165 140.596 228.758C140.262 229.103 139.917 229.442 139.572 229.763C138.239 231.028 136.816 232.147 135.332 233.116C135.023 233.322 134.708 233.521 134.387 233.709C134.12 233.872 133.848 234.03 133.575 234.187C133.399 234.284 133.224 234.381 133.048 234.472C132.909 234.55 132.769 234.623 132.624 234.696C132.376 234.829 132.121 234.956 131.867 235.077C131.606 235.204 131.346 235.331 131.079 235.44H115.258V176.961C115.888 176.894 116.518 176.846 117.154 176.815C117.608 176.797 118.068 176.785 118.523 176.785C118.886 176.785 119.249 176.791 119.607 176.803C119.625 176.803 119.643 176.803 119.668 176.809C119.783 176.815 119.892 176.815 120.007 176.828C120.231 176.834 120.455 176.846 120.673 176.864C120.697 176.864 120.722 176.864 120.746 176.87C121.085 176.888 121.43 176.918 121.775 176.961C121.794 176.961 121.812 176.961 121.836 176.967C122.121 176.997 122.405 177.027 122.69 177.07C122.751 177.076 122.817 177.088 122.878 177.094C123.066 177.118 123.253 177.148 123.435 177.179C123.72 177.227 124.005 177.275 124.289 177.33C124.568 177.384 124.84 177.439 125.119 177.499C125.198 177.518 125.277 177.53 125.355 177.554C125.634 177.614 125.907 177.681 126.185 177.754C126.222 177.76 126.252 177.766 126.288 177.778C126.567 177.85 126.839 177.929 127.118 178.008C127.124 178.008 127.13 178.008 127.136 178.014C127.833 178.22 128.523 178.444 129.208 178.692C129.438 178.782 129.662 178.867 129.892 178.958C130.201 179.079 130.504 179.206 130.801 179.339C131.104 179.466 131.4 179.606 131.697 179.745C131.994 179.89 132.291 180.035 132.588 180.187C132.878 180.338 133.169 180.489 133.46 180.653C133.823 180.852 134.181 181.064 134.532 181.282C134.811 181.446 135.089 181.621 135.362 181.809C135.677 182.008 135.986 182.22 136.289 182.444C136.579 182.644 136.864 182.856 137.149 183.08C137.167 183.092 137.179 183.104 137.197 183.116C137.215 183.128 137.234 183.146 137.252 183.158C137.44 183.292 137.621 183.437 137.803 183.594C138.506 184.157 139.184 184.756 139.844 185.392C140.274 185.803 140.686 186.227 141.074 186.657C141.237 186.832 141.401 187.008 141.559 187.189C141.668 187.31 141.777 187.431 141.88 187.553C142.697 188.509 143.448 189.501 144.127 190.53C144.448 191.015 144.751 191.505 145.041 192.001C145.32 192.473 145.581 192.957 145.829 193.442C145.884 193.545 145.938 193.653 145.993 193.756C146.132 194.047 146.271 194.331 146.404 194.622C146.538 194.912 146.665 195.203 146.786 195.493C147.01 196.008 147.216 196.534 147.404 197.061C147.519 197.376 147.628 197.697 147.731 198.017C147.828 198.314 147.919 198.61 147.997 198.907C148.022 198.986 148.046 199.058 148.064 199.137C148.131 199.367 148.191 199.597 148.252 199.821C148.288 199.966 148.331 200.118 148.361 200.269C148.415 200.487 148.464 200.705 148.512 200.923C148.585 201.249 148.652 201.576 148.712 201.903C148.894 202.877 149.021 203.87 149.106 204.857C149.118 204.996 149.13 205.129 149.142 205.268C149.324 207.877 149.179 210.51 148.694 213.088Z" fill="white"/>
<path d="M148.692 213.089C148.637 213.386 148.577 213.676 148.51 213.967C148.444 214.306 148.365 214.639 148.274 214.972C148.195 215.304 148.104 215.643 148.001 215.976C147.91 216.309 147.808 216.642 147.699 216.969C147.608 217.253 147.511 217.538 147.408 217.816C147.377 217.901 147.347 217.986 147.317 218.07C147.214 218.349 147.111 218.627 146.996 218.9C146.99 218.912 146.984 218.93 146.978 218.942C146.869 219.214 146.76 219.487 146.632 219.759C146.523 220.007 146.414 220.255 146.299 220.497V220.504C146.196 220.734 146.087 220.951 145.972 221.175C145.906 221.308 145.839 221.442 145.766 221.569C145.675 221.75 145.578 221.932 145.481 222.107C145.233 222.567 144.967 223.021 144.688 223.469C144.579 223.657 144.464 223.838 144.343 224.02C144.276 224.141 144.197 224.256 144.119 224.371C143.931 224.656 143.737 224.94 143.537 225.218C143.355 225.473 143.174 225.721 142.98 225.969C142.792 226.217 142.598 226.471 142.392 226.713H122.076V190.477C126.389 186.531 132.81 185.714 138.582 186.603C139.582 186.761 140.575 186.96 141.556 187.19C141.666 187.312 141.775 187.433 141.877 187.554C142.695 188.51 143.446 189.503 144.125 190.531C144.446 191.016 144.749 191.506 145.039 192.002C145.318 192.474 145.578 192.959 145.827 193.443C145.881 193.546 145.936 193.655 145.99 193.757C146.13 194.048 146.269 194.332 146.402 194.623C146.535 194.914 146.663 195.204 146.784 195.495C147.008 196.009 147.214 196.536 147.402 197.062C147.517 197.377 147.626 197.698 147.729 198.018C147.826 198.315 147.917 198.612 147.995 198.908C148.019 198.987 148.044 199.059 148.062 199.138C148.129 199.368 148.189 199.598 148.25 199.822C148.286 199.967 148.329 200.119 148.359 200.27C148.413 200.488 148.462 200.706 148.51 200.924C148.583 201.25 148.649 201.577 148.71 201.904C148.892 202.879 149.019 203.871 149.104 204.858C149.116 204.997 149.128 205.13 149.14 205.269C149.322 207.878 149.176 210.511 148.692 213.089Z" fill="#F2D483"/>
<path d="M148.692 213.091C148.637 213.388 148.577 213.678 148.51 213.969C148.444 214.308 148.365 214.641 148.274 214.974C148.195 215.307 148.104 215.645 148.001 215.978C147.91 216.311 147.808 216.644 147.699 216.971C147.608 217.255 147.511 217.54 147.408 217.818C147.377 217.903 147.347 217.988 147.317 218.073C147.214 218.351 147.111 218.629 146.996 218.902C146.99 218.914 146.984 218.932 146.978 218.944C146.869 219.216 146.76 219.489 146.632 219.761C146.523 220.009 146.414 220.257 146.299 220.5V220.506C146.196 220.736 146.087 220.953 145.972 221.177C145.906 221.311 145.839 221.444 145.766 221.571C145.675 221.752 145.578 221.934 145.481 222.11C145.233 222.57 144.967 223.023 144.688 223.471C144.579 223.659 144.464 223.841 144.343 224.022C144.276 224.143 144.197 224.258 144.119 224.373C143.931 224.658 143.737 224.942 143.537 225.221C143.355 225.475 143.174 225.723 142.98 225.971C142.792 226.219 142.598 226.473 142.392 226.715H122.076V205.453C126.389 203.147 132.81 202.663 138.582 203.189C142.186 203.51 145.651 204.17 149.104 204.86C149.116 204.999 149.128 205.132 149.14 205.271C149.322 207.88 149.176 210.513 148.692 213.091Z" fill="#FFE5AA"/>
<path d="M30.5758 376.375H25.2793V399.477H30.5758V376.375Z" fill="black"/>
<path d="M85.1188 376.375H79.8223V399.477H85.1188V376.375Z" fill="black"/>
<path d="M15 375.225C15 376.648 15.5754 377.943 16.5143 378.875C17.4472 379.807 18.7373 380.388 20.1669 380.388H90.2309C93.0839 380.388 95.3977 378.076 95.3977 375.225C95.3977 373.803 94.8162 372.508 93.8833 371.576C92.9506 370.644 91.6543 370.062 90.2309 370.062H20.1669C17.3139 370.063 15 372.374 15 375.225Z" fill="#BE3000"/>
<path d="M99.5891 233.618L96.3539 236.971L92.6081 240.846L91.5233 241.967L84.75 235.439L85.8409 234.311L89.6061 230.417L92.8226 227.09L99.5891 233.618Z" fill="black"/>
<path opacity="0.1" d="M92.6081 240.847L91.5233 241.969L84.75 235.441L85.8409 234.312L92.6081 240.847Z" fill="black"/>
<path opacity="0.1" d="M92.8218 227.09L89.6055 230.417C90.5893 231.665 91.6677 232.856 92.8407 233.99C93.9632 235.074 95.1362 236.063 96.3534 236.971L99.5886 233.618L92.8218 227.09Z" fill="black"/>
<path d="M92.9292 244.263L58.9233 279.446C58.5617 279.82 57.9556 279.831 57.5812 279.469L48.8446 271.038C48.4701 270.677 48.4594 270.071 48.821 269.697L82.827 234.514C83.1886 234.14 83.7948 234.13 84.1693 234.491L92.9059 242.922C93.2803 243.283 93.2908 243.889 92.9292 244.263Z" fill="#717171"/>
<path d="M22.7664 266.479C22.7664 266.479 19.4968 272.604 21.1087 276.554C22.7206 280.503 40.0433 280.836 40.0433 280.836C40.0433 280.836 41.5566 276.799 41.5615 276.33C41.5664 275.861 39.802 268.834 39.3928 268.244C38.9837 267.654 34.6454 263.806 34.6454 263.806L22.7664 266.479ZM66.0552 260.4C66.1745 260.37 69.9265 262.238 69.9265 262.238L84.4798 249.824L87.0795 254.759L75.3199 275.63C73.8375 277.727 71.081 278.489 68.731 277.451L61.3822 274.205L66.0552 260.4Z" fill="#FFC6B2"/>
<path d="M52.0942 367.368L52.084 369.996L67.8074 370.057L67.8176 367.429L52.0942 367.368Z" fill="#404040"/>
<path d="M67.8166 367.432L52.0938 367.366L52.1228 359.879L61.236 359.919L67.8166 367.432Z" fill="#404040"/>
<path d="M60.0678 367.248L60.0664 367.551L67.8172 367.586L67.8186 367.283L60.0678 367.248Z" fill="white"/>
<path d="M55.4098 369.303C55.4088 369.561 55.3828 369.788 55.3251 370.009L55.0097 370.007C55.0098 369.995 55.0098 369.982 55.0162 369.97C55.0675 369.762 55.0935 369.541 55.0944 369.302C55.097 368.634 54.8788 367.984 54.4771 367.472C54.4519 367.44 54.4268 367.408 54.3955 367.377C53.8367 366.694 52.9869 366.287 52.0977 366.284L52.0989 365.969C53.1269 365.973 54.1151 366.462 54.7302 367.283C54.7552 367.315 54.7741 367.347 54.7991 367.378C55.1945 367.922 55.4125 368.603 55.4098 369.303Z" fill="white"/>
<path d="M30.4516 367.368L30.4414 369.996L46.1648 370.057L46.175 367.429L30.4516 367.368Z" fill="#404040"/>
<path d="M46.1741 367.432L30.4512 367.366L30.4802 359.879L39.5928 359.919L46.1741 367.432Z" fill="#404040"/>
<path d="M38.4271 367.248L38.4258 367.551L46.1766 367.586L46.178 367.283L38.4271 367.248Z" fill="white"/>
<path d="M33.7672 369.303C33.7662 369.561 33.7402 369.788 33.6825 370.009L33.3672 370.007C33.3672 369.995 33.3673 369.982 33.3736 369.97C33.4249 369.762 33.4509 369.541 33.4518 369.302C33.4544 368.634 33.2363 367.984 32.8345 367.472C32.8094 367.44 32.7843 367.408 32.753 367.377C32.1942 366.694 31.3443 366.287 30.4551 366.284L30.4563 365.969C31.4843 365.973 32.4726 366.462 33.0876 367.283C33.1126 367.315 33.1316 367.347 33.1566 367.378C33.5519 367.922 33.7699 368.603 33.7672 369.303Z" fill="white"/>
<path d="M63.0891 360.784C60.8325 361.78 51.6292 361.38 50.9772 360.867C50.8339 360.752 42.52 311.618 42.52 311.618C42.52 311.618 40.6688 360.298 40.5534 360.412C39.9185 361.055 31.1991 361.994 28.7399 360.599C28.3813 360.397 27.2914 310.182 27.2914 310.182C27.3644 310.332 23.2964 294.376 29.9638 288.094L56.5399 288.55C56.5399 288.55 63.4922 360.606 63.0891 360.784Z" fill="#351234"/>
<path d="M42.5333 311.835C42.5096 311.835 42.5003 311.502 42.4453 310.838C42.4131 310.509 42.3816 310.088 42.2559 309.615C42.225 309.497 42.179 309.38 42.1176 309.279C42.0357 309.174 41.9506 309.066 41.8624 308.954C41.6674 308.742 41.4456 308.526 41.1896 308.312C40.3261 307.589 39.3855 306.888 38.7129 305.938C38.0332 304.997 37.6255 303.882 37.454 302.746C37.2413 301.404 37.3247 300.381 37.4154 299.718C37.4624 299.385 37.5165 299.139 37.5582 298.977C37.6001 298.815 37.6293 298.736 37.6397 298.738C37.6662 298.744 37.5974 299.07 37.5359 299.732C37.4809 300.391 37.4279 301.4 37.6549 302.713C37.8234 303.827 38.2201 304.907 38.8782 305.819C39.5305 306.741 40.4445 307.423 41.3229 308.158C41.5797 308.379 41.8062 308.606 42.0048 308.831C42.0953 308.952 42.1825 309.068 42.2667 309.18C42.3446 309.314 42.3884 309.445 42.4187 309.571C42.5374 310.075 42.5507 310.495 42.5664 310.831C42.5865 311.502 42.5542 311.835 42.5333 311.835Z" fill="white"/>
<path d="M48.7747 303.875C48.0415 303.875 47.3296 303.653 46.7109 303.224C45.8656 302.638 45.3045 301.717 45.1714 300.696L44.7035 297.177C44.6656 296.872 44.8833 296.593 45.1888 296.555L51.3204 295.746C51.4641 295.728 51.6099 295.768 51.7282 295.859C51.8474 295.951 51.9234 296.083 51.9418 296.231L52.3816 299.593C52.6336 301.517 51.4206 303.355 49.6203 303.777L49.62 303.777C49.3379 303.843 49.0548 303.875 48.7747 303.875ZM51.3902 296.045C51.3801 296.045 51.3698 296.045 51.3597 296.047L45.2273 296.856C45.0865 296.873 44.9868 297 45.004 297.138L45.4719 300.657C45.5938 301.593 46.1084 302.438 46.8836 302.976C47.6674 303.52 48.615 303.699 49.5511 303.483C51.2021 303.095 52.3133 301.404 52.0811 299.632L51.6413 296.27C51.633 296.201 51.5978 296.141 51.5428 296.098C51.4975 296.063 51.4443 296.045 51.3902 296.045Z" fill="white"/>
<path d="M32.342 302.018C32.135 302.018 31.9256 301.993 31.717 301.943H31.7167C30.4299 301.631 29.5718 300.309 29.7629 298.934L30.0906 296.571C30.1057 296.456 30.1657 296.353 30.2598 296.281C30.3533 296.21 30.4692 296.18 30.5804 296.195L34.8918 296.798C35.1302 296.83 35.2991 297.049 35.2677 297.287L34.919 299.763C34.8182 300.492 34.4112 301.149 33.8028 301.564C33.3633 301.864 32.8596 302.018 32.342 302.018ZM31.788 301.649C32.4328 301.804 33.0876 301.685 33.6321 301.314C34.1701 300.947 34.5298 300.366 34.6191 299.721L34.9675 297.246C34.977 297.174 34.9258 297.108 34.8507 297.098L30.539 296.495C30.5077 296.491 30.4716 296.501 30.4435 296.522C30.4142 296.544 30.3953 296.576 30.3908 296.611L30.0628 298.975C29.8928 300.199 30.6508 301.373 31.788 301.649Z" fill="white"/>
<path d="M27.8989 252.828C26.1329 255.499 23.7456 261.56 21.5327 266.67C21.2501 267.84 32.2463 270.49 32.5289 269.319C32.5647 269.17 27.8989 252.828 27.8989 252.828Z" fill="#EFF3F9"/>
<path d="M57.5244 290.847C58.6916 285.457 59.8702 255.523 57.3483 253.009C51.8643 247.542 34.0871 247.462 28.2801 252.533C23.8408 256.411 25.7396 285.061 26.4481 292.131C27.0884 294.303 56.2951 294.688 57.5244 290.847Z" fill="#EFF3F9"/>
<path d="M56.5542 252.32C56.5542 252.32 67.9998 260.367 68.6601 261.148C69.6393 262.307 63.7553 276.202 63.0354 275.921L54.7198 271.907C51.3379 270.345 49.6154 266.676 49.5848 262.953C49.5441 258.022 51.0755 252.992 56.5542 252.32Z" fill="#EFF3F9"/>
<path d="M49.3744 245.321C49.3744 245.321 52.8615 244.498 53.2005 242.563C53.5395 240.627 53.6848 232.835 52.2803 231.577C50.8758 230.319 41.4801 231.432 41.5769 231.577C41.6738 231.722 42.6908 239.562 42.6908 239.562L49.3744 245.321Z" fill="#FFC6B2"/>
<path d="M50.8476 245.856C52.2866 247.578 54.1035 248.952 55.5666 250.654C57.0297 252.356 58.1553 254.567 57.7877 256.78C57.425 258.964 55.6489 260.707 53.6258 261.609C51.6028 262.51 49.3447 262.706 47.1335 262.839C38.6465 263.349 29.9362 263.078 21.9524 260.157C19.785 259.364 17.3994 258.012 17.1043 255.725C16.9394 254.447 17.5166 253.155 18.3966 252.213C19.2765 251.271 20.432 250.634 21.6065 250.102C24.8648 248.626 28.4219 247.84 31.5713 246.144C34.7207 244.449 37.5503 241.485 37.6545 237.912C37.7259 235.462 36.51 233.066 36.8275 230.635C37.1747 227.977 39.3742 225.82 41.8976 224.911C44.421 224.002 47.21 224.159 49.8426 224.673C51.5859 225.014 53.3343 225.522 54.7965 226.529C56.2587 227.537 57.4093 229.114 57.5532 230.883C57.6971 232.652 56.6441 234.548 54.9424 235.057C52.7925 235.7 50.1807 234.167 48.3556 235.472C47.684 235.952 47.3811 236.792 47.4149 237.596C47.4601 238.67 48.0855 238.913 48.563 239.69C49.0015 240.405 50.0789 244.936 50.8476 245.856Z" fill="#8E4746"/>
<path d="M50.7347 264.125C50.7843 264.133 50.7567 264.436 50.7764 265.034C50.8002 265.627 50.8854 266.538 51.3499 267.635C51.7277 268.57 52.3367 269.395 53.0968 270.062C53.8553 270.734 54.7389 271.263 55.6435 271.757C56.7062 272.351 57.5107 272.804 58.0149 273.154C58.5228 273.499 58.7439 273.715 58.7212 273.747C58.693 273.788 58.427 273.642 57.8901 273.362C57.3464 273.084 56.5342 272.669 55.4477 272.114C54.5347 271.615 53.6237 271.072 52.8263 270.366C52.0275 269.666 51.3722 268.781 50.973 267.789C50.5153 266.609 50.4872 265.643 50.5337 265.03C50.5853 264.41 50.6968 264.118 50.7347 264.125Z" fill="white"/>
<path d="M26.1126 262.938C26.1989 262.947 26.217 263.498 26.1313 264.597L25.8229 267.381C25.6657 268.471 25.5275 269.004 25.4391 268.994C25.3505 268.985 25.3345 268.434 25.418 267.336L25.7264 264.552C25.8859 263.461 26.0218 262.928 26.1126 262.938Z" fill="white"/>
<path d="M153.714 202.934C153.054 197.783 151.267 192.753 148.354 188.25C146.9 186.005 145.173 183.893 143.169 181.956C142.157 180.981 141.103 180.079 140.013 179.244C125.893 168.477 105.631 169.748 92.9899 182.821C79.3732 196.911 79.7668 219.36 93.8682 232.96C104.729 243.443 120.563 245.622 133.483 239.618C136.608 238.165 139.564 236.235 142.236 233.826C142.854 233.275 143.453 232.694 144.041 232.089C149.141 226.811 152.279 220.365 153.46 213.647C153.841 211.504 154.017 209.331 153.999 207.158C153.993 205.748 153.896 204.338 153.714 202.934ZM148.693 213.09C148.638 213.386 148.578 213.677 148.511 213.967C148.444 214.306 148.366 214.639 148.275 214.972C148.196 215.305 148.105 215.644 148.002 215.977C147.911 216.31 147.808 216.643 147.699 216.969C147.608 217.254 147.512 217.538 147.409 217.817C147.378 217.902 147.348 217.986 147.318 218.071C147.215 218.349 147.112 218.628 146.997 218.9C146.991 218.912 146.985 218.93 146.978 218.943C146.87 219.215 146.761 219.487 146.633 219.76C146.524 220.008 146.415 220.256 146.3 220.498V220.504C146.197 220.734 146.088 220.952 145.973 221.176C145.906 221.309 145.84 221.442 145.767 221.569C145.676 221.751 145.579 221.933 145.482 222.108C145.234 222.568 144.967 223.022 144.689 223.47C144.58 223.657 144.465 223.839 144.344 224.021C144.277 224.142 144.198 224.257 144.119 224.372C143.932 224.656 143.738 224.941 143.538 225.219C143.356 225.473 143.174 225.721 142.981 225.97C142.793 226.218 142.599 226.472 142.393 226.714C142.345 226.787 142.284 226.853 142.23 226.92C141.715 227.549 141.17 228.167 140.594 228.76C140.261 229.105 139.916 229.444 139.57 229.764C138.238 231.029 136.814 232.149 135.33 233.118C135.021 233.323 134.706 233.523 134.386 233.711C134.119 233.874 133.846 234.032 133.574 234.189C133.398 234.286 133.222 234.383 133.047 234.473C132.907 234.552 132.768 234.625 132.623 234.697C132.374 234.83 132.12 234.958 131.866 235.079C131.605 235.206 131.345 235.333 131.078 235.442C131.072 235.448 131.06 235.448 131.054 235.454C130.981 235.49 130.908 235.52 130.836 235.551C130.593 235.666 130.345 235.769 130.097 235.865C130.073 235.878 130.048 235.89 130.024 235.896C129.746 236.011 129.461 236.12 129.176 236.223C128.861 236.344 128.54 236.453 128.225 236.561C127.94 236.658 127.656 236.749 127.371 236.834C124.482 237.699 121.495 238.129 118.503 238.129C118.225 238.129 117.94 238.123 117.661 238.117C117.467 238.111 117.274 238.105 117.08 238.093C116.922 238.087 116.771 238.081 116.613 238.069C116.371 238.056 116.129 238.038 115.892 238.014C115.656 237.996 115.42 237.972 115.184 237.947C115.129 237.941 115.075 237.935 115.02 237.929C114.99 237.923 114.96 237.923 114.929 237.917C114.693 237.893 114.463 237.863 114.233 237.832C113.966 237.79 113.706 237.754 113.445 237.705C113.258 237.675 113.076 237.645 112.888 237.609C112.688 237.572 112.488 237.536 112.289 237.487H112.282C112.022 237.439 111.761 237.385 111.507 237.318C111.21 237.251 110.914 237.179 110.617 237.1C110.399 237.046 110.187 236.985 109.969 236.919C109.847 236.888 109.732 236.852 109.623 236.816C109.448 236.767 109.272 236.713 109.102 236.658C108.684 236.519 108.272 236.38 107.867 236.229C107.479 236.089 107.091 235.938 106.71 235.775C106.11 235.526 105.522 235.26 104.941 234.97C104.59 234.8 104.238 234.619 103.893 234.431C103.451 234.195 103.021 233.941 102.591 233.68C102.403 233.572 102.215 233.457 102.033 233.335C101.016 232.688 100.028 231.974 99.0776 231.193C98.932 231.078 98.7868 230.957 98.6413 230.83C98.4777 230.691 98.3143 230.551 98.1508 230.406C97.9872 230.261 97.8237 230.116 97.6662 229.964C97.5026 229.819 97.3451 229.668 97.1876 229.516C84.9944 217.75 84.6612 198.334 96.4426 186.15C96.6789 185.908 96.9211 185.666 97.1634 185.43C97.2119 185.381 97.2604 185.333 97.3087 185.291C97.5632 185.049 97.8176 184.813 98.0719 184.583C98.284 184.389 98.502 184.201 98.7201 184.02C98.8594 183.899 98.9927 183.79 99.132 183.675C99.3622 183.487 99.5863 183.311 99.8165 183.13C100.083 182.924 100.356 182.724 100.628 182.531C100.652 182.513 100.677 182.494 100.707 182.476C100.992 182.264 101.282 182.071 101.573 181.877C101.797 181.726 102.015 181.587 102.239 181.447C102.984 180.981 103.742 180.552 104.511 180.158C104.753 180.031 104.996 179.91 105.238 179.801C105.304 179.765 105.371 179.734 105.438 179.704C105.728 179.565 106.025 179.432 106.322 179.305C106.91 179.051 107.497 178.814 108.097 178.603C108.218 178.56 108.345 178.518 108.466 178.476C108.751 178.373 109.036 178.276 109.326 178.191C109.66 178.082 109.999 177.985 110.332 177.888C110.35 177.888 110.362 177.888 110.374 177.882C110.689 177.792 111.004 177.713 111.319 177.64C111.338 177.634 111.356 177.634 111.374 177.628C111.422 177.616 111.477 177.604 111.525 177.592C111.986 177.483 112.452 177.386 112.918 177.301C112.955 177.295 112.991 177.289 113.034 177.283C113.209 177.247 113.385 177.217 113.567 177.192C113.585 177.186 113.603 177.18 113.621 177.18C114.154 177.096 114.687 177.023 115.226 176.968C115.238 176.962 115.244 176.962 115.257 176.962C115.275 176.962 115.287 176.956 115.305 176.956C115.59 176.926 115.88 176.902 116.165 176.884C116.492 176.853 116.819 176.835 117.152 176.817C117.607 176.799 118.067 176.787 118.521 176.787C118.885 176.787 119.248 176.793 119.606 176.805C119.624 176.805 119.642 176.805 119.666 176.811C119.781 176.817 119.89 176.817 120.005 176.829C120.23 176.835 120.454 176.847 120.672 176.866C120.696 176.866 120.72 176.866 120.744 176.872C121.084 176.89 121.429 176.92 121.774 176.962C121.792 176.962 121.81 176.962 121.835 176.968C122.12 176.999 122.404 177.029 122.689 177.071C122.749 177.077 122.816 177.089 122.877 177.096C123.064 177.12 123.252 177.15 123.434 177.18C123.719 177.229 124.003 177.277 124.288 177.332C124.567 177.386 124.839 177.441 125.118 177.501C125.197 177.519 125.275 177.531 125.354 177.556C125.633 177.616 125.905 177.683 126.184 177.755C126.22 177.761 126.25 177.767 126.287 177.779C126.565 177.852 126.838 177.931 127.117 178.009C127.123 178.009 127.129 178.009 127.135 178.016C127.831 178.221 128.522 178.445 129.207 178.693C129.437 178.784 129.661 178.869 129.891 178.96C130.2 179.081 130.503 179.208 130.799 179.341C131.102 179.468 131.399 179.607 131.696 179.747C131.993 179.892 132.29 180.037 132.586 180.188C132.877 180.34 133.168 180.491 133.459 180.654C133.822 180.854 134.18 181.066 134.531 181.284C134.809 181.447 135.088 181.623 135.361 181.81C135.676 182.01 135.985 182.222 136.287 182.446C136.578 182.646 136.863 182.858 137.148 183.081C137.166 183.094 137.178 183.106 137.196 183.118C137.214 183.13 137.232 183.148 137.251 183.16C137.438 183.293 137.62 183.439 137.802 183.596C138.504 184.159 139.183 184.758 139.843 185.394C140.273 185.805 140.685 186.229 141.073 186.659C141.236 186.834 141.4 187.01 141.557 187.191C141.666 187.312 141.775 187.433 141.878 187.554C142.696 188.511 143.447 189.503 144.126 190.532C144.447 191.016 144.749 191.507 145.04 192.003C145.319 192.475 145.579 192.959 145.828 193.443C145.882 193.546 145.937 193.655 145.991 193.758C146.131 194.049 146.27 194.333 146.403 194.624C146.536 194.914 146.664 195.205 146.785 195.495C147.009 196.01 147.215 196.536 147.402 197.063C147.518 197.378 147.627 197.698 147.73 198.019C147.827 198.316 147.917 198.612 147.996 198.909C148.02 198.987 148.045 199.06 148.063 199.139C148.129 199.369 148.19 199.599 148.251 199.823C148.287 199.968 148.329 200.119 148.36 200.271C148.414 200.488 148.462 200.706 148.511 200.924C148.584 201.251 148.65 201.578 148.711 201.905C148.765 202.183 148.808 202.462 148.85 202.74C148.893 203.012 148.935 203.285 148.965 203.557C148.99 203.745 149.014 203.932 149.032 204.12C149.062 204.362 149.087 204.61 149.105 204.858C149.117 204.998 149.129 205.131 149.141 205.27C149.323 207.879 149.177 210.511 148.693 213.09Z" fill="#717171"/>
<path d="M87.0829 254.763L84.4844 249.83C84.4844 249.83 84.6782 245.563 85.8533 246.199C86.8467 246.738 86.3076 248.093 86.1199 248.505C86.5802 247.694 90.2372 243.844 91.0792 247.572C91.9999 251.663 87.0829 254.763 87.0829 254.763Z" fill="#FFC6B2"/>
<g opacity="0.15">
<path opacity="0.15" d="M73.85 173.391L47.6066 228.756C47.3466 228.635 47.0864 228.508 46.8264 228.381C46.4755 228.212 46.1248 228.031 45.78 227.843C45.3385 227.607 44.909 227.354 44.4796 227.094C44.2922 226.985 44.1047 226.87 43.9232 226.749C42.9071 226.103 41.9212 225.39 40.9717 224.61C40.8264 224.495 40.6814 224.374 40.5361 224.247C40.379 224.114 40.2216 223.981 40.0645 223.842L65.2675 170.672C65.2736 170.678 65.2857 170.678 65.2917 170.678C65.576 170.726 65.8602 170.775 66.1445 170.829C66.4227 170.883 66.6948 170.938 66.9732 170.998C67.0517 171.016 67.1304 171.028 67.209 171.053C67.4872 171.113 67.7595 171.18 68.0377 171.252C68.074 171.258 68.1041 171.264 68.1404 171.276C68.4186 171.349 68.6908 171.427 68.9691 171.506C68.975 171.506 68.9812 171.506 68.9871 171.512C69.6828 171.717 70.3722 171.941 71.0557 172.189C71.2855 172.279 71.5094 172.364 71.7391 172.455C72.0476 172.576 72.35 172.702 72.6464 172.835C72.9488 172.962 73.2451 173.101 73.5415 173.24C73.6444 173.289 73.7472 173.343 73.85 173.391Z" fill="white"/>
</g>
<g opacity="0.15">
<path opacity="0.15" d="M84.1868 181.615L60.5259 231.534H60.3687C60.0905 231.534 59.8062 231.528 59.528 231.522C59.3344 231.516 59.141 231.51 58.9474 231.498C58.7901 231.492 58.6389 231.486 58.4817 231.474C58.2397 231.462 57.9978 231.444 57.7618 231.42C57.526 231.401 57.2902 231.377 57.0542 231.353C56.9999 231.347 56.9454 231.341 56.8909 231.335C56.8608 231.329 56.8305 231.329 56.8002 231.323C56.5643 231.299 56.3345 231.268 56.1048 231.238C55.9837 231.22 55.8688 231.202 55.7539 231.184L80.8964 178.152C81.1627 178.388 81.4227 178.63 81.6767 178.878C82.1061 179.289 82.5175 179.712 82.9045 180.141C83.0678 180.316 83.2311 180.491 83.3884 180.672C83.4974 180.793 83.6062 180.914 83.709 181.035C83.8723 181.228 84.0356 181.416 84.1868 181.615Z" fill="white"/>
</g>
<path d="M364.574 343.132H280.362C278.266 343.132 276.566 341.434 276.566 339.339V246.754C276.566 244.659 278.266 242.961 280.362 242.961H364.574C366.67 242.961 368.369 244.659 368.369 246.754V339.339C368.369 341.434 366.67 343.132 364.574 343.132Z" fill="#719BFF"/>
<path d="M280.363 341.922C278.937 341.922 277.777 340.763 277.777 339.338V246.752C277.777 245.327 278.937 244.168 280.363 244.168H364.575C366.001 244.168 367.161 245.327 367.161 246.752V339.338C367.161 340.763 366.001 341.922 364.575 341.922H280.363Z" fill="white"/>
<path d="M348.488 277.204C348.488 291.563 336.839 303.203 322.466 303.203C308.096 303.203 296.447 291.563 296.447 277.204C296.447 262.845 308.096 251.203 322.466 251.203C336.839 251.203 348.488 262.845 348.488 277.204Z" fill="#0A48D8"/>
<path d="M346.814 277.204C346.814 290.639 335.915 301.53 322.466 301.53C309.021 301.53 298.121 290.639 298.121 277.204C298.121 263.768 309.021 252.875 322.466 252.875C335.915 252.875 346.814 263.768 346.814 277.204Z" fill="white"/>
<path d="M327.5 277.207C327.5 278.596 326.938 279.853 326.026 280.764C325.114 281.672 323.856 282.235 322.466 282.235C321.078 282.235 319.817 281.672 318.908 280.764C317.996 279.853 317.434 278.596 317.434 277.207C317.434 276.976 317.448 276.751 317.481 276.532C317.628 275.413 318.146 274.412 318.908 273.649C319.817 272.738 321.078 272.176 322.466 272.176C323.856 272.176 325.114 272.738 326.026 273.649C326.789 274.412 327.306 275.413 327.453 276.532C327.486 276.751 327.5 276.976 327.5 277.207Z" fill="#C2D1F2"/>
<path d="M311.064 266.806C308.703 269.387 307.211 272.773 307.045 276.502H299.928C300.102 270.81 302.387 265.65 306.032 261.777L311.064 266.806Z" fill="#3CD278"/>
<path d="M321.763 254.684V261.796C318.031 261.961 314.642 263.452 312.061 265.811L307.029 260.783C310.905 257.141 316.066 254.858 321.763 254.684Z" fill="#D250DC"/>
<path d="M337.906 260.783L332.874 265.811C330.29 263.452 326.902 261.961 323.17 261.796V254.684C328.866 254.858 334.031 257.141 337.906 260.783Z" fill="#FFC837"/>
<path d="M345.006 276.502H337.888C337.722 272.773 336.23 269.387 333.869 266.806L338.901 261.777C342.546 265.65 344.831 270.81 345.006 276.502Z" fill="#FF8989"/>
<path d="M322.469 279.703C323.848 279.703 324.967 278.585 324.967 277.207C324.967 275.828 323.848 274.711 322.469 274.711C321.089 274.711 319.971 275.828 319.971 277.207C319.971 278.585 321.089 279.703 322.469 279.703Z" fill="black"/>
<path d="M326.613 288.002V292.476C326.613 292.872 326.292 293.193 325.896 293.193H323.946C323.55 293.193 323.229 292.872 323.229 292.476V288.002C323.229 287.606 323.55 287.285 323.946 287.285H325.896C326.292 287.285 326.613 287.606 326.613 288.002ZM316.808 288.002V292.476C316.808 292.872 316.487 293.193 316.091 293.193H314.141C313.745 293.193 313.424 292.872 313.424 292.476V288.002C313.424 287.606 313.745 287.285 314.141 287.285H316.091C316.487 287.285 316.808 287.606 316.808 288.002ZM321.707 288.002V292.476C321.707 292.872 321.386 293.193 320.99 293.193H319.04C318.644 293.193 318.323 292.872 318.323 292.476V288.002C318.323 287.606 318.644 287.285 319.04 287.285H320.99C321.386 287.285 321.707 287.606 321.707 288.002ZM331.512 288.002V292.476C331.512 292.872 331.192 293.193 330.795 293.193H328.846C328.449 293.193 328.129 292.872 328.129 292.476V288.002C328.129 287.606 328.449 287.285 328.846 287.285H330.795C331.192 287.285 331.512 287.606 331.512 288.002Z" fill="#C2D1F2"/>
<path d="M322.468 277.767C322.283 277.767 322.102 277.676 321.994 277.509C321.826 277.249 321.901 276.9 322.162 276.732L336.17 267.688C336.431 267.519 336.779 267.594 336.948 267.855C337.117 268.116 337.042 268.464 336.781 268.632L322.773 277.677C322.678 277.738 322.572 277.767 322.468 277.767Z" fill="black"/>
<path d="M299.674 311.26V320.194C299.674 320.697 299.271 321.107 298.761 321.107H285.294C284.784 321.107 284.381 320.697 284.381 320.194V311.26C284.381 310.758 284.784 310.348 285.294 310.348H298.761C299.271 310.348 299.674 310.758 299.674 311.26Z" fill="#3CD278"/>
<path d="M319.969 311.26V320.194C319.969 320.697 319.566 321.107 319.056 321.107H305.589C305.079 321.107 304.676 320.697 304.676 320.194V311.26C304.676 310.758 305.079 310.348 305.589 310.348H319.056C319.566 310.348 319.969 310.758 319.969 311.26Z" fill="#D250DC"/>
<path d="M340.262 311.26V320.194C340.262 320.697 339.859 321.107 339.349 321.107H325.882C325.372 321.107 324.969 320.697 324.969 320.194V311.26C324.969 310.758 325.372 310.348 325.882 310.348H339.349C339.859 310.348 340.262 310.758 340.262 311.26Z" fill="#FFC837"/>
<path d="M360.555 311.26V320.194C360.555 320.697 360.152 321.107 359.642 321.107H346.175C345.665 321.107 345.262 320.697 345.262 320.194V311.26C345.262 310.758 345.665 310.348 346.175 310.348H359.642C360.152 310.348 360.555 310.758 360.555 311.26Z" fill="#FF8989"/>
<path d="M297.68 325.363C297.68 325.767 297.355 326.092 296.951 326.092H287.098C286.7 326.092 286.375 325.767 286.375 325.363C286.375 324.965 286.7 324.641 287.098 324.641H296.951C297.355 324.641 297.68 324.965 297.68 325.363ZM297.68 329.023C297.68 329.427 297.355 329.752 296.951 329.752H287.098C286.7 329.752 286.375 329.427 286.375 329.023C286.375 328.625 286.7 328.301 287.098 328.301H296.951C297.355 328.301 297.68 328.625 297.68 329.023ZM297.68 332.684C297.68 333.088 297.355 333.412 296.951 333.412H287.098C286.7 333.412 286.375 333.088 286.375 332.684C286.375 332.285 286.7 331.961 287.098 331.961H296.951C297.355 331.961 297.68 332.285 297.68 332.684ZM317.974 325.363C317.974 325.767 317.649 326.092 317.245 326.092H307.392C306.993 326.092 306.669 325.767 306.669 325.363C306.669 324.965 306.993 324.641 307.392 324.641H317.245C317.649 324.641 317.974 324.965 317.974 325.363ZM317.974 329.023C317.974 329.427 317.649 329.752 317.245 329.752H307.392C306.993 329.752 306.669 329.427 306.669 329.023C306.669 328.625 306.993 328.301 307.392 328.301H317.245C317.649 328.301 317.974 328.625 317.974 329.023ZM317.974 332.684C317.974 333.088 317.649 333.412 317.245 333.412H307.392C306.993 333.412 306.669 333.088 306.669 332.684C306.669 332.285 306.993 331.961 307.392 331.961H317.245C317.649 331.961 317.974 332.285 317.974 332.684ZM338.267 325.363C338.267 325.767 337.943 326.092 337.538 326.092H327.686C327.287 326.092 326.962 325.767 326.962 325.363C326.962 324.965 327.287 324.641 327.686 324.641H337.538C337.943 324.641 338.267 324.965 338.267 325.363ZM338.267 329.023C338.267 329.427 337.943 329.752 337.538 329.752H327.686C327.287 329.752 326.962 329.427 326.962 329.023C326.962 328.625 327.287 328.301 327.686 328.301H337.538C337.943 328.301 338.267 328.625 338.267 329.023ZM338.267 332.684C338.267 333.088 337.943 333.412 337.538 333.412H327.686C327.287 333.412 326.962 333.088 326.962 332.684C326.962 332.285 327.287 331.961 327.686 331.961H337.538C337.943 331.961 338.267 332.285 338.267 332.684ZM358.561 325.363C358.561 325.767 358.236 326.092 357.832 326.092H347.979C347.581 326.092 347.256 325.767 347.256 325.363C347.256 324.965 347.581 324.641 347.979 324.641H357.832C358.236 324.641 358.561 324.965 358.561 325.363ZM358.561 329.023C358.561 329.427 358.236 329.752 357.832 329.752H347.979C347.581 329.752 347.256 329.427 347.256 329.023C347.256 328.625 347.581 328.301 347.979 328.301H357.832C358.236 328.301 358.561 328.625 358.561 329.023ZM358.561 332.684C358.561 333.088 358.236 333.412 357.832 333.412H347.979C347.581 333.412 347.256 333.088 347.256 332.684C347.256 332.285 347.581 331.961 347.979 331.961H357.832C358.236 331.961 358.561 332.285 358.561 332.684Z" fill="#DAE3F7"/>
<path d="M364.893 234.186H262.992C261.072 234.186 259.516 232.631 259.516 230.712V153.74C259.516 151.821 261.072 150.266 262.992 150.266H364.893C366.813 150.266 368.369 151.821 368.369 153.74V230.712C368.369 232.631 366.813 234.186 364.893 234.186Z" fill="#E4F0FD"/>
<g opacity="0.08">
<path opacity="0.08" d="M293.503 164.574C298.038 164.784 302.05 166.982 304.69 170.317C305.539 171.389 306.247 172.579 306.784 173.859L292.783 179.72L293.503 164.574Z" fill="black"/>
<path opacity="0.08" d="M306.007 182.223C306.007 190.597 299.214 197.385 290.823 197.385C286.357 197.385 282.339 195.452 279.554 192.381C276.094 188.55 274.567 182.958 276.487 177.088C278.55 170.78 284.763 166.739 291.397 167.07C291.446 167.072 291.494 167.075 291.542 167.079L290.823 182.223L304.829 176.359C305.586 178.161 306.007 180.15 306.007 182.223Z" fill="black"/>
</g>
<g opacity="0.08">
<path opacity="0.08" d="M307.465 202.684H272.82V205.61H307.465V202.684Z" fill="black"/>
<path opacity="0.08" d="M307.465 210.352H272.82V213.278H307.465V210.352Z" fill="black"/>
<path opacity="0.08" d="M307.465 218.023H272.82V220.95H307.465V218.023Z" fill="black"/>
</g>
<g opacity="0.08">
<path opacity="0.08" d="M349.886 194.194C346.531 197.251 342.138 198.531 337.912 198.038C336.552 197.88 335.21 197.538 333.924 197.013L339.677 182.977L349.886 194.194Z" fill="black"/>
<path opacity="0.08" d="M328.553 190.552C322.627 184.63 322.627 175.031 328.56 169.102C331.718 165.946 335.927 164.474 340.07 164.679C345.227 164.942 350.264 167.818 353.061 173.325C356.066 179.244 354.532 186.491 349.607 190.944C349.571 190.977 349.535 191.009 349.498 191.04L339.29 179.824L333.535 193.866C331.725 193.126 330.02 192.017 328.553 190.552Z" fill="black"/>
</g>
<g opacity="0.08">
<path opacity="0.08" d="M356.143 202.684H321.498V205.61H356.143V202.684Z" fill="black"/>
<path opacity="0.08" d="M356.143 210.352H321.498V213.278H356.143V210.352Z" fill="black"/>
<path opacity="0.08" d="M356.143 218.023H321.498V220.95H356.143V218.023Z" fill="black"/>
</g>
<path d="M292.421 163.5C296.956 163.71 300.968 165.908 303.608 169.243C304.457 170.315 305.165 171.505 305.702 172.785L291.701 178.646L292.421 163.5Z" fill="#FCC922"/>
<path d="M304.927 181.147C304.927 189.522 298.134 196.309 289.743 196.309C285.276 196.309 281.259 194.377 278.474 191.305C276.045 188.616 274.568 185.059 274.568 181.147C274.568 172.772 281.361 165.984 289.743 165.984C289.986 165.984 290.229 165.984 290.462 166.003L289.743 181.147L303.749 175.283C304.506 177.085 304.927 179.074 304.927 181.147Z" fill="#9FBCFF"/>
<path d="M306.385 201.609H271.74V204.536H306.385V201.609Z" fill="#C2D1F2"/>
<path d="M306.385 209.281H271.74V212.208H306.385V209.281Z" fill="#C2D1F2"/>
<path d="M306.385 216.949H271.74V219.876H306.385V216.949Z" fill="#C2D1F2"/>
<path d="M348.804 193.12C345.449 196.176 341.056 197.456 336.83 196.964C335.47 196.806 334.128 196.464 332.842 195.939L338.595 181.902L348.804 193.12Z" fill="#FF8989"/>
<path d="M327.473 189.477C321.547 183.556 321.547 173.956 327.48 168.028C330.638 164.872 334.847 163.4 338.99 163.605C342.61 163.789 346.171 165.262 348.94 168.028C354.866 173.95 354.866 183.549 348.94 189.471C348.768 189.642 348.596 189.814 348.418 189.966L338.21 178.749L332.455 192.792C330.645 192.052 328.94 190.943 327.473 189.477Z" fill="#9FBCFF"/>
<path d="M355.06 201.609H320.416V204.536H355.06V201.609Z" fill="#C2D1F2"/>
<path d="M355.06 209.277H320.416V212.204H355.06V209.277Z" fill="#C2D1F2"/>
<path d="M355.06 216.949H320.416V219.876H355.06V216.949Z" fill="#C2D1F2"/>
<path d="M423.613 445.834C423.627 446.01 423.488 446.164 423.312 446.164H421.023C420.869 446.164 420.745 446.047 420.73 445.901L420.451 443.643H419.256L419.036 444.141L418.874 444.508L418.221 445.981C418.177 446.091 418.067 446.164 417.95 446.164H406.082C405.913 446.164 405.781 446.032 405.781 445.864V444.229C405.781 443.643 405.95 443.079 406.273 442.595C406.346 442.463 406.441 442.338 406.551 442.228C406.786 441.95 407.072 441.723 407.41 441.547L412.647 438.813C412.647 438.813 413.182 436.819 413.314 436.687C413.446 436.556 422.791 436.687 422.791 436.687L423.187 441.063L423.216 441.43L423.613 445.834Z" fill="#2A0054"/>
<path d="M419.035 444.139L418.874 444.506H410.585C410.49 444.506 410.402 444.425 410.402 444.323V442.593H406.272C406.346 442.461 406.441 442.336 406.551 442.227H410.585C410.688 442.227 410.769 442.307 410.769 442.41V444.139H419.035Z" fill="white"/>
<path d="M395.832 445.834C395.846 446.01 395.707 446.164 395.531 446.164H393.242C393.088 446.164 392.963 446.047 392.949 445.901L392.67 443.643H391.474L391.254 444.141L391.093 444.508L390.44 445.981C390.396 446.091 390.286 446.164 390.169 446.164H378.301C378.132 446.164 378 446.032 378 445.864V444.229C378 443.643 378.169 443.079 378.491 442.595C378.565 442.463 378.66 442.338 378.77 442.228C379.005 441.95 379.291 441.723 379.628 441.547L384.866 438.813C384.866 438.813 385.401 436.819 385.533 436.687C385.665 436.556 395.01 436.687 395.01 436.687L395.406 441.063L395.435 441.43L395.832 445.834Z" fill="#2A0054"/>
<path d="M391.255 444.139L391.094 444.506H382.805C382.71 444.506 382.622 444.425 382.622 444.323V442.593H378.492C378.566 442.461 378.661 442.336 378.771 442.227H382.805C382.908 442.227 382.989 442.307 382.989 442.41V444.139H391.255Z" fill="white"/>
<path d="M439.465 419.258L444.929 444.678C445.184 445.863 446.359 446.607 447.546 446.352C448.732 446.098 449.499 444.937 449.244 443.752L443.78 418.332C443.525 417.146 442.346 416.385 441.159 416.639C439.973 416.894 439.21 418.072 439.465 419.258ZM469.238 409.312L479.065 444.678C479.32 445.863 480.495 446.607 481.682 446.352C482.869 446.098 483.635 444.937 483.38 443.752L473.553 408.386C473.298 407.201 472.118 406.439 470.932 406.694C469.745 406.948 468.983 408.127 469.238 409.312Z" fill="black"/>
<path d="M403.969 412.294C418.22 420.764 435.597 423.998 451.853 420.837C468.127 417.659 483.113 407.994 492.381 394.269C501.631 380.525 504.941 362.831 500.84 346.771C499.02 339.587 495.691 332.66 490.395 327.461C484.915 322.077 477.67 319.027 470.039 318.127C462.959 317.281 455.567 318.292 448.966 320.993C443.357 323.29 438.227 326.689 433.74 330.768C429.731 334.406 426.201 338.558 423.167 343.042C421.659 345.247 420.482 347.782 418.808 349.859C417.319 351.733 416.013 353.147 414.91 355.352C408.75 367.773 402.682 380.268 396.577 392.725C396.209 393.479 395.823 394.25 395.492 395.04C394.922 396.382 394.48 397.778 394.388 399.229C394.039 404.907 399.077 409.39 403.969 412.294Z" fill="#BE3000"/>
<path d="M439.409 422.391C427.058 422.391 414.561 419.02 403.777 412.611C399.118 409.845 393.642 405.274 394.015 399.203C394.099 397.882 394.459 396.512 395.148 394.892C395.191 394.79 395.276 394.713 395.382 394.681C395.487 394.648 395.601 394.665 395.694 394.725C416.033 407.89 439.823 411.317 459.332 403.894C468.718 400.325 476.692 394.478 482.392 386.984C490.621 376.167 493.82 361.767 490.949 348.464C489.621 342.406 486.978 336.467 483.305 331.293C480.343 327.096 476.77 324.166 472.988 321.063C471.932 320.198 470.865 319.322 469.796 318.406C469.671 318.299 469.631 318.124 469.697 317.974C469.763 317.823 469.92 317.732 470.082 317.753C478.236 318.715 485.35 321.979 490.656 327.192C495.539 331.986 499.185 338.724 501.201 346.677C505.275 362.633 502.093 380.501 492.69 394.473C483.414 408.21 468.555 417.952 451.923 421.2C447.82 421.998 443.621 422.391 439.409 422.391ZM395.665 395.593C395.12 396.955 394.831 398.127 394.76 399.25C394.41 404.945 399.678 409.31 404.159 411.97C404.159 411.97 404.159 411.97 404.159 411.97C418.465 420.474 435.825 423.572 451.78 420.469C468.22 417.257 482.905 407.631 492.071 394.057C501.358 380.258 504.5 362.614 500.478 346.86C498.496 339.039 494.918 332.422 490.133 327.723C485.22 322.896 478.713 319.778 471.251 318.662C471.991 319.282 472.729 319.887 473.461 320.487C477.284 323.622 480.894 326.583 483.914 330.862C487.644 336.117 490.329 342.149 491.678 348.306C494.595 361.82 491.346 376.447 482.986 387.435C477.201 395.04 469.114 400.973 459.597 404.591C439.988 412.053 416.12 408.686 395.665 395.593Z" fill="white"/>
<path d="M397.436 436.072C397.519 438.156 383.413 438.711 383.331 436.627L380.944 388.536C380.817 384.085 383.58 380.061 387.781 378.575L433.366 374.863L446.995 378.855L446.953 382.486C447.606 391.445 440.507 397.332 431.517 397.332H402.947L397.436 436.072Z" fill="#3D1A3D"/>
<path d="M424.465 437.83C424.425 439.006 412.252 438.587 412.292 437.411L405.76 390.658C405.634 386.207 408.396 382.183 412.597 380.697L446.97 375.859L473.028 378.855L472.987 382.486C473.639 391.445 466.541 399.073 457.551 399.073H428.98L424.465 437.83Z" fill="#3D1A3D"/>
<path d="M467.342 392.528C467.345 392.564 466.944 392.656 466.178 392.443C465.432 392.231 464.294 391.63 463.433 390.261C462.728 389.086 462.506 387.694 462.604 386.367C462.703 385.032 463.117 383.743 463.69 382.558C464.396 381.17 465.089 380.244 465.544 379.633C466.008 379.025 466.267 378.745 466.312 378.776C466.358 378.807 466.182 379.147 465.792 379.8C465.41 380.456 464.784 381.413 464.142 382.775C463.588 383.921 463.199 385.146 463.104 386.404C463.012 387.652 463.225 388.941 463.864 390.002C464.612 391.275 465.611 391.885 466.277 392.161C466.96 392.44 467.348 392.456 467.342 392.528ZM415.084 380.14C415.085 380.207 414.582 380.22 413.616 380.425C412.664 380.638 411.198 381.073 409.641 382.289C408.309 383.293 407.3 384.681 406.71 386.243C406.108 387.803 405.875 389.495 405.866 391.177C405.845 393.168 406.039 394.663 406.119 395.659C406.213 396.656 406.238 397.157 406.182 397.165C406.129 397.173 406.003 396.688 405.823 395.7C405.657 394.711 405.39 393.215 405.364 391.174C405.374 389.447 405.611 387.697 406.242 386.063C406.857 384.427 407.933 382.947 409.336 381.891C411.006 380.647 412.566 380.265 413.564 380.131C414.579 380.006 415.086 380.098 415.084 380.14Z" fill="white"/>
<path d="M431.046 346.879C430.922 347.044 423.463 361.168 423.463 361.168C423.463 361.168 413.984 368.374 414.108 368.415C414.231 368.457 419.259 372.739 419.218 372.863C419.177 372.986 434.873 375.126 440.03 366.592C440.553 365.726 442.337 348.773 442.337 348.773L431.046 346.879Z" fill="#FFBDAE"/>
<path d="M440.946 330.523C440.946 330.523 432.817 336.002 429.562 346.874C429.562 346.874 444.109 352.35 444.315 352.062C444.521 351.774 446.705 343.868 446.705 343.868L440.946 330.523Z" fill="#FFDB96"/>
<path d="M440.424 331.182C443.856 326.592 469.169 323.73 479.036 332.304C481.663 334.586 474.892 379.753 474.892 379.753C474.591 383.262 431.229 378.049 431.53 374.539C431.53 374.539 436.706 336.155 440.424 331.182Z" fill="#FFDB96"/>
<path d="M455.475 376.954L425.523 374.836L423.41 376.954L425.288 379.574C425.288 379.574 436.039 379.668 436.508 379.574C436.978 379.48 442.424 378.542 443.363 378.542C444.302 378.542 452.612 378.964 452.799 378.964C452.987 378.964 455.475 376.954 455.475 376.954Z" fill="#2A0054"/>
<path d="M433.335 379.712C430.111 379.712 425.575 379.673 425.287 379.671C425.257 379.67 425.229 379.656 425.212 379.632L423.334 377.012C423.307 376.975 423.311 376.924 423.344 376.892L425.456 374.774C425.475 374.755 425.501 374.743 425.529 374.747L455.482 376.865C455.52 376.867 455.553 376.893 455.564 376.93C455.576 376.966 455.564 377.006 455.534 377.03C454.595 377.789 452.991 379.061 452.799 379.061C452.741 379.061 452.057 379.028 450.75 378.965C448.229 378.843 444.009 378.639 443.362 378.639C442.429 378.639 436.92 379.59 436.526 379.669C436.363 379.702 435.03 379.712 433.335 379.712ZM425.336 379.485C429.064 379.517 436.127 379.558 436.49 379.486C436.897 379.405 442.394 378.452 443.362 378.452C444.013 378.452 448.236 378.657 450.759 378.779C451.867 378.832 452.743 378.875 452.799 378.875C452.958 378.83 454.305 377.778 455.232 377.034L425.558 374.936L423.531 376.967L425.336 379.485Z" fill="#2A0054"/>
<path d="M432.447 381.41H399.183C398.594 381.41 398.072 381.031 397.891 380.471L388.456 351.381C388.172 350.504 388.826 349.605 389.748 349.605H422.131L432.447 381.41Z" fill="#719BFF"/>
<path d="M409.85 366.313C409.809 366.429 409.439 366.315 408.818 366.49C408.517 366.583 408.146 366.762 407.876 367.104C407.609 367.429 407.444 367.971 407.576 368.527C407.705 369.475 408.953 370.048 409.791 369.578C410.232 369.36 410.614 368.936 410.935 368.458C411.26 367.973 411.523 367.452 411.665 366.919C412.066 365.656 411.563 364.729 411.107 364.291C410.646 363.843 410.263 363.79 410.276 363.662C410.26 363.58 410.718 363.387 411.468 363.814C411.825 364.031 412.22 364.411 412.485 364.996C412.76 365.582 412.827 366.374 412.635 367.175C412.453 367.853 412.139 368.462 411.769 369.016C411.394 369.567 410.928 370.126 410.24 370.475C409.554 370.835 408.673 370.828 407.989 370.495C407.29 370.186 406.723 369.488 406.591 368.719C406.441 367.813 406.776 367.007 407.266 366.539C407.758 366.067 408.312 365.927 408.724 365.9C409.58 365.878 409.898 366.24 409.85 366.313Z" fill="white"/>
<path d="M435.206 381.41H432.447L422.135 349.605H423.93C424.5 349.605 425.007 349.978 425.183 350.52L435.206 381.41Z" fill="#2A0054"/>
<path d="M435.205 381.499H432.446C432.406 381.499 432.37 381.473 432.357 381.435L422.045 349.63C422.036 349.601 422.041 349.57 422.059 349.546C422.076 349.522 422.104 349.508 422.134 349.508H423.929C424.541 349.508 425.081 349.901 425.271 350.486L435.294 381.377C435.303 381.405 435.298 381.436 435.281 381.461C435.263 381.485 435.235 381.499 435.205 381.499ZM432.514 381.313H435.077L425.093 350.544C424.928 350.036 424.461 349.694 423.929 349.694H422.263L432.514 381.313Z" fill="#2A0054"/>
<path d="M432.443 376.961V381.411H459.159C459.159 378.954 457.172 376.961 454.713 376.961H432.443Z" fill="#2A0054"/>
<path d="M459.159 381.5H432.443C432.392 381.5 432.35 381.458 432.35 381.407V376.956C432.35 376.905 432.392 376.863 432.443 376.863H454.712C457.215 376.863 459.252 378.902 459.252 381.407C459.252 381.458 459.21 381.5 459.159 381.5ZM432.536 381.314H459.064C459.015 378.954 457.081 377.05 454.712 377.05H432.536V381.314Z" fill="#2A0054"/>
<path d="M433.376 374.929C434.271 383.629 448.472 377.903 448.472 377.903C448.56 377.903 462.909 378.438 476.667 378.746C482.663 378.877 487.515 373.919 487.259 367.928L487.303 354.137L470.29 353.852L469.873 364.171L445.973 368.822C445.973 368.822 441.707 365.35 440.542 367.32C439.501 369.078 442.103 370.03 442.667 370.213C441.436 369.891 432.526 366.704 433.376 374.929Z" fill="#FFBDAE"/>
<path d="M469.645 354.608C469.738 357.22 488.513 356.205 488.673 355.486C488.673 355.486 487.232 345.942 485.965 342.244C482.982 333.539 478.365 331.338 477.78 331.336C475.263 331.326 470.954 332.553 469.097 337.954C467.817 341.675 469.601 353.417 469.645 354.608Z" fill="#FFDB96"/>
<path d="M469.001 343.602C468.954 343.614 468.824 343.356 468.693 342.796C468.57 342.239 468.447 341.369 468.571 340.21C468.812 338.254 469.701 336.383 471.065 334.96C471.883 334.131 472.636 333.677 473.145 333.419C473.662 333.167 473.944 333.105 473.965 333.15C473.991 333.204 473.754 333.359 473.298 333.676C472.848 333.998 472.172 334.489 471.429 335.304C470.137 336.655 469.299 338.419 469.069 340.274C468.907 341.366 468.954 342.2 468.989 342.753C469.031 343.306 469.06 343.587 469.001 343.602Z" fill="white"/>
<path d="M469.062 349.781C469.169 349.771 469.323 350.357 469.483 351.557L469.631 353.086C469.692 353.58 469.703 354.147 469.807 354.561C469.922 355.028 470.343 355.214 470.591 355.342C470.853 355.466 470.996 355.535 470.984 355.592C470.974 355.642 470.817 355.676 470.502 355.627C470.346 355.6 470.146 355.552 469.92 355.424C469.698 355.305 469.438 355.056 469.327 354.707C469.187 354.124 469.199 353.656 469.131 353.134L468.984 351.605C468.914 350.396 468.95 349.792 469.062 349.781Z" fill="white"/>
<path d="M438.014 338.013C438.124 338.053 437.818 339.055 437.295 341.091C436.82 342.808 436.464 344.557 436.227 346.322C435.911 348.398 435.801 349.44 435.68 349.433C435.582 349.429 435.501 348.372 435.73 346.255C435.969 344.467 436.331 342.696 436.811 340.958C437.43 338.919 437.919 337.977 438.014 338.013Z" fill="white"/>
<path d="M423.01 435.767C422.983 435.766 422.972 435.49 422.977 434.936C422.984 434.383 422.999 433.553 423.049 432.445C423.139 430.229 423.335 426.901 423.678 422.456C424.29 414.927 425.003 407.409 425.479 399.878C425.576 398.364 425.664 396.975 425.744 395.711C427.383 395.654 428.816 395.605 430.043 395.563C431.212 395.533 432.185 395.507 432.963 395.487C433.741 395.471 434.324 395.466 434.713 395.47C435.102 395.474 435.296 395.488 435.297 395.511C435.298 395.534 435.106 395.565 434.719 395.603C434.332 395.642 433.751 395.688 432.975 395.742C432.198 395.791 431.226 395.852 430.06 395.925C428.95 395.987 427.654 396.059 426.171 396.142C426.113 397.285 426.05 398.541 425.98 399.909C425.503 407.452 424.79 414.972 424.178 422.497C423.808 426.936 423.532 430.254 423.348 432.463C423.253 433.566 423.182 434.393 423.135 434.945C423.079 435.495 423.038 435.769 423.01 435.767Z" fill="white"/>
<path d="M465.927 319.243V327.543L457.335 333.147L456.675 323.957C456.675 323.957 449.795 324.527 449.476 320.513C449.319 318.536 449.462 315.241 449.53 313.054C449.544 312.586 449.564 312.137 449.585 311.723C450.788 312.09 452.1 312.09 453.344 311.872C455.003 311.58 456.566 310.921 458.123 310.289C459.102 309.896 460.319 309.542 461.114 310.228C461.624 310.677 461.76 311.404 461.808 312.083C461.848 312.755 461.848 313.469 462.175 314.06C462.508 314.651 463.229 314.902 463.779 314.501C463.779 314.501 467.593 311.811 469 314.501C469.095 314.685 469.157 314.875 469.211 315.044C469.211 315.044 469.211 315.044 469.211 315.058C469.211 315.072 469.211 315.085 469.211 315.085C469.211 315.085 469.211 315.085 469.225 315.085C469.769 317.497 465.927 319.243 465.927 319.243Z" fill="#FFBDAE"/>
<path d="M463.779 310.168V314.502C463.228 314.903 462.507 314.651 462.174 314.06C461.848 313.469 461.848 312.756 461.807 312.084C461.76 311.404 461.624 310.678 461.114 310.229C460.318 309.543 459.101 309.896 458.122 310.29C456.566 310.922 455.002 311.581 453.343 311.873C452.099 312.091 450.787 312.091 449.584 311.724C449.652 310.12 449.727 309.007 449.727 309.007C449.727 309.007 453.609 305.719 454.01 305.719C454.418 305.719 460.57 307.668 460.862 307.777C461.154 307.879 463.779 310.168 463.779 310.168Z" fill="#FFBDAE"/>
<path d="M459.891 322.95C459.916 322.991 459.68 323.198 459.117 323.467C458.632 323.676 458.127 323.836 457.611 323.948C456.996 324.055 456.679 324.008 456.679 323.955C456.677 323.899 456.973 323.851 457.559 323.703C458.058 323.594 458.548 323.439 459.019 323.237C459.582 323.018 459.861 322.896 459.891 322.95ZM466.183 317.073C466.143 316.957 466.473 316.84 466.815 316.433C467.119 316.127 467.147 315.567 466.857 315.328C466.505 315 466.179 315.127 466.129 315.025C466.102 314.984 466.142 314.877 466.327 314.798C466.504 314.723 466.844 314.697 467.184 314.948C467.746 315.456 467.628 316.308 467.186 316.77C466.907 317.033 466.638 317.113 466.465 317.138C466.289 317.161 466.197 317.125 466.183 317.073Z" fill="#253066"/>
<path d="M465.928 319.244C465.928 319.244 469.769 317.498 469.211 315.086C469.211 315.086 469.211 315.073 469.211 315.045C469.157 314.876 469.096 314.686 469.001 314.502C467.593 311.812 463.78 314.502 463.78 314.502C463.229 314.903 462.508 314.652 462.175 314.061C461.849 313.47 461.849 312.756 461.808 312.084C461.761 311.405 461.625 310.678 461.115 310.229C460.319 309.543 459.102 309.897 458.123 310.291C456.567 310.922 452 310.445 450.351 310.101C443.683 308.711 446.404 300.498 450.476 299.292C452.953 298.558 455.553 299.425 458.134 299.536C469.22 300.011 470.679 305.947 471.135 308.067C472.774 315.681 468.166 320.197 465.928 319.244Z" fill="#8E4746"/>
<path d="M395.918 426.052C395.865 426.046 395.898 425.328 396.025 423.892C396.151 422.456 396.37 420.301 396.689 417.421C397.292 412.548 397.769 407.662 398.535 402.797C398.776 401.366 399.028 400.122 399.271 399.063C399.496 398.016 399.757 397.073 400.292 396.501C400.821 395.923 401.443 395.793 401.814 395.82C402.198 395.855 402.348 395.994 402.337 396.009C402.325 396.042 402.155 395.96 401.814 395.978C401.484 396 400.947 396.166 400.52 396.694C400.081 397.222 399.871 398.085 399.677 399.149C399.47 400.208 399.248 401.45 399.031 402.877C398.269 407.714 397.79 412.608 397.187 417.479C396.823 420.355 396.534 422.501 396.322 423.927C396.109 425.353 395.974 426.059 395.918 426.052Z" fill="white"/>
<path d="M386.541 431.917C386.55 431.804 387.338 431.791 388.916 431.777C390.253 431.799 391.591 431.754 392.923 431.64C394.497 431.547 395.284 431.506 395.301 431.621C395.316 431.723 394.553 431.953 392.965 432.14C391.616 432.255 390.261 432.301 388.908 432.278C387.31 432.2 386.532 432.022 386.541 431.917Z" fill="white"/>
<path d="M414.7 434.833C414.722 434.718 415.323 434.773 416.517 434.809C417.528 434.871 418.546 434.825 419.546 434.671C420.732 434.527 421.325 434.418 421.358 434.532C421.388 434.627 420.838 434.924 419.622 435.166C418.586 435.326 417.533 435.374 416.487 435.309C415.253 435.179 414.679 434.933 414.7 434.833Z" fill="white"/>
<path d="M473.661 368.204C473.588 368.221 473.527 367.677 473.014 366.758C472.589 365.977 471.955 365.31 471.198 364.844C470.308 364.285 469.768 364.195 469.789 364.122C469.788 364.088 470.367 364.083 471.33 364.631C472.125 365.12 472.788 365.818 473.234 366.637C473.732 367.628 473.696 368.206 473.661 368.204Z" fill="#253066"/>
<path d="M261.735 281.391H166.672C165.006 281.391 163.656 280.042 163.656 278.378V248.013C163.656 246.349 165.006 245 166.672 245H261.735C263.4 245 264.75 246.349 264.75 248.013V278.378C264.75 280.042 263.4 281.391 261.735 281.391Z" fill="#E4F0FD"/>
<path d="M178.781 273.452C184.719 273.452 189.532 268.643 189.532 262.71C189.532 256.778 184.719 251.969 178.781 251.969C172.844 251.969 168.031 256.778 168.031 262.71C168.031 268.643 172.844 273.452 178.781 273.452Z" fill="#FF8989"/>
<path d="M181.167 259.346C181.167 260.667 180.098 261.735 178.781 261.735C177.46 261.735 176.39 260.667 176.39 259.346C176.39 258.026 177.46 256.957 178.781 256.957C180.098 256.957 181.167 258.026 181.167 259.346ZM183.85 268.461H173.707C173.073 268.461 172.597 267.868 172.749 267.252C173.407 264.529 175.857 262.51 178.782 262.51C181.707 262.51 184.15 264.529 184.814 267.252C184.96 267.868 184.491 268.461 183.85 268.461Z" fill="white"/>
<path d="M214.087 262.222H195.396C194.793 262.222 194.303 261.733 194.303 261.13V255.432C194.303 254.829 194.793 254.34 195.396 254.34H214.087C214.69 254.34 215.18 254.829 215.18 255.432V261.13C215.18 261.733 214.69 262.222 214.087 262.222ZM259.516 266.387C259.516 266.919 259.087 267.354 258.554 267.354H195.269C194.736 267.354 194.301 266.919 194.301 266.387C194.301 265.855 194.736 265.426 195.269 265.426H258.554C259.087 265.426 259.516 265.855 259.516 266.387ZM229.641 270.805C229.641 271.336 229.211 271.772 228.673 271.772H195.269C194.736 271.772 194.301 271.336 194.301 270.805C194.301 270.273 194.736 269.838 195.269 269.838H228.673C229.211 269.838 229.641 270.273 229.641 270.805Z" fill="#C2D1F2"/>
<path d="M269.827 292.981V341.673C269.827 343.371 268.448 344.749 266.743 344.749H166.735C165.035 344.749 163.656 343.371 163.656 341.673V292.981C163.656 291.276 165.035 289.898 166.735 289.898H266.743C268.448 289.898 269.827 291.276 269.827 292.981Z" fill="#E4F0FD"/>
<g opacity="0.15">
<path opacity="0.15" d="M204.566 311.969C205.445 314.059 205.932 316.357 205.932 318.766C205.932 328.483 198.052 336.353 188.327 336.353C183.141 336.353 178.479 334.115 175.257 330.549C172.439 327.43 170.727 323.302 170.727 318.766C170.727 309.054 178.607 301.18 188.327 301.18C188.607 301.18 188.89 301.184 189.161 301.2L188.327 318.766L204.566 311.969Z" fill="black"/>
<path opacity="0.15" d="M206.319 309.067L190.08 315.864L190.914 298.297C196.176 298.54 200.826 301.089 203.888 304.958C204.874 306.203 205.697 307.583 206.319 309.067Z" fill="black"/>
</g>
<path d="M169.504 317.721C169.504 322.255 171.22 326.386 174.038 329.504C177.26 333.069 181.921 335.309 187.107 335.309C196.83 335.309 204.711 327.436 204.711 317.721C204.711 315.312 204.225 313.015 203.347 310.923L187.107 317.721L187.94 300.154C187.667 300.138 187.387 300.133 187.107 300.133C177.386 300.133 169.504 308.007 169.504 317.721Z" fill="white"/>
<path d="M189.692 297.25C194.952 297.493 199.605 300.043 202.668 303.911C203.653 305.154 204.474 306.535 205.097 308.019L188.857 314.817L189.692 297.25Z" fill="#1258FF"/>
<path d="M169.504 317.721C169.504 322.255 171.22 326.386 174.038 329.504L187.107 317.721L187.94 300.154C187.667 300.138 187.387 300.133 187.107 300.133C177.386 300.133 169.504 308.007 169.504 317.721Z" fill="#FFC837"/>
<path d="M261.949 299.18H214.203V308.613H261.949V299.18Z" fill="#719BFF"/>
<path d="M261.22 313.844H214.203V315.788H261.22V313.844Z" fill="#C2D1F2"/>
<path d="M261.22 319.098H214.203V321.042H261.22V319.098Z" fill="#C2D1F2"/>
<path d="M261.22 324.352H214.203V326.296H261.22V324.352Z" fill="#C2D1F2"/>
<path d="M261.22 329.605H214.203V331.55H261.22V329.605Z" fill="#C2D1F2"/>
<path d="M261.22 334.859H214.203V336.804H261.22V334.859Z" fill="#C2D1F2"/>
<path d="M483.578 241.052V286.276C483.578 287.409 482.659 288.328 481.525 288.328H425.053C423.919 288.328 423 287.409 423 286.276V241.052C423 239.919 423.919 239 425.053 239H481.525C482.659 239 483.578 239.919 483.578 241.052Z" fill="#719BFF"/>
<path d="M425.569 287.148C424.802 287.148 424.181 286.527 424.181 285.761V241.566C424.181 240.8 424.802 240.18 425.568 240.18H481.01C481.777 240.18 482.398 240.801 482.398 241.566V285.761C482.398 286.527 481.777 287.148 481.01 287.148H425.569V287.148Z" fill="white"/>
<path d="M483.578 242.504V242.977H423V242.504C423 240.574 424.57 239 426.506 239H480.072C482.008 239 483.578 240.574 483.578 242.504Z" fill="#A3B3E6"/>
<path d="M426.333 241.517C426.333 241.842 426.073 242.102 425.753 242.102C425.429 242.102 425.168 241.842 425.168 241.517C425.168 241.198 425.429 240.938 425.753 240.938C426.073 240.938 426.333 241.198 426.333 241.517ZM427.844 241.517C427.844 241.842 427.583 242.102 427.263 242.102C426.939 242.102 426.678 241.842 426.678 241.517C426.678 241.198 426.939 240.938 427.263 240.938C427.583 240.938 427.844 241.198 427.844 241.517ZM429.354 241.517C429.354 241.842 429.093 242.102 428.774 242.102C428.449 242.102 428.189 241.842 428.189 241.517C428.189 241.198 428.449 240.938 428.774 240.938C429.093 240.938 429.354 241.198 429.354 241.517Z" fill="white"/>
<path d="M436.93 261.923V280.641C436.93 281.003 436.637 281.295 436.275 281.295H432.781C432.42 281.295 432.127 281.003 432.127 280.641V261.923C432.127 261.562 432.42 261.27 432.781 261.27H436.275C436.637 261.27 436.93 261.562 436.93 261.923Z" fill="#FFC837"/>
<path d="M444.434 255.877V280.641C444.434 281.002 444.141 281.294 443.78 281.294H440.286C439.925 281.294 439.632 281.002 439.632 280.641V255.877C439.632 255.515 439.925 255.223 440.286 255.223H443.78C444.141 255.223 444.434 255.515 444.434 255.877Z" fill="#FF8989"/>
<path d="M451.938 266.459V280.643C451.938 281.004 451.645 281.297 451.284 281.297H447.79C447.429 281.297 447.136 281.004 447.136 280.643V266.459C447.136 266.097 447.429 265.805 447.79 265.805H451.284C451.645 265.805 451.938 266.097 451.938 266.459Z" fill="#FFC837"/>
<path d="M459.442 251.646V280.641C459.442 281.002 459.149 281.295 458.788 281.295H455.294C454.933 281.295 454.64 281.002 454.64 280.641V251.646C454.64 251.285 454.933 250.992 455.294 250.992H458.788C459.149 250.992 459.442 251.285 459.442 251.646Z" fill="#FF8989"/>
<path d="M466.946 258.611V280.642C466.946 281.003 466.653 281.296 466.292 281.296H462.798C462.437 281.296 462.144 281.003 462.144 280.642V258.611C462.144 258.25 462.437 257.957 462.798 257.957H466.292C466.653 257.957 466.946 258.25 466.946 258.611Z" fill="#FFC837"/>
<path d="M474.451 248.341V280.642C474.451 281.003 474.158 281.296 473.797 281.296H470.303C469.941 281.296 469.648 281.003 469.648 280.642V248.341C469.648 247.98 469.941 247.688 470.303 247.688H473.797C474.158 247.688 474.451 247.98 474.451 248.341Z" fill="#FF8989"/>
<path d="M444.864 152.572L463.96 123L430.024 129.222C430.003 129.226 429.993 129.255 430.006 129.275L444.816 152.572C444.828 152.59 444.852 152.591 444.864 152.572Z" fill="#6084A3"/>
<path d="M461.919 124.617L439.065 143.522C439.064 143.523 439.062 143.524 439.061 143.526L435.375 147.889C435.357 147.911 435.324 147.896 435.324 147.866L435.214 137.491C435.214 137.477 435.22 137.465 436.516 136.813L461.919 124.617Z" fill="#9AB7D0"/>
<path d="M435.432 147.914L440.701 146.177C440.721 146.171 440.728 146.144 440.716 146.125L439.084 143.557C439.073 143.54 439.051 143.538 439.039 143.553L435.402 147.858C435.381 147.883 435.403 147.924 435.432 147.914Z" fill="#9AB7D0"/>
</svg>
