<svg width="473" height="429" viewBox="0 0 473 429" fill="none" xmlns="http://www.w3.org/2000/svg">
<path d="M294.649 324.967C294.649 324.967 210.025 335.263 185.945 333.203C161.865 331.144 117.833 334.576 110.265 340.754C102.697 346.931 105.449 363.405 129.529 365.464C153.609 367.523 182.505 371.642 201.769 382.624C221.033 393.607 267.129 394.979 292.585 390.861C318.041 386.743 313.225 381.938 354.505 380.565C395.785 379.192 413.318 379.792 419.177 370.269C428.795 354.637 429.488 330.103 404.032 327.358C378.576 324.612 374.846 315.874 294.649 324.967Z" fill="#FFF9E5"/>
<path d="M149.333 347.403H144.535L141.871 248.254H151.465L149.333 347.403Z" fill="#7A5D5D"/>
<path d="M284.568 330.536H279.769L277.105 231.387H286.7L284.568 330.536Z" fill="#6D5151"/>
<path d="M378.685 327.803H373.886L371.223 231.234H380.817L378.685 327.803Z" fill="#6D5151"/>
<path d="M254.265 369.955H249.466L246.527 254.637H256.122L254.265 369.955Z" fill="#7A5D5D"/>
<path d="M306.388 232.285H278.502L239.461 237.452L129.227 243.808V249.887L252.334 259.031L385.127 236.5V230.422L306.388 232.285Z" fill="#876868"/>
<path d="M129.227 243.805L252.334 252.949L385.127 230.419L278.502 226.203L129.227 243.805Z" fill="#A38888"/>
<path d="M252.334 259.031V252.952L385.127 230.422L385.127 236.5L252.334 259.031Z" fill="#7A5D5D"/>
<path d="M258.586 228.64L196.577 236.137L182.066 203.413C181.457 202.042 181.797 199.892 183.289 199.706L239.467 193.1C241.796 192.811 244.59 194.66 245.54 196.801L258.586 228.64ZM280.816 232.331L258.91 230.881L227.004 234.848L198.354 236.189L198.289 238.418L242.875 241.745C242.931 241.749 242.988 241.747 243.044 241.738L297.917 233.419L297.981 231.189L280.816 232.331Z" fill="#6A7889"/>
<path d="M197.762 238.401L196.576 236.136L203.662 233.203L198.288 238.417L197.762 238.401Z" fill="#6A7889"/>
<path d="M258.974 228.651L198.353 236.188L183.842 203.465C183.234 202.093 184.124 200.525 185.615 200.339L239.32 193.662C241.648 193.373 243.892 194.64 244.841 196.781L258.974 228.651Z" fill="#7B889B"/>
<path d="M198.354 236.189L243.024 239.522L297.981 231.19L258.975 228.652L198.354 236.189Z" fill="#7B889B"/>
<path d="M257.694 228.709L200.062 235.763L186.164 204.42C185.556 203.048 186.446 201.48 187.938 201.294L238.548 195.025C240.877 194.736 243.12 196.003 244.07 198.144L257.694 228.709Z" fill="#A3B3E6"/>
<path d="M243.025 239.52L242.961 241.734L297.917 233.417L297.982 231.188L243.025 239.52Z" fill="#60707F"/>
<path d="M211.842 236.006L232.976 237.637C233.464 237.675 233.954 237.657 234.438 237.583L274.821 231.453C275.186 231.397 275.162 230.864 274.793 230.842L257.764 229.83C257.586 229.819 257.407 229.824 257.23 229.845L211.826 235.225C211.353 235.281 211.367 235.97 211.842 236.006Z" fill="#60707F"/>
<path d="M262.727 229.673L213.221 236.23L213.255 236.486L262.761 229.928L262.727 229.673Z" fill="#7B889B"/>
<path d="M267.244 229.931L220.117 236.93L220.155 237.184L267.282 230.185L267.244 229.931Z" fill="#7B889B"/>
<path d="M274.934 230.285L227.463 237.539L227.502 237.793L274.973 230.539L274.934 230.285Z" fill="#7B889B"/>
<path d="M267.412 235.283L253.529 237.301C253.423 237.316 253.316 237.309 253.213 237.28L249.575 236.251C249.384 236.196 249.402 235.921 249.599 235.892L261.935 234.097C262.086 234.075 262.239 234.077 262.389 234.103L267.417 234.965C267.598 234.995 267.594 235.256 267.412 235.283Z" fill="#60707F"/>
<path d="M179.773 230.078C179.773 230.078 179.695 231.551 179.592 233.488L179.564 234.026C179.547 234.301 179.535 234.584 179.519 234.867L179.473 235.737C179.461 235.93 179.453 236.122 179.44 236.319L179.395 237.193C179.391 237.292 179.383 237.386 179.379 237.485L179.35 238.055C179.342 238.15 179.338 238.244 179.333 238.334L179.305 238.884L179.264 239.668C179.259 239.75 179.255 239.832 179.251 239.914L179.202 240.825L179.111 242.561H179.103C179.103 242.573 179.111 242.585 179.107 242.598C179.103 242.647 179.095 242.696 179.07 242.749C178.733 243.484 176.204 244.054 173.164 244.054C170.672 244.054 168.521 243.669 167.645 243.127C167.53 243.053 167.435 242.979 167.369 242.905C167.279 242.807 167.229 242.704 167.221 242.598C167.221 242.585 167.225 242.577 167.225 242.565C167.221 242.561 166.555 230.078 166.555 230.078H179.773V230.078Z" fill="#F9C7C7"/>
<path d="M179.773 230.078C179.773 230.078 179.695 231.551 179.592 233.488C179.584 233.664 179.572 233.845 179.564 234.026C179.547 234.301 179.535 234.584 179.519 234.867C179.502 235.154 179.486 235.441 179.473 235.737C179.461 235.93 179.453 236.122 179.44 236.319C179.424 236.611 179.408 236.906 179.395 237.193C179.391 237.292 179.383 237.386 179.379 237.485C179.37 237.678 179.358 237.866 179.35 238.055C179.342 238.15 179.338 238.244 179.333 238.334C179.325 238.523 179.313 238.703 179.305 238.884C179.288 239.155 179.276 239.413 179.264 239.668C179.259 239.75 179.255 239.832 179.251 239.914C179.231 240.238 179.214 240.546 179.202 240.825C179.144 241.875 179.103 242.561 179.103 242.561C179.103 242.573 179.111 242.585 179.107 242.598C179.103 242.647 179.095 242.696 179.07 242.749C178.733 243.484 176.204 244.054 173.164 244.054C170.672 244.054 168.521 243.669 167.645 243.127C167.53 243.053 167.435 242.979 167.369 242.905C170.733 243.254 176.747 242.796 177.738 241.084C178.182 240.313 179.243 230.078 178.379 230.078H179.773V230.078Z" fill="#F4B3B3"/>
<path d="M171.57 230.078C171.294 235.273 170.895 241.17 170.525 241.412C169.855 241.843 168.67 241.761 168.411 241.412C168.267 241.219 167.933 236.539 167.305 230.078H171.57Z" fill="#FFD4D4"/>
<path d="M179.775 230.075C179.708 231.344 176.749 232.353 173.166 232.353C169.582 232.353 166.623 231.344 166.556 230.075C166.487 228.781 169.446 227.711 173.166 227.711C176.886 227.711 179.844 228.781 179.775 230.075Z" fill="#F4B3B3"/>
<path d="M179.29 230.079C179.245 231.097 177.175 231.937 174.462 232.148C174.044 232.176 173.611 232.194 173.165 232.194C172.88 232.194 172.604 232.189 172.328 232.175C172.135 232.166 171.947 232.153 171.763 232.139C170.907 232.065 170.117 231.932 169.441 231.749C168.01 231.363 167.072 230.763 167.04 230.079C166.994 229.198 168.461 228.432 170.604 228.088C170.604 228.088 170.609 228.088 170.609 228.083C170.898 228.037 171.206 228.001 171.519 227.969C172.043 227.918 172.595 227.891 173.165 227.891C176.61 227.891 179.35 228.877 179.29 230.079Z" fill="#77616F"/>
<path d="M171.997 229.956C173.036 227.912 172.963 224.011 171.938 222.195C169.958 218.687 168.315 218.673 167.662 220.414C167.009 222.154 169.332 231.507 170.6 231.231C171.191 231.103 171.654 230.63 171.997 229.956Z" fill="#388964"/>
<path d="M168.208 230.746C167.711 230.563 167.25 230.314 166.976 230.135C165.348 229.067 164.926 227.322 164.731 225.478C164.132 219.82 167.484 224.275 169.16 226.924C169.639 227.681 170.576 229.201 170.423 230.136C170.247 231.206 169.16 231.096 168.208 230.746Z" fill="#388964"/>
<path d="M173.166 230.951C173.361 230.484 173.086 224.867 170.947 221.947C168.808 219.026 168.816 226.514 169.789 230.019C170.761 233.523 173.166 230.951 173.166 230.951Z" fill="#2C7552"/>
<path d="M174.894 230.33C176.523 228.714 177.679 224.986 177.276 222.941C176.498 218.991 174.943 218.464 173.776 219.912C172.609 221.361 171.876 230.969 173.166 231.104C173.768 231.166 174.357 230.863 174.894 230.33Z" fill="#388964"/>
<path d="M174.92 231.543C177.051 231.665 179.943 231.075 181.943 228.39C183.985 225.65 182.915 223.831 181.165 224.898C179.415 225.965 175.645 229.43 174.893 230.535C174.391 231.273 174.92 231.543 174.92 231.543ZM172.45 227.368C174.581 227.491 178.042 226.942 179.014 223.741C179.987 220.54 178.51 218.649 177.353 220.339C175.708 222.74 173.175 225.255 172.423 226.36C171.921 227.098 172.45 227.368 172.45 227.368Z" fill="#2C7552"/>
<path d="M174.92 231.546C175.444 232.144 181.285 225.835 179.776 223.639C178.747 222.141 173.51 228.354 174.92 231.546ZM170.21 231.309C170.21 231.309 171.26 225.557 169.521 224.592C167.783 223.626 166.547 223.893 167.23 227.951C167.914 232.008 170.21 231.309 170.21 231.309Z" fill="#63E296"/>
<path d="M172.886 230.372C172.886 230.372 175.006 224.071 172.636 224.051C170.265 224.031 170.5 232.293 172.259 231.94L172.886 230.372Z" fill="#60A585"/>
<path d="M171.764 232.136C170.908 232.062 170.117 231.929 169.441 231.746C169.768 230.058 170.508 228.163 170.508 228.163C170.54 228.136 170.573 228.108 170.605 228.085C170.605 228.085 170.61 228.085 170.61 228.08C170.991 227.801 171.295 227.787 171.52 227.966C172.168 228.47 172.205 230.503 171.764 232.136Z" fill="#388964"/>
<path d="M174.462 232.147C174.043 232.175 173.611 232.193 173.165 232.193C172.88 232.193 172.604 232.189 172.328 232.175C172.443 231.569 172.576 231.055 172.576 231.055C172.576 231.055 174.062 227.977 174.876 228C176.692 228.055 175.055 231.184 174.462 232.147Z" fill="#2C7552"/>
<path d="M322.91 325.054C323.71 325.254 329.882 334.63 329.095 336.625C328.309 338.62 315.512 341.886 315.512 341.886L319.965 345.766C322.563 345.766 340.446 338.567 339.207 336.289C338.467 334.93 337.712 333.697 337.173 333.197C335.707 331.837 333.907 322.461 333.308 322.461C332.708 322.461 322.91 325.054 322.91 325.054Z" fill="#F78B84"/>
<path d="M329.808 338.817C329.808 338.817 332.268 335.655 335.307 334.055C338.006 332.633 337.926 333.901 338.806 334.528C341.372 336.357 342.505 340.081 342.305 341.078C342.105 342.075 330.737 346.991 317.721 349.509C312.403 350.538 308.492 348.392 306.514 346.697C304.536 345.001 310.706 341.218 313.112 341.311C326.609 341.833 329.852 338.606 329.808 338.817Z" fill="#2A102B"/>
<path d="M317.723 349.51C317.723 349.51 321.644 349.731 332.976 346.731C335.309 348.66 344.04 342.21 343.468 341.43C341.63 338.923 336.408 343.877 333.609 345.437C330.809 346.997 317.723 349.51 317.723 349.51Z" fill="#BF9090"/>
<path d="M310.304 349.085C310.013 348.982 309.74 348.859 309.488 348.712C308.601 348.192 307.851 347.434 307.076 346.766C308.812 348.262 311.785 348.908 314.001 349.066C316.647 349.253 319.374 348.861 321.941 348.238C324.048 347.727 326.105 347.023 328.11 346.2C336.786 342.638 342.103 339.461 342.103 339.461L343.468 341.431C343.468 341.431 338.907 342.543 332.975 346.732C331.875 345.771 332.175 346.799 329.909 347.198C327.422 347.636 325.037 348.555 322.522 348.847C318.7 349.29 314.062 350.413 310.304 349.085Z" fill="#D8B2B2"/>
<path d="M326.51 289.811L335.308 326.116C335.308 326.116 326.393 327.71 325.119 331.236C325.119 331.236 291.754 282.296 293.171 277.102C294.588 271.908 305.542 261.814 313.572 269.129C321.601 276.445 325.587 281.503 326.51 289.811Z" fill="#2A102B"/>
<path d="M335.308 322.462C335.308 322.462 337.18 326.383 336.244 326.251C335.308 326.118 327.112 329.577 326.763 330.452C326.414 331.327 325.118 331.238 325.118 331.238L322.713 328.843C322.713 328.843 332.29 322.25 335.308 322.462Z" fill="#8C6F7E"/>
<path d="M366.595 189.28C367.29 188.18 367.975 187.309 368.902 188.222C371.98 191.252 377.802 205.901 379.596 226.314C381.996 253.605 365.73 258.724 365.73 258.724C365.73 258.724 348.61 246.157 349.507 229.732C350.244 216.215 362.337 196.009 366.595 189.28Z" fill="#FFC379"/>
<path d="M337.739 208.424C327.608 211.386 323.612 200.405 322.811 199.877C322.01 199.342 326.808 196.418 331.076 189.43C332.355 187.329 332.696 184.518 332.551 181.6C332.399 178.531 331.7 175.348 330.981 172.788C330.111 169.675 329.209 167.467 329.209 167.467L351.602 162.316C351.602 162.316 350.272 179.927 351.337 182.851C352.402 185.776 364.707 188.57 365.773 188.57C366.845 188.57 347.87 205.462 337.739 208.424Z" fill="#FF998C"/>
<path d="M341.97 169.551C342.267 174.627 336.921 178.941 332.552 181.602C332.401 178.532 331.701 175.35 330.982 172.79C335.458 167.822 341.687 164.683 341.97 169.551Z" fill="#EA756C"/>
<path d="M338.266 137.314C333.57 138.276 329.763 141.724 328.264 146.266C327.153 149.632 325.89 154.367 324.943 160.509C322.81 174.34 323.61 177.517 336.407 177.658C349.204 177.798 356.066 169.181 359.068 160.775C362.581 150.94 354.984 133.891 338.266 137.314Z" fill="#FF998C"/>
<path d="M373.994 143.16C373.137 145.915 371.895 147.638 370.495 148.701C365.364 152.6 358.12 147.72 359.911 152.676C361.808 157.934 360.579 163.38 357.496 167.909C355.618 170.67 353.373 173.488 350.518 175.299C345.884 178.23 341.743 177.441 336.481 173.35C332.673 170.39 331.025 163.261 330.981 157.261C330.956 153.487 328.743 151.619 327.571 148.494C325.087 141.89 329.367 138.827 332.135 137.588C333.434 137.009 334.625 136.342 335.772 135.669C339.435 133.525 342.682 131.33 347.662 131.682C348.469 131.739 351.092 131.795 352.422 133.147C352.503 133.229 352.579 133.317 352.655 133.411C352.655 133.418 352.661 133.418 352.661 133.424C352.919 133.764 353.102 134.173 353.172 134.663V134.669C353.21 134.889 353.216 135.129 353.203 135.386C353.21 135.38 353.266 135.342 353.367 135.273C354.124 134.776 357.364 132.801 359.911 133.424C360.472 133.562 360.793 133.889 360.882 134.317C360.926 134.568 360.894 134.851 360.768 135.153C361.922 133.631 363.214 131.965 364.658 130.575C365.175 130.071 365.71 129.606 366.272 129.197C367.331 128.424 368.623 127.895 369.928 127.977C372.197 128.122 374.013 130.103 374.694 132.273C375.759 135.688 375.04 139.82 373.994 143.16Z" fill="#8E4746"/>
<path d="M370.495 148.702C365.364 152.602 358.12 147.721 359.911 152.677C359.911 152.677 355 143.809 356.002 144.344C356.929 144.847 364.456 149.256 370.495 148.702ZM352.66 133.427C351.816 131.577 351.802 139.676 349.803 139.986C347.803 140.296 356.717 142.317 352.66 133.427ZM358.839 139.614C358.694 139.784 358.549 139.91 358.398 139.985C357.982 140.199 358.221 140.067 358.839 139.614ZM364.658 130.576C364.355 135.173 360.415 138.45 358.839 139.614C359.652 138.67 360.358 136.406 360.882 134.318C360.926 134.569 360.894 134.852 360.768 135.154C361.922 133.633 363.214 131.966 364.658 130.576ZM345.919 135.84C344.397 139.647 339.329 138.636 336.147 139.455C333.187 140.217 331.41 142.642 329.885 145.114C329.671 145.46 330.216 145.776 330.429 145.432C331.47 143.744 332.611 141.976 334.328 140.898C336.163 139.745 338.327 139.771 340.41 139.564C342.895 139.316 345.526 138.512 346.526 136.007C346.677 135.631 346.067 135.468 345.919 135.84ZM352.766 151.091C352.081 152.731 352.114 154.412 352.106 156.159C352.095 158.227 351.787 160.085 350.657 161.857C348.362 165.458 344.269 167.204 340.481 168.791C340.113 168.945 340.275 169.554 340.649 169.397C344.322 167.858 348.169 166.219 350.65 162.96C351.714 161.564 352.433 159.961 352.644 158.213C352.927 155.862 352.433 153.51 353.374 151.258C353.529 150.885 352.919 150.722 352.766 151.091ZM348.229 146.069C347.518 147.511 346.593 148.902 345.192 149.761C343.786 150.622 342.131 150.881 340.585 151.381C338.707 151.989 336.973 153.021 336.312 154.968C336.182 155.352 336.79 155.517 336.92 155.135C337.97 152.043 341.693 151.951 344.268 150.911C346.397 150.052 347.778 148.406 348.773 146.386C348.951 146.024 348.408 145.705 348.229 146.069ZM368.791 130.033C367.256 130.262 366.281 131.523 365.84 132.928C365.415 134.283 364.899 136.689 366.646 137.332C367.876 137.784 369.069 136.94 369.516 135.808C369.841 134.982 369.706 133.499 368.466 133.933C368.085 134.066 368.249 134.673 368.633 134.539C369.032 135.177 369.019 135.705 368.595 136.124C368.056 137.011 367.218 136.785 366.081 135.445C365.96 134.949 366.204 134.064 366.321 133.576C366.604 132.384 367.235 131.143 368.488 130.745C371.71 129.723 371.753 134.899 371.324 136.777C370.349 141.054 366.286 143.688 361.994 143.255C361.59 143.215 361.593 143.844 361.994 143.884C365.928 144.281 369.801 142.22 371.402 138.556C372.405 136.26 372.991 129.404 368.791 130.033Z" fill="#773535"/>
<path d="M361.192 149.254C356.725 146.202 353.511 140.849 354.384 135.235C354.568 134.048 352.746 133.536 352.56 134.734C351.546 141.258 354.989 147.298 360.238 150.883C361.244 151.57 362.192 149.936 361.192 149.254Z" fill="#351234"/>
<path d="M327.207 160.399C327.318 158.003 328.47 155.736 330.416 154.327C331.545 153.51 332.712 153.121 333.34 154.261C334.807 156.921 332.576 169.102 329.21 167.471C327.601 166.69 327.029 164.249 327.207 160.399Z" fill="#FF998C"/>
<path d="M331.496 155.979C330.346 156.309 329.399 157.122 328.93 158.223C328.774 158.592 329.317 158.913 329.475 158.541C329.595 158.259 329.75 158.002 329.93 157.767C330.496 159.688 330.528 161.633 330.001 163.591C329.896 163.982 330.504 164.149 330.609 163.758C331.194 161.582 331.133 159.377 330.428 157.245C330.782 156.947 331.196 156.719 331.663 156.585C332.052 156.473 331.887 155.866 331.496 155.979Z" fill="#EA756C"/>
<path d="M330.259 167.71C330.196 167.311 329.588 167.48 329.651 167.877C329.677 168.039 329.745 168.398 329.629 168.552C329.438 168.803 329.141 168.644 328.987 168.47C328.802 168.261 328.793 167.987 328.853 167.711C329.199 167.512 329.384 167.066 329.18 166.659C329.194 166.644 329.21 166.633 329.224 166.615C329.451 166.329 329.177 165.979 328.842 166.122C328.743 165.979 328.625 165.846 328.467 165.742C328.345 165.663 328.187 165.702 328.085 165.792C327.548 166.268 327.324 167.215 327.977 167.648C327.985 167.72 327.995 167.791 328.013 167.862C328.039 167.964 328.125 168.04 328.224 168.073C328.228 168.575 328.431 169.023 329.028 169.24C329.375 169.365 329.764 169.324 330.033 169.055C330.39 168.697 330.33 168.16 330.259 167.71Z" fill="#FFEC8F"/>
<path d="M281.96 348.93C281.96 348.93 280.233 352.451 285.509 354.446C290.784 356.441 303.848 359.633 310.913 359.234V360.563C310.913 360.563 322.91 361.893 323.577 358.702L321.275 352.185L281.96 348.93Z" fill="#D8B2B2"/>
<path d="M317.528 345.438C316.912 345.801 279.282 345.357 284.469 347.546C289.656 349.735 313.745 355.13 317.528 353.158C321.311 351.187 317.528 345.438 317.528 345.438Z" fill="#3D1A3D"/>
<path d="M298.8 348.043C299.862 348.515 300.977 348.859 302.114 349.099C304.138 349.525 307.085 349.845 310.267 349.193C314.828 348.259 318.55 346.496 319.964 345.767C320.324 345.581 320.766 345.701 320.98 346.043C321.906 347.52 324.018 351.46 322.909 355.165C322.477 356.611 318.375 357.198 317.429 357.367C314.078 357.966 310.934 358.097 307.543 357.838C302.686 357.467 297.654 356.735 292.844 355.561C290.334 354.948 287.854 354.213 285.421 353.345C283.636 352.707 282.196 352.47 281.898 350.421C281.221 345.773 287.81 346.249 290.725 346.566C293.476 346.865 295.616 346.629 298.8 348.043Z" fill="#3D1A3D"/>
<path d="M315.548 326.118C317.241 334.54 318.901 343.131 321.276 348.119C321.276 348.119 305.637 355.461 299.375 348.311C296.217 344.706 310.095 346.9 309.079 345.44C308.89 345.169 300.716 324.152 300.716 324.152L315.548 326.118Z" fill="#FF998C"/>
<path d="M305.426 337.741C305.18 337.552 285.176 303.213 280.512 284.205C278.735 276.963 276.16 270.439 279.079 268.414C282.338 266.149 292.603 273.167 298.34 275.079C305.583 277.494 306.983 282.633 310.841 295.664C311.421 297.621 311.969 299.746 312.48 301.954C313.406 305.935 314.22 310.18 314.913 314.174C316.394 322.753 317.23 330.177 317.491 331.237C318.202 334.114 305.716 337.954 305.426 337.741Z" fill="#3D1A3D"/>
<path d="M303.268 333.05C303.268 333.05 313.127 331.055 316.997 328.914C317.346 328.721 317.776 328.948 317.818 329.343L318.075 331.754C318.153 332.483 317.784 333.185 317.137 333.532C314.644 334.871 308.364 338.011 304.671 337.796C301.664 337.621 302.186 332.564 303.268 333.05Z" fill="#8C6F7E"/>
<path d="M388.298 361.661C387.412 361.661 386.677 360.961 386.644 360.07C385.171 319.934 373.502 287.231 373.384 286.905C373.074 286.047 373.52 285.1 374.38 284.791C375.24 284.482 376.189 284.926 376.5 285.784C376.619 286.115 388.462 319.304 389.954 359.949C389.987 360.861 389.274 361.627 388.36 361.66C388.339 361.661 388.319 361.661 388.298 361.661ZM352.637 344.486C351.765 344.486 351.035 343.805 350.986 342.926C349.684 319.603 332.614 280.062 332.441 279.665C332.078 278.828 332.463 277.856 333.302 277.493C334.142 277.128 335.117 277.515 335.48 278.352C336.193 279.993 352.958 318.836 354.292 342.742C354.344 343.653 353.644 344.433 352.731 344.483C352.7 344.485 352.669 344.486 352.637 344.486ZM281.178 364.535C281.161 364.535 281.144 364.535 281.126 364.535C280.212 364.506 279.494 363.744 279.522 362.832C279.893 350.936 293.388 293.458 293.962 291.017C294.172 290.129 295.063 289.579 295.952 289.786C296.843 289.995 297.395 290.884 297.186 291.772C297.046 292.367 283.193 351.366 282.832 362.934C282.804 363.829 282.069 364.535 281.178 364.535ZM328.175 378.817C327.362 378.817 326.653 378.22 326.537 377.394C324.585 363.543 329.447 301.907 329.655 299.291C329.728 298.381 330.532 297.704 331.437 297.774C332.349 297.847 333.029 298.642 332.956 299.552C332.906 300.189 327.915 363.44 329.816 376.934C329.943 377.838 329.313 378.673 328.407 378.8C328.329 378.811 328.251 378.817 328.175 378.817Z" fill="#7B889B"/>
<path d="M385.823 288.971L338.139 303.229C337.13 303.525 336.09 303.707 335.05 303.764C333.814 303.826 332.566 303.719 331.349 303.443L291.545 294.285C290.007 293.933 288.967 289.487 291.388 288.763L325.184 279.738C327.151 279.065 329.25 278.851 331.312 279.122L383.182 283.411L385.596 283.612C387.803 283.581 387.336 288.518 385.823 288.971Z" fill="#E2E8F2"/>
<path d="M385.824 288.97L338.14 303.228C337.131 303.524 336.091 303.706 335.051 303.763C334.855 297.769 337.692 290.794 338.505 290.536C338.505 290.536 369.477 284.284 383.182 283.41L385.597 283.611C387.803 283.58 387.336 288.517 385.824 288.97Z" fill="#C3CEE0"/>
<path d="M338.14 300.711L385.825 286.456C387.338 286.004 387.159 283.812 385.593 283.61L331.312 276.604C329.249 276.338 327.152 276.549 325.184 277.221L291.39 288.761C289.896 289.271 290.007 291.416 291.546 291.77L331.348 300.929C333.593 301.446 335.933 301.371 338.14 300.711Z" fill="#EFF3F9"/>
<path d="M371.417 255.068C371.417 255.068 376.142 267.12 374.798 276.746C372.807 291.002 353.203 293.028 343.872 290.045C334.541 287.062 286.982 277.752 291.353 263.125C295.819 248.182 371.417 255.068 371.417 255.068Z" fill="#2A102B"/>
<path d="M357.614 261.292C357.614 261.292 370.678 291.305 349.616 294.265C328.554 297.225 295.608 289.806 289.897 284.99C284.185 280.174 275.128 272.558 279.079 268.411C283.03 264.264 286.144 264.398 291.353 263.123C296.562 261.849 352.549 249.563 357.614 261.292Z" fill="#3D1A3D"/>
<path d="M321.742 265.524C321.742 265.524 319.887 283.782 362.538 270.821L358.534 261.293L321.742 265.524Z" fill="#2A102B"/>
<path d="M328.018 190.669C328.654 190.211 329.393 189.923 330.174 189.836C334.51 189.354 344.57 185.843 351.338 182.852C354.17 181.6 360.98 183.98 366.851 186.538C376.606 190.789 371.527 223.015 370.496 235.517C369.723 244.9 372.232 254.529 374.187 258.468C376.131 262.381 372.008 263.342 370.799 263.726C362.464 266.379 335.451 272.857 327.176 270.36C317.478 267.435 321.477 263.445 321.477 258.657C321.477 253.87 323.971 232.988 322.724 229.731C321.477 226.473 316.99 197.239 319.673 195.237C321.696 193.729 326.34 191.877 328.018 190.669Z" fill="#FFDB96"/>
<path d="M299.998 235.974C294.107 235.259 283.377 236.92 279.456 243.552C276.573 248.428 300.454 252.448 302.471 250.32C303.313 249.432 305.847 243.137 299.998 235.974Z" fill="#FF998C"/>
<path d="M325.797 227.513C323.588 235.695 317.685 241.698 304.531 250.555C304.152 250.81 303.801 251.061 303.44 251.282C303.315 251.356 303.199 251.427 303.076 251.495C302.343 251.917 301.639 252.234 300.964 252.427C296.091 253.837 290.168 253.534 290.441 248.348C290.54 246.461 292.576 238.272 294.079 237.121C306.18 227.858 306.927 225.103 309.744 212.374C313.747 194.286 325.863 192.223 325.863 192.223C328.549 193.084 328.636 216.998 325.797 227.513Z" fill="#FFDB96"/>
<path d="M309.742 245.563L309.741 245.569C309.715 245.662 309.689 245.755 309.659 245.841C308.961 248.09 306.597 249.274 304.993 250.474C304.367 250.938 303.857 251.403 303.604 251.94C303.59 251.955 303.586 251.971 303.577 251.987C302.896 253.475 300.969 253.09 300.041 252.801C299.727 252.7 299.526 252.611 299.526 252.611C299.526 252.611 299.012 253.312 297.847 253.622C296.884 253.875 294.805 253.722 292.892 252.837C288.661 250.881 292.672 235.633 292.672 235.633C297.638 233.819 301.508 230.922 305.643 226.477C306.859 225.172 309.365 235.139 309.365 235.139C309.365 235.139 309.841 240.118 309.823 244.718C309.823 245.048 309.796 245.337 309.742 245.563Z" fill="#FFDB96"/>
<path d="M293.773 239.969C293.773 239.969 298.151 249.874 300.04 252.798C299.726 252.697 299.525 252.608 299.525 252.608C299.525 252.608 299.011 253.31 297.846 253.619C297.044 252.002 293.539 242.942 293.773 239.969ZM304.991 250.472C304.366 250.935 303.856 251.401 303.603 251.938C302.537 249.738 302.034 243.464 301.696 242.414L304.991 250.472ZM309.74 245.56L309.739 245.566C309.713 245.659 309.688 245.752 309.658 245.838C309.595 245.836 309.526 245.833 309.464 245.826C302.295 239.599 303.046 238.598 301.175 235.57C301.175 235.57 305.337 239.694 309.822 244.715C309.985 244.897 310.01 245.299 309.74 245.56ZM328.209 209.853C327.999 209.507 327.454 209.823 327.665 210.17C328.902 212.203 328.749 214.704 328.635 216.997C328.523 219.261 328.23 221.514 327.765 223.732C326.844 228.12 325.243 232.32 323.06 236.235C322.862 236.59 323.406 236.907 323.604 236.553C325.992 232.27 327.698 227.643 328.585 222.819C329.005 220.535 329.25 218.218 329.306 215.896C329.356 213.802 329.329 211.693 328.209 209.853Z" fill="#FFC379"/>
<path d="M283.887 247.876C283.887 247.876 262.559 239.467 259.807 237.923L268.349 236.035C268.349 236.035 272.764 236.207 292.257 236.264C292.257 236.264 285.607 244.1 283.887 247.876Z" fill="#FF998C"/>
<path d="M261.584 238.725C261.584 238.725 259.577 239.182 258.373 237.81C257.169 236.437 254.36 235.522 251.78 235.121C249.2 234.721 253.5 231.804 257.915 232.319C262.329 232.833 265.712 230.603 270.987 236.151L261.584 238.725Z" fill="#FF998C"/>
<path d="M334.759 219.889C336.434 215.577 369.85 212.632 383.461 210.37C386.158 209.922 388.544 212.145 388.278 214.861L385.714 241.037C385.463 243.603 383.55 245.7 381.012 246.191L343.938 253.359C340.727 253.98 337.63 251.853 337.073 248.637C335.56 239.908 333.145 224.043 334.759 219.889Z" fill="#EFF3F9"/>
<path d="M338.14 304.878C338.019 304.878 337.896 304.865 337.772 304.837C336.88 304.636 336.321 303.75 336.524 302.861C342.102 278.321 340.285 221.386 340.266 220.814C340.236 219.902 340.951 219.138 341.866 219.108C342.777 219.074 343.545 219.793 343.575 220.704C343.653 223.058 345.427 278.636 339.754 303.591C339.579 304.358 338.897 304.878 338.14 304.878ZM377.719 294.925C377.595 294.925 377.47 294.912 377.344 294.882C376.453 294.676 375.898 293.788 376.105 292.899C379.734 277.298 381.134 213.807 381.148 213.167C381.168 212.256 381.896 211.537 382.839 211.551C383.753 211.57 384.478 212.326 384.459 213.238C384.403 215.863 383.037 277.714 379.331 293.646C379.154 294.409 378.472 294.925 377.719 294.925Z" fill="#7B889B"/>
<path d="M217.14 336.572C217.14 336.572 228.507 319.591 233.246 305.499C237.549 292.703 247.198 291.359 250.195 286.408C253.192 281.458 252.687 276.093 255.795 274.794C256.197 274.627 260.288 290.657 257.175 296.609C254.062 302.561 247.955 302.971 248.256 306.687C248.557 310.404 241.78 339.156 231.797 346.138C221.814 353.12 215.695 340.19 217.14 336.572Z" fill="#3A937A"/>
<path d="M227.091 326.377C227.602 325.611 223.569 315.013 220.341 307.678C217.113 300.343 212.491 296.594 215.305 287.712C218.119 278.83 216.302 271.07 212.762 268.713C211.012 267.548 210.978 265.881 209.569 262.523C208.905 260.94 206.577 261.21 206.288 262.902C205.898 265.183 205.346 267.685 204.577 269.843C202.53 275.584 199.972 283.752 204.577 292.175C209.182 300.598 207.436 306.46 210.867 317.439C214.298 328.419 213.591 335.091 220.341 335.711C227.09 336.332 227.091 326.377 227.091 326.377Z" fill="#137058"/>
<path d="M239.945 352.454L238.041 368.15C237.674 371.183 236.396 373.811 234.577 375.644C232.875 377.368 230.693 378.386 228.346 378.386H218.393C213.537 378.386 209.412 374.029 208.698 368.15L206.794 352.454C206.326 348.62 208.754 345.172 211.92 345.172H234.819C237.985 345.172 240.413 348.62 239.945 352.454Z" fill="#93716F"/>
<path d="M237.29 356.053C237.162 356.053 237.066 356.102 237.001 356.176C236.924 356.135 236.833 356.113 236.725 356.137C235.28 356.461 233.828 356.7 232.371 356.879C232.533 355.68 232.69 354.481 232.831 353.278C234.04 353.183 235.249 353.078 236.457 352.952C236.968 352.899 236.973 352.093 236.457 352.147C235.279 352.27 234.1 352.373 232.92 352.467C233.022 351.579 233.116 350.69 233.206 349.801C233.929 349.704 234.651 349.604 235.373 349.491C235.884 349.411 235.667 348.636 235.158 348.715C234.537 348.812 233.916 348.897 233.294 348.981C233.299 348.922 233.307 348.862 233.313 348.803C233.363 348.287 232.556 348.291 232.506 348.803C232.497 348.899 232.485 348.996 232.475 349.093C229.581 349.46 226.677 349.691 223.767 349.788C223.734 349.355 223.694 348.921 223.635 348.487C223.566 347.976 222.789 348.194 222.857 348.701C222.907 349.069 222.946 349.438 222.976 349.806C220.305 349.873 217.629 349.832 214.953 349.672C214.434 349.641 214.436 350.446 214.953 350.477C217.646 350.637 220.338 350.676 223.024 350.606C223.062 351.377 223.066 352.148 223.043 352.918C221.097 352.944 219.149 352.936 217.202 352.884C217.207 352.769 217.21 352.655 217.215 352.54C217.239 352.023 216.433 352.024 216.408 352.54C216.403 352.647 216.401 352.753 216.396 352.859C216.029 352.847 215.662 352.84 215.295 352.826C214.776 352.805 214.777 353.61 215.295 353.63C215.652 353.644 216.009 353.652 216.365 353.663C216.319 354.809 216.284 355.956 216.261 357.102C216.219 357.1 216.176 357.099 216.133 357.097C215.614 357.074 215.615 357.879 216.133 357.901C216.17 357.903 216.207 357.905 216.243 357.906C216.214 359.861 216.217 361.815 216.256 363.771C216.266 364.288 217.073 364.29 217.063 363.771C217.024 361.827 217.02 359.884 217.049 357.941C218.912 358.021 220.776 358.083 222.639 358.108C222.378 360.684 222.122 363.262 222.291 365.853C222.325 366.368 223.131 366.371 223.097 365.853C222.928 363.262 223.171 360.687 223.424 358.114C224.546 358.122 225.667 358.118 226.787 358.084C226.526 360.285 226.243 362.483 225.935 364.678C225.863 365.185 226.64 365.404 226.712 364.892C227.032 362.617 227.325 360.339 227.596 358.058C228.879 358.005 230.161 357.921 231.439 357.79C231.053 360.542 230.617 363.287 230.123 366.024C230.031 366.53 230.809 366.747 230.901 366.237C231.413 363.4 231.866 360.554 232.262 357.7C233.828 357.514 235.387 357.26 236.939 356.912C237.015 356.895 237.07 356.86 237.115 356.819C237.165 356.842 237.223 356.857 237.29 356.857C238.009 356.858 241.559 356.053 237.29 356.053ZM217.067 357.138C217.09 355.988 217.124 354.838 217.171 353.688C219.117 353.74 221.063 353.749 223.008 353.723C222.947 354.919 222.839 356.113 222.72 357.307C220.836 357.283 218.951 357.219 217.067 357.138ZM226.879 357.282C225.755 357.317 224.629 357.321 223.503 357.314C223.62 356.113 223.728 354.913 223.79 353.711C224.954 353.69 226.118 353.66 227.281 353.612C227.154 354.836 227.02 356.059 226.879 357.282ZM231.551 356.975C230.266 357.112 228.978 357.2 227.688 357.255C227.83 356.03 227.964 354.804 228.091 353.578C229.4 353.516 230.708 353.439 232.015 353.343C231.872 354.555 231.715 355.766 231.551 356.975ZM232.107 352.531C230.797 352.628 229.487 352.707 228.175 352.769C228.201 352.521 228.228 352.273 228.253 352.025C228.304 351.51 227.497 351.514 227.446 352.025C227.421 352.285 227.392 352.544 227.365 352.803C226.186 352.853 225.005 352.884 223.825 352.905C223.85 352.133 223.85 351.36 223.816 350.586C226.68 350.488 229.539 350.261 232.388 349.906C232.299 350.782 232.207 351.657 232.107 352.531Z" fill="#896766"/>
<path d="M235.371 315.188C233.716 317.907 232.159 319.372 230.765 320.416C230.479 320.628 230.203 320.825 229.935 321.007C228.506 321.985 227.292 322.67 226.388 324.119C226.14 324.518 225.915 324.973 225.713 325.511C225.409 326.325 225.16 327.32 224.98 328.575C224.795 329.866 224.832 331.277 224.961 332.72C224.985 332.991 225.014 333.266 225.043 333.537C225.179 334.766 225.363 336.001 225.527 337.202C225.56 337.481 225.598 337.758 225.631 338.033C225.796 339.384 225.902 340.666 225.837 341.809C225.82 342.099 225.794 342.384 225.751 342.654C225.239 346.073 222.651 347.837 214.22 345.423C213.619 345.251 212.618 344.142 211.73 342.52C211.553 342.198 211.379 341.852 211.212 341.486C210.413 339.729 209.808 337.574 209.856 335.399C209.862 335.116 209.883 334.835 209.913 334.555C210.085 332.865 210.697 331.197 211.951 329.731C212.166 329.478 212.404 329.227 212.665 328.988C212.677 328.969 212.698 328.956 212.715 328.937C214.236 327.532 215.745 326.106 217.125 324.63C217.33 324.412 217.531 324.194 217.732 323.976C219.357 322.162 220.763 320.28 221.725 318.287C221.866 318.004 221.994 317.716 222.112 317.427C222.47 316.563 222.744 315.677 222.906 314.764C222.962 314.467 223.005 314.164 223.038 313.86C223.165 312.68 223.11 311.457 222.843 310.191C222.793 309.933 222.729 309.674 222.655 309.41C222.572 309.107 222.475 308.803 222.369 308.494C222.069 307.642 221.741 306.835 221.397 306.067C221.285 305.806 221.167 305.552 221.048 305.302C220.628 304.419 220.191 303.582 219.755 302.786C219.618 302.534 219.48 302.282 219.342 302.038C217.716 299.128 216.173 296.638 215.643 293.803C215.587 293.513 215.542 293.219 215.517 292.92C215.376 291.682 215.444 290.365 215.783 288.915C215.879 288.493 215.99 288.065 216.102 287.628C216.175 287.354 216.253 287.08 216.331 286.801C216.784 285.215 217.332 283.601 217.906 282.046C218.01 281.755 218.119 281.464 218.231 281.178C218.728 279.865 219.24 278.615 219.718 277.49C219.876 277.112 220.032 276.75 220.181 276.404C221.267 273.915 222.097 272.246 222.097 272.246C222.097 272.246 224.528 273.528 227.232 276.417C227.415 276.61 227.597 276.815 227.784 277.025C228.845 278.231 229.924 279.678 230.888 281.391C231.007 281.592 231.117 281.796 231.226 282.004C232.047 283.545 232.776 285.29 233.324 287.243C233.406 287.517 233.478 287.789 233.545 288.069C233.793 289.057 233.997 290.095 234.141 291.188C234.174 291.427 234.207 291.662 234.241 291.893C234.285 292.203 234.329 292.508 234.378 292.807C234.72 294.949 235.119 296.782 235.521 298.397C235.595 298.694 235.67 298.983 235.746 299.264C237.543 306.148 239.179 308.934 235.371 315.188Z" fill="#63E296"/>
<path d="M227.782 277.027C227.227 277.34 226.779 277.605 226.569 277.704C225.601 278.16 224.576 278.678 223.434 278.784C221.941 278.919 220.823 278.132 219.716 277.492C219.874 277.115 220.03 276.753 220.179 276.406C221.293 277.306 221.369 278.127 223.274 277.981C224.476 277.891 225.728 277.178 226.695 276.694C226.875 276.603 227.055 276.516 227.231 276.42C227.414 276.613 227.596 276.818 227.782 277.027ZM231.225 282.007C229.447 282.764 227.696 283.69 225.652 283.644C223.891 283.604 222.3 282.941 220.641 282.472C219.69 282.204 218.79 282.073 217.905 282.048C218.009 281.757 218.117 281.466 218.23 281.18C218.346 281.183 218.465 281.193 218.579 281.207C220.797 281.449 222.78 282.53 224.985 282.795C227.196 283.057 229.032 282.181 230.886 281.393C231.006 281.594 231.115 281.799 231.225 282.007ZM233.543 288.071C231.864 288.698 230.083 289.094 228.188 289.087C225.545 289.076 223.24 287.988 220.679 287.557C219.11 287.29 217.566 287.33 216.101 287.631C216.174 287.356 216.251 287.082 216.329 286.803C218.589 286.479 220.954 286.739 223.432 287.407C226.774 288.311 229.609 288.553 232.832 287.424C232.999 287.367 233.161 287.306 233.323 287.245C233.404 287.519 233.477 287.791 233.543 288.071ZM234.377 292.809C233.55 292.905 232.743 293.073 231.873 293.35C231.004 293.628 230.138 293.922 229.218 294.068C226.94 294.422 225.236 293.465 223.098 292.888C220.32 292.143 217.759 292.604 215.642 293.806C215.586 293.515 215.541 293.222 215.515 292.922C218.114 291.614 221.213 291.365 224.497 292.498C226.375 293.148 227.918 293.582 229.904 293.086C231.194 292.763 232.385 292.226 233.709 291.976C233.891 291.942 234.064 291.914 234.24 291.896C234.283 292.205 234.327 292.511 234.377 292.809ZM235.744 299.266C233.613 299.955 231.301 300.508 229.371 300.245C227.511 299.995 230.673 298.967 226.138 299.938C225.093 300.161 223.99 300.803 223.04 301.225C221.928 301.716 220.83 302.241 219.754 302.788C219.616 302.536 219.479 302.284 219.34 302.04C220.179 301.617 221.026 301.21 221.885 300.818C223.399 300.126 225.14 299.117 226.875 298.861C228.576 298.606 230.147 299.514 231.966 299.236C233.157 299.051 234.347 298.749 235.519 298.399C235.594 298.696 235.669 298.986 235.744 299.266ZM234.312 304.036C233.017 305.412 231.273 306.205 229.117 306.162C227.254 306.13 225.422 305.505 223.558 305.632C222.79 305.682 222.067 305.832 221.396 306.069C221.284 305.808 221.166 305.554 221.047 305.305C221.99 304.979 223.01 304.806 224.09 304.814C227.613 304.836 230.96 306.276 233.545 303.531C233.917 303.135 234.69 303.636 234.312 304.036ZM236.701 309.221C234.114 308.771 232.719 311.607 229.947 311.207C228.567 311.012 227.312 310.394 225.913 310.205C224.874 310.064 223.846 310.07 222.841 310.193C222.791 309.936 222.727 309.676 222.654 309.412C224.426 309.205 226.218 309.338 228.053 309.833C229.196 310.145 230.585 310.609 231.791 310.304C232.592 310.103 233.263 309.326 233.948 308.937C234.888 308.404 235.653 308.224 236.801 308.422C237.405 308.526 237.311 309.325 236.701 309.221ZM234.672 315.688C232.128 315.389 229.756 317.159 227.194 316.428C226.486 316.223 226.17 315.86 225.612 315.495C224.692 314.898 223.81 314.74 222.905 314.766C222.961 314.469 223.003 314.166 223.036 313.862C224.043 313.796 225.006 313.932 225.942 314.583C228.212 316.157 229.257 315.707 231.633 315.141C232.692 314.888 233.658 314.76 234.771 314.889C235.385 314.957 235.285 315.756 234.672 315.688ZM230.764 320.418C230.477 320.63 230.202 320.827 229.933 321.009C228.394 320.003 227.373 318.709 225.086 318.402C223.995 318.254 222.859 318.235 221.723 318.289C221.865 318.007 221.992 317.718 222.11 317.429C224.586 317.346 227.054 317.668 228.915 318.993C229.603 319.48 230.117 319.997 230.764 320.418ZM226.386 324.121C226.139 324.52 225.914 324.975 225.711 325.513C224.349 326.115 222.956 326.843 221.364 326.84C219.633 326.837 218.392 325.568 217.123 324.632C217.329 324.415 217.53 324.196 217.731 323.978C217.936 324.145 218.14 324.329 218.353 324.517C221.698 327.53 223.553 325.108 226.386 324.121ZM225.041 333.539C224.958 333.549 224.875 333.555 224.792 333.561C222.346 333.725 220.692 332.944 218.86 331.578C217.155 330.309 215.857 329.69 213.492 329.738C212.946 329.747 212.443 329.758 211.949 329.733C212.164 329.48 212.403 329.23 212.664 328.99C214.358 329.022 216.019 328.814 217.657 329.722C220.288 331.183 221.599 332.979 224.959 332.723C224.984 332.993 225.012 333.268 225.041 333.539ZM225.63 338.036C224.412 337.86 223.127 338.111 221.927 338.173C220 338.275 218.641 337.876 217.087 336.873C215.466 335.824 214.023 335.094 211.906 335.161C211.214 335.181 210.527 335.27 209.855 335.401C209.861 335.118 209.882 334.837 209.912 334.557C211.06 334.359 212.239 334.265 213.418 334.411C215.756 334.697 217.086 336.175 219.138 336.98C221.263 337.811 223.368 336.945 225.526 337.204C225.559 337.483 225.597 337.76 225.63 338.036ZM225.75 342.656C225.592 342.685 225.433 342.723 225.273 342.768C223.607 343.246 222.451 344.32 220.651 344.591C217.269 345.101 214.585 343.682 211.729 342.522C210.746 342.124 209.745 341.757 208.685 341.512C208.094 341.374 208.184 340.575 208.784 340.714C209.61 340.905 210.415 341.179 211.211 341.485C214.622 342.803 217.832 344.729 221.7 343.493C223.192 343.016 224.266 342.063 225.836 341.811C225.819 342.101 225.793 342.386 225.75 342.656Z" fill="#3A937A"/>
<path d="M218.699 343.183C217.067 349.216 209.149 345.971 209.149 345.971C209.149 345.971 203.455 343.477 203.576 337.856C203.58 337.594 203.596 337.321 203.632 337.043C203.729 336.182 203.967 335.253 204.374 334.251C204.987 332.75 205.439 331.06 205.741 329.27C205.786 329.008 205.826 328.747 205.862 328.481C205.987 327.588 206.076 326.678 206.129 325.753C206.149 325.439 206.161 325.121 206.169 324.807C206.209 323.58 206.185 322.337 206.1 321.106C206.076 320.792 206.052 320.478 206.019 320.168C205.842 318.273 205.515 316.414 205.048 314.672C204.951 314.318 204.854 313.972 204.745 313.63C204.467 312.733 204.148 311.876 203.793 311.071C203.672 310.793 203.543 310.524 203.41 310.262C202.741 308.914 201.954 307.735 201.047 306.79C200.926 306.661 200.809 306.532 200.696 306.392C200.518 306.186 200.349 305.965 200.188 305.736C199.466 304.706 198.869 303.462 198.385 302.102C198.28 301.821 198.183 301.531 198.091 301.241C197.667 299.901 197.336 298.473 197.078 297.041C197.03 296.783 196.986 296.522 196.941 296.26C196.724 294.908 196.562 293.564 196.449 292.309C196.429 292.072 196.409 291.842 196.393 291.613C196.103 287.968 196.187 285.191 196.187 285.191C196.187 285.191 198.192 285.735 200.765 287.256C201.015 287.405 201.273 287.561 201.535 287.73C202.854 288.571 204.277 289.666 205.632 291.062C205.883 291.315 206.129 291.581 206.371 291.855C207.742 293.408 209.008 295.295 209.984 297.568C210.149 297.954 210.311 298.353 210.456 298.763C210.666 299.338 210.855 299.938 211.025 300.558C211.448 302.115 211.779 303.604 212.037 305.024C212.089 305.318 212.138 305.607 212.186 305.893C212.376 307.052 212.513 308.162 212.613 309.237C212.642 309.53 212.666 309.824 212.686 310.11C212.783 311.393 212.823 312.612 212.823 313.783C212.827 314.077 212.823 314.371 212.815 314.66C212.787 316.841 212.629 318.837 212.468 320.688C212.44 321.026 212.408 321.36 212.379 321.686C212.226 323.392 212.085 324.981 212.057 326.486C212.053 326.683 212.049 326.876 212.049 327.069C212.049 327.194 212.053 327.323 212.061 327.447C212.121 328.683 212.488 329.958 213.025 331.23C213.145 331.519 213.279 331.813 213.42 332.103C213.617 332.521 213.831 332.94 214.061 333.35C214.186 333.588 214.319 333.821 214.452 334.058C215.251 335.438 216.13 336.766 216.9 337.969C217.082 338.251 217.259 338.528 217.429 338.794C218.695 340.829 218.984 342.131 218.699 343.183Z" fill="#3A937A"/>
<path d="M201.535 287.729C201.268 289.217 200.317 290.617 199.115 291.575C198.119 292.372 197.264 292.493 196.449 292.307C196.429 292.07 196.409 291.841 196.393 291.611C196.574 291.648 196.756 291.668 196.941 291.664C198.897 291.624 200.538 289.298 200.764 287.254C201.014 287.403 201.272 287.56 201.535 287.729ZM206.37 291.853C206.14 294.042 204.112 296.15 202.281 297.168C200.498 298.154 198.8 297.474 197.078 297.039C197.03 296.782 196.985 296.52 196.941 296.259C197.558 296.42 198.179 296.617 198.837 296.762C201.688 297.393 205.717 294.388 205.58 291.282C205.576 291.193 205.596 291.117 205.632 291.06C205.882 291.314 206.128 291.579 206.37 291.853ZM210.456 298.761C209.713 300.568 207.967 302.069 206.249 302.781C204.995 303.3 203.599 303.489 202.248 303.336C201.188 303.215 199.72 302.399 198.385 302.101C198.28 301.819 198.183 301.529 198.09 301.24C199.102 301.457 200.147 302.032 201.159 302.306C204.418 303.191 209.507 301.336 209.983 297.566C210.149 297.952 210.31 298.351 210.456 298.761ZM212.335 305.505C212.291 305.642 212.242 305.77 212.186 305.891C210.403 309.943 203.458 305.65 200.696 306.39C200.518 306.185 200.349 305.963 200.188 305.734C200.696 305.553 201.293 305.533 201.93 305.601C204.342 305.863 210.476 308.659 211.556 305.291C211.633 305.058 211.847 304.982 212.036 305.022C212.246 305.062 212.42 305.243 212.335 305.505ZM212.823 313.781C212.827 314.075 212.823 314.369 212.815 314.658C211.798 315.065 210.718 315.31 209.58 315.391C208.374 315.471 207.12 315.342 205.959 315C205.648 314.908 205.346 314.795 205.047 314.67C204.95 314.316 204.854 313.97 204.745 313.628C205.576 313.99 206.414 314.336 207.326 314.485C209.209 314.791 211.109 314.526 212.823 313.781ZM212.468 320.686C212.44 321.024 212.407 321.358 212.379 321.684C211.314 322.267 210.149 322.529 208.903 322.319C207.915 322.154 207.011 321.571 206.1 321.104C206.076 320.79 206.051 320.477 206.019 320.167C206.055 320.183 206.092 320.199 206.128 320.219C208.318 321.313 210.153 322.219 212.468 320.686ZM212.061 327.445C210.205 328.419 207.987 327.119 206.128 325.752C206.148 325.438 206.16 325.12 206.168 324.806C208.019 326.218 210.379 327.747 212.056 326.484C212.053 326.681 212.048 326.874 212.048 327.067C212.049 327.192 212.053 327.321 212.061 327.445ZM213.42 332.101C212.601 332.185 211.77 332.068 210.927 331.73C209.254 331.063 207.568 329.453 205.741 329.268C205.785 329.006 205.826 328.745 205.862 328.479C208.306 328.773 210.492 331.111 213.024 331.227C213.145 331.517 213.279 331.811 213.42 332.101ZM214.452 334.056C212.371 335.412 210.157 336.599 207.822 337.424C206.757 337.802 204.882 338.301 203.575 337.854C203.579 337.593 203.595 337.319 203.632 337.042C205.245 338.044 209.08 336.076 210.302 335.484C211.601 334.849 212.851 334.133 214.061 333.348C214.186 333.585 214.319 333.819 214.452 334.056ZM217.429 338.792C216.352 339.826 215.174 340.755 213.948 341.009C213.134 341.182 212.424 340.997 211.674 340.675C209.73 339.842 208.334 339.138 206.37 340.51C205.943 340.808 205.54 340.112 205.963 339.818C207.451 338.776 209.072 338.611 210.742 339.327C211.553 339.669 212.347 340.305 213.275 340.285C214.388 340.265 215.227 339.448 215.997 338.776C216.3 338.51 216.602 338.241 216.9 337.967C217.082 338.249 217.259 338.526 217.429 338.792ZM212.686 310.108C211.456 310.876 210.367 311.741 208.77 311.753C207.068 311.765 205.451 311.11 203.793 311.069C203.672 310.792 203.543 310.522 203.41 310.261C204.467 310.228 205.507 310.45 206.6 310.659C208.028 310.932 209.399 311.154 210.754 310.446C211.42 310.1 211.988 309.633 212.613 309.234C212.641 309.528 212.666 309.822 212.686 310.108Z" fill="#66B58B"/>
<path d="M265.033 298.902C265.048 300.891 264.822 302.573 264.38 304.044C264.279 304.399 264.159 304.739 264.029 305.069C263.227 307.125 261.964 308.764 260.336 310.302C260.105 310.528 259.86 310.748 259.615 310.964C258.885 311.606 258.098 312.238 257.247 312.88C256.974 313.091 256.695 313.302 256.407 313.518C255.701 314.045 254.961 314.586 254.193 315.152C253.405 315.736 252.675 316.268 252.003 316.771C251.695 316.997 251.402 317.217 251.119 317.433C249.784 318.458 248.693 319.373 247.776 320.38C247.555 320.619 247.344 320.864 247.142 321.118C245.883 322.704 244.985 324.587 244.236 327.395C244.154 327.697 244.072 328.013 243.996 328.339C243.765 329.297 243.549 330.352 243.338 331.53C243.299 331.741 243.261 331.962 243.222 332.182C243.203 332.292 243.184 332.403 243.16 332.513C242.987 333.433 242.752 334.3 242.473 335.11C242.344 335.493 242.199 335.862 242.046 336.217C241.32 337.942 240.384 339.399 239.375 340.616C238.962 341.11 238.544 341.57 238.117 341.987C236.998 343.089 235.859 343.937 234.865 344.574C234.414 344.857 233.991 345.101 233.616 345.303C232.526 345.892 231.796 346.141 231.796 346.141C228.122 345.039 225.965 342.864 225.043 340.132C224.875 339.62 224.745 339.088 224.659 338.541C224.419 337.061 224.486 335.46 224.822 333.807C224.985 332.988 225.221 332.154 225.518 331.315C225.989 329.969 226.618 328.617 227.392 327.29C227.579 326.969 227.771 326.648 227.978 326.332C228.746 325.119 229.635 323.94 230.624 322.809C230.888 322.503 231.167 322.196 231.455 321.899C232.512 320.782 233.665 319.733 234.908 318.779C235.298 318.478 235.691 318.185 236.095 317.907C236.743 317.457 237.416 317.03 238.103 316.633C238.982 316.125 239.702 315.708 240.303 315.339C240.639 315.133 240.932 314.946 241.196 314.764C242.738 313.7 243.132 312.957 243.487 311.194C243.554 310.882 243.617 310.537 243.684 310.154C243.91 308.889 244.188 307.192 244.746 304.792C244.822 304.456 244.904 304.13 244.99 303.814C245.072 303.508 245.158 303.21 245.245 302.928C245.999 300.498 246.964 298.845 248.184 297.69C248.449 297.441 248.718 297.22 249.006 297.015C250.053 296.262 251.263 295.783 252.666 295.438C253.103 295.328 253.554 295.232 254.03 295.15C255.509 294.882 257.171 294.705 259.035 294.489C259.102 294.479 259.169 294.475 259.236 294.465C259.606 294.417 259.952 294.355 260.274 294.283C266.633 292.903 264.285 287.752 264.962 297.11C264.981 297.393 264.995 297.671 265.01 297.939C265.024 298.27 265.029 298.591 265.033 298.902Z" fill="#137058"/>
<path d="M265.033 298.901C264.111 298.776 263.179 298.527 262.252 298.22C261.306 297.909 261.003 297.741 260.466 296.946C260.129 296.447 260.067 295.637 259.74 295.115C259.596 294.88 259.428 294.66 259.236 294.463C259.606 294.415 259.952 294.353 260.273 294.281C260.49 294.564 260.691 294.875 260.879 295.211C261.633 296.553 262.065 297.228 263.636 297.64C264.102 297.765 264.558 297.865 265.009 297.937C265.024 298.268 265.028 298.589 265.033 298.901ZM264.38 304.042C264.279 304.397 264.159 304.737 264.029 305.068C261.868 304.277 259.702 303.434 257.814 302.303C256.863 301.733 256.335 301.143 255.946 300.108C255.638 299.279 256.046 298.838 255.518 297.784C254.951 296.639 253.813 295.958 252.665 295.436C253.102 295.326 253.554 295.23 254.029 295.149C255.317 295.978 256.123 297.003 256.81 298.8C257.43 300.42 258.001 301.373 259.572 302.068C260.595 302.519 261.642 302.921 262.68 303.348C263.246 303.577 263.813 303.812 264.38 304.042ZM260.336 310.301C260.105 310.526 259.86 310.746 259.615 310.962C259.039 310.569 258.52 310.08 258.073 309.496C257.387 308.595 257.108 307.464 256.311 306.649C255.129 305.451 253.861 305.897 252.42 305.504C250.95 305.101 250.278 304.062 250.499 302.552C250.581 301.992 250.907 301.484 250.989 300.937C251.21 299.433 250.34 298.465 249.029 297.952C248.707 297.827 248.438 297.765 248.184 297.688C248.448 297.439 248.717 297.219 249.005 297.013C250.124 297.257 251.407 296.998 252.074 298.307C252.382 298.901 252.309 299.586 252.194 300.214C252.089 300.755 251.738 301.287 251.675 301.824C251.541 302.95 252.084 304.263 253.203 304.642C254.85 305.197 256.109 304.651 257.314 306.228C258.059 307.2 258.328 308.403 259.178 309.333C259.529 309.716 259.918 310.037 260.336 310.301ZM257.247 312.879C256.973 313.09 256.695 313.3 256.407 313.516C256.325 313.439 256.277 313.329 256.287 313.181C256.416 311.221 252.463 311.791 251.248 311.341C250.547 311.077 249.874 310.636 249.346 310.099C247.459 308.183 247.713 304.421 244.99 303.812C245.072 303.506 245.158 303.208 245.244 302.926C247.108 303.405 248.083 305.053 248.842 307.128C249.586 309.15 250.681 310.43 252.881 310.655C253.755 310.741 254.726 310.535 255.576 310.809C256.637 311.149 257.214 311.872 257.247 312.879ZM252.002 316.77C251.695 316.995 251.402 317.215 251.119 317.431C250.547 317.172 250.004 316.822 249.49 316.396C247.243 314.532 245.874 312.328 243.487 311.192C243.554 310.88 243.616 310.535 243.683 310.152C244.682 310.535 245.614 311.086 246.464 311.839C248.203 313.372 249.75 316.032 252.002 316.77ZM247.776 320.378C247.555 320.618 247.343 320.862 247.142 321.116C246.166 319.741 244.293 319.252 242.915 318.279C241.954 317.599 241.239 316.137 240.302 315.337C240.638 315.131 240.931 314.944 241.195 314.762C241.887 315.576 242.43 316.712 243.4 317.45C244.879 318.572 246.671 319.041 247.776 320.378ZM244.236 327.393C244.154 327.695 244.072 328.012 243.996 328.337C242.752 327.863 241.661 327.02 240.883 325.85C239.985 324.499 240.124 323.143 239.673 321.667C238.986 319.405 236.973 318.844 234.908 318.777C235.297 318.475 235.691 318.183 236.094 317.905C237.766 318.111 239.322 318.739 240.192 320.344C241.003 321.839 240.643 323.612 241.541 325.107C242.185 326.181 243.141 326.952 244.236 327.393ZM243.338 331.529C243.299 331.74 243.261 331.96 243.222 332.181C243.203 332.291 243.184 332.401 243.16 332.511C240.835 331.975 239 329.195 236.877 328.218C235.576 327.614 234.14 327.326 233.064 326.315C232.113 325.419 231.527 323.799 230.624 322.808C230.888 322.501 231.167 322.194 231.455 321.897C231.988 322.611 232.291 323.541 232.737 324.274C234.14 326.579 236.527 326.737 238.635 328.05C240.057 328.936 241.584 331.064 243.338 331.529ZM242.473 335.108C242.343 335.492 242.199 335.861 242.046 336.215C240.768 334.816 239.49 334.495 237.463 334.692C232.3 335.195 229.428 331.4 227.391 327.288C227.578 326.967 227.771 326.646 227.977 326.33C228.875 328.304 229.894 330.278 231.498 331.759C232.795 332.957 234.432 333.805 236.234 333.834C237.458 333.853 238.659 333.45 239.884 333.613C241.056 333.767 241.801 334.323 242.473 335.108ZM239.375 340.614C238.962 341.108 238.544 341.568 238.117 341.985C235.071 342.527 231.896 341.305 229.37 339.34C228.832 338.918 228.433 338.492 228.006 337.965C227.348 337.14 226.286 336.513 225.662 335.722C225.244 335.19 224.985 334.524 224.821 333.805C224.985 332.986 225.22 332.152 225.518 331.313C225.528 332.094 225.58 332.899 225.825 333.575C226.157 334.495 226.877 335.037 227.545 335.669C228.256 336.34 228.549 337.097 229.173 337.854C231.488 340.662 235.979 341.922 239.375 340.614ZM234.865 344.572C234.413 344.855 233.991 345.1 233.616 345.301C232.228 345.104 230.811 345.095 229.509 344.515C228.059 343.868 227.165 342.622 226.214 341.405C225.859 340.955 225.465 340.533 225.042 340.13C224.874 339.618 224.745 339.086 224.658 338.54C225.504 339.258 226.315 339.996 226.969 340.825C228.534 342.809 229.74 343.854 232.329 344.17C233.222 344.28 234.048 344.366 234.865 344.572Z" fill="#7C9FA0"/>
<path d="M251.102 172.658L141.032 190.051C133.855 191.185 128.037 186.3 128.037 179.14V92.738C128.037 85.578 133.855 78.8546 141.032 77.7205L251.102 60.3276C258.278 59.1935 264.096 64.0786 264.096 71.2384V157.641C264.096 164.801 258.278 171.524 251.102 172.658Z" fill="#A3B3E6"/>
<path d="M248.837 87.7777L144.177 104.316C140.452 104.904 137.432 102.369 137.432 98.6521V93.1798C137.432 89.4633 140.451 85.9733 144.177 85.3845L248.837 68.8466C252.562 68.258 255.582 70.7936 255.582 74.5101V79.9824C255.582 83.6989 252.562 87.1891 248.837 87.7777Z" fill="#F5F8FC"/>
<path d="M183.652 92.9682C185.749 90.7043 185.878 87.4218 183.941 85.6363C182.004 83.8509 178.734 84.2387 176.638 86.5026C174.541 88.7664 174.412 92.0489 176.349 93.8344C178.286 95.6198 181.556 95.232 183.652 92.9682Z" fill="#B2C5EC"/>
<path opacity="0.77" d="M169.15 95.2611C171.247 92.9973 171.376 89.7147 169.439 87.9293C167.502 86.1439 164.232 86.5317 162.136 88.7955C160.039 91.0593 159.91 94.3419 161.847 96.1273C163.784 97.9128 167.054 97.5249 169.15 95.2611Z" fill="#FC7563"/>
<path d="M155.016 97.0853C157.112 94.8215 157.241 91.5389 155.304 89.7535C153.367 87.9681 150.097 88.3559 148.001 90.6197C145.905 92.8836 145.775 96.1661 147.712 97.9516C149.649 99.737 152.919 99.3492 155.016 97.0853Z" fill="#82D1A4"/>
<path opacity="0.47" d="M245.057 168.143L148.476 183.414C141.758 184.476 136.312 179.903 136.312 173.201V122.614C136.312 115.912 141.759 109.618 148.476 108.557L245.057 93.2859C251.775 92.2244 257.221 96.7972 257.221 103.499V154.086C257.221 160.788 251.775 167.082 245.057 168.143Z" fill="#F2F7FF"/>
<path d="M166.733 113.242L153.373 182.638L157.044 182.057L165.949 135.802L171.284 179.806L174.738 179.259L166.733 113.242Z" fill="#5D6E7F"/>
<path d="M195.533 107.965L192.492 108.419L202.47 174.877L205.507 174.397L195.533 107.965Z" fill="#7B889B"/>
<path d="M156.978 182.067L201.578 175.016L195.519 107.991L193.403 107.633L147.047 114.152L156.978 182.067Z" fill="#7B889B"/>
<path d="M194.013 108.719L149.549 115.408L159.289 181.705L204.299 174.589L194.013 108.719Z" fill="#F0F6FF"/>
<path d="M155.845 182.248L159.297 181.703L148.774 113.887L145.32 114.42L155.845 182.248Z" fill="#7B889B"/>
<path d="M197.012 160.725C196.995 160.612 196.94 160.539 196.869 160.495C197.052 160.236 196.852 159.777 196.465 159.893C194.442 160.499 192.419 161.105 190.396 161.712C189.135 158.829 187.808 155.978 186.414 153.156C186.905 152.745 187.351 152.289 187.734 151.786C189.449 149.538 188.082 146.942 185.567 146.402C185.506 146.337 185.426 146.287 185.317 146.275C184.598 146.197 183.845 146.178 183.08 146.216C184.108 142.427 185.597 138.827 187.524 135.415C188.732 135.141 189.94 134.868 191.148 134.594C191.279 134.564 191.359 134.49 191.401 134.398C191.559 134.323 191.685 134.165 191.651 133.947C191.169 130.879 190.686 127.81 190.204 124.742C190.153 124.42 189.825 124.39 189.611 124.54C189.55 124.52 189.484 124.51 189.41 124.523C186.016 125.102 182.623 125.68 179.229 126.259C179.114 126.279 179.04 126.336 178.994 126.409C178.832 126.444 178.694 126.564 178.698 126.779C178.745 129.143 178.857 131.503 179.063 133.859C179.138 134.716 179.312 136.874 179.873 136.81C182.829 136.478 182.829 136.478 183.799 136.259C184.703 136.054 185.608 135.849 186.512 135.644C184.712 138.939 183.307 142.404 182.322 146.04C182.298 146.13 182.311 146.205 182.338 146.273C179.859 146.524 177.348 147.419 175.575 149.086C175.562 149.058 175.546 149.029 175.524 149C173.201 145.99 170.704 143.135 168.023 140.438C169.566 140.057 171.254 139.584 172.52 138.787C173.65 138.076 173.169 136.582 173.097 135.42C172.945 132.997 172.727 130.58 172.46 128.167C172.445 128.031 172.373 127.936 172.28 127.875C172.216 127.707 172.055 127.574 171.83 127.628C167.879 128.571 163.929 129.515 159.978 130.458C159.815 130.497 159.736 130.608 159.713 130.733C159.623 130.818 159.564 130.937 159.587 131.087C160.096 134.442 160.444 137.81 160.638 141.197C160.65 141.395 160.807 141.599 161.027 141.584C163.01 141.451 164.971 141.18 166.904 140.71C167.033 140.679 167.17 140.646 167.304 140.613C167.29 140.716 167.315 140.825 167.411 140.921C170.068 143.589 172.553 146.41 174.854 149.391C174.926 149.485 175.021 149.533 175.119 149.548C174.985 149.695 174.853 149.845 174.731 150.003C172.592 152.767 174.36 155.38 177.472 155.755C175.442 160.057 173.059 164.158 170.331 168.055C167.168 168.93 163.995 169.768 160.812 170.568C160.456 170.657 160.474 171.082 160.7 171.254C161.091 174.602 161.613 177.928 162.269 181.234L167.144 180.463C170.921 179.241 174.644 177.867 178.312 176.345C178.306 176.315 178.299 176.285 178.292 176.255C179.107 176.137 178.718 174.672 178.639 174.084C178.3 171.558 177.787 169.061 177.261 166.568C177.219 166.37 177.07 166.291 176.915 166.295C176.917 166.253 176.916 166.212 176.918 166.17C175.114 166.699 173.308 167.22 171.498 167.726C174.024 164.037 176.247 160.168 178.155 156.12C178.207 156.009 178.205 155.901 178.17 155.809C180.746 155.929 183.615 155.18 185.789 153.639C187.139 156.375 188.426 159.14 189.651 161.934C187.446 162.595 185.24 163.256 183.035 163.917C182.696 164.019 182.704 164.421 182.908 164.597C183.558 167.372 184.042 170.17 184.354 173.004C184.401 173.432 184.999 173.49 185.114 173.168C185.143 173.164 185.17 173.167 185.201 173.155C189.4 171.586 193.572 169.947 197.716 168.239C197.954 168.268 198.242 168.073 198.184 167.759C197.754 165.421 197.363 163.077 197.012 160.725ZM186.294 134.874C184.747 135.224 181.709 135.998 180.14 136.013C180.14 136.013 180.018 135.476 179.9 134.252C179.825 133.467 179.767 132.681 179.714 131.895C179.604 130.271 179.543 128.646 179.507 127.02C182.834 126.452 186.161 125.885 189.488 125.317C189.935 128.16 190.381 131.004 190.829 133.847C189.317 134.189 187.805 134.532 186.294 134.874ZM166.363 140.044C165.162 140.324 163.615 140.813 162.398 140.702C161.679 140.637 161.598 140.87 161.349 140.098C161.176 139.562 161.263 138.842 161.215 138.269C161.018 135.889 160.729 133.521 160.376 131.159C164.155 130.257 167.934 129.354 171.713 128.452C171.979 130.891 172.195 133.334 172.342 135.784C172.377 136.379 172.554 137.608 172.128 138.118C171.876 138.42 170.508 138.789 169.988 138.975C168.802 139.402 167.591 139.759 166.363 140.044ZM176.575 167.078C176.86 168.431 177.14 169.784 177.387 171.144C177.499 171.762 177.848 175.437 178.187 175.5C177.969 175.459 177.812 175.588 177.743 175.748C172.925 177.737 168.008 179.465 163 180.928C162.363 177.705 161.85 174.464 161.47 171.199C164.447 170.448 167.416 169.665 170.375 168.849C170.519 168.892 170.685 168.866 170.802 168.728C172.731 168.194 174.654 167.64 176.575 167.078ZM184.059 153.724C182.026 154.788 179.646 155.273 177.364 154.956C175.262 154.664 173.864 152.855 175.044 150.895C175.739 149.739 177.051 148.883 178.221 148.278C180.298 147.205 182.585 146.835 184.892 147.017C184.947 147.058 185.01 147.091 185.091 147.1C187.539 147.356 188.482 149.817 186.816 151.669C186.059 152.511 185.059 153.199 184.059 153.724ZM185.053 172.386C184.74 169.742 184.289 167.126 183.687 164.531C187.882 163.274 192.077 162.017 196.272 160.76C196.258 160.812 196.254 160.869 196.263 160.931C196.594 163.144 196.962 165.351 197.362 167.552C193.286 169.231 189.183 170.842 185.053 172.386Z" fill="#F9C7C7"/>
<path d="M251.099 92.0855C250.271 93.597 249.031 95.1202 247.603 96.3779C245.373 98.3575 239.508 96.3621 236.855 95.4537C236.633 95.3783 236.434 95.3109 236.259 95.2514C231.945 93.7994 235.241 88.7772 235.953 80.9185C236.537 74.4919 237.909 68.7793 238.609 68.4342C238.847 68.3151 239.09 68.2558 239.09 68.2558C240.025 68.0059 240.875 68.351 241.285 68.5255C246.029 70.5368 247.941 73.5517 247.941 73.5517C249.261 75.6383 248.45 75.8129 250.224 80.0418C251.635 83.3979 252.307 83.6835 252.582 85.4925C253.039 88.539 251.635 91.0899 251.099 92.0855Z" fill="#8E4746"/>
<path d="M247.604 96.3766C245.373 98.3562 232.549 94.9695 229.897 94.061C228.565 90.3994 235.48 86.1218 235.953 80.917L236.005 80.7703L243.965 77.0215C246.411 79.0644 247.294 88.6726 247.604 96.3766ZM250.22 91.7829C250.218 91.782 250.215 91.781 250.213 91.78C250.14 91.7484 250.107 91.6645 250.139 91.5924C250.145 91.5792 250.716 90.2469 251.028 87.7144C251.188 86.4063 250.659 85.0189 250.046 83.4126C249.462 81.8816 248.8 80.1465 248.532 78.0212C247.996 73.7582 243.925 71.2237 243.885 71.1984C243.817 71.1574 243.796 71.0697 243.837 71.0025C243.879 70.9352 243.967 70.9125 244.034 70.9554C244.076 70.9812 248.262 73.5844 248.816 77.9854C249.079 80.077 249.734 81.7951 250.313 83.3108C250.939 84.9529 251.48 86.371 251.311 87.7491C250.994 90.3275 250.425 91.6509 250.4 91.7062C250.37 91.7758 250.291 91.809 250.22 91.7829Z" fill="#773535"/>
<path d="M249.967 102.614C249.967 102.614 248.899 107.66 248.585 111.259C248.266 114.858 243.842 120.051 243.842 120.051C243.842 120.051 242.318 120.37 236.695 118.884C231.067 117.404 228.516 102.255 232.02 101.088C233.031 100.752 233.447 97.8873 233.995 94.1457C234.149 93.1036 234.315 91.9988 234.503 90.854C234.76 89.3165 234.909 87.9952 234.977 86.845C235.359 80.4154 233.213 79.4473 233.276 75.9336C236.592 77.5055 239.053 85.6832 242.118 87.739C242.472 87.9782 242.757 88.3255 242.985 88.7526C243.071 88.9064 243.145 89.0715 243.214 89.2481C244.184 91.657 243.939 95.7913 244.235 97.7505C244.35 98.5364 244.464 99.1343 244.549 99.3963C244.972 100.666 249.967 102.614 249.967 102.614Z" fill="#FF998C"/>
<path d="M244.236 97.7532C241.965 100.367 237.632 98.3112 233.996 94.1484C234.15 93.1062 234.316 92.0015 234.504 90.8567C234.761 89.3192 234.909 87.9979 234.978 86.8477L242.986 88.7553L243.169 88.801C243.169 88.801 243.186 88.9661 243.215 89.2509C243.363 90.6802 243.848 95.2076 244.236 97.7532Z" fill="#EA756C"/>
<path d="M246.38 75.3322C251.389 85.9677 248.942 94.0634 247.187 95.0395C242.04 97.9011 234.309 95.1613 232.972 84.6361C231.265 71.1869 243.084 68.3349 246.38 75.3322Z" fill="#FF998C"/>
<path d="M242.668 71.962C242.668 71.962 240.594 72.4222 239.083 73.315C237.132 74.4668 236.792 76.7863 236.567 77.7562C234.039 88.6741 234.258 94.7302 231.621 96.2541C227.143 98.8414 216.647 91.3368 218.048 88.192C219.333 85.305 221.711 83.0432 223.056 80.1241C224.776 76.393 226.306 73.0456 229.85 70.7113C233.118 68.5583 236.105 68.3517 236.707 68.3196C237.795 68.2616 238.384 68.385 238.74 68.4841C241.04 69.1256 242.254 71.1736 242.668 71.962Z" fill="#8E4746"/>
<path d="M224.433 92.9187C224.142 93.282 223.843 93.6378 223.543 93.9928C223.665 94.0161 223.788 94.0347 223.91 94.0626C224.996 92.7866 226.025 91.466 226.751 89.9424C228.677 85.9012 228.62 81.297 229.991 77.088C230.699 74.9128 231.806 72.8294 233.626 71.3847C235.317 70.0426 237.497 69.308 239.639 69.8367C239.846 69.8878 239.965 69.5751 239.756 69.5237C236.465 68.7113 233.195 70.6379 231.392 73.3275C228.806 77.186 228.756 82.0134 227.645 86.375C227.027 88.8007 226.001 90.9603 224.433 92.9187Z" fill="#773535"/>
<path d="M239.771 70.077C235.481 71.8239 233.518 76.3069 232.452 80.5048C231.294 85.0633 230.818 90.7678 226.608 93.7015C226.431 93.8249 226.645 94.0823 226.82 93.9599C230.581 91.3393 231.411 86.4928 232.358 82.334C233.415 77.6897 235.072 72.3512 239.911 70.3807C240.11 70.2992 239.97 69.996 239.771 70.077ZM242.621 71.4656C241.671 70.0818 240.58 68.6048 238.832 68.2615C238.622 68.2203 238.525 68.54 238.736 68.5815C240.396 68.9077 241.427 70.315 242.328 71.6277C242.449 71.8036 242.743 71.6434 242.621 71.4656ZM226.31 81.9785C227.156 79.2516 226.994 76.2807 228.456 73.7489C228.638 73.4335 228.391 73.3026 228.207 73.6204C227.039 75.6442 226.841 77.8764 226.425 80.1307C225.894 83.0055 224.634 85.3717 222.151 87.0132C221.844 87.2162 221.994 87.4505 222.298 87.2495C224.212 85.984 225.628 84.1758 226.31 81.9785Z" fill="#773535"/>
<path d="M236.257 89.1532C235.025 89.3895 231.629 89.2567 231.58 84.5547C231.532 79.8527 235.79 83.3453 235.79 83.3453L236.257 89.1532Z" fill="#FF998C"/>
<path d="M235.053 85.841C234.829 84.7739 234.224 83.8589 233.325 83.238C233.148 83.1157 232.952 83.3866 233.129 83.509C233.659 83.8748 234.077 84.3485 234.365 84.8993C233.984 84.7514 233.598 84.6184 233.202 84.5135C232.996 84.459 232.877 84.7715 233.086 84.8267C233.588 84.9595 234.076 85.1282 234.554 85.3304C234.623 85.514 234.682 85.7024 234.723 85.8989C234.767 86.1086 235.098 86.0523 235.053 85.841Z" fill="#EF8078"/>
<path d="M234.376 89.9099C234.441 89.8493 234.498 89.7755 234.535 89.6755C234.791 88.9805 234.781 88.2181 234.438 87.5521C233.751 86.2169 232.391 88.7842 233.388 89.8225C233.408 89.8429 233.432 89.8586 233.454 89.8766C233.421 89.9054 233.391 89.9382 233.365 89.9749C233.156 90.2706 233.19 90.6836 233.486 90.9118L233.565 90.9729C233.843 91.1867 234.296 91.1473 234.504 90.8525C234.713 90.5568 234.68 90.1437 234.376 89.9099Z" fill="#F0F4F7"/>
<path d="M203.499 125.963C203.499 125.963 193.716 122.28 193.445 121.858C193.175 121.436 191.839 118.639 190.561 117.81C189.283 116.982 188.344 116.656 185.086 115.598C183.915 115.218 183.965 117.014 185.451 117.606C190.171 119.488 186.985 119.512 184.422 118.906C182.664 118.49 180.257 118.042 178.957 117.583C176.238 116.622 175.165 118.214 177.6 118.866C179.918 119.487 182.227 120.798 182.227 120.798C182.227 120.798 176.745 119.969 175.877 119.832C175.008 119.696 174.345 120.986 175.421 121.485C176.496 121.984 181.578 122.747 181.578 122.747C181.578 122.747 175.557 122.102 175.235 122.497C174.913 122.891 174.803 124.148 176.586 124.168C178.369 124.187 180.952 124.92 180.952 124.92C180.952 124.92 176.183 125.004 176.546 125.512C177.167 126.376 178.166 126.326 179.719 126.609C180.981 126.839 181.723 126.657 182.932 126.919C185.166 127.403 186.753 127.123 189.692 126.949C190.292 126.914 196.578 130.069 197.13 130.332C203.697 133.477 201.116 132.916 201.383 132.85C201.842 132.739 205.813 127.773 205.813 127.773L203.499 125.963ZM283.197 119.524C283.197 119.524 289.432 118.849 291.007 118.063C292.195 117.471 292.348 116.356 293.519 115.605C296.166 113.908 298.51 111.708 299.458 112.061C301.28 112.741 296.574 115.939 297.145 116.099C301.794 117.406 306.678 112.202 306.753 113.792C306.819 115.209 301.799 118.482 301.799 118.482C301.799 118.482 307.542 115.824 307.902 116.539C308.63 117.99 302.947 119.98 302.947 119.98C302.947 119.98 308.051 118.133 308.129 119.416C308.207 120.7 302.824 121.792 302.824 121.792C302.824 121.792 306.873 119.605 306.977 121.345C307.015 121.983 300.442 123.525 299.386 123.63C297.246 123.843 297.106 124.177 293.555 122.75C292.238 122.482 284.212 125.439 284.212 125.439L283.197 119.524Z" fill="#FF998C"/>
<path d="M271.184 127.774C270.274 130.035 267.146 133.512 264.371 132.379C263.167 131.886 259.613 129.327 255.907 126.238C255.739 126.101 255.575 125.965 255.407 125.823C255.029 125.508 254.655 125.194 254.282 124.869C250.008 121.176 245.955 117.101 245.493 115.019C245.303 114.174 245.261 113.073 245.361 111.877C245.766 107.167 248.452 100.968 253.778 103.181C253.778 103.181 253.778 103.186 253.783 103.186C254.203 103.695 272.834 123.662 271.184 127.774Z" fill="#EFF3F9"/>
<path d="M255.907 126.24C255.739 126.104 255.575 125.967 255.407 125.826C255.029 125.511 254.655 125.196 254.282 124.871C250.008 121.179 245.955 117.103 245.492 115.021C245.303 114.177 245.261 113.075 245.361 111.879L253.778 103.184C253.778 103.184 253.778 103.189 253.783 103.189C253.919 103.53 255.034 109.472 256.979 116.479C258.209 120.901 257.526 124.32 255.907 126.24Z" fill="#D0D6DD"/>
<path d="M266.921 132.518C271.314 131.521 282.823 128.622 290.072 124.158C290.072 124.158 289.186 123.174 288.938 121.16C288.77 119.795 289.531 117.793 289.531 117.793C289.531 117.793 268.291 119.607 266.132 120.083C263.287 120.71 262.443 125.458 262.694 129.47C262.825 131.556 264.879 132.982 266.921 132.518Z" fill="#EFF3F9"/>
<path d="M285.863 125.956C285.777 125.965 285.657 125.974 285.514 125.985C285.036 124.715 284.879 123.33 284.903 121.952C284.919 120.851 284.926 119.558 285.285 118.438C285.395 118.451 285.505 118.464 285.616 118.48C285.208 119.675 285.229 121.118 285.233 122.251C285.236 123.525 285.41 124.791 285.863 125.956Z" fill="#D0D6DD"/>
<path d="M242.935 132.231C241.79 138.447 240.335 144.374 240.191 144.941C240.171 145.021 235.666 146.124 235.189 146.096C232.131 145.949 224.43 153.736 224.43 153.736C224.43 153.736 225.467 134.794 225.296 129.168C225.272 128.264 225.237 127.348 225.185 126.447C225.237 126.213 225.245 125.951 225.181 125.669C225.157 125.554 225.137 125.435 225.11 125.316C224.97 123.329 224.756 121.469 224.43 119.969C224.267 119.184 224.072 118.501 223.841 117.954C223.436 114.911 223.177 111.852 223.094 108.774C223.102 108.703 223.106 108.635 223.114 108.564C223.961 105.886 225.404 103.518 227.917 101.955C228.072 101.859 228.203 101.748 228.311 101.633C228.482 101.621 228.653 101.613 228.828 101.598C229.177 101.57 229.531 101.534 229.897 101.483C230.585 101.391 231.289 101.26 232.021 101.09C232.021 101.09 235.456 102.8 238.474 104.958C239.162 105.45 239.576 105.7 240.029 106.156C241.349 107.493 241.663 108.861 242.462 109.492C242.578 109.583 242.868 109.794 242.936 110.131C242.955 110.218 242.955 110.274 242.975 110.682C242.983 110.797 242.995 110.92 243.003 111.047C243.317 115.562 244.001 126.459 242.935 132.231Z" fill="#EFF3F9"/>
<path d="M255.028 112.129C254.318 109.883 254.933 105.024 253.779 103.181C253.779 103.181 246.338 98.5569 245.371 101.091C245.366 101.103 245.916 101.978 245.908 101.988C242.042 106.994 243.022 113.45 242.51 119.341C241.889 126.489 241.251 133.636 240.583 140.779C240.345 143.321 240.191 144.944 240.191 144.944C240.191 144.944 250.559 146.49 251.693 141.194C251.693 141.194 251.17 127.606 251.855 126.662C253.024 125.051 255.213 125.712 256.22 120.803C256.591 118.992 255.599 113.939 255.028 112.129Z" fill="#EFF3F9"/>
<path d="M246.589 100.253C245.537 101.157 244.929 103.331 243.639 103.971C243.474 104.053 243.31 104.105 243.149 104.136C243.141 104.396 243.159 104.658 243.21 104.917C243.354 105.631 243.512 106.426 243.568 106.75C243.147 108.009 242.869 109.162 242.889 109.803C242.889 109.803 242.371 109.316 241.423 107.452C241.038 106.83 240.613 106.199 240.191 105.672C239.223 104.456 235.062 100.031 233.305 99.069C231.755 98.224 230.346 100.549 229.934 101.303C229.904 101.36 229.89 101.424 229.897 101.484C229.532 101.534 229.598 101.531 229.246 101.561C231.319 103.804 233.325 106.383 235.394 108.643C235.481 108.738 235.633 108.723 235.7 108.614C236.082 107.994 237.096 106.21 237.096 106.21L237.647 106.739L238.761 105.896L242.936 111.119L242.973 111.082L243.003 111.048L243.006 111.038C244.56 120.087 244.587 135.028 241.896 143.806C241.833 144.012 242.156 144.1 242.219 143.895C244.934 135.039 244.897 120.019 243.32 110.894C243.299 110.771 243.182 110.752 243.094 110.797L244.234 106.083L245.27 107.257C245.377 107.378 245.571 107.353 245.642 107.209C246.128 106.216 247.666 102.95 248.228 100.218C248.228 100.218 247.176 99.7494 246.589 100.253Z" fill="#D0D6DD"/>
<path d="M241.492 122.008C240.189 127.374 233.705 127.377 229.33 127.043C229.045 127.021 229.047 127.464 229.33 127.486C233.908 127.836 240.567 127.701 241.921 122.125C241.988 121.848 241.56 121.73 241.492 122.008ZM251.193 125.842C250.005 125.357 248.984 124.6 248.163 123.617C248.025 123.452 247.79 123.689 247.927 123.853C248.788 124.885 249.859 125.656 251.104 126.164C251.303 126.245 251.39 125.922 251.193 125.842ZM225.296 129.169C225.272 128.265 225.237 127.348 225.185 126.448C225.237 126.214 225.245 125.952 225.181 125.67C225.157 125.555 225.137 125.436 225.11 125.317C224.97 123.33 224.756 121.469 224.43 119.97C225.742 117.355 227.36 114.947 229.245 113.253C229.591 112.948 227.829 122.318 225.296 129.169Z" fill="#D0D6DD"/>
<path d="M242.927 110.114C242.786 109.91 241.239 107.656 240.028 106.156C239.335 105.301 238.755 104.687 238.605 104.837C238.561 104.88 238.518 104.92 238.474 104.96C238.11 105.298 237.815 105.468 237.815 105.468L237.099 104.509L235.599 107.478L235.529 107.622L235.425 107.512L229.985 101.684C229.932 101.627 229.901 101.557 229.898 101.484C229.891 101.424 229.905 101.36 229.935 101.303C230.347 100.549 231.756 98.224 233.306 99.069C235.064 100.031 239.224 104.456 240.192 105.672C240.614 106.199 241.039 106.831 241.424 107.452C242.22 108.731 242.849 109.96 242.927 110.114ZM247.734 99.9402C247.734 99.9402 245.366 106.884 245.186 106.455C245.026 106.077 244.285 105.32 244.111 105.146C244.088 105.12 244.074 105.109 244.074 105.109C244.074 105.109 244.034 105.259 243.977 105.474C243.826 106.046 243.546 107.064 243.526 106.884C243.523 106.864 243.518 106.823 243.506 106.771C243.458 106.49 243.324 105.799 243.201 105.178C243.053 104.421 243.198 103.635 243.612 102.988L244.824 101.082C244.824 101.082 245.722 98.807 247.299 99.6403C248.168 100.099 247.734 99.9402 247.734 99.9402Z" fill="#EFF3F9"/>
<path d="M229.245 117.142C225.11 125.318 220.492 138.821 213.543 138.818C209.337 138.817 207.873 130.087 207.873 130.087C207.873 130.087 208.084 129.559 208.446 128.659C208.887 127.568 209.551 125.925 210.334 124.017C212.549 118.626 216.981 112.22 218.718 108.955C221.577 103.583 227.917 101.956 227.917 101.956C230.375 101.536 231.21 113.262 229.245 117.142Z" fill="#EFF3F9"/>
<path d="M208.879 128.855C208.72 128.8 208.573 128.732 208.445 128.657C208.887 127.566 209.551 125.924 210.334 124.016C213.169 125.523 217.147 131.617 218.129 132.93C219.469 134.72 211.948 129.942 208.879 128.855Z" fill="#D0D6DD"/>
<path d="M195.669 122.356C196.057 122.281 219.434 128.136 218.128 132.933C217.177 136.429 217.635 139.562 211.95 139.219C206.265 138.877 192.951 128.597 192.951 128.597L195.669 122.356Z" fill="#EFF3F9"/>
<path d="M199.576 124.694C199.144 126.861 198.27 128.746 197.128 130.335C196.954 130.574 196.776 130.808 196.59 131.036C196.515 130.975 196.437 130.916 196.365 130.857C196.545 130.636 196.721 130.411 196.891 130.178C198.028 128.624 198.899 126.773 199.323 124.651C199.362 124.445 199.618 124.487 199.576 124.694Z" fill="#D0D6DD"/>
<path d="M254.561 162.08C254.358 158.434 253.82 153.327 253.289 150.921C253.257 150.779 253.226 150.638 253.194 150.501C252.69 148.256 252.111 146.295 251.628 144.915C251.591 144.795 251.549 144.679 251.507 144.569C251.002 143.179 250.623 142.503 250.582 142.949C250.503 142.991 250.413 143.027 250.319 143.064C250.245 143.101 250.166 143.132 250.087 143.158C249.898 143.232 249.698 143.29 249.483 143.347C249.367 143.379 249.251 143.41 249.131 143.436C248.41 143.599 247.564 143.709 246.644 143.783C246.539 143.793 246.428 143.803 246.318 143.803C238.432 143.693 233.78 143.3 232.25 143.111C232.066 143.09 231.961 143.08 231.961 143.08C231.961 143.08 232.003 143.929 232.098 145.361C232.508 151.849 233.033 158.332 233.811 164.788C233.99 166.273 234.2 167.746 234.426 169.22C234.457 169.417 234.489 169.613 234.52 169.81L245.057 168.144C248.903 167.536 252.332 165.213 254.561 162.08Z" fill="#351234"/>
<path d="M240.013 151.299C240.324 149.123 240.599 147.237 240.791 145.905C240.811 145.779 240.831 145.657 240.846 145.54C241.003 144.46 241.098 143.833 241.098 143.833L232.264 142.762L231.899 142.714L231.243 142.636L230.881 142.592L224.429 141.809C224.429 141.809 224.126 142.444 223.655 143.567C223.615 143.663 223.572 143.759 223.533 143.859C222.892 145.396 221.997 147.716 221.12 150.511C221.077 150.642 221.034 150.777 220.991 150.912C219.603 155.422 218.295 161.104 218.157 166.772C218.121 168.284 218.075 170.209 218.021 172.416L240.716 168.828C240.84 167.999 240.967 167.131 241.098 166.214C241.302 164.782 239.825 152.579 240.013 151.299Z" fill="#351234"/>
<path d="M253.196 150.498C251.219 149.801 250.693 148.578 250.225 147.829C249.73 147.032 249.192 146.292 248.571 145.595C249.09 145.53 249.604 145.456 250.111 145.347C250.182 145.369 250.268 145.352 250.319 145.295C250.763 145.191 251.2 145.069 251.628 144.912C251.589 144.794 251.545 144.677 251.506 144.568C251.137 144.703 250.759 144.812 250.378 144.903C250.394 144.346 250.414 143.789 250.433 143.231C250.437 143.144 250.386 143.088 250.319 143.062C250.237 143.036 250.127 143.066 250.084 143.153C250.072 143.175 250.064 143.201 250.064 143.231C250.044 143.819 250.025 144.403 250.009 144.99C249.816 145.03 249.628 145.064 249.439 145.099C249.443 145.09 249.447 145.082 249.451 145.069C249.573 144.494 249.581 143.924 249.482 143.345C249.447 143.105 249.093 143.205 249.129 143.432C249.215 143.95 249.203 144.463 249.093 144.973C249.078 145.051 249.109 145.112 249.156 145.151C248.394 145.269 247.62 145.334 246.85 145.382C246.834 144.855 246.775 144.333 246.661 143.819C246.657 143.806 246.653 143.793 246.645 143.78C246.583 143.636 246.378 143.671 246.319 143.802C246.304 143.837 246.296 143.876 246.308 143.919C246.414 144.407 246.469 144.899 246.484 145.399C245.93 145.426 245.376 145.452 244.83 145.473C243.502 145.53 242.174 145.552 240.846 145.539C239.867 145.534 238.889 145.508 237.91 145.465C235.965 145.382 234.032 145.217 232.102 144.99C232.142 144.96 232.169 144.916 232.169 144.855C232.201 144.272 232.224 143.693 232.248 143.109C232.252 142.992 232.26 142.879 232.263 142.761C232.263 142.735 232.267 142.704 232.267 142.678C232.279 142.443 231.91 142.443 231.898 142.678V142.713C231.867 143.427 231.835 144.146 231.804 144.855C231.8 144.899 231.816 144.929 231.831 144.96C231.556 144.925 231.281 144.894 231.006 144.86C231.085 144.115 231.16 143.379 231.242 142.635C231.242 142.626 231.246 142.613 231.246 142.604C231.27 142.374 230.916 142.374 230.881 142.591C230.877 142.596 230.877 142.6 230.877 142.604C230.798 143.34 230.723 144.076 230.645 144.812C228.322 144.494 226.012 144.076 223.725 143.567C223.701 143.562 223.678 143.558 223.654 143.567C223.517 143.584 223.454 143.763 223.533 143.858C223.552 143.889 223.588 143.91 223.631 143.919C225.576 144.355 227.541 144.72 229.513 145.016C228.275 146.766 226.656 148.212 224.759 149.226C223.78 149.744 222.739 150.145 221.662 150.411C221.501 150.45 221.313 150.476 221.12 150.511C221.077 150.641 221.033 150.776 220.99 150.911C221.403 150.776 221.976 150.711 222.169 150.659C222.664 150.519 223.151 150.35 223.627 150.158C224.468 149.814 225.273 149.392 226.032 148.895C227.572 147.885 228.881 146.588 229.922 145.077C230.645 145.182 231.368 145.278 232.095 145.36C234.028 145.587 235.966 145.748 237.911 145.835C238.382 145.856 238.853 145.866 239.325 145.875C239.28 145.909 239.247 145.963 239.244 146.039C239.056 150.077 238.959 154.118 238.952 158.161C238.952 158.261 239.014 158.34 239.097 158.371C239.888 158.664 240.679 158.958 241.469 159.252C241.599 159.3 241.709 159.174 241.718 159.042C242.007 154.659 242.202 150.271 242.302 145.878C243.037 145.871 243.772 145.864 244.506 145.862C245.165 145.861 245.809 145.757 246.463 145.725C246.706 145.714 248.002 145.508 248.128 145.643C248.996 146.584 249.636 147.637 250.344 148.695C250.874 149.496 251.491 150.175 252.383 150.58C252.678 150.711 252.984 150.824 253.291 150.916C253.259 150.776 253.227 150.632 253.196 150.498ZM241.342 158.746C240.968 158.607 240.592 158.468 240.217 158.328C239.492 158.059 239.344 157.922 239.348 157.078C239.354 155.851 239.369 154.624 239.392 153.397C239.439 150.943 239.522 148.491 239.636 146.039C239.639 145.969 239.617 145.916 239.581 145.881C240.356 145.892 241.133 145.888 241.909 145.881C241.811 150.174 241.621 154.463 241.342 158.746Z" fill="#5A365B"/>
<path opacity="0.31" d="M182.683 154.722L128.037 163.357V179.142C128.037 186.302 133.855 191.187 141.032 190.053L189.182 182.444V160.183C189.182 156.6 186.274 154.155 182.683 154.722Z" fill="#666699"/>
<path opacity="0.74" d="M230.68 149.115L230.463 198.142C230.455 199.905 232.103 201.07 234.157 200.754L282.874 193.271C284.928 192.955 286.588 191.282 286.596 189.519L286.813 140.492C286.821 138.729 285.173 137.564 283.119 137.88L234.402 145.363C232.348 145.679 230.688 147.352 230.68 149.115Z" fill="#F2F7FF"/>
<path opacity="0.77" d="M230.679 149.115L230.656 154.35L286.79 145.727L286.813 140.492C286.82 138.729 285.173 137.564 283.118 137.88L234.402 145.363C232.348 145.679 230.687 147.352 230.679 149.115Z" fill="#A3B3E6"/>
<path d="M280.242 154.039L237.914 160.541L280.242 154.039Z" fill="#5C4670"/>
<path d="M237.911 160.996L280.24 154.493C280.531 154.449 280.768 154.21 280.769 153.96C280.77 153.711 280.535 153.545 280.244 153.589L237.915 160.092C237.624 160.136 237.388 160.375 237.387 160.625C237.386 160.874 237.62 161.041 237.911 160.996Z" fill="#798EAD"/>
<path d="M280.211 161.113L237.883 167.615L280.211 161.113Z" fill="#5C4670"/>
<path d="M237.88 168.066L280.209 161.564C280.5 161.519 280.736 161.281 280.737 161.031C280.738 160.781 280.504 160.615 280.213 160.66L237.884 167.162C237.593 167.207 237.357 167.445 237.355 167.695C237.354 167.945 237.589 168.111 237.88 168.066Z" fill="#798EAD"/>
<path d="M280.179 168.188L237.852 174.69L280.179 168.188Z" fill="#5C4670"/>
<path d="M237.849 175.14L280.177 168.638C280.469 168.593 280.705 168.355 280.706 168.105C280.707 167.855 280.472 167.689 280.181 167.734L237.853 174.236C237.562 174.281 237.325 174.519 237.324 174.769C237.323 175.019 237.558 175.185 237.849 175.14Z" fill="#798EAD"/>
<path d="M280.148 175.262L237.82 181.764L280.148 175.262Z" fill="#5C4670"/>
<path d="M237.818 182.214L280.146 175.712C280.437 175.667 280.674 175.429 280.675 175.179C280.676 174.929 280.441 174.763 280.15 174.808L237.822 181.31C237.531 181.355 237.294 181.593 237.293 181.843C237.292 182.093 237.527 182.259 237.818 182.214Z" fill="#798EAD"/>
<path d="M280.117 182.336L237.789 188.838L280.117 182.336Z" fill="#5C4670"/>
<path d="M237.786 189.289L280.115 182.786C280.406 182.742 280.642 182.503 280.644 182.253C280.645 182.004 280.41 181.838 280.119 181.882L237.79 188.385C237.499 188.429 237.263 188.668 237.262 188.918C237.261 189.168 237.495 189.333 237.786 189.289Z" fill="#798EAD"/>
<path d="M239.075 150.464C240.125 149.941 240.638 148.84 240.22 148.005C239.802 147.17 238.612 146.917 237.562 147.44C236.512 147.963 235.999 149.064 236.417 149.899C236.835 150.734 238.025 150.987 239.075 150.464Z" fill="#798EAD"/>
<path opacity="0.99" d="M119.883 173.191V215.983C119.883 219.565 122.794 222.007 126.382 221.44L182.684 212.543C186.275 211.975 189.183 208.615 189.183 205.032V162.241C189.183 158.659 186.275 156.214 182.684 156.781L126.382 165.678C122.794 166.244 119.883 169.609 119.883 173.191Z" fill="#F2F7FF"/>
<path d="M121.875 174.107V214.439C121.875 217.815 124.619 220.116 128 219.582L181.066 211.197C184.451 210.662 187.192 207.494 187.192 204.118V163.786C187.192 160.409 184.451 158.105 181.066 158.64L128 167.025C124.619 167.559 121.875 170.73 121.875 174.107Z" fill="#B2C5EC"/>
<path d="M121.875 174.107V177.997L187.191 167.676V163.786C187.191 160.409 184.451 158.105 181.066 158.64L128 167.025C124.619 167.559 121.875 170.73 121.875 174.107Z" fill="#F2F7FF"/>
<path d="M148.355 170.657L177.416 166.065C177.998 165.973 178.47 165.427 178.47 164.846V164.551C178.47 163.97 177.998 163.574 177.416 163.666L148.355 168.258C147.773 168.35 147.301 168.895 147.301 169.476V169.771C147.301 170.353 147.773 170.749 148.355 170.657Z" fill="#A3B3E6"/>
<path d="M151.393 211.065L151.706 211.015V176.398L151.393 176.448V211.065Z" fill="#F2F7FF"/>
<path d="M126.455 195.604L180.429 187.075V186.762L126.455 195.29V195.604Z" fill="#F2F7FF"/>
<path opacity="0.77" d="M185.057 165.069C185.828 164.237 185.875 163.03 185.163 162.374C184.451 161.717 183.249 161.86 182.478 162.692C181.707 163.524 181.659 164.731 182.372 165.388C183.084 166.044 184.286 165.902 185.057 165.069Z" fill="#FC7563"/>
<path d="M129.85 173.562C130.621 172.729 130.668 171.522 129.956 170.866C129.244 170.209 128.042 170.352 127.271 171.184C126.5 172.017 126.452 173.224 127.165 173.88C127.877 174.537 129.079 174.394 129.85 173.562Z" fill="#82D1A4"/>
<path d="M135.655 172.616C136.426 171.784 136.473 170.577 135.761 169.92C135.049 169.264 133.846 169.406 133.075 170.239C132.305 171.071 132.257 172.278 132.969 172.935C133.682 173.591 134.884 173.449 135.655 172.616Z" fill="#B2C5EC"/>
<path d="M137.893 184.951L142.297 184.525C142.086 182.325 140.47 180.756 138.339 180.566L137.893 184.951Z" fill="#F2F7FF"/>
<path d="M137.585 185.585C137.575 185.586 137.566 185.586 137.556 185.586C137.476 185.586 137.399 185.555 137.343 185.498C137.279 185.434 137.247 185.345 137.257 185.256L137.736 180.551C137.519 180.558 137.298 180.577 137.074 180.612C134.176 181.07 131.826 183.786 131.826 186.677C131.826 189.569 134.176 191.541 137.074 191.083C139.936 190.631 142.261 187.978 142.319 185.127L137.585 185.585ZM174.145 184.477C174.136 184.426 174.098 184.385 174.047 184.374L173.148 184.162C173.079 184.146 173.01 184.189 172.993 184.258C172.977 184.327 173.02 184.397 173.089 184.413L173.336 184.471L157.594 186.81V179.741L157.694 179.997C157.714 180.048 157.763 180.079 157.815 180.079C157.83 180.079 157.846 180.077 157.861 180.071C157.928 180.045 157.961 179.97 157.935 179.904L157.601 179.051C157.582 179.003 157.537 178.971 157.485 178.969C157.435 178.964 157.386 178.997 157.364 179.044L156.977 179.881C156.947 179.945 156.975 180.022 157.04 180.051C157.105 180.081 157.181 180.053 157.211 179.988L157.336 179.719V186.959C157.336 186.997 157.352 187.033 157.381 187.057C157.404 187.077 157.434 187.088 157.465 187.088C157.471 187.088 157.478 187.088 157.484 187.087L173.444 184.715L173.177 184.887C173.117 184.926 173.1 185.005 173.138 185.065C173.163 185.103 173.205 185.124 173.247 185.124C173.271 185.124 173.295 185.117 173.317 185.103L174.087 184.607C174.131 184.579 174.154 184.528 174.145 184.477Z" fill="#F2F7FF"/>
<path d="M158.286 185.924C158.299 185.929 158.313 185.931 158.326 185.931C158.38 185.931 158.431 185.897 158.449 185.842C158.463 185.799 159.924 181.466 161.571 181.21C162.793 181.021 163.891 181.831 165.054 182.69C165.652 183.132 166.271 183.589 166.913 183.901C167.736 184.303 168.606 184.326 169.428 183.97C170.396 183.551 171.747 182.411 172.683 179.362C172.703 179.294 172.665 179.222 172.597 179.201C172.529 179.18 172.457 179.219 172.436 179.286C171.728 181.592 170.623 183.172 169.325 183.734C168.574 184.06 167.779 184.037 167.026 183.67C166.405 183.368 165.796 182.918 165.207 182.483C164.053 181.631 162.859 180.75 161.531 180.956C159.73 181.235 158.265 185.577 158.204 185.761C158.181 185.829 158.218 185.902 158.286 185.924Z" fill="#F2F7FF"/>
<path d="M178.197 192.6C178.051 192.6 177.923 192.494 177.9 192.346C177.874 192.182 177.986 192.029 178.15 192.003L180.123 191.695C180.288 191.67 180.441 191.781 180.467 191.945C180.493 192.109 180.381 192.263 180.216 192.288L178.244 192.596C178.228 192.599 178.212 192.6 178.197 192.6ZM155.631 196.124C155.485 196.124 155.357 196.019 155.334 195.871C155.308 195.707 155.42 195.553 155.585 195.527L174.249 192.613C174.413 192.587 174.567 192.699 174.593 192.863C174.618 193.027 174.506 193.18 174.342 193.206L155.678 196.121C155.662 196.123 155.646 196.124 155.631 196.124ZM167.728 197.724C167.582 197.724 167.454 197.619 167.431 197.47C167.405 197.307 167.517 197.153 167.682 197.127L180.123 195.184C180.288 195.159 180.441 195.27 180.467 195.434C180.493 195.598 180.381 195.752 180.216 195.777L167.775 197.721C167.759 197.723 167.743 197.724 167.728 197.724ZM155.631 199.614C155.485 199.614 155.357 199.508 155.334 199.36C155.308 199.196 155.42 199.042 155.585 199.016L162.458 197.943C162.622 197.918 162.776 198.029 162.802 198.193C162.827 198.357 162.715 198.511 162.551 198.536L155.678 199.61C155.662 199.612 155.646 199.614 155.631 199.614ZM155.631 203.103C155.485 203.103 155.357 202.997 155.334 202.849C155.308 202.685 155.42 202.531 155.585 202.506L180.123 198.673C180.288 198.648 180.441 198.76 180.467 198.924C180.493 199.087 180.381 199.241 180.216 199.267L155.678 203.099C155.662 203.102 155.646 203.103 155.631 203.103Z" fill="#F2F7FF"/>
<path d="M127.537 200.443C127.391 200.443 127.263 200.337 127.24 200.189C127.214 200.025 127.327 199.872 127.491 199.846L144.235 197.246C144.399 197.22 144.553 197.333 144.578 197.496C144.604 197.66 144.491 197.814 144.327 197.839L127.584 200.44C127.568 200.442 127.552 200.443 127.537 200.443ZM136.739 202.474C136.593 202.474 136.465 202.367 136.442 202.219C136.417 202.055 136.529 201.902 136.694 201.877L142.913 200.922C143.077 200.896 143.231 201.009 143.256 201.173C143.281 201.337 143.169 201.49 143.004 201.515L136.785 202.47C136.77 202.472 136.754 202.474 136.739 202.474ZM127.537 203.932C127.391 203.932 127.263 203.826 127.24 203.677C127.215 203.514 127.327 203.36 127.492 203.335L132.444 202.576C132.608 202.551 132.762 202.663 132.787 202.828C132.812 202.991 132.7 203.145 132.535 203.17L127.583 203.929C127.568 203.931 127.552 203.932 127.537 203.932ZM138.201 205.705C138.055 205.705 137.926 205.599 137.904 205.45C137.879 205.286 137.992 205.133 138.157 205.108L147.003 203.789C147.168 203.766 147.321 203.878 147.345 204.042C147.37 204.206 147.257 204.359 147.092 204.384L138.246 205.702C138.231 205.704 138.216 205.705 138.201 205.705ZM127.537 207.421C127.391 207.421 127.263 207.316 127.24 207.167C127.214 207.003 127.327 206.85 127.491 206.824L136.2 205.47C136.364 205.444 136.518 205.556 136.543 205.72C136.569 205.884 136.457 206.038 136.292 206.063L127.584 207.418C127.568 207.42 127.552 207.421 127.537 207.421Z" fill="#F2F7FF"/>
</svg>
