<?xml version="1.0" standalone="no"?>
<!DOCTYPE svg PUBLIC "-//W3C//DTD SVG 20010904//EN"
 "http://www.w3.org/TR/2001/REC-SVG-20010904/DTD/svg10.dtd">
<svg version="1.0" xmlns="http://www.w3.org/2000/svg"
 width="500.000000pt" height="500.000000pt" viewBox="0 0 500.000000 500.000000"
 preserveAspectRatio="xMidYMid meet">

<g transform="translate(0.000000,500.000000) scale(0.100000,-0.100000)"
fill="#000000" stroke="none">
<path d="M961 2513 c-24 -125 -46 -235 -49 -245 -4 -16 3 -18 56 -18 l60 0 11
63 c6 34 18 108 27 165 10 56 20 99 24 95 3 -4 26 -79 50 -165 l43 -158 53 0
53 0 20 68 c11 37 32 111 47 165 15 53 29 96 31 94 2 -2 16 -76 31 -163 l27
-159 58 -3 c42 -2 57 0 57 10 0 7 -20 117 -45 243 -25 127 -45 231 -45 233 0
2 -30 2 -66 0 l-67 -3 -46 -157 c-25 -86 -49 -159 -52 -163 -4 -3 -28 69 -55
160 l-49 165 -65 0 -66 0 -43 -227z"/>
<path d="M1610 2495 l0 -245 145 0 145 0 0 50 0 50 -90 0 -90 0 0 50 0 50 85
0 85 0 0 50 0 50 -86 0 -85 0 3 48 3 47 88 3 87 3 0 44 0 45 -145 0 -145 0 0
-245z"/>
<path d="M1990 2495 l0 -245 90 0 c65 0 104 5 144 20 197 74 204 363 11 451
-30 14 -65 19 -142 19 l-103 0 0 -245z m211 128 c65 -39 87 -150 42 -212 -25
-33 -79 -61 -120 -61 l-33 0 0 145 0 145 41 0 c22 0 54 -8 70 -17z"/>
<path d="M2450 2495 l0 -245 55 0 55 0 0 245 0 245 -55 0 -55 0 0 -245z"/>
<path d="M2650 2495 l0 -245 140 0 140 0 0 50 0 50 -90 0 -90 0 0 195 0 195
-50 0 -50 0 0 -245z"/>
<path d="M3153 2723 c-4 -10 -48 -120 -99 -245 l-92 -228 58 0 58 0 17 50 17
51 96 -3 96 -3 17 -45 17 -45 57 -3 c52 -3 57 -1 51 15 -4 10 -48 120 -98 246
l-92 227 -48 0 c-37 0 -50 -4 -55 -17z m85 -188 c11 -33 23 -68 27 -77 6 -16
0 -18 -54 -18 -34 0 -61 3 -61 8 0 19 55 161 61 154 3 -4 15 -34 27 -67z"/>
<path d="M3465 2728 c2 -7 22 -110 45 -228 22 -118 43 -223 46 -232 4 -15 17
-18 68 -18 l63 0 48 165 c26 91 51 165 54 165 4 0 29 -74 56 -165 l48 -165 63
0 c58 0 64 2 69 23 3 12 25 122 48 245 l44 222 -58 0 c-68 0 -59 15 -90 -170
-12 -74 -25 -138 -29 -143 -3 -4 -26 64 -51 150 l-44 158 -55 3 -55 3 -45
-161 c-25 -88 -47 -160 -50 -160 -3 0 -16 64 -29 143 -30 193 -22 177 -91 177
-43 0 -58 -3 -55 -12z"/>
</g>
</svg>
