<svg width="522" height="352" viewBox="0 0 522 352" fill="none" xmlns="http://www.w3.org/2000/svg">
<path fill-rule="evenodd" clip-rule="evenodd" d="M420.144 39.421C422.028 32.737 422.978 25.7391 423.848 18.9507C424.03 17.4886 423.012 16.1311 421.578 16.0267C420.142 15.8178 418.83 16.8628 418.647 18.2205C417.809 24.8 416.913 31.5878 415.1 37.9585C414.707 39.3162 415.516 40.7789 416.909 41.1967C418.3 41.6144 419.75 40.7787 420.144 39.421Z" fill="#204B89"/>
<path fill-rule="evenodd" clip-rule="evenodd" d="M446.845 59.682C457.867 48.925 467.47 36.8102 478.787 26.2621C479.844 25.3221 479.9 23.6511 478.914 22.6068C477.926 21.5624 476.265 21.4584 475.208 22.5027C463.858 33.0509 454.224 45.1656 443.17 55.9227C442.138 56.967 442.124 58.6376 443.139 59.682C444.153 60.6219 445.814 60.7264 446.845 59.682Z" fill="#204B89"/>
<path fill-rule="evenodd" clip-rule="evenodd" d="M489.236 79.8386C482.928 80.1519 476.62 80.4646 470.311 80.778C468.866 80.778 467.75 82.0318 467.82 83.4939C467.892 84.9561 469.122 85.9998 470.568 85.9998C476.886 85.6865 483.204 85.3738 489.521 85.0605C490.966 84.9561 492.075 83.7026 491.996 82.2405C491.917 80.8828 490.68 79.7342 489.236 79.8386Z" fill="#204B89"/>
<path d="M210.256 197.121C202.317 182.941 207.464 166.079 211.125 150.574C214.702 135.444 216.704 119.984 217.099 104.442C217.283 97.08 216.979 89.3011 212.635 83.0337C208.385 76.8998 200.945 73.1873 193.74 69.9026C165.496 57.0284 132.002 46.5767 102.688 57.3869C82.2976 64.9064 67.2168 82.781 64.7874 102.309C62.3581 121.836 72.6796 142.215 90.7272 153.524C100.717 159.784 112.792 163.432 121.561 171.005C135.98 183.461 137.402 205.95 124.644 219.767C115.203 229.993 100.443 234.737 87.6405 241.469C68.0399 251.777 52.166 267.608 42.8796 286.111C37.5127 296.804 34.5845 310.001 41.9368 319.713C54.0129 335.664 82.3176 329.815 99.8197 318.533C117.322 307.251 134.397 291.509 155.984 292.375C169.194 292.905 180.842 299.761 192.301 305.636C214.25 316.841 237.582 325.097 261.693 330.19C280.229 334.125 299.734 336.22 318.285 332.343C336.836 328.466 354.359 317.793 361.537 302.079C371.122 281.092 359.497 255.617 338.862 242.357C304.487 220.267 232.395 236.661 210.256 197.121Z" fill="#FFF9E5"/>
<path d="M249.791 136.615C251.024 151.537 257.096 166.726 269.682 176.643C285.915 189.434 309.377 191.216 331.051 191.617C349.478 191.959 362.964 191.219 375.523 185.864C387.625 180.705 390.736 175.484 391.621 173.825C396.799 164.122 392.705 150.958 383.932 144.816C380.632 142.505 373.954 141.591 360.734 139.856C346.221 137.952 340.242 138.136 330.177 134.819C319.363 131.255 317.329 128.098 316.705 126.961C314.122 122.26 316.954 118.118 319.441 110.038C321.545 103.201 326.635 86.6682 319.492 74.0255C318.073 71.5133 313.285 64.0485 304.149 61.1324C285.779 55.2685 265.818 72.8984 264.423 74.1626C241.951 94.5278 248.969 126.67 249.791 136.615Z" fill="#FFF9E5"/>
<path d="M141.981 154.852H46.8006C45.7904 154.851 44.8219 154.449 44.1076 153.735C43.3933 153.021 42.9914 152.052 42.9902 151.042V82.0249C42.9914 81.0148 43.3933 80.0463 44.1076 79.332C44.8219 78.6178 45.7904 78.216 46.8006 78.2148H141.981C142.992 78.216 143.96 78.6178 144.674 79.332C145.389 80.0463 145.791 81.0148 145.792 82.0249V151.042C145.791 152.052 145.389 153.021 144.674 153.735C143.96 154.449 142.992 154.851 141.981 154.852ZM46.8006 79.6406C46.1683 79.6413 45.5621 79.8927 45.115 80.3398C44.6679 80.7869 44.4164 81.3931 44.4158 82.0254V151.042C44.4164 151.674 44.6679 152.281 45.115 152.728C45.5621 153.175 46.1683 153.426 46.8006 153.427H141.981C142.614 153.426 143.22 153.175 143.667 152.728C144.114 152.281 144.366 151.674 144.366 151.042V82.0249C144.366 81.3926 144.114 80.7864 143.667 80.3393C143.22 79.8922 142.614 79.6407 141.981 79.6402L46.8006 79.6406Z" fill="#204B89"/>
<path d="M152.093 89.0424V158.059C152.093 158.881 151.766 159.669 151.186 160.249C150.605 160.83 149.817 161.157 148.996 161.157H53.8141C52.9927 161.157 52.2051 160.83 51.6243 160.249C51.0435 159.669 50.7171 158.881 50.7168 158.059V89.0424C50.7171 88.221 51.0435 87.4334 51.6243 86.8526C52.2051 86.2719 52.9927 85.9455 53.8141 85.9453H148.996C149.817 85.9455 150.605 86.2719 151.186 86.8526C151.766 87.4334 152.093 88.221 152.093 89.0424Z" fill="#6C87AE"/>
<path d="M117.202 105.004H86.3129C81.1118 105.004 76.8955 109.22 76.8955 114.421V134.386C76.8955 139.587 81.1118 143.804 86.3129 143.804H117.202C122.403 143.804 126.619 139.587 126.619 134.386V114.421C126.619 109.22 122.403 105.004 117.202 105.004Z" fill="white"/>
<path d="M82.7871 125.887V123.282L95.5456 116.568V119.424L89.2621 122.522L85.2928 124.505V124.664L89.2621 126.647L95.5456 129.745V132.602L82.7871 125.887ZM104.845 110.855H106.612L98.6721 137.959H96.9042L104.845 110.855ZM107.97 129.921L114.254 126.824L118.224 124.841V124.682L114.254 122.7L107.971 119.601V116.745L120.729 123.459V126.065L107.971 132.779L107.97 129.921Z" fill="black"/>
<path d="M152.094 89.0424V97.6714H50.7188V89.0424C50.719 88.2211 51.0453 87.4336 51.626 86.8529C52.2066 86.2721 52.9941 85.9457 53.8153 85.9453H148.997C149.818 85.9455 150.606 86.2719 151.187 86.8526C151.768 87.4334 152.094 88.221 152.094 89.0424V89.0424Z" fill="#204B89"/>
<path d="M56.7828 93.4444C57.748 93.4444 58.5304 92.662 58.5304 91.6968C58.5304 90.7317 57.748 89.9492 56.7828 89.9492C55.8176 89.9492 55.0352 90.7317 55.0352 91.6968C55.0352 92.662 55.8176 93.4444 56.7828 93.4444Z" fill="white"/>
<path d="M62.8687 93.4444C63.8339 93.4444 64.6163 92.662 64.6163 91.6968C64.6163 90.7317 63.8339 89.9492 62.8687 89.9492C61.9035 89.9492 61.1211 90.7317 61.1211 91.6968C61.1211 92.662 61.9035 93.4444 62.8687 93.4444Z" fill="white"/>
<path d="M68.9586 93.4444C69.9238 93.4444 70.7062 92.662 70.7062 91.6968C70.7062 90.7317 69.9238 89.9492 68.9586 89.9492C67.9934 89.9492 67.2109 90.7317 67.2109 91.6968C67.2109 92.662 67.9934 93.4444 68.9586 93.4444Z" fill="white"/>
<path d="M72.5297 102.574H55.0352V106.182H72.5297V102.574Z" fill="white"/>
<path d="M147.318 149.992H55.0352V152.325H147.318V149.992Z" fill="white"/>
<path d="M109.255 154.465H55.0352V156.798H109.255V154.465Z" fill="white"/>
<path d="M217.46 140.709C217.804 141.093 218.044 141.559 218.156 142.063C218.268 142.566 218.249 143.09 218.101 143.584L215.485 151.752L223.625 155.939L228.749 149.061C229.064 148.653 229.479 148.332 229.954 148.131C230.429 147.929 230.947 147.853 231.46 147.91L231.495 147.913C232.007 147.944 232.502 148.106 232.934 148.382C233.365 148.658 233.72 149.04 233.963 149.491L237.889 157.117L246.606 154.322L245.365 145.836C245.3 145.327 245.366 144.811 245.557 144.335C245.748 143.859 246.056 143.439 246.454 143.116L246.481 143.094C246.865 142.749 247.331 142.51 247.835 142.398C248.338 142.285 248.862 142.305 249.356 142.453L257.524 145.067L261.711 136.927L254.833 131.804C254.425 131.489 254.104 131.073 253.903 130.599C253.701 130.124 253.625 129.605 253.681 129.092C253.681 129.081 253.683 129.068 253.685 129.058C253.716 128.546 253.877 128.051 254.154 127.619C254.43 127.187 254.812 126.833 255.263 126.59L262.888 122.663L260.094 113.947L251.606 115.188C251.098 115.252 250.581 115.186 250.105 114.996C249.629 114.805 249.21 114.496 248.887 114.098C248.879 114.089 248.872 114.081 248.864 114.072C248.52 113.688 248.28 113.222 248.168 112.718C248.056 112.214 248.075 111.69 248.223 111.196L250.839 103.028L242.699 98.8415L237.576 105.72C237.26 106.128 236.845 106.448 236.37 106.65C235.896 106.851 235.377 106.928 234.864 106.871L234.83 106.868C234.318 106.836 233.823 106.675 233.391 106.399C232.959 106.122 232.605 105.741 232.362 105.289L228.435 97.6641L219.719 100.458L220.96 108.945C221.024 109.453 220.958 109.97 220.767 110.446C220.577 110.922 220.268 111.341 219.87 111.664C219.861 111.672 219.852 111.679 219.844 111.687C219.46 112.031 218.993 112.271 218.49 112.383C217.986 112.495 217.462 112.476 216.968 112.327L208.801 109.713L204.614 117.853L211.492 122.977C211.9 123.292 212.221 123.707 212.422 124.182C212.624 124.657 212.7 125.176 212.644 125.688C212.644 125.7 212.641 125.713 212.641 125.723C212.609 126.235 212.448 126.73 212.171 127.162C211.895 127.594 211.513 127.948 211.062 128.191L203.437 132.117L206.232 140.834L214.719 139.593C215.227 139.528 215.744 139.594 216.22 139.785C216.696 139.976 217.115 140.285 217.438 140.683C217.445 140.691 217.453 140.7 217.46 140.709ZM226.625 129.487C226.21 128.194 226.188 126.807 226.562 125.502C226.935 124.196 227.688 123.031 228.724 122.153C229.759 121.275 231.032 120.724 232.381 120.57C233.73 120.415 235.095 120.664 236.302 121.285C237.51 121.906 238.506 122.872 239.165 124.059C239.824 125.246 240.116 126.602 240.004 127.955C239.893 129.308 239.382 130.598 238.537 131.661C237.693 132.724 236.552 133.513 235.259 133.928C234.4 134.203 233.496 134.307 232.598 134.232C231.699 134.158 230.824 133.908 230.022 133.496C229.22 133.083 228.508 132.517 227.925 131.829C227.342 131.141 226.9 130.345 226.625 129.487Z" fill="#204B89"/>
<path d="M205.018 164.411C205.23 164.647 205.377 164.934 205.446 165.244C205.515 165.554 205.503 165.876 205.412 166.18L203.802 171.207L208.813 173.785L211.966 169.552C212.16 169.301 212.415 169.104 212.707 168.98C213 168.855 213.319 168.809 213.634 168.843L213.656 168.845C213.97 168.865 214.275 168.964 214.541 169.134C214.807 169.304 215.025 169.539 215.174 169.817L217.591 174.509L222.955 172.789L222.191 167.566C222.151 167.254 222.192 166.936 222.309 166.643C222.427 166.35 222.617 166.092 222.861 165.893L222.878 165.879C223.114 165.667 223.401 165.52 223.711 165.451C224.021 165.382 224.343 165.393 224.647 165.485L229.674 167.094L232.251 162.084L228.018 158.931C227.767 158.737 227.57 158.481 227.446 158.189C227.322 157.897 227.275 157.578 227.31 157.262C227.31 157.255 227.31 157.248 227.312 157.241C227.331 156.926 227.431 156.622 227.601 156.356C227.771 156.09 228.006 155.872 228.283 155.722L232.976 153.306L231.255 147.942L226.033 148.706C225.72 148.746 225.402 148.705 225.109 148.588C224.816 148.47 224.558 148.28 224.359 148.035L224.346 148.019C224.134 147.783 223.986 147.496 223.917 147.186C223.848 146.876 223.86 146.554 223.951 146.25L225.561 141.223L220.552 138.645L217.397 142.879C217.202 143.13 216.947 143.327 216.655 143.451C216.363 143.576 216.043 143.622 215.728 143.588L215.707 143.586C215.392 143.566 215.088 143.467 214.822 143.297C214.557 143.127 214.339 142.892 214.189 142.614L211.773 137.922L206.409 139.642L207.173 144.864C207.212 145.177 207.172 145.495 207.054 145.788C206.937 146.081 206.747 146.339 206.502 146.538L206.486 146.552C206.249 146.764 205.962 146.911 205.653 146.98C205.343 147.049 205.02 147.038 204.716 146.946L199.689 145.336L197.111 150.347L201.344 153.499C201.595 153.693 201.792 153.949 201.916 154.241C202.04 154.533 202.087 154.853 202.052 155.168C202.052 155.175 202.052 155.182 202.05 155.189C202.031 155.504 201.932 155.809 201.762 156.075C201.592 156.34 201.357 156.558 201.079 156.708L196.387 159.124L198.107 164.488L203.329 163.725C203.642 163.685 203.96 163.726 204.253 163.843C204.546 163.96 204.804 164.15 205.003 164.395C205.008 164.4 205.013 164.405 205.018 164.411ZM210.658 157.505C210.402 156.709 210.389 155.856 210.619 155.052C210.849 154.249 211.312 153.532 211.949 152.992C212.586 152.451 213.37 152.112 214.2 152.017C215.03 151.922 215.87 152.075 216.613 152.458C217.356 152.84 217.969 153.434 218.375 154.164C218.78 154.895 218.96 155.729 218.891 156.562C218.822 157.395 218.508 158.189 217.988 158.843C217.469 159.497 216.766 159.983 215.971 160.238C214.904 160.58 213.745 160.484 212.748 159.972C211.752 159.459 211 158.572 210.658 157.505V157.505Z" fill="#6C87AE"/>
<path d="M87.4441 223.554C87.4513 224.008 88.4893 223.843 88.4893 223.843C88.4893 223.843 88.6854 225.168 89.1091 227.374C89.1409 227.526 89.1691 227.682 89.2011 227.839C89.6617 230.192 90.3593 233.42 91.3286 237.061C91.371 237.223 91.4151 237.384 91.4628 237.548C92.1197 239.992 92.9001 242.614 93.8092 245.276C93.8659 245.448 93.9258 245.614 93.9858 245.785C95.0198 248.799 96.2216 251.753 97.5854 254.633C97.6367 254.741 97.6877 254.847 97.7407 254.953C100.02 259.65 102.78 263.922 106.078 266.934H168.659L168.374 251.479L168.217 242.911L168.21 242.438L168.095 236.307L168.088 235.914L168.02 232.271L168.013 231.796L167.828 221.633L167.817 221.163L167.725 216.17L180.357 227.359L180.793 227.744L186.525 232.825L191.301 221.682L191.497 221.226L191.958 220.151V220.149L192.281 219.397V219.395L195.014 213.012L195.218 212.54L198.217 205.548L198.406 205.103L201.145 198.713C201.145 198.713 198.468 196.668 194.672 193.815C194.578 193.745 194.483 193.672 194.388 193.602C192.85 192.445 191.139 191.167 189.356 189.841C189.187 189.715 189.02 189.592 188.85 189.465C186.689 187.862 184.434 186.204 182.261 184.623C182.149 184.543 182.038 184.464 181.929 184.385C181.898 184.36 181.868 184.34 181.838 184.317C181.727 184.236 181.616 184.157 181.507 184.076C175.985 180.086 171.135 176.747 169.876 176.38C168.617 176.013 167.202 175.644 165.637 175.294H165.636C165.494 175.262 165.353 175.231 165.208 175.198H165.207C161.628 174.431 158.009 173.868 154.367 173.513C154.22 173.497 154.074 173.483 153.927 173.471C151.653 173.25 149.225 173.086 146.647 172.996C146.517 172.991 146.386 172.987 146.254 172.984C137.747 172.744 129.237 173.247 120.818 174.485C120.608 174.513 120.397 174.545 120.187 174.575C118.058 174.887 115.877 175.252 113.646 175.668C112.886 175.811 112.136 175.981 111.4 176.181C111.195 176.236 110.992 176.294 110.789 176.354C108.09 177.15 105.525 178.343 103.179 179.895C103.039 179.987 102.902 180.079 102.762 180.176C101.377 181.127 100.079 182.199 98.884 183.38C98.7876 183.473 98.6913 183.57 98.5961 183.666C96.0607 186.24 94.0422 189.275 92.6496 192.609C92.5983 192.724 92.5506 192.84 92.5051 192.958C92.3832 193.257 92.2683 193.559 92.1572 193.864C92.0529 194.155 91.9523 194.445 91.8571 194.738C91.5703 195.612 91.328 196.499 91.1313 197.397L91.0677 197.688C91.0641 197.706 91.0607 197.726 91.0554 197.743C90.531 200.235 89.9148 203.054 89.3411 206.061C89.3093 206.23 89.2738 206.397 89.2447 206.567C89.0715 207.485 88.9022 208.417 88.7432 209.364C88.7237 209.48 88.7027 209.597 88.6832 209.713C88.2966 212.037 87.9646 214.433 87.7404 216.84C87.7245 216.997 87.7119 217.153 87.6997 217.309C87.5163 219.399 87.42 221.494 87.4441 223.554Z" fill="#FFDB96"/>
<path d="M130.717 225.252C131.331 226.513 132.276 227.584 133.451 228.349C134.626 229.114 135.988 229.546 137.389 229.598L142.662 229.829C148.41 230.081 154.354 230.343 159.843 232.402C161.757 233.162 163.628 234.026 165.447 234.992C166.316 235.435 167.199 235.882 168.097 236.307L168.09 235.913C167.251 235.513 166.425 235.092 165.609 234.677C163.778 233.705 161.895 232.835 159.967 232.071C154.425 229.993 148.453 229.73 142.678 229.476L137.406 229.244C136.073 229.186 134.779 228.772 133.66 228.045C132.541 227.318 131.637 226.305 131.042 225.11C130.447 223.916 130.183 222.583 130.277 221.252C130.371 219.921 130.82 218.639 131.576 217.54C133.217 215.176 135.411 213.248 137.966 211.925C143.751 208.986 150.488 208.774 157.007 208.57C157.517 208.555 158.028 208.539 158.534 208.521C165.27 208.293 172.939 207.682 178.74 203.3C180.411 202.038 181.46 200.743 181.944 199.343C182.573 197.541 182.121 195.552 180.844 194.512C179.818 193.674 178.438 193.506 177.223 193.452C173.111 193.271 168.933 194.103 164.893 194.907C159.017 196.078 153.468 197.183 147.993 195.507C147.439 195.339 146.889 195.119 146.62 194.664C146.35 194.21 146.422 193.629 146.526 193.017C147.352 188.131 148.29 182.594 150.967 178.02C151.932 176.399 153.072 174.888 154.365 173.515C154.219 173.499 154.072 173.485 153.926 173.473C152.688 174.811 151.594 176.275 150.661 177.841C147.955 182.471 147.012 188.044 146.18 192.958C146.066 193.636 145.99 194.291 146.318 194.845C146.648 195.405 147.298 195.666 147.891 195.846C153.451 197.548 159.303 196.383 164.963 195.255C168.982 194.455 173.14 193.627 177.208 193.807C178.366 193.858 179.676 194.014 180.623 194.787C181.784 195.735 182.193 197.563 181.613 199.229C181.149 200.561 180.141 201.8 178.527 203.019C172.81 207.339 165.203 207.943 158.524 208.169C158.016 208.186 157.506 208.203 156.995 208.218C150.439 208.423 143.661 208.635 137.806 211.612C135.198 212.962 132.96 214.929 131.287 217.342C130.484 218.485 130.007 219.825 129.906 221.218C129.806 222.611 130.086 224.006 130.717 225.252V225.252ZM127.173 198.92C129.154 198.356 131.372 197.544 132.814 195.791C135.461 192.572 134.167 187.552 131.449 184.747C128.589 181.795 124.5 180.459 120.893 179.282L111.402 176.183C111.197 176.238 110.994 176.296 110.791 176.356L120.783 179.617C124.351 180.783 128.396 182.102 131.195 184.992C133.806 187.688 135.063 192.498 132.54 195.567C131.161 197.246 129.004 198.032 127.077 198.581C115.389 201.908 103.08 199.711 91.1305 197.401L91.0669 197.692C91.0633 197.71 91.0599 197.729 91.0546 197.747C103.047 200.062 115.403 202.269 127.173 198.92ZM120.278 215.607C120.776 223.379 121.396 233.05 116.961 240.704C112.785 247.913 104.933 251.967 97.5863 254.633C97.6376 254.741 97.6886 254.846 97.7416 254.952C105.137 252.265 113.044 248.17 117.268 240.88C121.754 233.134 121.131 223.404 120.63 215.584C120.557 214.459 120.434 213.387 119.708 212.642C119.138 212.058 118.326 211.828 117.543 211.645C111.821 210.301 105.836 210.109 100.049 209.923C99.027 209.89 98.0083 209.858 96.9901 209.819C94.244 209.713 91.4955 209.562 88.7445 209.367C88.725 209.483 88.7041 209.6 88.6846 209.716C91.4495 209.914 94.2133 210.066 96.9761 210.172C97.9948 210.211 99.0171 210.243 100.038 210.276C105.808 210.462 111.776 210.654 117.463 211.989C118.195 212.16 118.951 212.372 119.456 212.889C120.097 213.546 120.21 214.551 120.278 215.607ZM183.441 214.399C182.841 216.136 182.381 217.964 183.091 219.548C183.842 221.223 185.669 222.018 187.427 222.018C187.915 222.019 188.401 221.956 188.872 221.831C190.009 221.496 191.062 220.923 191.96 220.15V220.148L192.283 219.396C191.327 220.287 190.151 221.117 188.781 221.49C186.837 222.016 184.3 221.379 183.416 219.405C182.756 217.932 183.2 216.184 183.778 214.515C185.759 208.791 188.453 203.339 191.796 198.288C191.988 197.997 192.184 197.704 192.38 197.409C193.151 196.254 193.953 195.053 194.675 193.816C194.582 193.745 194.487 193.673 194.391 193.602C193.669 194.845 192.862 196.053 192.087 197.213C191.889 197.508 191.695 197.801 191.501 198.092C188.14 203.168 185.432 208.646 183.441 214.399V214.399Z" fill="white"/>
<path d="M162.665 182.016C163.108 182.437 163.636 182.759 164.214 182.958C169.816 185.247 175.867 185.125 181.929 184.384C181.899 184.359 181.868 184.339 181.839 184.316C181.727 184.235 181.616 184.156 181.507 184.075C175.62 184.771 169.758 184.84 164.348 182.63C163.818 182.448 163.332 182.156 162.923 181.772C161.486 180.238 163.034 177.708 164.426 176.383C164.819 176.009 165.223 175.645 165.635 175.292C165.494 175.26 165.353 175.229 165.208 175.196H165.206C164.858 175.498 164.517 175.807 164.182 176.126C162.394 177.833 161.154 180.402 162.665 182.016ZM92.5039 192.961C93.655 192.986 94.8062 192.998 95.9575 192.998C98.2526 192.998 100.549 192.952 102.845 192.859C105.353 192.756 106.823 192.022 107.219 190.671C107.632 189.262 106.571 187.916 105.901 187.24C103.968 185.284 101.445 184.147 98.883 183.382C98.7867 183.476 98.6903 183.573 98.5952 183.668C101.177 184.419 103.723 185.54 105.651 187.487C106.265 188.109 107.241 189.336 106.879 190.572C106.531 191.76 105.169 192.41 102.831 192.505C100.541 192.599 98.2494 192.645 95.957 192.645C94.8534 192.645 93.7505 192.634 92.6482 192.611C92.5983 192.726 92.5502 192.843 92.5039 192.961ZM120.187 174.575C126.3 177.503 132.78 179.759 139.613 180.39C139.918 180.418 140.239 180.442 140.559 180.442C141.176 180.468 141.788 180.331 142.334 180.045C143.144 179.579 143.612 178.7 143.988 177.994L146.647 172.997C146.517 172.992 146.386 172.988 146.254 172.984L143.676 177.828C143.321 178.493 142.88 179.323 142.159 179.738C141.424 180.162 140.515 180.118 139.646 180.038C133.041 179.429 126.76 177.284 120.819 174.485C120.608 174.514 120.397 174.545 120.187 174.575Z" fill="white"/>
<path d="M201.145 198.713L254.137 174.754L261.307 190.931L203.807 232.06C201.782 233.432 199.389 234.161 196.943 234.152C194.496 234.143 192.11 233.396 190.094 232.009L187.607 230.299L201.145 198.713Z" fill="#F59060"/>
<path d="M238.626 183.796C238.626 183.796 250.28 178.277 260.32 156.037C260.389 155.88 260.506 155.749 260.654 155.661C260.801 155.574 260.973 155.534 261.144 155.549C261.315 155.563 261.477 155.631 261.608 155.742C261.739 155.853 261.832 156.002 261.874 156.169C262.507 158.735 263.334 163.202 262.927 167.9C262.919 167.988 262.938 168.076 262.982 168.152C263.026 168.229 263.092 168.29 263.172 168.328C263.251 168.366 263.341 168.378 263.428 168.363C263.515 168.348 263.595 168.307 263.658 168.245C266.202 165.734 273.781 158.111 278.101 152.248C278.216 152.094 278.38 151.984 278.567 151.938C278.753 151.892 278.95 151.912 279.123 151.996C279.296 152.079 279.434 152.22 279.514 152.395C279.595 152.57 279.611 152.767 279.562 152.952C278.853 155.509 277.231 159.259 273.543 163.779C273.48 163.856 273.446 163.953 273.449 164.053C273.453 164.153 273.492 164.248 273.561 164.32C273.629 164.393 273.722 164.438 273.821 164.447C273.921 164.455 274.02 164.427 274.1 164.368C276.521 162.55 279.928 159.841 282.374 157.284C282.507 157.145 282.685 157.056 282.877 157.034C283.068 157.013 283.262 157.059 283.423 157.165C283.584 157.271 283.703 157.43 283.759 157.615C283.814 157.799 283.804 157.998 283.728 158.175C282.638 160.749 280.512 164.305 276.376 168.136C276.305 168.203 276.26 168.293 276.25 168.391C276.24 168.488 276.265 168.586 276.321 168.667C276.377 168.747 276.46 168.805 276.555 168.829C276.649 168.854 276.75 168.844 276.838 168.801C278.877 167.775 280.825 166.577 282.66 165.219C282.815 165.102 283.006 165.043 283.2 165.054C283.394 165.064 283.578 165.142 283.72 165.275C283.862 165.408 283.952 165.586 283.975 165.779C283.998 165.972 283.952 166.167 283.845 166.329C282.402 168.497 280.014 171.258 276.168 173.862C276.089 173.913 276.03 173.99 276.001 174.079C275.972 174.168 275.975 174.264 276.008 174.352C276.042 174.439 276.104 174.513 276.185 174.56C276.266 174.607 276.361 174.625 276.453 174.611C277.743 174.401 279.005 174.04 280.211 173.537C280.383 173.462 280.576 173.448 280.758 173.498C280.939 173.548 281.098 173.658 281.208 173.811C281.318 173.964 281.372 174.149 281.361 174.337C281.351 174.525 281.277 174.703 281.151 174.843C276.801 179.648 266.738 188.934 246.477 199.78L238.626 183.796Z" fill="#F59060"/>
<path d="M262.488 182.808C264.492 177.903 262.053 171.417 262.029 171.352L261.856 170.902L262.338 170.895C262.54 170.892 267.335 170.9 271.494 177.838L270.916 178.185C267.727 172.866 264.123 171.823 262.836 171.618C263.39 173.284 264.907 178.67 263.111 183.062L262.488 182.808Z" fill="#090909"/>
<path d="M114.651 223.078L87.4443 223.552L84.4021 250.635C84.1719 252.686 84.377 254.762 85.0041 256.727C85.6313 258.693 86.6663 260.505 88.0415 262.043C89.4167 263.581 91.1012 264.812 92.9847 265.655C94.8683 266.497 96.9085 266.933 98.9719 266.933H168.659L168.375 251.479L113.433 242.976L114.651 223.078Z" fill="#F59060"/>
<path d="M100.977 240.487L100.869 241.109L113.38 243.282L113.488 242.66L100.977 240.487Z" fill="#090909"/>
<path d="M201.145 198.715L188.894 231.185L187.608 230.301L201.145 198.715Z" fill="#DD9B0A"/>
<path d="M114.652 223.078L87.1943 225.78L87.4446 223.552L114.652 223.078Z" fill="#DD9B0A"/>
<path d="M150.783 153.37C150.799 153.469 150.81 153.57 150.821 153.671C150.884 154.212 150.93 154.751 150.953 155.285C150.962 155.376 150.966 155.467 150.969 155.559C150.982 155.844 150.988 156.12 150.984 156.404C150.986 157.04 150.966 157.675 150.909 158.29C150.556 162.2 148.935 165.655 145.013 167.545L146.346 174.068C146.478 174.707 146.504 175.363 146.422 176.011C146.373 176.374 146.198 176.709 145.929 176.957C143.512 179.193 139.102 179.387 134.122 177.863C133.049 177.539 132.112 176.872 131.454 175.965C130.796 175.058 130.453 173.96 130.478 172.84L130.712 163.449L126.667 163.196C125.869 163.159 125.097 162.906 124.433 162.463C123.768 162.02 123.238 161.404 122.898 160.681C122.854 160.59 122.816 160.497 122.783 160.402L122.397 159.354C122.165 158.724 122.08 158.048 122.148 157.379C122.216 156.71 122.436 156.066 122.79 155.494C123.145 154.923 123.625 154.44 124.194 154.083C124.763 153.725 125.407 153.502 126.075 153.43C126.075 153.43 126.068 153.372 126.062 153.27C125.918 151.502 124.999 136.191 136.181 135.685C141.643 135.429 146.59 138.913 148.44 144.056C149.407 146.754 150.379 150.054 150.783 153.37Z" fill="#F59060"/>
<path d="M145.013 167.546C145.013 167.546 142.065 168.829 138.249 166.504C138.249 166.504 140.58 169.976 145.349 169.183L145.013 167.546Z" fill="#090909"/>
<path d="M126.072 153.432C126.977 153.561 127.851 153.857 128.648 154.305C129.957 155.049 130.217 155.759 130.738 155.813C131.57 155.899 132.872 154.289 134.97 147.251C136.468 147.734 143.443 149.818 149.144 146.143C150.415 145.325 151.529 144.288 152.436 143.08C155.738 138.602 154.794 133.314 154.591 132.173C154.166 129.847 153.227 127.644 151.843 125.727C145.297 131.438 137.476 135.496 129.037 137.559C128.051 137.746 124.791 138.492 122.753 141.387C120.265 144.922 120.614 150.221 123.834 154.336L126.072 153.432Z" fill="#671E24"/>
<path d="M127.45 163.246L130.602 167.854L130.712 163.448L127.45 163.246Z" fill="#671E24"/>
<path d="M141.125 178.81L130.548 170.066L127.125 173.708L138.3 183.384L141.125 178.81Z" fill="#DD9B0A"/>
<path d="M141.123 178.81L145.526 170.066L148.455 173.074L143.983 183.384L141.123 178.81Z" fill="#DD9B0A"/>
<path d="M141.389 178.809H140.859V253.6H141.389V178.809Z" fill="#DD9B0A"/>
<path d="M129.895 266.934H189.994L198.034 227.54C198.214 226.658 198.196 225.748 197.98 224.874C197.765 224 197.358 223.185 196.789 222.488C196.22 221.791 195.502 221.23 194.69 220.844C193.877 220.458 192.988 220.258 192.088 220.258H139.421L129.895 266.934Z" fill="#959595"/>
<path d="M98.9717 266.934H129.895C130.075 266.937 130.249 266.877 130.39 266.766C130.531 266.655 130.629 266.498 130.669 266.323L140.195 221.176C140.215 221.076 140.214 220.974 140.194 220.874C140.174 220.774 140.134 220.68 140.076 220.596C140.019 220.512 139.946 220.441 139.86 220.385C139.775 220.33 139.68 220.293 139.58 220.275C139.377 220.232 139.166 220.271 138.992 220.382C138.818 220.494 138.694 220.669 138.648 220.87L129.251 265.407H98.9712C98.8689 265.404 98.767 265.421 98.6716 265.458C98.5762 265.495 98.4892 265.551 98.4158 265.622C98.3423 265.693 98.2839 265.779 98.244 265.873C98.2041 265.967 98.1836 266.068 98.1836 266.171C98.1836 266.273 98.2041 266.374 98.244 266.469C98.2839 266.563 98.3423 266.648 98.4158 266.719C98.4892 266.79 98.5762 266.846 98.6716 266.883C98.767 266.92 98.8689 266.938 98.9712 266.934H98.9717Z" fill="#090909"/>
<path d="M173.147 244.847C174.435 241.229 172.675 237.297 169.216 236.065C165.756 234.834 161.907 236.768 160.619 240.386C159.331 244.004 161.091 247.936 164.55 249.168C168.01 250.4 171.859 248.465 173.147 244.847Z" fill="white"/>
<path d="M114.967 200.137H114.335V223.08H114.967V200.137Z" fill="#DD9B0A"/>
<path d="M168.044 200.137H167.412V216.17H168.044V200.137Z" fill="#DD9B0A"/>
<path d="M35.1958 335.996H251.324V266.751H35.1958V335.996Z" fill="url(#paint0_linear_1460_5806)"/>
<path d="M35.6475 276.227H251.249C253.816 276.227 255.896 274.146 255.896 271.579C255.896 269.012 253.816 266.932 251.249 266.932H35.6475C33.0808 266.932 31.0001 269.012 31.0001 271.579C31.0001 274.146 33.0808 276.227 35.6475 276.227Z" fill="#AFBFD6"/>
<path d="M419.115 191.82H328.38C324.465 191.815 320.711 190.258 317.943 187.49C315.175 184.722 313.617 180.968 313.613 177.053V90.5632C313.617 86.6482 315.175 82.8948 317.943 80.1265C320.711 77.3582 324.465 75.8011 328.38 75.7969H419.115C423.03 75.8013 426.783 77.3585 429.551 80.1268C432.319 82.8951 433.876 86.6484 433.88 90.5632V177.055C433.876 180.969 432.319 184.722 429.551 187.49C426.783 190.258 423.03 191.815 419.115 191.82ZM328.38 77.5635C324.933 77.5674 321.629 78.9383 319.192 81.3753C316.755 83.8124 315.384 87.1167 315.38 90.5632V177.055C315.384 180.501 316.755 183.805 319.192 186.242C321.629 188.679 324.933 190.05 328.38 190.054H419.115C422.562 190.05 425.866 188.679 428.303 186.242C430.74 183.805 432.111 180.501 432.115 177.055V90.5632C432.111 87.1167 430.74 83.8125 428.303 81.3754C425.866 78.9384 422.562 77.5675 419.115 77.5635H328.38Z" fill="#204B89"/>
<path d="M399.693 62.5547H308.957C301.29 62.5547 295.075 68.77 295.075 76.4369V162.929C295.075 170.596 301.29 176.811 308.957 176.811H399.693C407.36 176.811 413.575 170.596 413.575 162.929V76.4369C413.575 68.77 407.36 62.5547 399.693 62.5547Z" fill="#204B89"/>
<path d="M407.446 80.9126V158.456C407.446 161.757 406.134 164.923 403.8 167.257C401.466 169.591 398.301 170.902 395 170.902H313.651C311.209 170.903 308.822 170.185 306.785 168.838C304.748 167.492 303.152 165.576 302.196 163.329C302.194 163.324 302.192 163.32 302.188 163.315C301.538 161.778 301.204 160.126 301.205 158.456V80.9126C301.205 79.278 301.527 77.6595 302.152 76.1493C302.778 74.6391 303.694 73.2668 304.85 72.111C306.006 70.9551 307.378 70.0381 308.888 69.4125C310.398 68.7869 312.017 68.4649 313.651 68.4648H395C396.634 68.4649 398.253 68.7869 399.763 69.4125C401.273 70.0381 402.645 70.9551 403.801 72.111C404.957 73.2668 405.873 74.6391 406.499 76.1493C407.124 77.6595 407.446 79.278 407.446 80.9126V80.9126Z" fill="white"/>
<path d="M352.317 105.125C351.693 105.125 351.084 104.94 350.565 104.594C350.047 104.247 349.643 103.755 349.404 103.179C349.165 102.603 349.103 101.969 349.225 101.358C349.346 100.746 349.646 100.184 350.087 99.7436C350.528 99.3027 351.09 99.0025 351.701 98.8809C352.313 98.7592 352.947 98.8217 353.523 99.0603C354.099 99.2989 354.591 99.703 354.937 100.221C355.284 100.74 355.469 101.349 355.469 101.973C355.468 102.808 355.135 103.61 354.544 104.201C353.953 104.791 353.152 105.124 352.317 105.125V105.125ZM352.317 99.3503C351.798 99.3502 351.291 99.504 350.859 99.7921C350.428 100.08 350.092 100.49 349.893 100.969C349.695 101.448 349.643 101.976 349.744 102.484C349.845 102.993 350.095 103.46 350.462 103.827C350.829 104.194 351.296 104.444 351.805 104.545C352.313 104.646 352.841 104.594 353.32 104.396C353.799 104.197 354.209 103.861 354.497 103.43C354.785 102.999 354.939 102.491 354.939 101.973C354.938 101.278 354.661 100.611 354.17 100.119C353.678 99.6277 353.012 99.3512 352.317 99.3503V99.3503Z" fill="#6595F7"/>
<path d="M351.134 96.6769C351.423 100.304 352.813 103.586 356.511 104.838L356.118 109.684C356.072 110.256 356.14 110.831 356.318 111.377C356.496 111.922 356.781 112.427 357.157 112.861C357.532 113.295 357.99 113.65 358.504 113.905C359.018 114.16 359.578 114.311 360.151 114.347C360.353 114.359 360.552 114.363 360.751 114.355C362.23 114.293 363.627 113.658 364.647 112.584C365.666 111.511 366.228 110.083 366.213 108.602L366.515 100.604L369.425 100.064C370 99.967 370.537 99.7148 370.98 99.335C371.422 98.9551 371.753 98.4619 371.937 97.9083C371.957 97.8382 371.977 97.7681 371.995 97.6951L372.182 96.9002C372.294 96.4226 372.295 95.9257 372.187 95.4474C372.078 94.969 371.861 94.5217 371.554 94.1395C371.246 93.7573 370.856 93.4502 370.412 93.2416C369.968 93.0329 369.482 92.9283 368.992 92.9355L368.986 92.815C368.934 91.5246 368.247 80.3434 360.096 80.9622C356.115 81.2621 352.839 84.2195 351.949 88.1132C351.407 90.3948 351.114 92.7285 351.074 95.0733C351.073 95.6132 351.091 96.1477 351.134 96.6769Z" fill="#F59060"/>
<path d="M356.511 104.841C356.511 104.841 358.761 105.51 361.322 103.488C361.322 103.488 359.939 106.21 356.413 106.057L356.511 104.841ZM369.44 100.063C369.874 99.9825 370.288 99.8171 370.658 99.5764C369.136 102.13 367.308 104.353 366.375 104.368L366.518 100.606L369.43 100.065C369.433 100.065 369.438 100.063 369.44 100.063ZM372.517 86.2019C374.497 91.116 372.656 95.5712 372.251 96.4938C372.297 96.0416 372.247 95.5847 372.105 95.153C371.962 94.7214 371.73 94.3247 371.424 93.9889C371.118 93.6531 370.744 93.3858 370.327 93.2045C369.91 93.0232 369.46 92.932 369.005 92.9368H368.993C368.993 92.9368 364.191 96.5306 355.951 86.8978C355.951 86.8978 354.6 89.227 351.397 91.0497H351.394C351.34 91.082 351.285 91.1165 351.226 91.1461C351.087 91.2161 350.932 91.2453 350.777 91.2304C350.337 91.1208 349.885 81.3883 354.891 79.0035C355.72 78.6092 356.608 78.5817 358.384 78.5273C361.165 78.4418 364.754 78.3317 368.07 80.5914C370.069 81.987 371.615 83.9375 372.517 86.2019V86.2019Z" fill="#090909"/>
<path d="M370.556 98.1475L370.117 97.9924C370.483 96.9582 370.476 96.1542 370.098 95.6021C369.568 94.8283 368.454 94.7864 368.442 94.7857L368.455 94.3203C368.51 94.3203 369.813 94.3658 370.48 95.3356C370.951 96.0176 370.976 96.9635 370.556 98.1475Z" fill="#090909"/>
<path d="M381.031 95.7679C385.336 95.7679 388.825 92.2784 388.825 87.9738C388.825 83.6692 385.336 80.1797 381.031 80.1797C376.727 80.1797 373.237 83.6692 373.237 87.9738C373.237 92.2784 376.727 95.7679 381.031 95.7679Z" fill="#090909"/>
<path d="M372.799 86.048C373.648 87.1852 374.799 89.3546 373.716 91.8143C373.693 91.8683 373.653 91.9133 373.603 91.9425C373.552 91.9717 373.493 91.9835 373.435 91.976C373.377 91.9685 373.323 91.9422 373.281 91.901C373.24 91.8599 373.213 91.8063 373.204 91.7483C373.031 90.4576 372.676 87.938 372.324 86.2633C372.312 86.2039 372.32 86.142 372.347 86.0878C372.375 86.0336 372.42 85.9904 372.475 85.9653C372.53 85.9402 372.592 85.9347 372.651 85.9497C372.71 85.9648 372.762 85.9994 372.799 86.048V86.048Z" fill="#91AEFF"/>
<path d="M355.474 105.547H366.43C366.872 105.547 367.296 105.723 367.609 106.035C367.922 106.348 368.097 106.772 368.097 107.214V110.57H353.807V107.214C353.807 106.995 353.85 106.778 353.934 106.576C354.017 106.374 354.14 106.19 354.295 106.035C354.45 105.88 354.634 105.757 354.836 105.674C355.038 105.59 355.255 105.547 355.474 105.547V105.547Z" fill="#D9E3FF"/>
<path d="M400.022 170.626C396.839 171.037 393.383 171.272 390.152 171.059C389.571 171.021 388.997 170.97 388.436 170.901C388.125 170.864 387.818 170.821 387.514 170.773C387.488 170.77 387.461 170.765 387.437 170.761C387.282 170.736 387.13 170.709 386.981 170.681C386.611 170.615 386.246 170.544 385.89 170.461C385.427 170.353 384.977 170.231 384.539 170.095H384.537L384.539 170.141L384.574 170.901H333.388V145.887L333.381 145.896C333.114 146.179 325.69 153.986 318.615 160.036C318.163 160.423 317.714 160.802 317.267 161.172C316.572 161.747 315.885 162.3 315.212 162.819C313.387 164.236 311.156 165.032 308.846 165.088C308.687 165.091 308.53 165.091 308.373 165.086C307.079 165.061 305.8 164.801 304.599 164.32C303.858 164.023 303.056 163.692 302.195 163.327C294.155 159.909 281.334 153.433 270.842 143.42L271.561 142.308H271.562L277.811 132.644L277.926 132.464L278.237 131.986C278.244 131.989 278.252 131.992 278.261 131.994C278.894 132.235 292.695 137.512 301.205 141.778C302.819 142.586 304.244 143.358 305.351 144.054C305.354 144.05 305.357 144.046 305.36 144.041C305.768 143.467 320.256 123.102 330.789 115.569C332.741 114.172 334.97 113.211 337.325 112.749C340.138 112.198 345.224 111.307 351.434 110.692C352.209 110.614 353 110.542 353.807 110.475C353.818 110.473 353.828 110.473 353.839 110.472C353.966 110.461 354.093 110.45 354.222 110.441C354.844 110.39 355.475 110.343 356.115 110.3C359.279 110.088 362.632 109.97 366.054 110.012C366.61 110.019 367.167 110.031 367.724 110.046C367.837 110.048 367.948 110.051 368.061 110.055C368.074 110.055 368.085 110.057 368.098 110.057C368.167 110.058 368.238 110.06 368.307 110.064C368.434 110.067 368.561 110.072 368.688 110.078C368.999 110.088 369.308 110.102 369.619 110.115C373.27 110.267 376.908 110.664 380.507 111.303C381.432 111.469 382.347 111.656 383.253 111.863C384.321 112.106 385.362 112.457 386.36 112.91C388.553 113.912 390.511 115.363 392.107 117.17C396.297 121.899 402.977 130.891 407.444 144.114C408.723 147.903 409.737 151.775 410.479 155.704C411.836 162.855 407.035 169.718 400.022 170.626Z" fill="#D9E3FF"/>
<path d="M356.02 111.187C355.989 111.254 355.96 111.323 355.929 111.39C353.504 116.835 351.835 122.588 350.972 128.486C350.438 132.141 350.211 135.858 349.99 139.447V139.45L349.467 147.959L349.296 150.753L349.049 154.803L348.39 165.538L348.302 166.981L348.061 170.899H347.688L347.929 166.981L348.023 165.464L348.683 154.704L348.976 149.929L349.11 147.733L349.619 139.45L349.621 139.424C349.842 135.824 350.069 132.101 350.606 128.432C351.471 122.525 353.137 116.762 355.56 111.305C355.599 111.215 355.64 111.124 355.681 111.034L356.02 111.187ZM360.61 111.794C360.584 111.858 360.557 111.923 360.531 111.987C360.215 112.748 359.909 113.512 359.613 114.28C356.503 122.319 354.448 130.661 353.134 139.485C353.117 139.614 353.097 139.744 353.078 139.873C352.614 143.055 352.24 146.304 351.957 149.618C351.801 151.373 351.67 153.149 351.563 154.947C351.554 155.076 351.547 155.206 351.539 155.339C351.33 158.817 351.202 162.375 351.131 166.023C351.124 166.342 351.118 166.662 351.115 166.981C351.092 168.276 351.078 169.582 351.071 170.899H350.693C350.7 169.609 350.714 168.303 350.734 166.981C350.739 166.642 350.745 166.303 350.751 165.963C350.818 162.502 350.946 158.951 351.163 155.358C351.18 155.054 351.2 154.751 351.219 154.445C351.327 152.768 351.456 151.085 351.608 149.396C351.72 148.13 351.847 146.862 351.987 145.592C352.208 143.599 352.459 141.648 352.741 139.739C352.755 139.642 352.769 139.55 352.784 139.456C354.177 130.155 356.31 121.823 359.249 114.193C359.535 113.445 359.831 112.703 360.136 111.969C360.178 111.863 360.222 111.757 360.266 111.651L360.61 111.794ZM364.962 111.436C364.946 111.496 364.933 111.557 364.917 111.617C364.839 111.925 364.763 112.234 364.687 112.543C361.406 125.917 359.996 139.727 359.016 153.357C358.994 153.638 358.975 153.917 358.956 154.196C358.767 156.873 358.589 159.541 358.423 162.201C358.382 162.839 358.341 163.476 358.301 164.112L358.253 164.869L358.161 166.312L358.133 166.767L357.871 170.899H357.5L357.763 166.743L357.776 166.533L357.868 165.09L357.883 164.846C357.982 163.287 358.082 161.724 358.182 160.157C358.332 157.845 358.489 155.527 358.655 153.2C358.679 152.881 358.701 152.559 358.726 152.237C359.691 139.136 361.088 125.884 364.194 113.013C364.298 112.575 364.405 112.138 364.515 111.703C364.545 111.583 364.575 111.462 364.605 111.341L364.962 111.436ZM368.695 110.051C368.693 110.06 368.69 110.067 368.688 110.075C367.316 115.03 366.82 120.707 366.408 126.281C366.373 126.765 366.338 127.247 366.303 127.729C366.191 129.275 366.084 130.734 365.962 132.167C365.741 134.721 365.522 137.274 365.303 139.828C364.946 143.957 364.592 148.087 364.239 152.217C364.228 152.319 364.219 152.422 364.212 152.524C364.205 152.593 364.198 152.66 364.194 152.727C364.126 153.511 364.058 154.295 363.991 155.077C363.907 156.059 363.822 157.04 363.739 158.021C363.656 158.979 363.573 159.938 363.492 160.895C363.409 161.847 363.327 162.798 363.246 163.748C363.153 164.82 363.06 165.891 362.969 166.962C362.857 168.276 362.744 169.588 362.632 170.899H362.259C362.372 169.584 362.485 168.269 362.598 166.955C362.814 164.446 363.03 161.936 363.246 159.426C363.327 158.474 363.409 157.523 363.492 156.573C363.536 156.041 363.582 155.512 363.629 154.98C363.665 154.553 363.7 154.124 363.739 153.697C363.763 153.398 363.788 153.102 363.816 152.803C363.82 152.729 363.827 152.653 363.836 152.579C363.841 152.483 363.85 152.386 363.86 152.29C364.436 145.572 365.013 138.854 365.592 132.137C365.714 130.707 365.82 129.248 365.933 127.703C366.371 121.684 366.824 115.462 368.306 110.063C368.317 110.026 368.326 109.99 368.336 109.953L368.695 110.051Z" fill="white"/>
<path d="M400.022 170.625C396.838 171.036 393.383 171.271 390.152 171.058C389.605 171.028 389.018 170.979 388.399 170.899C388.111 170.864 387.816 170.821 387.514 170.772C387.487 170.769 387.461 170.763 387.436 170.76C386.458 170.598 385.49 170.375 384.539 170.094H384.537C384.537 170.099 384.539 170.103 384.539 170.108C384.574 170.371 384.609 170.636 384.645 170.899H367.057C367.101 170.228 367.139 169.558 367.17 168.888C367.174 168.8 367.177 168.713 367.181 168.625C367.184 168.547 367.188 168.471 367.189 168.394C367.211 167.915 367.228 167.439 367.241 166.964C367.347 162.989 367.197 159.131 366.672 155.637C366.584 155.045 366.484 154.465 366.374 153.896C366.282 153.421 366.196 152.941 366.116 152.459C366.105 152.394 366.095 152.328 366.084 152.261C366.068 152.165 366.052 152.067 366.038 151.97C365.448 147.951 365.202 143.889 365.302 139.828C365.403 135.294 365.772 130.771 366.407 126.281C367.149 120.832 368.221 115.433 369.617 110.113C373.269 110.266 376.907 110.663 380.505 111.302C381.431 111.468 382.346 111.654 383.251 111.861C384.32 112.105 385.361 112.456 386.359 112.908C388.552 113.91 390.51 115.362 392.106 117.169C396.296 121.897 402.975 130.89 407.442 144.113C408.721 147.901 409.735 151.774 410.478 155.702C411.836 162.854 407.035 169.717 400.022 170.625Z" fill="#E9EEFF"/>
<path d="M281.757 135.535C281.757 135.535 274.608 131.914 268.736 117.931C268.696 117.833 268.625 117.749 268.535 117.692C268.445 117.636 268.339 117.608 268.232 117.615C268.126 117.621 268.024 117.66 267.941 117.727C267.857 117.794 267.797 117.885 267.768 117.988C267.103 120.351 266.817 122.805 266.921 125.259C266.925 125.313 266.911 125.368 266.883 125.415C266.855 125.462 266.812 125.499 266.762 125.521C266.712 125.543 266.656 125.549 266.603 125.539C266.549 125.528 266.499 125.501 266.461 125.461C264.922 123.859 260.339 118.999 257.751 115.285C257.683 115.187 257.582 115.117 257.467 115.085C257.352 115.053 257.229 115.063 257.12 115.112C257.012 115.161 256.923 115.246 256.871 115.353C256.818 115.46 256.804 115.583 256.832 115.699C257.23 117.299 258.177 119.655 260.393 122.524C260.432 122.573 260.451 122.634 260.447 122.696C260.444 122.758 260.417 122.816 260.374 122.86C260.33 122.904 260.271 122.931 260.209 122.934C260.148 122.938 260.086 122.919 260.038 122.881C258.563 121.711 256.492 119.972 255.014 118.344C254.933 118.255 254.825 118.198 254.706 118.181C254.588 118.165 254.467 118.19 254.366 118.253C254.264 118.316 254.188 118.412 254.15 118.526C254.112 118.639 254.115 118.762 254.158 118.874C254.793 120.491 256.055 122.735 258.561 125.183C258.605 125.225 258.632 125.282 258.637 125.343C258.642 125.404 258.625 125.465 258.589 125.515C258.552 125.564 258.5 125.598 258.44 125.612C258.38 125.626 258.318 125.617 258.264 125.588C257.014 124.917 255.823 124.141 254.706 123.267C254.611 123.192 254.493 123.152 254.373 123.155C254.252 123.159 254.136 123.204 254.046 123.284C253.956 123.364 253.897 123.474 253.879 123.593C253.862 123.713 253.887 123.835 253.951 123.937C255.173 125.826 256.751 127.459 258.597 128.744C258.644 128.777 258.679 128.825 258.696 128.881C258.712 128.937 258.709 128.996 258.687 129.05C258.665 129.104 258.625 129.148 258.574 129.176C258.523 129.204 258.464 129.214 258.407 129.204C257.609 129.052 256.831 128.808 256.09 128.475C255.984 128.426 255.865 128.415 255.752 128.443C255.639 128.471 255.539 128.537 255.468 128.63C255.398 128.722 255.361 128.836 255.364 128.953C255.367 129.069 255.41 129.181 255.485 129.27C258.108 132.327 264.208 138.263 276.616 145.334L281.757 135.535Z" fill="#F59060"/>
<path d="M266.949 134.525C265.785 131.444 267.407 127.455 267.423 127.415L267.537 127.138L267.238 127.126C267.113 127.12 264.134 127.047 261.436 131.289L261.789 131.514C263.858 128.262 266.114 127.673 266.917 127.567C266.546 128.593 265.515 131.914 266.558 134.673L266.949 134.525Z" fill="#090909"/>
<path d="M346.293 147.225C346.808 148.911 347.013 151.332 346.986 154.231C346.962 156.659 346.782 159.422 346.483 162.374C346.467 162.53 346.451 162.685 346.435 162.84C346.359 163.566 346.277 164.3 346.19 165.044C346.114 165.683 346.034 166.328 345.949 166.979C345.783 168.268 345.599 169.578 345.405 170.897H330.051L330.579 166.979L332.289 154.266L332.778 150.635L333.389 146.093L333.418 145.883L333.411 145.892C333.403 145.9 333.396 145.908 333.389 145.916C332.874 146.46 325.573 154.112 318.62 160.057C318.168 160.443 317.719 160.822 317.272 161.189C316.586 161.756 315.906 162.302 315.242 162.816C313.409 164.238 311.167 165.033 308.847 165.084C308.688 165.087 308.531 165.087 308.374 165.082C307.089 165.053 305.821 164.793 304.629 164.316C303.877 164.016 303.061 163.68 302.188 163.309C294.148 159.886 281.347 153.414 270.871 143.416L271.583 142.316L277.941 132.483L277.944 132.479V132.477L278.261 131.99L278.266 131.981C278.266 131.981 292.49 137.395 301.205 141.759C302.821 142.568 304.249 143.341 305.36 144.037C305.367 144.041 305.372 144.046 305.379 144.049C305.379 144.049 320.133 123.206 330.816 115.564C332.769 114.168 334.997 113.206 337.353 112.744C340.165 112.194 345.252 111.302 351.462 110.688C351.462 110.688 345.793 127.119 345.477 139.448C345.403 142.361 345.625 145.042 346.293 147.225Z" fill="#E9EEFF"/>
<path d="M333.638 132.145H333.144V145.886H333.638V132.145Z" fill="#91AEFF"/>
<path d="M355.845 166.979H324.065C321.51 166.979 319.193 164.903 318.889 162.342L316.726 144.086C316.423 141.525 318.248 139.449 320.803 139.449H352.583C355.138 139.449 357.455 141.525 357.759 144.086L359.922 162.342C360.226 164.903 358.4 166.979 355.845 166.979Z" fill="#090909"/>
<path d="M354.362 166.979H322.582C320.027 166.979 317.71 164.903 317.406 162.342L315.243 144.086C314.94 141.525 316.765 139.449 319.32 139.449H351.099C353.655 139.449 355.972 141.525 356.275 144.086L358.439 162.342C358.742 164.903 356.917 166.979 354.362 166.979Z" fill="#959595"/>
<path d="M336.856 157.507C338.951 157.094 340.272 154.84 339.806 152.471C339.34 150.103 337.263 148.517 335.168 148.929C333.073 149.342 331.752 151.596 332.218 153.964C332.684 156.333 334.76 157.919 336.856 157.507Z" fill="white"/>
<path d="M369.002 166.924C367.05 166.98 365.213 166.996 363.491 166.97C353.398 166.835 347.184 165.434 344.01 164.441C343.899 164.406 343.803 164.333 343.739 164.236C343.675 164.139 343.645 164.023 343.656 163.906C343.667 163.79 343.717 163.681 343.798 163.598C343.879 163.514 343.986 163.46 344.102 163.445C344.907 163.335 345.696 163.131 346.453 162.836C346.507 162.814 346.552 162.774 346.58 162.724C346.609 162.673 346.619 162.614 346.609 162.557C346.6 162.5 346.571 162.447 346.528 162.409C346.485 162.37 346.43 162.347 346.372 162.344C344.125 162.233 341.922 161.684 339.886 160.729C339.777 160.675 339.691 160.586 339.643 160.475C339.594 160.365 339.586 160.241 339.62 160.125C339.654 160.009 339.728 159.909 339.828 159.842C339.929 159.776 340.05 159.747 340.169 159.76C341.581 159.909 343.002 159.937 344.418 159.844C344.479 159.84 344.536 159.814 344.58 159.771C344.623 159.728 344.649 159.671 344.654 159.61C344.658 159.549 344.641 159.488 344.604 159.439C344.568 159.39 344.515 159.356 344.455 159.343C341.032 158.595 338.774 157.36 337.378 156.324C337.282 156.253 337.214 156.15 337.186 156.034C337.158 155.917 337.172 155.795 337.225 155.687C337.277 155.58 337.366 155.494 337.476 155.446C337.585 155.397 337.708 155.388 337.823 155.421C339.937 156.021 342.617 156.396 344.487 156.609C344.549 156.615 344.611 156.599 344.662 156.563C344.712 156.527 344.748 156.474 344.762 156.413C344.776 156.353 344.767 156.289 344.738 156.235C344.708 156.18 344.659 156.138 344.601 156.117C341.199 154.857 339.149 153.361 337.964 152.215C337.879 152.131 337.825 152.02 337.813 151.901C337.801 151.782 337.831 151.663 337.897 151.564C337.964 151.465 338.063 151.392 338.177 151.358C338.292 151.324 338.415 151.331 338.524 151.377C342.687 153.156 349.148 154.85 351.302 155.394C351.355 155.407 351.411 155.404 351.462 155.384C351.513 155.365 351.557 155.33 351.588 155.285C351.619 155.24 351.635 155.186 351.635 155.131C351.635 155.077 351.618 155.023 351.586 154.979C350.197 152.954 349.139 150.721 348.451 148.364C348.421 148.261 348.424 148.152 348.459 148.051C348.494 147.951 348.56 147.863 348.647 147.801C348.734 147.74 348.838 147.707 348.945 147.707C349.051 147.707 349.155 147.741 349.242 147.803C355.106 151.947 359.981 153.966 363.491 154.944C364.851 155.333 366.242 155.607 367.648 155.763L369.002 166.924Z" fill="#F59060"/>
<path d="M369.244 168.912L363.491 168.107V152.625L367.204 152.102L367.648 155.762L369.002 166.922L369.244 168.912Z" fill="#D9E3FF"/>
<path d="M384.088 170.341C376.116 170.341 363.582 168.371 363.453 168.35L363.245 168.317V152.435L363.429 152.386C367.933 151.201 390.631 150.959 391.595 150.949L391.6 151.443C391.367 151.445 368.606 151.688 363.739 152.819V167.895C365.446 168.157 377.187 169.916 384.537 169.844L384.542 170.338C384.393 170.34 384.24 170.341 384.088 170.341Z" fill="#91AEFF"/>
<path d="M380.166 132.076L379.689 132.207L384.929 151.261L385.406 151.13L380.166 132.076Z" fill="#91AEFF"/>
<path d="M361.261 112C358.705 111.971 356.167 111.568 353.728 110.804L353.885 110.336C353.971 110.365 362.536 113.178 367.969 109.902L368.224 110.326C366.114 111.597 363.599 112 361.261 112Z" fill="#91AEFF"/>
<path d="M277.944 132.484L270.422 141.579L271.582 142.32L277.944 132.484Z" fill="#090909"/>
<path d="M319.059 143.948C319.556 143.948 319.959 143.545 319.959 143.048C319.959 142.551 319.556 142.148 319.059 142.148C318.562 142.148 318.159 142.551 318.159 143.048C318.159 143.545 318.562 143.948 319.059 143.948Z" fill="#090909"/>
<path d="M321.97 143.948C322.467 143.948 322.87 143.545 322.87 143.048C322.87 142.551 322.467 142.148 321.97 142.148C321.473 142.148 321.07 142.551 321.07 143.048C321.07 143.545 321.473 143.948 321.97 143.948Z" fill="#090909"/>
<path d="M351.941 97.0668C350.348 97.0668 349.051 95.3609 349.051 93.264C349.051 91.1671 350.347 89.4609 351.941 89.4609C353.536 89.4609 354.832 91.1671 354.832 93.264C354.832 95.3609 353.535 97.0668 351.941 97.0668ZM351.941 89.9906C350.641 89.9906 349.581 91.46 349.581 93.264C349.581 95.068 350.639 96.5371 351.941 96.5371C353.243 96.5371 354.302 95.0678 354.302 93.264C354.302 91.4603 353.243 89.9906 351.941 89.9906V89.9906ZM358.867 97.0668C357.273 97.0668 355.976 95.3609 355.976 93.264C355.976 91.1671 357.272 89.4609 358.867 89.4609C360.461 89.4609 361.757 91.1671 361.757 93.264C361.757 95.3609 360.46 97.0668 358.867 97.0668ZM358.867 89.9906C357.566 89.9906 356.506 91.46 356.506 93.264C356.506 95.068 357.565 96.5371 358.867 96.5371C360.169 96.5371 361.227 95.0678 361.227 93.264C361.227 91.4603 360.168 89.9906 358.867 89.9906V89.9906Z" fill="#015566"/>
<path d="M354.657 93.5122L354.476 93.0148C354.519 92.9989 355.544 92.6323 356.358 93.0249L356.127 93.5019C355.517 93.2085 354.665 93.5093 354.657 93.5122ZM368.992 93.2044H368.99L361.474 93.1393C361.439 93.1392 361.405 93.1322 361.373 93.1187C361.341 93.1052 361.312 93.0856 361.287 93.0609C361.263 93.0361 361.243 93.0068 361.23 92.9746C361.217 92.9424 361.21 92.9079 361.21 92.8731C361.21 92.8384 361.217 92.8039 361.231 92.7718C361.244 92.7397 361.264 92.7106 361.289 92.6861C361.313 92.6616 361.343 92.6423 361.375 92.6291C361.407 92.6159 361.442 92.6092 361.476 92.6094H361.479L368.994 92.6747C369.029 92.6748 369.064 92.6818 369.096 92.6953C369.128 92.7087 369.157 92.7284 369.181 92.7531C369.206 92.7778 369.225 92.8071 369.239 92.8393C369.252 92.8715 369.258 92.906 369.258 92.9408C369.258 92.9756 369.251 93.0101 369.238 93.0421C369.224 93.0742 369.204 93.1034 369.18 93.1278C369.155 93.1523 369.126 93.1717 369.094 93.1849C369.061 93.1981 369.027 93.2048 368.992 93.2046V93.2044Z" fill="#015566"/>
<path d="M369.648 105.125C369.024 105.125 368.415 104.94 367.896 104.594C367.378 104.247 366.974 103.755 366.735 103.179C366.497 102.603 366.434 101.969 366.556 101.358C366.677 100.746 366.978 100.184 367.418 99.7436C367.859 99.3027 368.421 99.0025 369.032 98.8809C369.644 98.7592 370.278 98.8217 370.854 99.0603C371.43 99.2989 371.922 99.703 372.268 100.221C372.615 100.74 372.8 101.349 372.8 101.973C372.799 102.808 372.466 103.61 371.875 104.201C371.284 104.791 370.483 105.124 369.648 105.125V105.125ZM369.648 99.3503C369.129 99.3502 368.622 99.504 368.191 99.7921C367.759 100.08 367.423 100.49 367.225 100.969C367.026 101.448 366.974 101.976 367.075 102.484C367.176 102.993 367.426 103.46 367.793 103.827C368.16 104.194 368.627 104.444 369.136 104.545C369.644 104.646 370.172 104.594 370.651 104.396C371.13 104.197 371.54 103.861 371.828 103.43C372.116 102.999 372.27 102.491 372.27 101.973C372.269 101.278 371.993 100.611 371.501 100.119C371.009 99.6277 370.343 99.3512 369.648 99.3503V99.3503Z" fill="#6595F7"/>
<path d="M369.128 99.6837C369.394 99.6837 369.61 99.4677 369.61 99.2012C369.61 98.9348 369.394 98.7188 369.128 98.7188C368.862 98.7188 368.646 98.9348 368.646 99.2012C368.646 99.4677 368.862 99.6837 369.128 99.6837Z" fill="#6595F7"/>
<path d="M290.318 87.4156C284.19 87.4156 278.199 85.5983 273.104 82.1936C268.008 78.7889 264.037 73.9497 261.692 68.2879C259.346 62.6261 258.733 56.396 259.928 50.3855C261.124 44.3749 264.075 38.8539 268.408 34.5206C272.742 30.1872 278.263 27.2362 284.273 26.0407C290.284 24.8451 296.514 25.4588 302.176 27.804C307.838 30.1492 312.677 34.1207 316.081 39.2162C319.486 44.3117 321.303 50.3024 321.303 56.4307C321.294 64.6456 318.027 72.5213 312.218 78.3301C306.409 84.1389 298.533 87.4063 290.318 87.4156V87.4156ZM290.318 26.4474C284.388 26.4474 278.591 28.2059 273.66 31.5005C268.73 34.7951 264.887 39.4779 262.617 44.9566C260.348 50.4353 259.754 56.464 260.911 62.2801C262.068 68.0963 264.924 73.4388 269.117 77.6321C273.31 81.8253 278.653 84.6809 284.469 85.8379C290.285 86.9948 296.314 86.401 301.792 84.1316C307.271 81.8623 311.954 78.0192 315.248 73.0885C318.543 68.1578 320.301 62.3608 320.301 56.4307C320.292 48.4814 317.131 40.8602 311.51 35.2392C305.889 29.6182 298.267 26.4564 290.318 26.4474V26.4474Z" fill="#204B89"/>
<path d="M300.337 96.933C317.173 96.933 330.821 83.2848 330.821 66.4489C330.821 49.613 317.173 35.9648 300.337 35.9648C283.501 35.9648 269.853 49.613 269.853 66.4489C269.853 83.2848 283.501 96.933 300.337 96.933Z" fill="#6C87AE"/>
<path d="M303.423 48.2227C299.592 52.7674 295.145 56.7548 290.21 60.0694C289.86 67.5116 287.513 74.7223 283.416 80.9453C290.052 77.4829 297.599 76.166 305.016 77.1766C308.626 72.6012 313.474 69.1578 318.983 67.2555L303.423 48.2227Z" fill="white"/>
<path d="M283.417 81.6136C283.281 81.6136 283.148 81.5721 283.036 81.4946C282.925 81.4171 282.839 81.3072 282.791 81.1798C282.744 81.0523 282.736 80.9134 282.77 80.7815C282.803 80.6496 282.876 80.531 282.979 80.4417L299.056 66.4568C299.19 66.3425 299.363 66.2857 299.539 66.2987C299.714 66.3117 299.878 66.3936 299.993 66.5264C300.109 66.6593 300.167 66.8324 300.156 67.0081C300.145 67.1838 300.064 67.3479 299.933 67.4647L283.855 81.4496C283.734 81.5555 283.578 81.6138 283.417 81.6136V81.6136Z" fill="#090909"/>
<path d="M300.207 68.8381C301.6 68.8381 302.73 67.7087 302.73 66.3155C302.73 64.9224 301.6 63.793 300.207 63.793C298.814 63.793 297.685 64.9224 297.685 66.3155C297.685 67.7087 298.814 68.8381 300.207 68.8381Z" fill="#090909"/>
<path d="M318.983 67.9226C318.884 67.9228 318.786 67.9009 318.696 67.8585C318.607 67.8161 318.528 67.7544 318.465 67.6777L302.906 48.6448C302.797 48.5073 302.747 48.3326 302.766 48.1584C302.785 47.9841 302.871 47.8243 303.007 47.7134C303.143 47.6024 303.316 47.5492 303.491 47.5653C303.665 47.5814 303.827 47.6654 303.94 47.7993L319.499 66.8319C319.579 66.9297 319.63 67.0483 319.645 67.1738C319.661 67.2992 319.64 67.4265 319.586 67.5408C319.532 67.655 319.447 67.7516 319.34 67.8192C319.233 67.8868 319.109 67.9226 318.983 67.9226V67.9226Z" fill="#090909"/>
<path d="M338.938 311.819C341.441 311.19 338.535 291.045 332.449 266.824C326.362 242.604 319.399 223.479 316.897 224.107C314.394 224.736 317.299 244.881 323.386 269.102C329.472 293.323 336.435 312.448 338.938 311.819Z" fill="#63E296"/>
<path d="M343.293 311.817C345.811 311.575 345.397 285.77 342.367 254.18C339.337 222.59 334.838 197.176 332.32 197.418C329.801 197.66 330.215 223.465 333.245 255.055C336.275 286.645 340.774 312.059 343.293 311.817Z" fill="#79AE8E"/>
<path d="M347.689 311.816C350.191 311.816 352.22 281.523 352.22 244.154C352.22 206.785 350.191 176.492 347.689 176.492C345.186 176.492 343.157 206.785 343.157 244.154C343.157 281.523 345.186 311.816 347.689 311.816Z" fill="#63E296"/>
<path d="M362.136 255.058C365.166 223.468 365.581 197.663 363.062 197.421C360.543 197.18 356.045 222.593 353.015 254.183C349.985 285.774 349.57 311.579 352.089 311.82C354.608 312.062 359.106 286.649 362.136 255.058Z" fill="#79AE8E"/>
<path d="M371.99 269.101C378.076 244.88 380.982 224.736 378.479 224.107C375.976 223.478 369.014 242.603 362.927 266.824C356.84 291.045 353.935 311.189 356.438 311.818C358.94 312.447 365.903 293.322 371.99 269.101Z" fill="#63E296"/>
<path d="M377.586 336.003H317.729C317.804 335.423 317.886 334.844 317.972 334.266C318.479 330.845 319.158 327.451 320.007 324.097L327.854 293.09L328.1 292.118L328.902 288.95L328.944 288.785H366.369L366.439 289.063L367.214 292.118L367.459 293.088L375.307 324.098C376.155 327.452 376.835 330.846 377.343 334.267C377.43 334.846 377.51 335.423 377.586 336.003Z" fill="#204B89"/>
<path d="M356.973 336.003H338.34C338.42 335.414 338.506 334.836 338.598 334.266C340.333 323.402 343.739 316.016 347.656 316.016C351.572 316.016 354.982 323.403 356.713 334.266C356.805 334.835 356.891 335.414 356.973 336.003Z" fill="#6084A3"/>
<path d="M367.459 292.117H327.854V294.055H367.459V292.117Z" fill="#6084A3"/>
<defs>
<linearGradient id="paint0_linear_1460_5806" x1="120.902" y1="276.194" x2="120.902" y2="343.34" gradientUnits="userSpaceOnUse">
<stop stop-color="#D5E2F4"/>
<stop stop-color="#DAE5F6"/>
<stop offset="0.703093" stop-color="white"/>
<stop offset="1" stop-color="white"/>
</linearGradient>
</defs>
</svg>
