<svg width="403" height="372" viewBox="0 0 403 372" fill="none" xmlns="http://www.w3.org/2000/svg">
<g clip-path="url(#clip0_1398_2456)">
<path d="M375.602 343.047H33.3054C27.1072 343.349 18.6516 345.541 18.4046 347.472C18.1242 349.664 27.5232 350.488 34.6357 350.597C50.2136 350.838 65.7916 351.078 81.3695 351.319C82.7981 351.34 84.2934 351.368 85.5176 351.596C88.9086 352.228 87.8091 353.945 84.6972 354.7C81.5853 355.456 77.42 355.611 73.6917 356.024C69.9639 356.438 66.1544 357.369 66.3986 358.588C66.7306 360.245 73.6102 360.831 78.9886 360.944C101.404 361.412 123.941 361.325 146.311 360.684C155.739 360.414 166.454 360.168 173.428 362.141C175.441 362.71 177.005 363.438 179.307 363.892C197.116 367.404 226.777 365.085 245.982 365.351C266.246 365.631 286.931 365.897 306.436 364.18C311.875 363.702 317.791 362.887 319.659 361.242C321.645 359.494 318.209 357.66 315.573 355.995C312.938 354.331 311.378 352.059 315.914 350.844C318.323 350.199 321.746 350.081 324.936 350.051C340.869 349.898 357.63 351.145 372.278 349.208C380.15 348.167 379.642 345.374 375.602 343.047Z" fill="#FFF9E5"/>
<path d="M354.455 79.8243C354.912 79.8885 355.356 80.0278 355.769 80.2367C356.738 80.7104 357.55 81.454 358.108 82.3784C358.666 83.3027 358.946 84.3686 358.914 85.4482C358.887 86.4664 358.584 87.4581 358.038 88.3171C357.748 88.7851 357.387 89.2054 356.969 89.563C356.538 89.9316 356.05 90.2279 355.524 90.4404C354.421 90.9211 353.195 91.0439 352.019 90.7913C350.833 90.5223 349.765 89.8796 348.97 88.9576C348.601 88.5264 348.305 88.0373 348.094 87.51C347.867 87.0101 347.722 86.4769 347.665 85.9307C347.538 84.9187 347.687 83.8912 348.094 82.9565C348.522 81.9651 349.229 81.1197 350.128 80.5231C351.027 79.9265 352.08 79.6045 353.158 79.5962C353.621 79.5802 354.083 79.6425 354.525 79.7804C354.525 79.8243 354.034 79.6839 353.167 79.719C351.932 79.7725 350.751 80.239 349.812 81.0438C349.166 81.5904 348.659 82.2818 348.331 83.0618C347.959 83.9568 347.829 84.9343 347.954 85.8956C348.018 86.4112 348.16 86.9141 348.375 87.3871C348.591 87.8877 348.887 88.3499 349.251 88.7558C349.997 89.6375 351.008 90.2532 352.133 90.5105C353.252 90.7588 354.421 90.6452 355.471 90.1859C355.972 89.9719 356.434 89.6754 356.838 89.3086C357.238 88.9747 357.581 88.5776 357.854 88.1329C358.384 87.3214 358.687 86.382 358.73 85.4131C358.77 84.3729 358.515 83.3425 357.994 82.4417C357.473 81.541 356.708 80.8068 355.786 80.3244C354.945 79.9471 354.446 79.8682 354.455 79.8243Z" fill="#E0E0E0"/>
<path d="M358.905 73.8762C358.901 73.8119 358.901 73.7475 358.905 73.6832C358.905 73.534 358.905 73.341 358.905 73.0866C358.905 72.5426 358.905 71.7618 358.905 70.7441L358.949 70.7967L353.894 69.6912L353.982 69.6474L352.65 72.4812V72.5339H352.589C351.469 72.5826 350.362 72.7802 349.295 73.1217H349.233H349.189L346.885 70.902H347.06L342.68 73.692V73.5341L343.731 76.482V76.5522L343.679 76.6136C342.923 77.4386 342.278 78.3588 341.76 79.3509V79.4211H341.673H338.554L338.685 79.3071C338.335 80.8951 337.949 82.6059 337.564 84.3694L337.485 84.2027L340.306 85.5363H340.385V85.6241C340.43 86.741 340.621 87.8471 340.954 88.9141V89.0019L340.884 89.0721L338.676 91.2918V91.0988L341.445 95.4856L341.261 95.4154L344.204 94.3625H344.292L344.371 94.424C345.186 95.1838 346.099 95.8301 347.087 96.3454C347.131 96.4068 347.008 96.205 347.174 96.4858V99.6091L347.052 99.4512L352.098 100.592L351.923 100.68C352.37 99.7232 352.799 98.7844 353.263 97.8457L353.307 97.7667H353.403C354.516 97.7239 355.618 97.5321 356.68 97.1964H356.768L356.838 97.2666L359.054 99.4776H358.861L363.242 96.7139L363.18 96.8806L362.129 93.9326V93.8537L362.191 93.7835C362.951 92.9635 363.599 92.0459 364.118 91.0549V90.9847H367.324L367.202 91.09C367.605 89.3353 367.981 87.6332 368.341 86.0276L368.411 86.168L365.59 84.8169H365.528V84.7467C365.49 83.6268 365.302 82.5172 364.968 81.4478V81.3864V81.3425C365.774 80.5354 366.492 79.8072 367.184 79.1228V79.2457L364.433 74.8589H364.521L361.568 75.8854C360.949 75.31 360.277 74.7931 359.562 74.3412L359.019 74.0166L358.844 73.9025L359.037 73.9903L359.589 74.2886C360.321 74.727 361.008 75.2384 361.639 75.8152H361.586L364.521 74.7448H364.573V74.7974L367.359 79.1842L367.403 79.2544L367.351 79.3071L365.248 81.4303V81.325C365.595 82.4132 365.793 83.5437 365.835 84.6853L365.774 84.5888L368.603 85.9223L368.691 85.9662V86.0627C368.341 87.6595 367.964 89.3353 367.57 91.1163V91.2216H364.319L364.442 91.1514C363.912 92.1658 363.253 93.1067 362.48 93.9502V93.801C362.821 94.7661 363.18 95.7488 363.531 96.749L363.575 96.863L363.47 96.9244L359.089 99.7057L358.984 99.7671L358.896 99.6793L356.697 97.4947H356.855C355.765 97.8412 354.634 98.0389 353.491 98.0825L353.622 97.9948C353.184 98.9248 352.746 99.8724 352.282 100.82L352.229 100.934H352.107L347.06 99.8548H346.938V96.5998C347.104 96.8806 346.982 96.6788 347.025 96.7402C346.013 96.2134 345.076 95.5523 344.239 94.7749H344.397L341.454 95.819L341.331 95.8628L341.27 95.7575L338.501 91.3708L338.431 91.2655L338.519 91.1777L340.726 88.958V89.1159C340.384 88.0236 340.186 86.8909 340.139 85.7469L340.227 85.8785L337.424 84.4923L337.318 84.4396V84.3256L338.457 79.272V79.1579H341.69L341.567 79.2281C342.1 78.2186 342.763 77.2835 343.539 76.4469V76.5785L342.496 73.6218V73.5341L342.584 73.4726L346.964 70.709H347.043L347.104 70.7704L349.321 72.9901H349.216C350.301 72.6502 351.426 72.4584 352.562 72.4198L352.483 72.4724C352.974 71.4547 353.43 70.4984 353.833 69.6474V69.5859H353.894L358.931 70.7528H358.975C358.975 71.7618 358.975 72.5075 358.975 73.0778C358.975 73.3323 358.975 73.5341 358.975 73.6744C358.956 73.743 358.932 73.8103 358.905 73.8762ZM389.516 326.608C389.516 326.608 389.516 326.275 389.516 325.652C389.516 325.029 389.516 324.09 389.516 322.879C389.516 320.449 389.516 316.878 389.472 312.298C389.472 303.148 389.428 289.943 389.402 273.747L389.542 273.888L298.315 273.932L298.508 273.747C298.508 292.453 298.508 310.324 298.508 326.608L298.333 326.433L363.951 326.512L382.796 326.564H387.825H389.113H389.559H387.851H382.866L364.057 326.617L298.35 326.696H298.184V326.529C298.184 310.245 298.184 292.374 298.184 273.668V273.572H298.376H389.603H389.752V273.721C389.752 289.961 389.7 303.183 389.682 312.325C389.682 316.896 389.682 320.449 389.682 322.853C389.682 324.046 389.682 324.967 389.682 325.59C389.682 326.213 389.516 326.608 389.516 326.608Z" fill="#E0E0E0"/>
<path d="M389.553 280.141C389.553 280.247 369.148 280.326 343.996 280.326C318.844 280.326 298.439 280.247 298.439 280.141C298.439 280.036 318.835 279.957 343.996 279.957C369.157 279.957 389.553 280.036 389.553 280.141Z" fill="#E0E0E0"/>
<path d="M334.367 288.863H306.184V317.088H334.367V288.863Z" fill="#F5F5F5"/>
<path d="M382.902 293.512C382.765 293.531 382.627 293.531 382.49 293.512H381.299L376.918 293.565L362.498 293.627L348.077 293.565L343.697 293.512H342.506C342.369 293.531 342.23 293.531 342.094 293.512C342.231 293.497 342.369 293.497 342.506 293.512H343.697L348.077 293.451L362.498 293.398L376.918 293.451L381.299 293.512H382.49C382.627 293.497 382.765 293.497 382.902 293.512ZM383.804 299.821C383.665 299.836 383.523 299.836 383.384 299.821H382.166L377.698 299.882L362.962 299.935L348.218 299.882L343.75 299.821H342.532C342.392 299.836 342.251 299.836 342.111 299.821C342.249 299.787 342.39 299.772 342.532 299.777H343.75L348.218 299.724L362.962 299.663L377.698 299.724L382.166 299.777H383.384C383.525 299.772 383.667 299.787 383.804 299.821ZM383.804 306.12C383.665 306.139 383.523 306.139 383.384 306.12H382.166L377.698 306.173L362.962 306.234L348.218 306.173L343.75 306.12H342.532C342.392 306.139 342.251 306.139 342.111 306.12C342.251 306.105 342.392 306.105 342.532 306.12H343.75L348.218 306.059L362.962 306.006L377.724 306.032L382.192 306.094H383.41C383.542 306.089 383.674 306.098 383.804 306.12ZM383.804 312.428C383.665 312.444 383.523 312.444 383.384 312.428H382.166L377.698 312.49L362.962 312.542L348.218 312.49L343.75 312.428H342.532C342.392 312.444 342.251 312.444 342.111 312.428C342.249 312.395 342.39 312.38 342.532 312.384H343.75L348.218 312.332L362.962 312.27L377.698 312.332L382.166 312.384H383.384C383.525 312.38 383.667 312.395 383.804 312.428Z" fill="#E0E0E0"/>
<path d="M152.518 64.823C167.326 49.994 167.326 25.9514 152.518 11.1224C137.711 -3.70666 113.703 -3.70666 98.8954 11.1223C84.0879 25.9514 84.0879 49.994 98.8954 64.823C113.703 79.652 137.711 79.652 152.518 64.823Z" fill="#EFEFEF"/>
<path d="M142.934 39.1392C142.49 39.2053 142.042 39.2346 141.593 39.227L137.905 39.2971C134.777 39.2971 130.423 39.3761 125.508 39.3761H125.263V36.6826C125.263 31.1816 125.263 26.207 125.333 22.6449C125.333 20.8902 125.394 19.4688 125.412 18.3722C125.399 17.8498 125.431 17.3272 125.508 16.8104C125.58 17.3278 125.613 17.8499 125.605 18.3722C125.605 19.4688 125.605 20.9077 125.684 22.6449C125.684 26.2508 125.754 31.2255 125.754 36.6826C125.754 37.56 125.754 38.3584 125.754 39.148L125.517 38.9023C130.432 38.9023 134.786 38.9023 137.914 38.9813L141.602 39.0603C142.047 39.0445 142.493 39.071 142.934 39.1392ZM125.614 6.23828C125.854 7.28154 125.937 8.35518 125.859 9.42309C125.937 10.4939 125.854 11.5704 125.614 12.6167C125.373 11.5704 125.29 10.4939 125.368 9.42309C125.29 8.35518 125.373 7.28154 125.614 6.23828ZM142.934 11.3533C142.378 12.2558 141.687 13.0667 140.884 13.7572C140.198 14.5591 139.391 15.2488 138.492 15.8015C139.049 14.9027 139.74 14.0948 140.542 13.4063C141.233 12.6063 142.039 11.9143 142.934 11.3533ZM152.991 22.408C152.189 23.097 151.307 23.6862 150.363 24.1627C149.509 24.7754 148.586 25.2848 147.612 25.6805C148.315 24.883 149.162 24.2252 150.109 23.7416C150.974 23.1132 151.953 22.6602 152.991 22.408ZM158.914 38.8058C157.468 39.0557 155.998 39.1381 154.533 39.0515C153.068 39.1381 151.599 39.0557 150.153 38.8058C151.599 38.5612 153.068 38.4789 154.533 38.5602C155.998 38.4789 157.467 38.5612 158.914 38.8058ZM98.6826 38.2268C97.3302 38.4689 95.9541 38.5513 94.5825 38.4724C93.2109 38.5508 91.8349 38.4683 90.4824 38.2268C91.8349 37.9852 93.2109 37.9028 94.5825 37.9811C95.9541 37.9022 97.3302 37.9847 98.6826 38.2268ZM102.949 50.4396C102.024 51.4914 100.983 52.436 99.8478 53.2559C98.8071 54.1923 97.6638 55.0076 96.4398 55.6862C97.36 54.6292 98.4009 53.6839 99.5412 52.8699C100.575 51.9247 101.719 51.1086 102.949 50.4396ZM113.453 59.88C112.841 61.1504 112.136 62.3733 111.342 63.5386C110.685 64.7873 109.939 65.9866 109.108 67.127C109.508 65.7588 110.12 64.462 110.922 63.2841C111.584 62.0245 112.438 60.876 113.453 59.88ZM125.614 72.0577C125.369 70.6091 125.287 69.1378 125.368 67.6709C125.287 66.2041 125.369 64.7327 125.614 63.2841C125.858 64.7327 125.94 66.2041 125.859 67.6709C125.94 69.1378 125.858 70.6091 125.614 72.0577ZM144.336 66.2584C143.008 65.6537 141.795 64.8224 140.752 63.8018C139.606 62.9033 138.62 61.8177 137.835 60.5906C138.966 61.4782 140.049 62.4272 141.076 63.4333C142.213 64.3159 143.3 65.259 144.336 66.2584ZM153.123 56.7829C152.059 56.0663 151.09 55.2173 150.24 54.2561C149.281 53.4049 148.433 52.4349 147.717 51.3696C148.778 52.0901 149.743 52.942 150.591 53.9052C151.553 54.7537 152.403 55.7206 153.123 56.7829ZM102.546 26.5316C101.597 25.9283 100.741 25.1894 100.005 24.3382C99.1556 23.6014 98.4177 22.7443 97.8153 21.7938C98.7643 22.3971 99.6202 23.1361 100.356 23.9872C101.206 24.724 101.944 25.5812 102.546 26.5316ZM113.392 15.0908C112.46 14.5205 111.618 13.8137 110.895 12.9939C110.063 12.263 109.346 11.4113 108.766 10.4671C109.698 11.0524 110.536 11.774 111.254 12.6079C112.087 13.3239 112.807 14.1608 113.392 15.0908Z" fill="#4A4A4A"/>
<path opacity="0.8" fill-rule="evenodd" clip-rule="evenodd" d="M331.94 18.5146C333.928 19.5527 335.772 20.8476 337.424 22.3662L343.25 20.2869L348.725 28.9464L344.345 33.3332C345.017 35.4657 345.4 37.6788 345.484 39.9134L351.073 42.5454L348.813 52.5824H342.68C341.65 54.5675 340.36 56.4057 338.843 58.0484L340.919 63.8828L332.272 69.3663L327.892 64.9795C325.763 65.6553 323.553 66.0419 321.321 66.1288L318.693 71.7176L308.706 69.4804V63.2862C306.721 62.2545 304.885 60.9589 303.248 59.4346L297.422 61.5139L291.867 52.8807L296.248 48.4939C295.569 46.374 295.174 44.173 295.074 41.9488L289.484 39.3168L291.727 29.3149H297.912C298.943 27.3277 300.236 25.489 301.758 23.8489L299.682 18.0145L308.329 12.531L312.709 16.9178C314.842 16.2428 317.054 15.8562 319.289 15.7685L321.917 10.1797L331.905 12.4257V18.5672L331.94 18.5146ZM323.135 30.2887C321.018 29.8137 318.807 29.9777 316.783 30.76C314.758 31.5424 313.011 32.908 311.761 34.6843C310.512 36.4607 309.816 38.5681 309.761 40.7404C309.707 42.9127 310.296 45.0524 311.456 46.8893C312.615 48.7261 314.292 50.1778 316.274 51.0608C318.257 51.9438 320.456 52.2187 322.595 51.8505C324.733 51.4824 326.715 50.4879 328.289 48.9926C329.863 47.4972 330.96 45.5682 331.44 43.4491C331.761 42.0387 331.8 40.5787 331.556 39.153C331.312 37.7272 330.789 36.3638 330.018 35.141C329.246 33.9182 328.241 32.8601 327.06 32.0274C325.878 31.1947 324.545 30.6039 323.135 30.2887Z" fill="#6084A3" fill-opacity="0.5"/>
<path d="M38.416 106.505H103.246C103.246 106.505 97.5169 96.0648 80.8362 97.5826C64.9089 99.039 64.0941 92.4501 55.9903 91.6341C47.8865 90.8182 41.1144 97.0474 38.416 106.505ZM178.678 224.501H231.129C231.129 224.501 226.494 216.052 212.994 217.281C200.098 218.456 199.441 213.122 192.844 212.464C186.247 211.806 180.859 216.842 178.678 224.501Z" fill="#F5F5F5"/>
<path d="M381.387 91.1914H254.109V176.541H381.387V91.1914Z" fill="white"/>
<path d="M381.396 176.534C381.396 176.534 381.396 175.999 381.396 174.981V170.481C381.396 166.533 381.396 160.733 381.343 153.319C381.343 138.483 381.29 117.172 381.247 91.1937L381.431 91.3692L254.161 91.4218L254.389 91.1937C254.389 121.594 254.389 150.503 254.389 176.534L254.179 176.324L345.879 176.429L372.074 176.482H379.039H380.844H379.091H372.162L346.01 176.534L254.179 176.64H253.969V176.429C253.969 150.398 253.969 121.489 253.969 91.0884V90.8516H254.205L381.474 90.9042H381.658V91.0884C381.658 117.12 381.588 138.466 381.562 153.319C381.562 160.724 381.562 166.48 381.518 170.446C381.518 172.402 381.518 173.902 381.518 174.92C381.518 175.938 381.396 176.534 381.396 176.534Z" fill="#FFC200"/>
<path d="M254.117 98.8062C254.117 98.6746 282.59 98.5781 317.704 98.5781C352.817 98.5781 381.29 98.6746 381.29 98.8062C381.29 98.9378 352.826 99.0344 317.704 99.0344C282.581 99.0344 254.117 98.9729 254.117 98.8062Z" fill="#FFC200"/>
<path opacity="0.3" d="M259.138 94.964C259.138 95.1674 259.078 95.3663 258.965 95.5352C258.852 95.7042 258.691 95.8358 258.503 95.9132C258.315 95.9907 258.109 96.0105 257.91 95.9702C257.711 95.9298 257.528 95.8312 257.385 95.6867C257.242 95.5423 257.145 95.3586 257.107 95.1589C257.068 94.9592 257.09 94.7525 257.168 94.5651C257.247 94.3777 257.38 94.218 257.55 94.1063C257.72 93.9945 257.919 93.9358 258.122 93.9375C258.256 93.9375 258.389 93.9641 258.513 94.0158C258.636 94.0675 258.749 94.1433 258.843 94.2387C258.938 94.3342 259.013 94.4474 259.063 94.5719C259.114 94.6964 259.139 94.8297 259.138 94.964ZM262.634 94.964C262.634 95.1674 262.573 95.3663 262.46 95.5352C262.347 95.7042 262.187 95.8358 261.999 95.9132C261.811 95.9907 261.604 96.0105 261.405 95.9702C261.206 95.9298 261.024 95.8312 260.881 95.6867C260.738 95.5423 260.641 95.3586 260.602 95.1589C260.564 94.9592 260.585 94.7525 260.664 94.5651C260.743 94.3777 260.876 94.218 261.045 94.1063C261.215 93.9945 261.414 93.9358 261.617 93.9375C261.751 93.9375 261.884 93.9641 262.008 94.0158C262.132 94.0675 262.244 94.1433 262.339 94.2387C262.433 94.3342 262.508 94.4474 262.559 94.5719C262.609 94.6964 262.635 94.8297 262.634 94.964ZM266.077 94.964C266.077 95.1674 266.016 95.3663 265.903 95.5352C265.79 95.7042 265.63 95.8358 265.442 95.9132C265.254 95.9907 265.047 96.0105 264.848 95.9702C264.649 95.9298 264.467 95.8312 264.324 95.6867C264.181 95.5423 264.084 95.3586 264.045 95.1589C264.007 94.9592 264.028 94.7525 264.107 94.5651C264.186 94.3777 264.319 94.218 264.488 94.1063C264.658 93.9945 264.857 93.9358 265.06 93.9375C265.194 93.9375 265.327 93.9641 265.451 94.0158C265.575 94.0675 265.687 94.1433 265.782 94.2387C265.876 94.3342 265.951 94.4474 266.002 94.5719C266.052 94.6964 266.078 94.8297 266.077 94.964Z" fill="#E8505B"/>
<path opacity="0.2" d="M298.999 107.703H265.051V141.701H298.999V107.703Z" fill="#7B8BAE"/>
<path d="M363.944 117.31C363.944 117.442 350.698 117.538 334.368 117.538C318.037 117.538 304.791 117.442 304.791 117.31C304.791 117.179 318.037 117.082 334.368 117.082C350.698 117.082 363.944 117.187 363.944 117.31ZM363.944 123.636C363.944 123.759 350.698 123.864 334.368 123.864C318.037 123.864 304.791 123.759 304.791 123.636C304.791 123.513 318.037 123.408 334.368 123.408C350.698 123.408 363.944 123.539 363.944 123.636ZM363.944 129.953C363.944 130.076 350.698 130.181 334.368 130.181C318.037 130.181 304.791 130.076 304.791 129.953C304.791 129.83 318.037 129.725 334.368 129.725C350.698 129.725 363.944 129.821 363.944 129.953ZM339.756 136.27C339.301 136.341 338.84 136.371 338.38 136.358L334.631 136.428C331.468 136.472 327.096 136.498 322.278 136.498C317.459 136.498 313.079 136.498 309.916 136.428L306.166 136.358C305.706 136.371 305.246 136.341 304.791 136.27C305.246 136.198 305.706 136.169 306.166 136.182L309.916 136.112C313.079 136.068 317.45 136.042 322.278 136.042C327.105 136.042 331.468 136.042 334.631 136.112L338.38 136.182C338.84 136.169 339.301 136.198 339.756 136.27Z" fill="#FFC200"/>
<path opacity="0.2" d="M283.133 153.168H267.18V169.145H283.133V153.168Z" fill="#173371"/>
<path opacity="0.2" d="M312.071 153.168H296.117V169.145H312.071V153.168Z" fill="#7B8BAE"/>
<path opacity="0.2" d="M341.008 153.168H325.055V169.145H341.008V153.168Z" fill="#7B8BAE"/>
<g opacity="0.3">
<path opacity="0.2" d="M369.946 153.168H353.992V169.145H369.946V153.168Z" fill="#7B8BAE"/>
</g>
<path d="M134.725 121.934H21.3418V168.056H134.725V121.934Z" fill="white"/>
<path d="M134.725 168.057C134.725 168.057 134.725 167.776 134.725 167.232C134.725 166.688 134.725 165.89 134.725 164.837C134.725 162.731 134.725 159.643 134.725 155.66C134.725 147.702 134.725 136.183 134.655 121.934L134.778 122.057L21.4035 122.11L21.5875 121.934C21.5875 138.086 21.5875 153.677 21.5875 168.057L21.4123 167.882L102.704 167.961L126.289 168.013H132.605H134.235H132.64H126.367L102.827 168.057L21.4123 168.136H21.1582V121.785H21.3422L134.717 121.847H134.848V121.969C134.848 136.253 134.795 147.79 134.778 155.774C134.778 159.74 134.778 162.793 134.778 164.925C134.778 165.96 134.778 166.75 134.778 167.294C134.778 167.838 134.725 168.057 134.725 168.057Z" fill="#FFC200"/>
<path d="M21.4551 128.157C21.4551 128.06 46.8003 127.973 78.0503 127.973C109.3 127.973 134.663 128.06 134.663 128.157C134.663 128.253 109.318 128.332 78.0503 128.332C46.7828 128.332 21.4551 128.253 21.4551 128.157Z" fill="#FFC200"/>
<path opacity="0.3" d="M26.2037 125.376C26.2037 125.539 26.1554 125.698 26.0649 125.834C25.9744 125.969 25.8458 126.075 25.6953 126.137C25.5448 126.2 25.3792 126.216 25.2195 126.184C25.0598 126.153 24.913 126.074 24.7978 125.959C24.6827 125.843 24.6042 125.696 24.5725 125.536C24.5407 125.376 24.557 125.211 24.6193 125.06C24.6817 124.909 24.7872 124.78 24.9226 124.69C25.0581 124.599 25.2173 124.551 25.3802 124.551C25.5986 124.551 25.808 124.638 25.9625 124.792C26.1169 124.947 26.2037 125.157 26.2037 125.376ZM29.0422 125.376C29.0422 125.539 28.9939 125.698 28.9034 125.834C28.8129 125.969 28.6843 126.075 28.5338 126.137C28.3834 126.2 28.2178 126.216 28.058 126.184C27.8983 126.153 27.7515 126.074 27.6364 125.959C27.5212 125.843 27.4428 125.696 27.411 125.536C27.3792 125.376 27.3955 125.211 27.4578 125.06C27.5202 124.909 27.6257 124.78 27.7612 124.69C27.8966 124.599 28.0558 124.551 28.2187 124.551C28.4371 124.551 28.6466 124.638 28.801 124.792C28.9554 124.947 29.0422 125.157 29.0422 125.376ZM31.8019 125.376C31.8019 125.539 31.7536 125.698 31.6631 125.834C31.5726 125.969 31.444 126.075 31.2935 126.137C31.143 126.2 30.9774 126.216 30.8177 126.184C30.6579 126.153 30.5112 126.074 30.396 125.959C30.2809 125.843 30.2024 125.696 30.1707 125.536C30.1389 125.376 30.1552 125.211 30.2175 125.06C30.2799 124.909 30.3854 124.78 30.5208 124.69C30.6563 124.599 30.8155 124.551 30.9784 124.551C31.1968 124.551 31.4062 124.638 31.5607 124.792C31.7151 124.947 31.8019 125.157 31.8019 125.376Z" fill="#E8505B"/>
<path opacity="0.2" d="M58.9255 137.746H31.5391V165.172H58.9255V137.746Z" fill="#7B8BAE"/>
<path d="M126.883 143C126.883 143.096 112.787 143.184 95.4054 143.184C78.0239 143.184 63.9276 143.096 63.9276 143C63.9276 142.903 78.0239 142.824 95.4054 142.824C112.787 142.824 126.883 142.903 126.883 143ZM126.883 148.588C126.883 148.685 112.787 148.764 95.4054 148.764C78.0239 148.764 63.9276 148.685 63.9276 148.588C63.9276 148.492 78.0239 148.404 95.4054 148.404C112.787 148.404 126.883 148.492 126.883 148.588ZM104.455 154.177C104.318 154.187 104.181 154.187 104.044 154.177H102.861L98.5243 154.23L84.1915 154.283L69.8675 154.23L65.4871 154.177H64.3043C64.1672 154.186 64.0297 154.186 63.8926 154.177C64.0291 154.157 64.1678 154.157 64.3043 154.177H65.4871L69.8675 154.116L84.1915 154.063L98.5243 154.116L102.861 154.177H104.044C104.18 154.157 104.319 154.157 104.455 154.177Z" fill="#FFC200"/>
<path d="M218.042 63.9754C216.141 62.7032 213.53 63.4753 211.629 64.7475C209.728 66.0196 208.124 67.7568 205.978 68.5815C201.983 70.1345 196.735 68.292 193.634 71.2136C191.663 73.0912 191.461 76.1795 189.954 78.4518C187.414 82.2771 181.316 83.716 180.799 88.2782C180.493 90.9103 182.595 93.4897 185.18 94.2355C186.485 94.5424 187.841 94.5648 189.156 94.3015C190.471 94.0381 191.714 93.495 192.802 92.7089C195.43 90.9542 197.454 88.3221 200.415 87.3219C203.376 86.3217 207.187 87.1552 209.579 85.0408C211.971 82.9263 211.611 79.0221 213.328 76.3198C214.361 74.9617 215.586 73.7617 216.964 72.7578C218.252 71.6435 219.479 70.2661 219.698 68.5728C219.917 66.8795 219.225 63.9929 218.059 63.9315" fill="#F5F5F5"/>
<path d="M168.674 250.371C168.788 250.309 169.138 250.66 169.471 251.16C169.804 251.661 169.988 252.134 169.883 252.204C169.778 252.275 169.427 251.924 169.085 251.415C168.744 250.906 168.569 250.441 168.674 250.371ZM164.924 242.457C165.397 243.031 165.751 243.693 165.967 244.405C166.313 245.061 166.524 245.78 166.589 246.519C165.761 245.294 165.194 243.911 164.924 242.457ZM162.891 233.929C163.453 235.297 163.724 236.767 163.689 238.246C163.339 237.591 163.127 236.871 163.067 236.131C162.861 235.416 162.802 234.668 162.891 233.929ZM162.585 225.164C162.862 226.616 162.841 228.108 162.524 229.551C162.301 228.843 162.232 228.095 162.322 227.358C162.254 226.616 162.343 225.869 162.585 225.164ZM163.96 216.54C164.031 217.279 163.95 218.026 163.724 218.733C163.636 219.471 163.404 220.183 163.04 220.83C162.97 220.091 163.051 219.344 163.277 218.637C163.366 217.9 163.598 217.187 163.96 216.54ZM167.149 208.337C166.857 209.78 166.259 211.144 165.397 212.337C165.485 211.599 165.72 210.886 166.089 210.24C166.589 209.126 167.035 208.275 167.149 208.337ZM171.976 201.019C171.734 201.723 171.352 202.37 170.855 202.923C170.461 203.55 169.96 204.102 169.375 204.555C169.252 204.476 169.76 203.625 170.487 202.651C171.214 201.677 171.845 200.94 171.976 201.019ZM177.864 194.527C177.96 194.615 177.356 195.404 176.523 196.282C175.691 197.159 174.938 197.791 174.841 197.712C174.745 197.633 175.349 196.834 176.19 195.957C177.032 195.08 177.776 194.43 177.864 194.527ZM184.031 188.28C184.128 188.368 183.506 189.157 182.656 190.035C181.806 190.912 181.044 191.526 180.956 191.439C180.869 191.351 181.482 190.561 182.332 189.684C183.182 188.807 183.944 188.192 184.031 188.28ZM189.796 181.665C189.519 182.355 189.104 182.982 188.578 183.507C187.807 184.455 187.107 185.148 187.01 185.06C187.296 184.374 187.709 183.749 188.228 183.218C188.99 182.323 189.691 181.595 189.796 181.665ZM194.264 174.137C194.186 174.881 193.934 175.597 193.528 176.225C193.25 176.921 192.815 177.542 192.258 178.041C192.428 177.319 192.724 176.633 193.134 176.015C193.402 175.329 193.784 174.694 194.264 174.137ZM196.376 165.653C196.546 166.382 196.531 167.142 196.332 167.864C196.281 168.613 196.05 169.339 195.657 169.978C195.612 169.243 195.689 168.504 195.885 167.794C195.932 167.058 196.098 166.336 196.376 165.653ZM195.745 156.941C196.133 157.581 196.356 158.307 196.393 159.055C196.573 159.784 196.573 160.546 196.393 161.275C196.117 160.59 195.957 159.863 195.92 159.125C195.744 158.412 195.685 157.674 195.745 156.941ZM192.302 148.913C192.407 148.843 193.046 149.606 193.625 150.668C194.042 151.292 194.301 152.009 194.378 152.756C193.896 152.199 193.505 151.568 193.222 150.887C192.816 150.28 192.506 149.614 192.302 148.913ZM186.195 142.684C186.91 142.908 187.559 143.303 188.088 143.833C189.025 144.623 189.638 145.412 189.551 145.5C189.463 145.588 188.675 144.956 187.799 144.184C186.923 143.412 186.117 142.789 186.195 142.684ZM178.232 139.122C178.978 139.076 179.724 139.215 180.404 139.525C181.136 139.695 181.814 140.045 182.376 140.543C181.642 140.46 180.927 140.262 180.256 139.955C179.539 139.794 178.854 139.513 178.232 139.122ZM169.523 138.727C170.194 138.392 170.939 138.235 171.687 138.271C172.431 138.161 173.19 138.239 173.895 138.499C173.184 138.684 172.448 138.761 171.714 138.727C170.988 138.842 170.249 138.842 169.523 138.727ZM161.446 141.964C161.367 141.859 162.121 141.201 163.198 140.622C163.818 140.196 164.542 139.945 165.292 139.894C164.721 140.356 164.087 140.735 163.408 141.017C162.805 141.429 162.144 141.748 161.446 141.964ZM155.427 148.264C155.618 147.537 155.988 146.87 156.505 146.325C157.249 145.351 158.02 144.71 158.108 144.798C158.196 144.886 157.591 145.676 156.864 146.606C156.137 147.536 155.532 148.325 155.427 148.264ZM152.475 156.458C152.337 155.719 152.394 154.957 152.641 154.247C152.752 153.499 153.053 152.792 153.517 152.194C153.49 152.931 153.351 153.658 153.106 154.353C153.005 155.083 152.792 155.793 152.475 156.458ZM153.517 165.1C153.053 164.503 152.752 163.796 152.641 163.047C152.39 162.339 152.329 161.576 152.466 160.836C152.77 161.506 152.979 162.215 153.088 162.942C153.335 163.637 153.479 164.364 153.517 165.1ZM157.959 172.61C157.863 172.698 157.136 172.014 156.426 171.014C155.93 170.452 155.578 169.777 155.401 169.048C155.515 168.987 156.093 169.777 156.794 170.751C157.281 171.303 157.675 171.931 157.959 172.61ZM164.407 178.533C163.7 178.295 163.055 177.899 162.524 177.375C161.569 176.611 160.912 175.866 160.999 175.769C161.668 176.081 162.278 176.505 162.804 177.024C163.741 177.778 164.486 178.427 164.407 178.533ZM172.003 182.893C170.575 182.512 169.244 181.833 168.095 180.902C168.827 181.027 169.526 181.296 170.154 181.691C170.845 181.963 171.474 182.372 172.003 182.893ZM180.343 185.552C179.6 185.637 178.847 185.547 178.144 185.288C177.404 185.178 176.701 184.893 176.094 184.455C176.832 184.466 177.563 184.599 178.258 184.85C178.989 184.958 179.695 185.196 180.343 185.552ZM189.069 185.999C187.646 186.437 186.128 186.467 184.689 186.087C185.399 185.898 186.137 185.833 186.87 185.894C187.604 185.807 188.347 185.842 189.069 185.999ZM197.497 183.744C196.293 184.62 194.865 185.134 193.379 185.227C193.997 184.823 194.678 184.526 195.394 184.35C196.056 184.029 196.767 183.824 197.497 183.744ZM204.803 178.945C204.891 179.042 204.225 179.822 203.253 180.524C202.708 181.036 202.051 181.412 201.334 181.621C201.264 181.507 202.026 180.902 202.981 180.165C203.52 179.664 204.135 179.252 204.803 178.945ZM210.507 172.312C210.304 173.031 209.935 173.693 209.429 174.242C208.702 175.225 207.975 175.901 207.879 175.822C207.782 175.743 208.352 174.944 209.07 173.97C209.788 172.997 210.393 172.242 210.507 172.312ZM214.3 164.416C214.298 165.165 214.114 165.903 213.766 166.565C213.31 167.706 212.776 168.548 212.662 168.487C212.768 167.758 212.996 167.052 213.337 166.399C213.547 165.689 213.873 165.02 214.3 164.416ZM216 155.827C216.19 157.302 215.984 158.801 215.404 160.17C215.38 158.7 215.581 157.235 216 155.827ZM215.772 147.062C216.058 147.748 216.195 148.486 216.175 149.229C216.301 149.963 216.28 150.714 216.114 151.44C215.702 150.016 215.586 148.523 215.772 147.053V147.062ZM213.897 138.499C214.303 139.123 214.575 139.825 214.695 140.561C214.958 141.254 215.077 141.995 215.045 142.736C214.643 142.11 214.372 141.409 214.248 140.675C213.983 139.981 213.864 139.24 213.897 138.499ZM210.516 130.392C210.629 130.331 211.155 131.173 211.681 132.27C212.051 132.917 212.284 133.634 212.364 134.375C211.525 133.163 210.9 131.816 210.516 130.392ZM206.205 122.75C206.319 122.68 206.897 123.478 207.511 124.505C207.937 125.108 208.235 125.791 208.387 126.514C207.841 126.02 207.398 125.424 207.081 124.759C206.662 124.153 206.365 123.47 206.205 122.75ZM201.86 115.126C201.974 115.065 202.534 115.88 203.121 116.933C203.545 117.547 203.843 118.239 203.997 118.969C203.461 118.453 203.032 117.836 202.736 117.153C202.307 116.545 202.009 115.855 201.86 115.126ZM198.434 107.054C199.227 108.303 199.75 109.705 199.967 111.169C199.504 110.585 199.169 109.909 198.986 109.186C198.66 108.521 198.472 107.795 198.434 107.054ZM196.945 98.4298C197.203 99.123 197.333 99.8572 197.33 100.597C197.483 101.318 197.509 102.06 197.409 102.79C197.064 102.126 196.884 101.389 196.884 100.641C196.732 99.909 196.753 99.152 196.945 98.4298ZM197.672 89.7001C197.742 90.4349 197.689 91.1762 197.514 91.8935C197.483 92.6331 197.32 93.3611 197.033 94.043C196.863 93.3129 196.863 92.5535 197.033 91.8233C197.076 91.075 197.295 90.3475 197.672 89.7001ZM200.528 81.4266C200.417 82.158 200.18 82.8644 199.827 83.5147C199.61 84.2209 199.275 84.8853 198.837 85.48C199.023 84.0003 199.608 82.5991 200.528 81.4266ZM205.408 74.1533C205.504 74.241 204.926 75.0307 204.19 75.987C203.454 76.9433 202.832 77.7417 202.727 77.6276C202.935 76.9074 203.314 76.2482 203.831 75.7062C204.576 74.7411 205.32 74.0743 205.408 74.1533ZM211.987 68.3803C212.057 68.4856 211.295 69.1085 210.349 69.8455C209.812 70.3528 209.193 70.7651 208.518 71.065C208.43 70.9685 209.105 70.1876 210.069 69.4858C210.613 68.9716 211.27 68.5929 211.987 68.3803ZM219.785 64.4146C219.195 64.8584 218.534 65.1995 217.831 65.4236C217.189 65.785 216.49 66.0314 215.763 66.1518C215.702 66.0377 216.534 65.4938 217.656 65.0112C218.306 64.642 219.037 64.4372 219.785 64.4146ZM226.162 62.8003C226.162 62.9231 225.716 63.1161 225.129 63.2214C224.542 63.3267 224.034 63.3267 224.007 63.2214C223.981 63.1161 224.445 62.9056 225.041 62.7915C225.637 62.6775 226.162 62.6774 226.162 62.8003Z" fill="#263238"/>
<path d="M244.018 36.971C244.018 36.971 254.303 29.6188 268.548 34.339C268.548 34.339 269.713 46.1482 258.298 55.5359" fill="#FFC200"/>
<path d="M211.576 58.7828C212.014 59.4408 223.184 77.4179 223.184 77.4179L256.712 56.7297C258.096 55.8756 259.288 54.743 260.212 53.4037C261.136 52.0643 261.772 50.5473 262.08 48.9489C262.388 47.3505 262.361 45.7054 262.001 44.1179C261.641 42.5304 260.956 41.035 259.989 39.7265C258.192 37.2978 255.529 35.6563 252.555 35.1432C249.58 34.6301 246.522 35.285 244.018 36.9716L211.576 58.7828Z" fill="#FFC200"/>
<path d="M223.184 77.4187L222.431 90.0702C222.431 90.0702 244.158 79.5419 238.735 67.8204L223.184 77.4187ZM227.109 48.343C227.109 48.343 212.373 41.833 200.248 51.3787L211.576 58.7836L227.109 48.343ZM227.039 58.7924L206.074 71.9527C206.074 71.9527 206.792 74.2163 207.353 74.0233C207.914 73.8303 223.587 64.5478 228.695 61.5209C228.89 61.4046 229.058 61.2474 229.187 61.0601C229.316 60.8727 229.403 60.6597 229.442 60.4356C229.481 60.2115 229.471 59.9815 229.413 59.7615C229.355 59.5415 229.251 59.3366 229.106 59.1609C228.866 58.8575 228.523 58.6526 228.142 58.5847C227.761 58.5169 227.369 58.5907 227.039 58.7924Z" fill="#173371"/>
<path d="M252.85 50.3842C253.699 46.7711 251.462 43.1531 247.854 42.303C244.247 41.4529 240.634 43.6927 239.785 47.3057C238.936 50.9187 241.173 54.5368 244.78 55.3869C248.388 56.237 252.001 53.9972 252.85 50.3842Z" fill="#FAFAFA"/>
<path d="M253.032 48.8339C252.98 48.8339 253.032 48.2373 252.734 47.2196C252.343 45.7787 251.479 44.5117 250.281 43.6224C249.468 43.0111 248.523 42.5994 247.522 42.4204C246.376 42.216 245.197 42.319 244.105 42.7187C242.883 43.1518 241.821 43.9437 241.056 44.9911C240.236 46.1042 239.794 47.4509 239.794 48.8339C239.794 50.217 240.236 51.5636 241.056 52.6768C241.813 53.7188 242.862 54.5126 244.07 54.9579C245.162 55.3573 246.341 55.4602 247.486 55.2562C248.488 55.0772 249.433 54.6655 250.246 54.0542C251.442 53.163 252.305 51.8967 252.699 50.457C252.971 49.4393 252.944 48.8339 252.997 48.8339C253.02 48.9793 253.02 49.1273 252.997 49.2726C252.994 49.6864 252.944 50.0985 252.848 50.5009C252.551 51.7785 251.891 52.9425 250.947 53.8519C250.003 54.7613 248.816 55.3771 247.53 55.6247C246.25 55.8756 244.925 55.7564 243.711 55.2809C242.496 54.8055 241.441 53.9935 240.671 52.94C239.789 51.7531 239.312 50.3132 239.312 48.8339C239.312 47.3546 239.789 45.9147 240.671 44.7279C241.481 43.6184 242.608 42.7804 243.903 42.3239C244.989 41.93 246.157 41.8192 247.297 42.0018C248.437 42.1844 249.513 42.6546 250.421 43.368C251.676 44.3161 252.557 45.6768 252.909 47.2108C253.006 47.6132 253.056 48.0253 253.058 48.4391C253.069 48.5713 253.061 48.7044 253.032 48.8339ZM261.206 53.3523C261.118 53.3523 261.022 52.0451 260.505 50.0008C260.199 48.8051 259.81 47.6324 259.34 46.4914C258.172 43.7061 256.524 41.1488 254.469 38.9373C253.627 38.0376 252.722 37.1991 251.762 36.4281C250.106 35.1208 248.958 34.4891 249.002 34.4102C249.294 34.5082 249.574 34.6407 249.834 34.805C250.156 34.9723 250.469 35.1568 250.772 35.3577C251.122 35.5946 251.534 35.8402 251.954 36.1736C252.961 36.9158 253.902 37.7436 254.767 38.6478C256.907 40.8591 258.592 43.4706 259.725 46.3335C260.189 47.4973 260.555 48.6975 260.82 49.9218C260.952 50.4395 261.004 50.922 261.075 51.3432C261.133 51.7005 261.171 52.0608 261.188 52.4223C261.239 52.7299 261.245 53.0431 261.206 53.3523Z" fill="#263238"/>
<path d="M259.402 54.2794C259.314 54.2794 259.209 52.9546 258.683 50.8753C258.372 49.662 257.976 48.4718 257.501 47.3132C256.903 45.9002 256.191 44.5387 255.372 43.2422C254.537 41.9578 253.599 40.7431 252.568 39.61C251.714 38.6882 250.795 37.8291 249.817 37.0393C248.144 35.697 246.979 35.0477 247.023 34.9688C247.331 35.0696 247.625 35.2081 247.899 35.3811C248.223 35.5519 248.536 35.7423 248.836 35.9514C249.195 36.1883 249.616 36.4515 250.036 36.8287C251.046 37.5807 251.995 38.4109 252.875 39.3117C253.943 40.4484 254.908 41.6787 255.757 42.9878C256.587 44.3091 257.299 45.7007 257.886 47.1465C258.355 48.3309 258.727 49.5515 258.999 50.7963C259.13 51.3227 259.183 51.814 259.253 52.2352C259.317 52.5977 259.358 52.964 259.376 53.3319C259.42 53.6457 259.428 53.9636 259.402 54.2794Z" fill="#263238"/>
<path d="M54.3079 333.231C53.5544 330.248 55.5256 327.265 57.7246 325.115C59.9236 322.966 62.5431 321.044 63.6995 318.193C65.5656 313.578 63.1213 307.568 66.3278 303.725C68.1851 301.461 71.5142 300.725 73.1613 298.303C73.9288 296.968 74.4399 295.501 74.6681 293.978C76.4584 286.295 80.2769 279.234 85.7243 273.535C86.0638 280.387 84.5504 287.204 81.3439 293.267C80.0561 295.688 78.4791 298.049 78.0498 300.76C77.3314 305.146 79.802 309.7 78.6631 314.016C77.3928 318.947 71.8384 322.229 71.5405 327.308C71.2952 331.616 75.0449 335.406 74.7119 339.706C74.4816 341.532 73.8177 343.277 72.7758 344.794C69.3415 350.278 64.4617 354.059 57.0763 353.892L48.0176 354.156L54.3079 333.231Z" fill="#40A86A"/>
<path opacity="0.3" d="M54.3079 331.802C53.5544 328.819 55.5256 325.836 57.7246 323.686C59.9236 321.537 62.5431 319.615 63.6995 316.764C65.5656 312.149 63.1213 306.139 66.3278 302.296C68.1851 300.033 71.5142 299.296 73.1613 296.874C73.9289 295.536 74.44 294.066 74.6681 292.54C76.462 284.858 80.28 277.799 85.7244 272.098C86.0649 278.953 84.5516 285.773 81.3439 291.838C80.0561 294.26 78.4791 296.62 78.0498 299.331C77.3314 303.718 79.802 308.271 78.6631 312.588C77.3928 317.519 71.8384 320.8 71.5405 325.88C71.2952 330.179 75.0449 333.978 74.7119 338.277C74.4816 340.104 73.8177 341.848 72.7758 343.365C69.3415 348.875 64.4617 352.657 57.0763 352.534L48.0176 352.797L54.3079 331.802Z" fill="white"/>
<path d="M46.1779 354.382C45.3481 354.507 44.5026 354.483 43.6811 354.312C42.6802 354.158 41.697 353.906 40.7462 353.557C39.4346 353.089 38.2091 352.407 37.1192 351.539C36.4654 351.008 35.9562 350.32 35.6386 349.539C35.3701 348.66 35.2313 347.747 35.2268 346.828C35.2133 345.845 35.1489 344.864 35.0341 343.889C34.8632 342.852 34.4911 341.86 33.939 340.967C32.8877 339.081 31.118 337.3 30.5661 334.738C30.0141 332.176 30.4171 329.474 30.8552 326.798C31.2932 324.122 31.7312 321.112 30.6887 318.27C29.6462 315.427 27.7626 312.856 26.7901 309.654C25.8177 306.452 26.2995 302.951 26.1068 299.52C26.0567 297.78 25.6669 296.066 24.9591 294.476C24.2319 292.87 23.2069 291.352 22.4447 289.659C20.859 286.229 20.5962 282.359 20.1757 278.56C19.9742 276.648 19.7639 274.709 19.5624 272.761C19.4379 270.796 19.109 268.85 18.5812 266.953C17.9838 265.038 17.2729 263.16 16.4523 261.329C16.0254 260.38 15.6796 259.397 15.4185 258.39C15.2694 257.355 15.1758 256.312 15.1382 255.267C15.0524 253.171 15.1462 251.073 15.4185 248.993C15.6726 246.905 16.0668 244.826 16.2946 242.729C16.2946 242.606 16.2946 242.483 16.2946 242.369L16.3384 241.957L16.7064 242.141C18.624 243.128 20.2857 244.549 21.5599 246.291C22.8068 247.989 23.8068 249.856 24.5298 251.836C26.0192 255.74 26.5361 259.829 27.2807 263.724C28.0254 267.62 28.9628 271.471 30.934 274.718C31.924 276.341 33.1155 277.823 34.158 279.403C35.2669 280.945 36.0236 282.712 36.3745 284.579C36.8826 288.422 34.7537 291.782 35.1743 295.178C35.3933 296.85 35.9668 298.457 36.8564 299.889C37.6711 301.345 38.6085 302.688 39.5372 304.048C40.4684 305.368 41.275 306.772 41.9464 308.241C42.5874 309.683 42.9643 311.228 43.0591 312.804C43.2606 315.866 42.8137 318.761 43.0591 321.507C43.2925 324.116 44.0367 326.653 45.2493 328.973C46.3269 331.211 47.5359 333.237 48.5434 335.194C49.0462 336.138 49.4995 337.107 49.9013 338.098C50.2632 339.023 50.5246 339.985 50.681 340.967C50.9301 342.683 50.9301 344.427 50.681 346.143C50.4305 348.541 49.5206 350.822 48.0527 352.732C47.8318 353.017 47.5855 353.282 47.3168 353.522C47.1377 353.711 46.9378 353.878 46.7211 354.022L46.2042 354.382C46.8496 353.862 47.437 353.273 47.9564 352.627C49.3625 350.714 50.2253 348.455 50.4532 346.091C50.6672 344.393 50.6377 342.674 50.3656 340.984C50.2027 340.023 49.9384 339.082 49.5771 338.177C49.2004 337.238 48.7011 336.291 48.2192 335.317C47.1942 333.378 45.9764 331.36 44.8726 329.105C43.6257 326.746 42.8547 324.164 42.6035 321.507C42.3757 318.708 42.8138 315.804 42.6035 312.812C42.5103 311.298 42.1484 309.813 41.5347 308.426C40.8673 306.984 40.0697 305.607 39.1517 304.311C38.2756 302.96 37.2769 301.609 36.4358 300.126C35.5296 298.627 34.9504 296.952 34.7362 295.213C34.3245 291.589 36.4358 288.194 35.9102 284.641C35.5646 282.858 34.8286 281.174 33.755 279.71C32.73 278.157 31.5297 276.674 30.5135 275.016C28.481 271.673 27.4997 267.76 26.7726 263.838C26.0454 259.917 25.5023 255.872 24.0392 252.047C23.3358 250.12 22.3624 248.303 21.1481 246.651C19.9276 244.985 18.3383 243.624 16.5049 242.676L16.9254 242.44L16.8816 242.808C16.6363 244.931 16.2508 247.011 16.0055 249.072C15.7334 251.122 15.6396 253.192 15.7251 255.258C15.7777 256.267 15.839 257.328 15.988 258.285C16.2475 259.254 16.5814 260.201 16.9867 261.119C17.8171 262.969 18.5368 264.868 19.1419 266.804C19.6685 268.727 19.9944 270.7 20.1143 272.691C20.3246 274.639 20.5261 276.578 20.7276 278.49C21.1394 282.307 21.4022 286.114 22.9266 289.422C23.6888 291.072 24.6787 292.589 25.4322 294.256C26.1656 295.917 26.5703 297.705 26.6237 299.52C26.7989 303.03 26.3258 306.443 27.2544 309.549C28.1831 312.655 30.1368 315.216 31.118 318.156C32.0992 321.095 31.705 324.174 31.2582 326.885C30.8114 329.596 30.3821 332.272 30.9252 334.685C31.4684 337.098 33.1417 338.896 34.2193 340.827C34.7847 341.756 35.1628 342.787 35.332 343.862C35.4446 344.85 35.5031 345.843 35.5072 346.836C35.4985 347.727 35.6225 348.614 35.8751 349.469C36.1737 350.214 36.6523 350.875 37.2681 351.39C38.3188 352.249 39.5025 352.931 40.7725 353.408C41.7076 353.771 42.6759 354.041 43.6636 354.215C44.2712 354.325 44.8861 354.39 45.5033 354.408C45.9589 354.373 46.1779 354.382 46.1779 354.382Z" fill="#40A86A"/>
<path d="M18.1699 247.379C18.2104 247.466 18.2398 247.557 18.2575 247.651C18.3013 247.87 18.3714 248.133 18.4503 248.467C18.6255 249.186 18.827 250.265 19.1599 251.617C19.4928 252.968 20.3251 254.486 21.0172 256.363C21.7093 258.241 22.4628 260.381 23.1286 262.803C23.7944 265.224 24.4077 267.918 25.0297 270.796C25.5589 273.885 26.5173 276.886 27.877 279.71C28.6129 281.184 29.4364 282.684 30.0935 284.316C30.7348 285.993 31.1644 287.744 31.3726 289.527C31.8074 293.219 32.4361 296.886 33.2561 300.512C35.0083 307.952 36.7605 315.041 38.2586 321.498C39.7567 327.956 41.2548 333.729 42.4551 338.615C43.6553 343.502 44.5664 347.389 45.2323 350.161L45.9594 353.311C46.0295 353.645 46.0908 353.917 46.1346 354.136C46.1443 354.229 46.1443 354.323 46.1346 354.417C46.0901 354.331 46.0576 354.239 46.0383 354.145L45.8017 353.338C45.6002 352.583 45.3199 351.539 44.9256 350.214L41.9644 338.712C40.7379 333.834 39.2749 328.043 37.6541 321.63C36.0333 315.216 34.3951 308.083 32.5991 300.635C31.8007 296.982 31.1983 293.289 30.7943 289.571C30.6037 287.829 30.1915 286.119 29.5678 284.482C28.937 282.894 28.1223 281.403 27.3864 279.911C26.0326 277.065 25.0802 274.045 24.5566 270.936C23.9521 268.049 23.3826 265.365 22.7343 262.952C22.086 260.539 21.4027 258.372 20.7106 256.512C20.0185 254.652 19.2738 253.099 18.9584 251.704C18.643 250.309 18.4853 249.256 18.3539 248.528C18.2926 248.195 18.2488 247.914 18.2137 247.695C18.1843 247.592 18.1696 247.486 18.1699 247.379Z" fill="#40A86A"/>
<path d="M44.7322 356.042C38.8361 352.532 37.1978 341.793 39.7034 335.371C42.2091 328.949 46.5545 323.088 47.2641 316.245C47.8073 310.98 46.1076 305.55 47.3692 300.408C49.0601 293.46 55.8673 288.125 55.8322 280.966C55.8322 276.956 53.5544 273.166 53.7559 269.157C54.0099 264.244 57.7946 260.383 60.1601 256.049C63.7696 249.443 64.0411 241.608 65.3115 234.185C66.5818 226.763 69.4466 218.814 76.0435 215.199C76.9809 221.516 78.6105 225.85 78.041 234.387C77.8395 237.458 74.2476 243.319 73.7219 250.039C73.4065 254.057 73.1875 258.084 72.9159 262.103C72.6443 266.121 72.3815 269.999 70.9535 273.666C69.8671 276.465 68.1237 279.001 67.3177 281.896C65.7846 287.344 67.7207 293.258 66.4416 298.776C65.3903 303.453 62.1313 307.462 61.4479 312.2C60.4755 318.868 64.7508 325.817 62.508 332.169C61.3954 335.318 58.7846 337.836 58.0312 341.091C57.4442 343.618 58.0312 346.294 57.5231 348.83C56.647 352.918 48.8586 356.05 44.6971 355.778" fill="#63E296"/>
<path d="M74.379 221.418C74.3926 221.537 74.3926 221.658 74.379 221.778C74.379 222.041 74.3002 222.383 74.2476 222.813C74.1075 223.69 73.941 225.059 73.6256 226.787C73.3102 228.516 72.3816 230.481 71.6544 232.832C70.9273 235.184 70.1125 237.895 69.4379 240.939C68.7633 243.984 68.1588 247.335 67.5456 250.95C66.9323 254.565 66.2665 258.504 64.453 262.268C63.5769 264.154 62.7008 266.04 61.9561 268.058C61.2507 270.123 60.8091 272.269 60.642 274.446C60.2825 279.075 59.6771 283.682 58.8285 288.246C56.9624 297.581 55.184 306.478 53.572 314.567L49.0514 336.01C47.746 342.081 46.6947 347.012 45.95 350.46C45.5821 352.136 45.2842 353.443 45.0739 354.382C44.9688 354.803 44.8899 355.136 44.8286 355.399C44.809 355.517 44.7767 355.631 44.7323 355.742C44.7169 355.622 44.7169 355.501 44.7323 355.382C44.7761 355.119 44.8374 354.785 44.9162 354.355C45.0915 353.417 45.3543 352.101 45.6784 350.416C46.3705 346.959 47.3693 342.02 48.5958 335.931C49.8223 329.842 51.3467 322.534 52.9762 314.462C54.6058 306.39 56.3316 297.476 58.1802 288.141C59.0286 283.594 59.6369 279.005 60.0024 274.393C60.1688 272.173 60.6132 269.983 61.3253 267.874C62.0613 265.821 63.0162 263.917 63.8572 262.048C65.662 258.346 66.3103 254.468 66.9673 250.862C67.6244 247.256 68.2114 243.887 68.9298 240.843C69.6482 237.798 70.4367 235.078 71.2339 232.736C72.0311 230.393 72.9335 228.428 73.3015 226.735C73.6694 225.041 73.8446 223.69 74.0198 222.795C74.1075 222.366 74.1688 222.023 74.2213 221.769C74.2577 221.645 74.3107 221.527 74.379 221.418Z" fill="#40A86A"/>
<path d="M341.306 216.332H335.199V236.09H341.306V216.332Z" fill="#204B89"/>
<path d="M352.546 208.207H346.439V236.089H352.546V208.207Z" fill="#204B89"/>
<path d="M364.513 204.406H358.406V236.088H364.513V204.406Z" fill="#204B89"/>
<path d="M376.472 200.398H370.365V236.089H376.472V200.398Z" fill="#204B89"/>
<path d="M129.372 241.988C129.829 242.052 130.273 242.191 130.686 242.4C131.655 242.874 132.467 243.618 133.025 244.542C133.583 245.466 133.863 246.532 133.831 247.612C133.804 248.63 133.501 249.622 132.955 250.481C132.349 251.436 131.474 252.19 130.44 252.648C129.33 253.142 128.091 253.264 126.906 252.997C125.721 252.73 124.653 252.087 123.861 251.165C123.495 250.732 123.199 250.243 122.985 249.717C122.758 249.217 122.613 248.684 122.556 248.138C122.429 247.126 122.577 246.098 122.985 245.164C123.413 244.172 124.119 243.327 125.018 242.73C125.918 242.134 126.97 241.812 128.049 241.804C128.511 241.786 128.974 241.849 129.415 241.988C129.415 241.988 128.925 241.891 128.058 241.926C126.822 241.976 125.639 242.443 124.702 243.251C124.057 243.798 123.55 244.489 123.222 245.269C122.85 246.164 122.72 247.142 122.845 248.103C122.909 248.619 123.051 249.121 123.265 249.594C123.482 250.095 123.778 250.557 124.141 250.963C124.894 251.829 125.904 252.432 127.023 252.683C128.142 252.934 129.312 252.82 130.362 252.358C130.863 252.144 131.325 251.848 131.728 251.481C132.129 251.145 132.475 250.748 132.753 250.305C133.161 249.664 133.432 248.945 133.547 248.194C133.663 247.443 133.621 246.676 133.425 245.942C133.229 245.207 132.883 244.522 132.408 243.929C131.934 243.336 131.341 242.848 130.668 242.497C129.854 242.084 129.363 241.988 129.372 241.988Z" fill="#FFC200"/>
<path d="M133.823 236.01C133.819 235.946 133.819 235.881 133.823 235.817C133.823 235.668 133.823 235.475 133.823 235.22C133.823 234.676 133.823 233.895 133.823 232.878L133.867 232.93L128.812 231.825L128.899 231.781L127.568 234.615V234.668H127.506C126.387 234.716 125.279 234.914 124.212 235.255H124.151L124.107 235.212L121.882 233.009H121.908L117.528 235.799L117.58 235.65L118.632 238.598V238.668L118.579 238.73C117.823 239.555 117.178 240.475 116.66 241.467V241.537H116.652H113.533L113.664 241.423C113.314 243.011 112.928 244.722 112.543 246.477L112.464 246.31L115.285 247.652L115.364 247.696V247.784C115.413 248.901 115.605 250.006 115.933 251.074V251.162L115.863 251.232L113.655 253.452V253.259L116.424 257.646L116.24 257.575L119.183 256.523H119.28L119.35 256.584C120.165 257.344 121.078 257.99 122.066 258.505C122.11 258.567 121.987 258.365 122.153 258.646V261.769L122.031 261.611L127.077 262.752L126.902 262.84C127.349 261.883 127.778 260.944 128.242 260.006L128.286 259.927H128.382C129.495 259.885 130.597 259.693 131.659 259.356H131.755L131.817 259.418L134.033 261.638H133.84L138.221 258.874L138.16 259.041C137.8 258.04 137.459 257.058 137.108 256.093V256.014L137.17 255.944C137.93 255.123 138.578 254.206 139.097 253.215V253.145H142.303L142.181 253.25C142.584 251.495 142.96 249.793 143.32 248.188L143.39 248.328L140.569 246.977H140.507V246.907C140.469 245.787 140.281 244.677 139.947 243.608V243.546V243.503L142.163 241.283V241.406L139.412 237.019H139.5L136.548 238.045C135.928 237.47 135.256 236.953 134.541 236.501L133.998 236.177L133.823 236.063L134.016 236.15L134.568 236.449C135.299 236.886 135.985 237.395 136.618 237.966H136.565L139.5 236.896H139.552V236.949L142.338 241.336V241.397L142.286 241.458L140.087 243.678V243.573C140.434 244.661 140.632 245.791 140.674 246.933L140.613 246.837L143.442 248.17L143.53 248.214V248.31C143.179 249.907 142.803 251.583 142.409 253.364V253.469H139.176L139.298 253.399C138.771 254.412 138.111 255.351 137.336 256.189V256.049C137.678 257.014 138.037 257.997 138.387 258.997L138.431 259.111L138.326 259.172L133.946 261.945L133.84 262.015L133.753 261.927L131.536 259.716H131.694C130.604 260.063 129.472 260.26 128.33 260.304L128.461 260.216C128.023 261.146 127.585 262.094 127.121 263.041L127.068 263.155H126.946L121.899 262.024H121.777V258.655C121.943 258.935 121.777 258.734 121.864 258.795C120.852 258.268 119.915 257.607 119.078 256.83H119.236L116.292 257.874L116.17 257.918L116.108 257.812L113.34 253.426L113.27 253.32L113.357 253.232L115.565 251.013V251.171C115.222 250.078 115.025 248.946 114.978 247.802L115.066 247.924L112.271 246.626L112.166 246.573V246.459L113.305 241.406V241.292H116.652L116.538 241.362C117.064 240.351 117.724 239.415 118.5 238.581V238.712L117.458 235.755V235.659L117.545 235.606L121.926 232.843L122.004 232.799L122.075 232.86L124.282 235.08H124.177C125.262 234.74 126.388 234.548 127.524 234.51L127.445 234.562L128.803 231.737V231.676H128.864L133.902 232.843H133.946C133.946 233.852 133.946 234.597 133.946 235.168C133.946 235.422 133.946 235.624 133.946 235.764C133.911 235.849 133.87 235.931 133.823 236.01Z" fill="#FFC200"/>
<path fill-rule="evenodd" clip-rule="evenodd" d="M124.292 196.653C125.398 197.232 126.423 197.954 127.341 198.802L130.6 197.644L133.657 202.479L131.222 204.935C131.595 206.13 131.81 207.369 131.861 208.62L134.98 210.103L133.727 215.665H130.276C129.695 216.774 128.97 217.8 128.12 218.718L129.286 221.982L124.45 225.044L121.997 222.684C120.806 223.057 119.572 223.273 118.326 223.325L116.845 226.448L111.264 225.193V221.737C110.157 221.157 109.131 220.431 108.216 219.578L104.957 220.745L101.89 215.902L104.335 213.454C103.963 212.259 103.748 211.02 103.695 209.769L100.576 208.287L101.82 202.698H105.263C105.839 201.589 106.561 200.562 107.41 199.645L106.262 196.363L111.089 193.293L113.542 195.74C114.735 195.366 115.973 195.151 117.222 195.1L118.702 191.977L124.283 193.231V196.688L124.292 196.653ZM119.368 203.233C118.185 202.968 116.95 203.06 115.819 203.498C114.688 203.935 113.712 204.699 113.014 205.692C112.316 206.685 111.928 207.863 111.898 209.077C111.869 210.291 112.199 211.486 112.848 212.512C113.496 213.538 114.434 214.348 115.543 214.84C116.651 215.333 117.88 215.485 119.075 215.278C120.27 215.071 121.376 214.514 122.255 213.677C123.134 212.84 123.745 211.761 124.012 210.577C124.189 209.789 124.209 208.974 124.072 208.179C123.934 207.383 123.641 206.623 123.21 205.941C122.779 205.259 122.218 204.669 121.558 204.204C120.899 203.739 120.155 203.409 119.368 203.233Z" fill="#FFC200"/>
<path opacity="0.8" fill-rule="evenodd" clip-rule="evenodd" d="M124.292 196.653C125.398 197.232 126.423 197.954 127.341 198.802L130.6 197.644L133.657 202.479L131.222 204.935C131.595 206.13 131.81 207.369 131.861 208.62L134.98 210.103L133.727 215.665H130.276C129.695 216.774 128.97 217.8 128.12 218.718L129.286 221.982L124.45 225.044L121.997 222.684C120.806 223.057 119.572 223.273 118.326 223.325L116.845 226.448L111.264 225.193V221.737C110.157 221.157 109.131 220.431 108.216 219.578L104.957 220.745L101.89 215.902L104.335 213.454C103.963 212.259 103.748 211.02 103.695 209.769L100.576 208.287L101.82 202.698H105.263C105.839 201.589 106.561 200.562 107.41 199.645L106.262 196.363L111.089 193.293L113.542 195.74C114.735 195.366 115.973 195.151 117.222 195.1L118.702 191.977L124.283 193.231V196.688L124.292 196.653ZM119.368 203.233C118.185 202.968 116.95 203.06 115.819 203.498C114.688 203.935 113.712 204.699 113.014 205.692C112.316 206.685 111.928 207.863 111.898 209.077C111.869 210.291 112.199 211.486 112.848 212.512C113.496 213.538 114.434 214.348 115.543 214.84C116.651 215.333 117.88 215.485 119.075 215.278C120.27 215.071 121.376 214.514 122.255 213.677C123.134 212.84 123.745 211.761 124.012 210.577C124.189 209.789 124.209 208.974 124.072 208.179C123.934 207.383 123.641 206.623 123.21 205.941C122.779 205.259 122.218 204.669 121.558 204.204C120.899 203.739 120.155 203.409 119.368 203.233Z" fill="#FFC200"/>
<path fill-rule="evenodd" clip-rule="evenodd" d="M104.106 229.591C104.743 229.927 105.332 230.346 105.858 230.837L107.759 230.161L109.512 232.977L108.092 234.408C108.311 235.101 108.438 235.821 108.469 236.548L110.283 237.426L109.643 240.672H107.628C107.291 241.308 106.873 241.898 106.384 242.427L107.059 244.322L104.238 246.076L102.818 244.655C102.122 244.871 101.4 244.994 100.672 245.024L99.7958 246.848L96.5456 246.111V244.102C95.9079 243.765 95.3185 243.343 94.7934 242.848L92.8923 243.523L91.1401 240.707L92.5594 239.277C92.3435 238.583 92.2198 237.863 92.1914 237.136L90.3691 236.259L91.0963 233.004H92.9974C93.3386 232.368 93.7596 231.778 94.2502 231.249L93.5756 229.354L96.3879 227.599L97.8159 229.029C98.5078 228.806 99.2271 228.679 99.9535 228.652L100.83 226.836L104.08 227.564V229.582L104.106 229.591ZM101.241 233.416C100.551 233.26 99.8307 233.312 99.1704 233.565C98.51 233.819 97.9397 234.264 97.5317 234.842C97.1237 235.421 96.8963 236.108 96.8783 236.816C96.8603 237.524 97.0525 238.222 97.4306 238.821C97.8087 239.419 98.3556 239.892 99.0023 240.179C99.6489 240.467 100.366 240.555 101.063 240.434C101.76 240.313 102.405 239.987 102.917 239.499C103.429 239.01 103.785 238.38 103.94 237.689C104.146 236.764 103.978 235.795 103.473 234.994C102.967 234.193 102.164 233.626 101.241 233.416Z" fill="#FFC200"/>
<path opacity="0.4" fill-rule="evenodd" clip-rule="evenodd" d="M104.106 229.591C104.743 229.927 105.332 230.346 105.858 230.837L107.759 230.161L109.512 232.977L108.092 234.408C108.311 235.101 108.438 235.821 108.469 236.548L110.283 237.426L109.643 240.672H107.628C107.291 241.308 106.873 241.898 106.384 242.427L107.059 244.322L104.238 246.076L102.818 244.655C102.122 244.871 101.4 244.994 100.672 245.024L99.7958 246.848L96.5456 246.111V244.102C95.9079 243.765 95.3185 243.343 94.7934 242.848L92.8923 243.523L91.1401 240.707L92.5594 239.277C92.3435 238.583 92.2198 237.863 92.1914 237.136L90.3691 236.259L91.0963 233.004H92.9974C93.3386 232.368 93.7596 231.778 94.2502 231.249L93.5756 229.354L96.3879 227.599L97.8159 229.029C98.5078 228.806 99.2271 228.679 99.9535 228.652L100.83 226.836L104.08 227.564V229.582L104.106 229.591ZM101.241 233.416C100.551 233.26 99.8307 233.312 99.1704 233.565C98.51 233.819 97.9397 234.264 97.5317 234.842C97.1237 235.421 96.8963 236.108 96.8783 236.816C96.8603 237.524 97.0525 238.222 97.4306 238.821C97.8087 239.419 98.3556 239.892 99.0023 240.179C99.6489 240.467 100.366 240.555 101.063 240.434C101.76 240.313 102.405 239.987 102.917 239.499C103.429 239.01 103.785 238.38 103.94 237.689C104.146 236.764 103.978 235.795 103.473 234.994C102.967 234.193 102.164 233.626 101.241 233.416Z" fill="#FFC200"/>
<path d="M297.59 197.301C299.427 196.772 301.035 195.642 302.157 194.092C303.28 192.542 303.852 190.661 303.784 188.747C303.679 186.992 303.039 185.361 303.109 183.641C303.223 181.009 304.993 178.719 306.324 176.403C307.656 174.087 308.541 171.042 306.99 168.866C305.991 167.454 304.213 166.822 302.995 165.594C301.777 164.365 301.243 162.725 300.595 161.154C299.946 159.584 299.132 157.961 297.66 157.127C296.188 156.294 293.936 156.653 293.332 158.241L297.59 197.301ZM281.68 154.021C284.308 152.346 284.939 148.476 283.511 145.713C282.083 142.949 279.069 141.265 276.003 140.764C273.772 140.425 271.492 140.618 269.35 141.329C267.208 142.039 265.264 143.247 263.676 144.853C261.986 146.608 260.61 148.88 258.315 149.678C256.3 150.389 254.066 149.749 251.946 150.029C250.532 150.285 249.193 150.855 248.028 151.696C246.862 152.537 245.899 153.628 245.208 154.89C243.851 157.428 243.037 160.222 242.817 163.093C242.51 165.725 242.3 168.577 240.495 170.481C238.69 172.384 235.931 172.735 233.741 174.06C231.723 175.392 230.306 177.461 229.792 179.825C229.278 182.189 229.708 184.661 230.99 186.712C231.866 187.975 233.11 189.142 233.206 190.677C233.302 192.213 232.4 193.309 231.971 194.678C231.75 195.543 231.717 196.446 231.873 197.325C232.03 198.204 232.373 199.039 232.88 199.774C233.386 200.509 234.044 201.127 234.809 201.586C235.574 202.045 236.429 202.334 237.315 202.434C239.137 202.539 241.082 201.829 242.72 202.645C244.359 203.461 244.946 205.417 245.979 206.909C247.047 208.347 248.574 209.376 250.307 209.823C252.04 210.27 253.874 210.108 255.503 209.365C256.843 208.707 258.131 207.61 259.594 207.724C261.057 207.839 262.222 209.093 263.711 209.374C265.63 209.742 267.444 208.33 268.583 206.742C269.721 205.154 270.519 203.285 271.973 201.987C273.883 200.284 276.564 199.872 278.982 199.039C281.654 198.114 284.096 196.625 286.145 194.674C288.193 192.722 289.799 190.353 290.855 187.727C291.91 185.1 292.391 182.277 292.263 179.449C292.136 176.62 291.404 173.852 290.117 171.332" fill="#263238"/>
<path d="M287.488 157.471C288.533 157.585 289.496 158.087 290.189 158.878C290.882 159.669 291.253 160.692 291.229 161.744L288.723 218.483C288.618 225.186 278.841 228.95 271.675 228.783C264.438 228.616 264.21 225.063 264.114 218.684C263.965 208.033 263.983 204.033 263.974 204.094C263.965 204.155 254.836 202.559 252.97 190.609C252.042 184.66 252.357 174.922 252.874 166.964C253.347 159.796 258.13 151.014 265.235 151.786L287.488 157.471Z" fill="#FFBE9D"/>
<path d="M263.932 204.091C269.548 204.192 275.083 202.731 279.92 199.871C279.92 199.871 275.873 208.294 263.932 207.144V204.091Z" fill="#EB996E"/>
<path d="M279.603 153.584C280.962 152.631 282.509 151.981 284.139 151.679C285.77 151.376 287.447 151.427 289.056 151.829C292.236 152.707 294.873 155.619 294.987 158.848C295.057 160.954 294.111 163.235 295.084 165.104C296.056 166.972 298.159 167.648 299.718 168.964C300.913 170.01 301.724 171.427 302.023 172.988C302.321 174.549 302.09 176.165 301.365 177.58C300.06 179.975 297.326 181.73 297.099 184.432C296.88 186.976 299.017 189.126 299.543 191.626C300.112 194.381 298.588 197.233 296.407 199.066C294.225 200.9 291.457 201.909 288.758 202.874C286.656 203.637 284.378 204.409 282.214 203.909C280.936 203.566 279.788 202.851 278.914 201.854C278.041 200.858 277.482 199.626 277.308 198.312C277.178 197.002 277.332 195.679 277.76 194.434C278.188 193.189 278.879 192.052 279.787 191.1C281.32 189.406 283.476 187.976 283.843 185.739C284.413 182.23 280.278 179.413 280.532 175.904C280.663 174.097 281.942 172.596 283.002 171.105C284.062 169.613 284.991 167.745 284.334 166.051C283.458 163.84 280.593 163.261 278.841 161.664C278.119 160.984 277.599 160.116 277.341 159.157C277.083 158.198 277.095 157.186 277.378 156.234C277.697 155.283 278.268 154.436 279.03 153.786C279.793 153.135 280.718 152.704 281.706 152.54" fill="#263238"/>
<path d="M280.892 150.89C280.898 152.091 280.639 153.279 280.134 154.369C279.628 155.459 278.889 156.424 277.969 157.195C277.048 157.966 275.969 158.524 274.809 158.829C273.649 159.134 272.435 159.18 271.255 158.962C269.433 158.628 267.435 157.707 265.858 158.681C264.282 159.655 264.106 162.19 262.661 163.48C260.558 165.314 257.22 163.594 254.548 164.357C252.489 164.971 251.202 166.937 249.826 168.604C248.451 170.271 246.409 171.841 244.342 171.236C244.404 169.374 244.68 167.525 245.165 165.726C245.659 163.917 246.76 162.333 248.284 161.243C249.186 160.773 250.063 160.257 250.912 159.699C252.665 158.321 253.024 155.908 254.075 153.978C254.771 152.736 255.751 151.677 256.937 150.89C258.122 150.102 259.478 149.609 260.891 149.451C263.239 149.214 265.657 149.916 267.9 149.337C269.591 148.916 271.071 147.819 272.78 147.486C276.117 146.854 279.219 149.24 281.637 151.636" fill="#263238"/>
<path d="M302.68 179.447C302.899 179.023 302.994 178.546 302.951 178.07C302.844 177.431 302.561 176.835 302.136 176.348C301.711 175.86 301.159 175.499 300.542 175.306C299.685 175.003 298.807 174.765 297.914 174.596C296.848 174.402 295.836 173.983 294.944 173.367C294.468 172.982 294.083 172.495 293.816 171.943C293.549 171.391 293.408 170.787 293.402 170.174C293.389 168.919 293.451 167.666 293.586 166.419C293.621 165.803 293.588 165.185 293.49 164.576C293.375 164.007 293.135 163.471 292.789 163.006C292.004 162.197 291.009 161.626 289.915 161.356C288.89 161.062 287.906 160.638 286.989 160.093C286.191 159.614 285.465 159.023 284.834 158.338C283.912 157.356 283.197 156.199 282.731 154.934C282.599 154.596 282.496 154.246 282.425 153.89C282.372 153.644 282.355 153.521 282.372 153.513C282.39 153.504 282.53 154.013 282.889 154.873C283.534 156.371 284.516 157.701 285.757 158.758C286.998 159.816 288.466 160.573 290.047 160.97C291.221 161.248 292.291 161.857 293.131 162.725C293.526 163.243 293.801 163.842 293.937 164.48C294.042 165.123 294.077 165.776 294.042 166.427C293.911 167.66 293.846 168.899 293.849 170.139C293.848 170.692 293.969 171.238 294.204 171.739C294.439 172.239 294.781 172.682 295.207 173.034C296.047 173.618 296.998 174.021 298.002 174.218C298.897 174.408 299.776 174.67 300.63 174.999C301.365 175.28 302.008 175.76 302.487 176.385C302.835 176.866 303.044 177.434 303.092 178.026C303.115 178.402 303.039 178.777 302.873 179.114C302.794 179.36 302.689 179.456 302.68 179.447ZM232.426 186.905L232.225 186.808C232.044 186.695 231.891 186.542 231.778 186.361C231.613 185.98 231.548 185.562 231.591 185.149C231.634 184.735 231.783 184.34 232.023 184.001C232.321 183.475 232.766 183.048 233.303 182.773C233.924 182.463 234.565 182.194 235.221 181.965C235.957 181.719 236.639 181.332 237.227 180.825C237.824 180.2 238.224 179.413 238.375 178.561C238.568 177.684 238.629 176.684 238.796 175.666C238.921 174.574 239.328 173.533 239.978 172.648C241.363 170.823 243.64 169.849 245.34 168.129C246.188 167.225 246.826 166.143 247.206 164.962C247.611 163.716 247.904 162.435 248.082 161.137C248.45 158.505 248.827 155.574 250.588 153.17C251.446 151.962 252.735 151.13 254.188 150.845C255.569 150.648 256.972 150.681 258.341 150.942C259.619 151.19 260.924 151.267 262.222 151.17C263.444 151.028 264.571 150.445 265.394 149.529C267.023 147.775 267.952 145.406 269.958 144.195C270.852 143.649 271.848 143.293 272.885 143.15C273.922 143.006 274.978 143.079 275.986 143.362C277.656 143.838 279.075 144.945 279.945 146.45C280.603 147.568 280.959 148.838 280.979 150.135C281.003 150.947 280.875 151.756 280.603 152.521C280.511 152.791 280.391 153.05 280.243 153.293C280.243 153.293 280.348 153.021 280.515 152.495C280.744 151.733 280.841 150.938 280.804 150.144C280.754 148.885 280.386 147.659 279.735 146.581C278.879 145.153 277.504 144.113 275.898 143.677C274.932 143.422 273.925 143.368 272.938 143.519C271.951 143.67 271.005 144.023 270.16 144.555C269.242 145.187 268.458 145.995 267.855 146.932C267.202 147.953 266.482 148.929 265.7 149.854C265.26 150.334 264.745 150.74 264.176 151.056C263.581 151.36 262.938 151.559 262.275 151.644C260.939 151.746 259.596 151.672 258.28 151.425C256.96 151.17 255.607 151.134 254.276 151.319C252.936 151.591 251.749 152.362 250.956 153.478C250.157 154.608 249.578 155.879 249.247 157.224C248.931 158.549 248.689 159.89 248.52 161.242C248.347 162.565 248.053 163.868 247.644 165.138C247.242 166.378 246.565 167.512 245.664 168.454C243.868 170.209 241.617 171.191 240.302 172.92C239.687 173.751 239.295 174.727 239.164 175.754C238.997 176.754 238.927 177.736 238.708 178.666C238.543 179.578 238.102 180.417 237.446 181.07C236.827 181.596 236.109 181.992 235.335 182.237C234.683 182.452 234.046 182.707 233.425 183.001C232.919 183.252 232.494 183.641 232.199 184.124C231.966 184.44 231.816 184.809 231.761 185.198C231.706 185.587 231.748 185.984 231.883 186.352C232.028 186.569 232.212 186.757 232.426 186.905Z" fill="#455A64"/>
<path d="M203.156 269.184L224.314 267.245C224.314 267.245 237.333 232.896 253.383 224.57L263.782 242.758L241.52 284.634H198.066L203.156 269.184Z" fill="#FFDB96"/>
<path opacity="0.3" d="M204.479 269.184L225.636 267.236C225.636 267.236 238.655 232.896 254.705 224.57L265.104 242.758L242.851 284.634H199.389L204.479 269.184Z" fill="#D7A161"/>
<path d="M211.514 278.834C212.559 276.47 213.889 274.242 215.474 272.201C214.414 274.558 213.085 276.784 211.514 278.834ZM226.504 278.422C224.667 276.621 223.05 274.61 221.685 272.429C222.663 273.267 223.532 274.225 224.269 275.281C225.133 276.238 225.883 277.292 226.504 278.422ZM229.105 270.552C228.802 268.71 228.802 266.831 229.105 264.989C229.409 266.831 229.409 268.71 229.105 270.552ZM221.659 282.826C220.92 282.62 220.231 282.264 219.635 281.782C218.584 281.089 217.795 280.448 217.883 280.343C218.619 280.559 219.306 280.917 219.907 281.396C220.905 282.08 221.729 282.721 221.659 282.826ZM233.81 251.259C233.463 252.583 232.972 253.866 232.347 255.084C231.858 256.363 231.23 257.584 230.472 258.725C230.809 257.398 231.297 256.115 231.926 254.9C232.42 253.621 233.052 252.4 233.81 251.259ZM242.387 237.344C242.457 237.44 241.704 238.142 240.696 238.914C240.123 239.439 239.453 239.847 238.725 240.116C238.655 240.011 239.408 239.309 240.416 238.546C240.986 238.017 241.656 237.609 242.387 237.344Z" fill="#FAFAFA"/>
<path d="M274.031 281.879L284.947 237.74C285.86 234.036 288.147 230.82 291.344 228.745C294.54 226.671 298.405 225.893 302.154 226.571C306.004 227.268 309.431 229.445 311.702 232.636C313.974 235.827 314.911 239.78 314.314 243.653L307.638 286.793C306.841 291.208 304.69 295.265 301.483 298.398C298.277 301.532 294.175 303.588 289.748 304.278L281.075 305.63L274.031 281.879Z" fill="#FFDB96"/>
<path d="M308.427 223.718C307.288 222.785 305.956 222.117 304.528 221.762C302.984 221.402 301.377 221.402 299.832 221.762C297.952 222.238 296.204 223.138 294.725 224.394C291.527 227.079 289.792 230.535 288.592 233.01C288.005 234.247 287.558 235.264 287.243 235.966C287.098 236.342 286.919 236.703 286.709 237.045C286.794 236.654 286.918 236.272 287.077 235.905C287.348 235.177 287.742 234.15 288.294 232.869C288.941 231.383 289.691 229.944 290.537 228.561C291.588 226.862 292.898 225.338 294.418 224.043C295.946 222.728 297.762 221.793 299.718 221.314C301.324 220.948 302.994 220.969 304.589 221.376C305.661 221.652 306.668 222.138 307.551 222.806C307.786 222.989 308.006 223.192 308.208 223.411C308.365 223.631 308.436 223.71 308.427 223.718ZM246.601 233.65C246.515 233.798 246.412 233.937 246.295 234.062L245.366 235.185C244.551 236.159 243.404 237.581 242.089 239.414C238.597 244.159 236.064 249.542 234.634 255.259C233.118 261.989 233.039 268.288 232.785 272.807C232.672 275.07 232.566 276.904 232.47 278.167C232.417 278.764 232.374 279.246 232.339 279.624C232.328 279.795 232.304 279.965 232.269 280.133C232.244 279.964 232.244 279.792 232.269 279.624C232.269 279.238 232.269 278.746 232.312 278.158C232.312 276.834 232.409 275.018 232.479 272.798C232.654 268.288 232.672 261.962 234.231 255.163C235.663 249.389 238.26 243.97 241.862 239.239C243.22 237.414 244.411 236.01 245.261 235.071C245.681 234.598 246.032 234.247 246.26 234.01C246.363 233.88 246.477 233.76 246.601 233.65Z" fill="#263238"/>
<path d="M316.53 233.552C315.33 225.656 310.985 223.77 306.473 221.313C305.001 220.506 297.896 218.681 292.263 217.303C291.719 213.89 290.756 207.767 290.51 206.477C290.213 204.661 261.81 209.197 261.451 209.881C261.214 210.328 260.574 217.417 260.145 222.164L253.347 224.542L244.507 235.842L239.89 242.405C237.17 246.19 235.225 250.478 234.169 255.021C233.177 260.052 232.751 265.179 232.899 270.305L231.523 299.257L290.992 316.085L295.548 286.729L310.879 265.83C312.185 257.381 318.002 243.256 316.53 233.552Z" fill="#FFDB96"/>
<path d="M265.815 223.054C265.607 222.401 265.475 221.727 265.421 221.045C265.237 219.799 265.009 218.07 264.79 216.158C264.685 215.21 264.588 214.306 264.492 213.455C264.402 212.716 264.349 211.972 264.334 211.227C264.326 210.701 264.476 210.184 264.764 209.744C264.991 209.446 265.184 209.367 265.202 209.384C265.219 209.402 265.07 209.542 264.913 209.841C264.714 210.274 264.627 210.751 264.658 211.227C264.658 211.841 264.816 212.578 264.913 213.411C265.009 214.245 265.123 215.166 265.245 216.105C265.464 218.018 265.64 219.755 265.745 221.009C265.846 221.686 265.87 222.372 265.815 223.054ZM273.393 221.264C273.098 220.682 272.885 220.062 272.762 219.421C271.97 216.383 271.674 213.237 271.886 210.104C271.892 209.454 271.986 208.807 272.167 208.182C272.307 208.182 272.053 211.139 272.394 214.754C272.736 218.369 273.533 221.229 273.393 221.264ZM287.489 219.176C287.669 216.994 287.613 214.8 287.323 212.631C286.876 210.486 286.188 208.4 285.273 206.41C285.713 206.899 286.066 207.46 286.315 208.068C287.712 210.921 288.265 214.115 287.91 217.272C287.869 217.924 287.727 218.567 287.489 219.176Z" fill="#263238"/>
<path d="M247.188 245.023C248.542 242.439 250.302 240.089 252.401 238.065C250.778 240.468 249.038 242.79 247.188 245.023ZM260.531 234.091C258.832 232.38 257.359 230.458 256.151 228.37C257.042 229.179 257.834 230.092 258.507 231.09C259.305 232.001 259.985 233.01 260.531 234.091ZM274.514 227.265C273.658 228.282 272.724 229.23 271.719 230.099C270.822 231.08 269.853 231.992 268.819 232.827C269.524 231.687 270.395 230.658 271.404 229.774C272.306 228.784 273.355 227.938 274.514 227.265ZM270.589 218.913C269.773 218.484 269.036 217.92 268.407 217.246C267.675 216.679 267.039 215.998 266.524 215.228C267.338 215.666 268.077 216.232 268.714 216.903C269.444 217.466 270.077 218.145 270.589 218.913ZM282.845 212.367C281.91 212.806 280.915 213.101 279.893 213.245C278.905 213.531 277.881 213.672 276.853 213.666C277.786 213.231 278.778 212.936 279.796 212.789C280.787 212.502 281.814 212.361 282.845 212.367ZM285.298 231.801C285.017 230.805 284.887 229.773 284.913 228.739C284.787 227.714 284.811 226.677 284.983 225.659C285.264 226.655 285.394 227.687 285.368 228.721C285.494 229.746 285.47 230.783 285.298 231.801ZM280.83 241.11C280.181 240.004 279.664 238.826 279.288 237.6C278.78 236.41 278.409 235.164 278.184 233.889C279.337 236.198 280.219 238.633 280.813 241.145L280.83 241.11ZM268.688 247.734C267.99 246.564 267.426 245.319 267.006 244.023C266.438 242.78 266.014 241.476 265.744 240.136C266.436 241.312 267 242.559 267.426 243.856C267.987 245.098 268.41 246.399 268.688 247.734ZM257.263 255.2C256.454 252.792 255.942 250.293 255.739 247.76C256.211 248.942 256.54 250.176 256.72 251.436C257.048 252.665 257.231 253.928 257.263 255.2ZM243.684 255.498C242.334 253.403 241.24 251.152 240.425 248.795C241.775 250.891 242.869 253.141 243.684 255.498ZM243.395 264.219C242.283 265.012 241.091 265.685 239.838 266.228C238.646 266.903 237.383 267.442 236.071 267.834C237.182 267.032 238.377 266.355 239.637 265.816C240.826 265.145 242.087 264.61 243.395 264.219ZM243.561 278.011C242.966 277.024 242.548 275.94 242.326 274.809C241.957 273.722 241.782 272.579 241.809 271.431C242.23 272.486 242.55 273.579 242.764 274.695C243.133 275.773 243.4 276.883 243.561 278.011ZM240.749 287.697C239.711 287.039 238.752 286.262 237.893 285.381C236.935 284.616 236.078 283.731 235.344 282.749C236.382 283.408 237.341 284.185 238.2 285.065C239.158 285.831 240.015 286.715 240.749 287.697ZM258.639 281.082C258.639 281.214 256.659 281.793 254.311 282.837C251.963 283.881 250.176 284.951 250.097 284.837C251.293 283.806 252.656 282.988 254.127 282.416C255.543 281.713 257.069 281.262 258.639 281.082ZM253.409 276.283C252.844 275.343 252.411 274.331 252.121 273.274C251.683 272.27 251.388 271.21 251.245 270.124C251.807 271.06 252.237 272.07 252.524 273.124C252.967 274.13 253.265 275.193 253.409 276.283ZM264.018 264.421C263.357 265.907 262.556 267.325 261.626 268.659C260.825 270.088 259.892 271.439 258.84 272.695C260.309 269.797 262.042 267.042 264.018 264.465V264.421ZM275.425 265.553C274.271 264.368 273.289 263.028 272.507 261.57C271.595 260.192 270.876 258.695 270.37 257.121C270.492 257.069 271.509 259.017 272.902 261.342C274.295 263.667 275.53 265.483 275.425 265.553ZM282.232 254.27C281.169 254.687 280.035 254.89 278.894 254.867C277.763 254.999 276.618 254.91 275.521 254.603C276.633 254.455 277.755 254.391 278.877 254.41C279.99 254.283 281.112 254.236 282.232 254.27ZM298.466 241.452C295.686 243.126 292.752 244.53 289.705 245.646C292.49 243.981 295.423 242.577 298.466 241.452ZM299.543 233.292C300.437 230.825 301.613 228.47 303.048 226.274C302.677 227.532 302.16 228.742 301.506 229.88C300.983 231.088 300.325 232.233 299.543 233.292ZM309.846 239.697C309.307 238.4 308.862 237.066 308.515 235.705C308.026 234.39 307.634 233.041 307.341 231.669C308.65 234.173 309.499 236.892 309.846 239.697ZM311.467 248.19C310.263 248.849 308.966 249.322 307.621 249.594C306.312 250.011 304.947 250.221 303.573 250.217C304.859 249.773 306.173 249.418 307.507 249.155C308.804 248.744 310.127 248.421 311.467 248.19ZM293.805 258.56C293.674 258.56 294.05 256.402 294.155 253.744C294.261 251.085 294.085 248.927 294.217 248.909C294.621 250.493 294.755 252.133 294.611 253.761C294.619 255.395 294.347 257.019 293.805 258.56ZM290.283 269.238C287.927 267.368 285.987 265.025 284.589 262.359C284.702 262.289 285.859 263.912 287.436 265.807C288.445 266.9 289.395 268.045 290.283 269.238ZM307.989 266.983C306.842 267.706 305.616 268.294 304.336 268.738C303.113 269.327 301.829 269.78 300.507 270.089C302.878 268.772 305.387 267.722 307.989 266.957V266.983ZM301.646 287.075C301.38 283.861 301.412 280.631 301.742 277.424C302.02 280.636 301.988 283.868 301.646 287.075ZM288.058 285.916C288.279 282.559 289.101 279.27 290.485 276.204C290.607 276.248 289.942 278.38 289.276 281.056C288.61 283.732 288.189 285.943 288.058 285.916ZM288.68 291.189C288.68 291.321 286.507 291.531 283.844 291.979C281.181 292.426 279.043 292.918 279.008 292.786C280.528 292.147 282.129 291.722 283.765 291.523C285.379 291.179 287.034 291.067 288.68 291.189ZM273.646 287.811C274.408 286.708 275.289 285.693 276.275 284.785C277.143 283.774 278.124 282.867 279.201 282.082C278.439 283.186 277.558 284.201 276.572 285.109C275.702 286.118 274.72 287.024 273.646 287.811ZM263.913 297.261C263.449 296.142 263.054 294.997 262.73 293.83C262.255 292.715 261.845 291.572 261.504 290.408C262.893 292.441 263.724 294.804 263.913 297.261ZM279.604 302.718C276.616 301.726 273.732 300.445 270.992 298.892C272.503 299.319 273.969 299.889 275.372 300.595C276.845 301.17 278.262 301.881 279.604 302.718ZM252.235 301.13C252.358 300.026 252.635 298.945 253.058 297.919C253.335 296.846 253.757 295.816 254.311 294.857C254.187 295.96 253.91 297.041 253.488 298.068C253.204 299.138 252.783 300.168 252.235 301.13ZM270.282 304.192C270.282 304.323 267.768 303.92 264.666 303.762C261.565 303.604 259.051 303.762 259.042 303.586C260.903 303.224 262.805 303.13 264.693 303.306C266.589 303.33 268.471 303.629 270.282 304.192Z" fill="#FAFAFA"/>
<path d="M274.032 278.318C274.015 278.202 274.015 278.083 274.032 277.967C274.03 277.631 274.08 277.296 274.181 276.976C274.317 276.435 274.656 275.967 275.127 275.668C275.773 275.294 276.533 275.169 277.265 275.317L277.09 275.423C278.044 272.054 279.578 267.141 281.111 261.631C282.548 256.472 283.52 251.725 284.195 248.277C284.528 246.619 284.79 245.242 285.001 244.198C285.08 243.696 285.194 243.2 285.342 242.715C285.331 243.225 285.276 243.733 285.176 244.233C285.036 245.207 284.808 246.61 284.51 248.339C283.751 252.858 282.763 257.335 281.549 261.754C280.016 267.272 278.43 272.168 277.379 275.51L277.335 275.642H277.203C276.542 275.491 275.848 275.584 275.25 275.905C274.815 276.165 274.488 276.573 274.33 277.055C274.041 277.827 274.093 278.327 274.032 278.318Z" fill="#263238"/>
<path d="M293.674 290.519C293.604 290.519 293.061 289.361 291.922 287.589C289.002 282.962 284.884 279.214 280.007 276.745C278.141 275.806 276.906 275.376 276.932 275.297C277.232 275.344 277.525 275.424 277.808 275.534C278.601 275.791 279.376 276.099 280.13 276.455C285.167 278.8 289.372 282.625 292.185 287.422C292.608 288.14 292.985 288.885 293.315 289.65C293.481 289.919 293.602 290.212 293.674 290.519Z" fill="#263238"/>
<path opacity="0.2" d="M277.458 274.656C280.604 274.735 283.719 275.3 286.692 276.332C289.837 277.508 292.746 279.771 293.902 282.93C294.09 283.286 294.174 283.688 294.145 284.09C294.115 284.492 293.973 284.877 293.736 285.202C293.511 285.395 293.238 285.523 292.946 285.571C292.654 285.619 292.354 285.585 292.08 285.474C291.532 285.244 291.037 284.904 290.626 284.474C288.698 282.719 286.692 281.105 284.703 279.385C282.715 277.666 279.806 275.876 277.213 275.463" fill="black"/>
<path d="M271.142 269.059C270.873 269.271 270.579 269.448 270.266 269.586C269.403 270.008 268.503 270.349 267.576 270.603C264.494 271.484 261.232 271.523 258.13 270.716C255.027 269.909 252.197 268.286 249.932 266.015C249.248 265.338 248.626 264.601 248.074 263.813C247.856 263.545 247.673 263.25 247.531 262.935C247.601 262.883 248.407 264.163 250.16 265.813C252.435 267.965 255.216 269.507 258.246 270.296C261.275 271.084 264.455 271.093 267.489 270.322C269.775 269.708 271.098 268.971 271.142 269.059Z" fill="#263238"/>
<path opacity="0.2" d="M247.959 263.586C249.44 266.797 251.165 270.035 253.969 272.193C255.519 273.534 257.455 274.345 259.497 274.509C262.423 274.562 264.938 272.561 267.172 270.666C259.935 271.807 251.787 268.517 247.959 263.586Z" fill="black"/>
<path d="M280.357 220.597C280.217 220.597 280.357 217.578 280.024 213.902C279.691 210.226 278.946 207.305 279.078 207.27C279.367 207.867 279.57 208.502 279.682 209.156C280.061 210.702 280.324 212.274 280.471 213.859C280.627 215.444 280.668 217.04 280.594 218.631C280.601 219.294 280.522 219.955 280.357 220.597Z" fill="#263238"/>
<path d="M176.436 338.004C176.436 338.004 166.913 340.066 158.415 338.785C150.443 337.592 132.597 338.829 132.605 349.313C132.605 361.043 156.409 358.148 165.687 356.288C174.964 354.428 184.216 352.779 184.216 352.779L176.436 338.004Z" fill="#6084A3"/>
<path d="M155.059 353.033C154.536 351.717 154.151 350.35 153.912 348.954C153.531 347.587 153.296 346.185 153.211 344.769C153.723 346.086 154.096 347.453 154.324 348.848C154.717 350.213 154.963 351.616 155.059 353.033ZM158.31 353.191C157.621 350.428 157.233 347.598 157.153 344.751C157.571 346.113 157.841 347.516 157.959 348.936C158.224 350.338 158.341 351.764 158.31 353.191ZM161.446 351.963C161.079 350.774 160.855 349.546 160.78 348.304C160.553 347.081 160.479 345.835 160.561 344.593C161.15 347.005 161.444 349.48 161.437 351.963H161.446ZM166.37 350.778C165.76 349.823 165.346 348.755 165.152 347.638C164.81 346.553 164.691 345.41 164.802 344.277C165.137 345.34 165.4 346.425 165.59 347.524C165.927 348.589 166.187 349.676 166.37 350.778ZM167.465 346.444C167.872 346.35 168.292 346.32 168.709 346.357C169.849 346.396 170.976 346.618 172.047 347.015C172.417 347.146 172.765 347.333 173.081 347.567C173.266 347.703 173.419 347.878 173.53 348.08C173.64 348.281 173.705 348.505 173.72 348.734C173.701 348.987 173.626 349.233 173.503 349.454C173.379 349.676 173.209 349.868 173.004 350.017C172.799 350.166 172.565 350.269 172.316 350.319C172.068 350.369 171.811 350.364 171.565 350.305C170.559 350.029 169.681 349.408 169.086 348.55C168.097 347.272 167.53 345.718 167.466 344.102C167.402 342.487 167.842 340.892 168.726 339.54C168.906 339.322 169.152 339.171 169.427 339.11C169.571 339.091 169.716 339.104 169.854 339.148C169.992 339.192 170.118 339.266 170.225 339.364C170.562 339.711 170.772 340.163 170.82 340.645C170.928 341.438 170.887 342.245 170.698 343.023C170.436 344.151 169.879 345.189 169.086 346.032C168.876 346.262 168.644 346.471 168.394 346.655C168.31 346.726 168.215 346.782 168.113 346.822C168.113 346.822 168.446 346.523 168.989 345.944C169.699 345.087 170.189 344.069 170.417 342.979C170.575 342.237 170.596 341.473 170.479 340.724C170.434 340.336 170.265 339.973 169.997 339.689C169.929 339.632 169.849 339.59 169.763 339.567C169.678 339.544 169.588 339.54 169.5 339.555C169.413 339.57 169.33 339.604 169.257 339.654C169.184 339.705 169.122 339.77 169.077 339.847C168.277 341.128 167.886 342.623 167.957 344.133C168.027 345.642 168.555 347.094 169.471 348.296C169.994 349.081 170.775 349.658 171.679 349.927C171.866 349.976 172.061 349.985 172.252 349.953C172.443 349.92 172.624 349.848 172.785 349.74C172.946 349.632 173.082 349.492 173.184 349.327C173.286 349.163 173.353 348.979 173.378 348.787C173.364 348.614 173.313 348.446 173.228 348.295C173.144 348.143 173.028 348.012 172.888 347.91C172.61 347.687 172.3 347.51 171.968 347.383C170.933 346.972 169.844 346.712 168.735 346.611C167.868 346.462 167.465 346.479 167.465 346.444Z" fill="#263238"/>
<path d="M183.278 351.226L183.042 351.305L182.324 351.48L179.564 352.112C177.163 352.639 173.677 353.384 169.349 354.218C165.021 355.051 159.852 355.972 154.052 356.788C151.016 357.288 147.933 357.444 144.862 357.253C143.227 357.143 141.612 356.834 140.052 356.332C139.251 356.06 138.477 355.713 137.739 355.297C136.969 354.884 136.283 354.331 135.716 353.665C135.398 353.373 135.122 353.039 134.892 352.674C134.445 351.904 134.171 351.047 134.087 350.16C134.004 349.274 134.114 348.38 134.41 347.541C134.983 345.921 136.05 344.522 137.459 343.54C138.786 342.605 140.248 341.88 141.796 341.391C142.558 341.171 143.294 340.908 144.047 340.742C144.801 340.575 145.545 340.391 146.29 340.285C152.256 339.347 157.679 339.82 162.2 339.82C164.46 339.864 166.501 339.82 168.289 339.697C169.817 339.587 171.337 339.394 172.844 339.118L174.491 338.768L175.674 338.434L176.401 338.232C176.483 338.203 176.569 338.186 176.655 338.18C176.655 338.18 176.576 338.224 176.419 338.276L175.7 338.522L174.526 338.899L172.888 339.294C171.374 339.6 169.845 339.82 168.306 339.952C166.51 340.084 164.46 340.171 162.174 340.145C157.653 340.189 152.23 339.741 146.343 340.698C145.607 340.803 144.88 341.005 144.135 341.163C143.39 341.321 142.672 341.593 141.918 341.803C140.414 342.28 138.993 342.987 137.704 343.9C136.373 344.828 135.365 346.151 134.822 347.681C134.551 348.458 134.449 349.283 134.525 350.102C134.6 350.922 134.851 351.715 135.26 352.428C135.469 352.751 135.72 353.046 136.005 353.305C136.54 353.912 137.178 354.42 137.888 354.806C138.597 355.208 139.342 355.543 140.114 355.806C141.64 356.29 143.22 356.584 144.818 356.683C147.859 356.875 150.912 356.731 153.921 356.253C159.703 355.49 164.881 354.569 169.209 353.779C173.536 352.989 177.032 352.288 179.45 351.814L182.227 351.27L182.946 351.138C183.062 351.143 183.175 351.173 183.278 351.226Z" fill="#263238"/>
<path d="M148.462 356.918C148.318 356.113 148.239 355.297 148.225 354.479C148.12 352.979 147.945 350.899 147.638 348.627C147.331 346.355 146.964 344.302 146.666 342.819C146.461 342.028 146.324 341.221 146.254 340.406C146.58 341.159 146.823 341.944 146.981 342.749C147.459 344.666 147.831 346.608 148.094 348.566C148.352 350.521 148.504 352.489 148.549 354.462C148.605 355.281 148.575 356.104 148.462 356.918Z" fill="#263238"/>
<path opacity="0.4" d="M173.502 338.513L179.529 353.647L184.217 352.779L175.245 338.004L173.502 338.513Z" fill="black"/>
<path d="M252.139 297.03C251.167 297.346 188.815 279.851 163.602 272.753C160.328 271.83 156.895 271.616 153.532 272.125C150.17 272.635 146.954 273.857 144.1 275.71L143.793 275.903C139.654 278.584 136.442 282.479 134.596 287.056C132.751 291.634 132.361 296.67 133.482 301.478C134.201 304.574 135.527 307.496 137.383 310.074C139.239 312.652 141.587 314.836 144.293 316.498C160.938 326.702 196.113 348.162 197.191 347.741C198.601 347.197 242.546 346.057 242.546 346.057L189.674 307.97L214.826 324.254L252.139 297.056V297.03Z" fill="#2A102B"/>
<path d="M200.081 278.026L213.336 271.156L226.337 279.316L274.995 280.912L282.004 304.601L211.566 288.247C211.566 288.247 198.749 289.388 197.786 286.492C196.822 283.597 200.081 278.026 200.081 278.026Z" fill="#FFBE9D"/>
<path d="M239.952 316.053L233.398 337.618L234.213 344.19C239.984 350.012 247.676 353.528 255.849 354.079C264.022 354.63 272.116 352.177 278.613 347.181C282.641 344.084 285.9 340.098 288.137 335.532C290.374 330.967 291.528 325.946 291.509 320.861L291.413 298.348L239.952 316.053Z" fill="#2A102B"/>
<path d="M200.931 316.192C200.861 316.289 193.257 310.735 183.953 303.786C174.649 296.838 167.158 291.117 167.237 291.021C167.316 290.924 174.911 296.469 184.224 303.418C193.537 310.366 201.01 316.087 200.931 316.192Z" fill="#455A64"/>
<path d="M212.444 275.457C210.336 276.373 208.17 277.15 205.96 277.782C203.795 278.55 201.583 279.181 199.337 279.668C201.444 278.75 203.61 277.974 205.82 277.343C207.986 276.574 210.198 275.944 212.444 275.457ZM213.434 279.502C212.694 279.712 211.938 279.856 211.173 279.932C209.78 280.16 207.862 280.502 205.759 280.984C203.656 281.467 201.782 282.002 200.424 282.406C199.702 282.667 198.961 282.869 198.207 283.011C198.875 282.638 199.583 282.344 200.318 282.134C202.066 281.513 203.847 280.991 205.654 280.572C207.46 280.158 209.288 279.847 211.129 279.642C211.89 279.514 212.663 279.467 213.434 279.502ZM212.321 283.222C209.926 283.935 207.488 284.498 205.023 284.906C202.586 285.468 200.116 285.881 197.629 286.143C200.028 285.434 202.468 284.871 204.935 284.459C207.37 283.898 209.836 283.485 212.321 283.222Z" fill="#EB996E"/>
<path d="M195.132 246.197L207.354 286.485C207.423 286.71 207.557 286.908 207.74 287.055C207.923 287.202 208.145 287.291 208.379 287.31L241.67 289.811C241.965 289.831 242.242 289.962 242.443 290.179C242.645 290.396 242.757 290.681 242.756 290.978V293.057C242.756 293.212 242.725 293.366 242.665 293.51C242.605 293.653 242.517 293.783 242.406 293.891C242.295 294 242.163 294.086 242.019 294.143C241.874 294.2 241.72 294.227 241.565 294.224L150.452 292.469C150.219 292.465 149.992 292.391 149.802 292.256C149.611 292.122 149.465 291.933 149.383 291.715L133.368 249.698C133.301 249.525 133.276 249.339 133.295 249.155C133.314 248.97 133.377 248.793 133.478 248.638C133.579 248.483 133.716 248.354 133.876 248.262C134.037 248.17 134.217 248.118 134.402 248.11L193.897 245.329C194.172 245.305 194.446 245.379 194.672 245.538C194.898 245.697 195.061 245.93 195.132 246.197Z" fill="#999C9D"/>
<path d="M169.463 263.551C169.016 263.718 168.618 263.992 168.303 264.35C167.988 264.709 167.767 265.139 167.658 265.604C167.618 266.089 167.706 266.577 167.913 267.017C168.121 267.458 168.441 267.836 168.841 268.113C169.321 268.461 169.894 268.659 170.487 268.681C171.079 268.702 171.665 268.548 172.17 268.236C172.676 267.86 173.039 267.321 173.198 266.71C173.358 266.099 173.304 265.452 173.046 264.876C172.643 263.761 170.61 262.981 169.436 263.551" fill="#E0E0E0"/>
<path d="M184.215 352.777L174.578 336.914L245.366 281.351C249.77 277.733 255.157 275.524 260.829 275.008C264.962 274.631 269.126 275.165 273.031 276.572C276.936 277.978 280.486 280.223 283.433 283.149C286.38 286.075 288.651 289.611 290.089 293.509C291.527 297.407 292.095 301.573 291.755 305.715L290.625 319.27L243.684 334.422L184.215 352.777Z" fill="#2A102B"/>
<path d="M274.997 315.121C274.997 315.121 274.944 315.183 274.813 315.297L274.235 315.77L271.983 317.578L270.345 318.867C269.749 319.341 269.039 319.745 268.312 320.298L265.964 321.912C265.544 322.193 265.088 322.5 264.676 322.789L263.266 323.667C261.347 324.816 259.271 326.132 256.914 327.325C255.749 327.939 254.558 328.606 253.305 329.229L249.389 331.08C243.546 333.76 237.572 336.144 231.49 338.222C218.559 342.688 206.609 345.899 198.05 348.496C195.904 349.128 193.968 349.724 192.268 350.251C190.568 350.777 189.114 351.224 187.887 351.628L185.154 352.505L184.436 352.725C184.353 352.754 184.268 352.775 184.182 352.786L184.418 352.681L185.119 352.418L187.835 351.444C189.009 351.014 190.463 350.566 192.163 349.987C193.862 349.408 195.781 348.812 197.919 348.162C206.461 345.478 218.402 342.223 231.306 337.766C237.772 335.564 243.791 333.107 249.179 330.677L253.086 328.843C254.347 328.229 255.539 327.571 256.704 326.965C259.061 325.79 261.137 324.491 263.064 323.368L264.475 322.535C264.922 322.254 265.351 321.956 265.772 321.657L268.216 320.069C268.943 319.569 269.653 319.139 270.257 318.674L271.913 317.411L274.217 315.656L274.83 315.218L274.997 315.121Z" fill="#455A64"/>
<path d="M276.713 322.536C276.496 322.696 276.257 322.823 276.003 322.913C275.53 323.124 274.838 323.414 273.971 323.729C271.708 324.565 269.389 325.239 267.032 325.747C264.672 326.252 262.281 326.592 259.874 326.765C258.954 326.826 258.201 326.853 257.684 326.853C257.415 326.873 257.144 326.858 256.878 326.809C257.861 326.632 258.852 326.509 259.848 326.44C261.67 326.239 264.228 325.888 266.936 325.3C269.643 324.712 272.113 323.993 273.865 323.431C274.798 323.081 275.748 322.783 276.713 322.536ZM242.545 284.02C242.624 284.125 227.477 296.049 208.711 310.648C189.945 325.247 174.666 337.021 174.596 336.916C174.526 336.811 189.665 324.896 208.43 310.288C227.196 295.68 242.475 283.924 242.545 284.02Z" fill="#455A64"/>
<path d="M238.428 342.978C235.038 341.17 231.227 342.241 227.976 343.338C225.813 344.066 223.596 345.224 221.371 344.601C219.785 344.153 218.602 342.846 217.385 341.75C214.928 339.487 212.044 337.74 208.902 336.611C205.76 335.483 202.425 334.995 199.092 335.178C197.189 335.27 195.391 336.082 194.063 337.45C190.725 341.074 193.24 345.777 196.227 348.856C201.55 354.274 208.578 357.683 216.123 358.507C222.334 359.156 230.876 358.296 237.149 355.594C241.03 353.927 243.019 349.339 240.986 345.636C240.413 344.518 239.523 343.593 238.428 342.978Z" fill="#6084A3"/>
<path opacity="0.4" d="M238.428 345.872C235.029 344.065 231.218 345.135 227.967 346.232C225.803 346.96 223.587 348.118 221.362 347.496C219.776 347.048 218.593 345.741 217.376 344.644C214.919 342.381 212.034 340.634 208.893 339.506C205.751 338.377 202.416 337.89 199.083 338.073C197.18 338.164 195.382 338.977 194.054 340.345C193.382 341.063 192.9 341.937 192.652 342.889C193.295 345.148 194.526 347.194 196.218 348.82C201.541 354.238 208.569 357.648 216.114 358.471C222.325 359.121 230.867 358.261 237.14 355.558C238.254 355.084 239.24 354.353 240.018 353.424C240.796 352.496 241.344 351.396 241.617 350.215C241.419 349.309 241.03 348.455 240.476 347.712C239.921 346.969 239.214 346.354 238.402 345.907L238.428 345.872Z" fill="black"/>
<path d="M241.669 350.18C241.522 349.461 241.239 348.776 240.837 348.162C240.35 347.466 239.734 346.871 239.023 346.407C238.087 345.773 237.016 345.365 235.895 345.214C233.381 344.916 230.455 345.978 227.213 346.855C225.61 347.285 223.858 347.934 221.957 347.732C220.996 347.608 220.071 347.285 219.241 346.785C218.415 346.269 217.635 345.682 216.911 345.03C214.268 342.514 211.094 340.625 207.624 339.503C206.125 338.993 204.578 338.634 203.007 338.432C201.642 338.235 200.255 338.235 198.89 338.432C197.773 338.601 196.698 338.976 195.718 339.538C194.984 339.964 194.32 340.499 193.747 341.126C192.871 342.222 192.547 342.968 192.494 342.933C192.766 342.238 193.144 341.59 193.616 341.012C194.162 340.322 194.819 339.729 195.56 339.257C196.561 338.644 197.671 338.233 198.828 338.046C200.222 337.839 201.639 337.839 203.033 338.046C204.632 338.238 206.208 338.588 207.738 339.09C209.427 339.652 211.058 340.375 212.609 341.249C213.436 341.706 214.229 342.222 214.983 342.793C215.745 343.389 216.455 344.039 217.191 344.67C217.896 345.319 218.655 345.907 219.46 346.425C220.236 346.887 221.097 347.185 221.992 347.302C223.744 347.539 225.496 346.925 227.1 346.504C230.332 345.627 233.302 344.6 235.939 344.942C236.958 345.089 237.935 345.451 238.805 346.003C239.674 346.555 240.418 347.285 240.986 348.145C241.284 348.615 241.498 349.135 241.616 349.68C241.651 349.844 241.669 350.012 241.669 350.18Z" fill="#263238"/>
<path d="M241.669 350.18C241.522 349.461 241.239 348.776 240.837 348.162C240.35 347.466 239.734 346.871 239.023 346.407C238.087 345.773 237.016 345.365 235.895 345.214C233.381 344.916 230.455 345.978 227.213 346.855C225.61 347.285 223.858 347.934 221.957 347.732C220.996 347.608 220.071 347.285 219.241 346.785C218.415 346.269 217.635 345.682 216.911 345.03C214.268 342.514 211.094 340.625 207.624 339.503C206.125 338.993 204.578 338.634 203.007 338.432C201.642 338.235 200.255 338.235 198.89 338.432C197.773 338.601 196.698 338.976 195.718 339.538C194.984 339.964 194.32 340.499 193.747 341.126C192.871 342.222 192.547 342.968 192.494 342.933C192.766 342.238 193.144 341.59 193.616 341.012C194.162 340.322 194.819 339.729 195.56 339.257C196.561 338.644 197.671 338.233 198.828 338.046C200.222 337.839 201.639 337.839 203.033 338.046C204.632 338.238 206.208 338.588 207.738 339.09C209.427 339.652 211.058 340.375 212.609 341.249C213.436 341.706 214.229 342.222 214.983 342.793C215.745 343.389 216.455 344.039 217.191 344.67C217.896 345.319 218.655 345.907 219.46 346.425C220.236 346.887 221.097 347.185 221.992 347.302C223.744 347.539 225.496 346.925 227.1 346.504C230.332 345.627 233.302 344.6 235.939 344.942C236.958 345.089 237.935 345.451 238.805 346.003C239.674 346.555 240.418 347.285 240.986 348.145C241.284 348.615 241.498 349.135 241.616 349.68C241.651 349.844 241.669 350.012 241.669 350.18Z" fill="#263238"/>
<path d="M199.557 349.357C200.091 348.889 200.679 348.485 201.309 348.155C202.763 347.275 204.263 346.472 205.803 345.751C207.343 345.025 208.919 344.377 210.525 343.812C211.179 343.545 211.861 343.354 212.558 343.242C211.947 343.593 211.304 343.887 210.639 344.12C209.439 344.62 207.792 345.322 205.996 346.164C204.2 347.006 202.614 347.831 201.467 348.436C200.862 348.806 200.222 349.115 199.557 349.357ZM200.757 352.762C202.895 351.473 205.11 350.316 207.389 349.296C209.604 348.142 211.885 347.122 214.222 346.243C212.084 347.531 209.869 348.689 207.59 349.708C205.377 350.866 203.095 351.886 200.757 352.762Z" fill="#263238"/>
<path d="M214.773 354.235C214.703 354.34 211.085 352.182 206.695 349.41C202.306 346.637 198.811 344.295 198.811 344.189C198.811 344.084 202.49 346.242 206.888 349.024C211.286 351.805 214.86 354.13 214.773 354.235ZM216.823 350.708C216.204 350.368 215.617 349.971 215.071 349.524C214.011 348.752 212.539 347.69 210.892 346.549C209.245 345.409 207.747 344.4 206.652 343.672C206.027 343.316 205.44 342.899 204.899 342.426C205.566 342.681 206.204 343.008 206.8 343.4C207.939 344.058 209.49 345.032 211.181 346.172C212.872 347.313 214.282 348.427 215.299 349.269C215.864 349.684 216.376 350.167 216.823 350.708Z" fill="#263238"/>
</g>
<defs>
<clipPath id="clip0_1398_2456">
<rect width="403" height="372" fill="white"/>
</clipPath>
</defs>
</svg>
